<svg width="180" height="180" viewBox="0 0 180 180" fill="none" xmlns="http://www.w3.org/2000/svg">
<path d="M23.38 158.28V24.65H88.41C88.41 25.02 88.41 25.4 88.41 25.78C88.41 34.81 88.41 43.85 88.41 52.88C88.41 55.74 89.79 57.12 92.67 57.12C101.74 57.12 110.8 57.12 119.87 57.12C120.17 57.12 120.46 57.12 120.85 57.12V107.81C117.07 109 113.34 110.17 109.68 111.31C109.77 111.03 109.97 110.57 110.04 110.09C110.4 107.81 108.8 105.96 106.41 105.93C103.33 105.89 100.25 105.91 97.18 105.9C85.87 105.9 74.56 105.9 63.25 105.91C62.6 105.91 61.9 106.01 61.31 106.27C59.74 106.96 58.93 108.72 59.31 110.35C59.68 111.94 61.11 113.11 62.82 113.12C67.97 113.14 73.13 113.12 78.28 113.12C87.55 113.12 96.82 113.12 106.08 113.12C106.2 113.12 106.32 113.16 106.53 113.19C105.15 114.22 103.83 115.15 102.56 116.15C97.27 120.34 93.47 125.64 91.05 131.92C90.71 132.8 90.29 133.03 89.39 133.03C80.59 132.99 71.79 133.01 62.99 133.01C61.3 133.01 59.96 133.95 59.44 135.44C58.92 136.95 59.33 138.62 60.66 139.45C61.38 139.9 62.33 140.19 63.18 140.2C71.28 140.25 79.37 140.22 87.47 140.21C87.86 140.21 88.26 140.21 88.78 140.21C87.91 146.42 88.56 152.37 90.57 158.26H23.38V158.28ZM84.47 78.83C84.47 78.83 84.47 78.82 84.47 78.81C77.31 78.81 70.16 78.81 63 78.82C62.44 78.82 61.85 78.87 61.34 79.07C59.71 79.7 58.79 81.44 59.11 83.13C59.44 84.88 60.97 86.05 62.9 86.05C71.56 86.05 80.22 86.05 88.88 86.04C94.7 86.04 100.52 86.03 106.34 86.02C107.46 86.02 108.46 85.68 109.2 84.81C110.17 83.66 110.42 82.34 109.81 80.97C109.16 79.51 107.93 78.84 106.35 78.84C99.06 78.84 91.77 78.84 84.48 78.84L84.47 78.83ZM42.96 133.14C42.11 132.26 41.35 131.46 40.59 130.68C38.97 129.03 36.73 128.91 35.24 130.39C33.74 131.86 33.81 134.11 35.43 135.74C37.13 137.45 38.85 139.14 40.55 140.83C42.23 142.5 44.44 142.48 46.01 140.68C49.63 136.52 53.23 132.33 56.79 128.11C57.24 127.58 57.56 126.83 57.65 126.14C57.88 124.44 56.95 122.96 55.45 122.36C53.99 121.78 52.29 122.25 51.2 123.53C48.51 126.68 45.81 129.82 42.97 133.13L42.96 133.14ZM42.94 78.91C42.05 77.99 41.27 77.16 40.47 76.35C38.89 74.77 36.66 74.72 35.2 76.21C33.73 77.71 33.81 79.9 35.4 81.48C37.11 83.18 38.82 84.87 40.52 86.57C42.28 88.32 44.47 88.25 46.11 86.35C49.65 82.25 53.18 78.14 56.7 74.03C58.17 72.31 58.01 70.05 56.35 68.69C54.76 67.4 52.53 67.72 51.1 69.42C49.62 71.19 48.11 72.94 46.61 74.69C45.44 76.05 44.25 77.41 42.95 78.9L42.94 78.91ZM42.9 106.07C42.04 105.14 41.33 104.25 40.48 103.51C39.87 102.99 39.11 102.5 38.35 102.33C36.79 101.97 35.29 102.8 34.58 104.17C33.83 105.62 34.05 107.21 35.24 108.42C37 110.21 38.79 111.96 40.57 113.73C42.25 115.4 44.46 115.37 46.02 113.57C49.64 109.41 53.23 105.22 56.8 101.02C58.18 99.39 57.96 97.14 56.39 95.83C54.84 94.54 52.59 94.8 51.2 96.43C49.73 98.16 48.26 99.89 46.78 101.62C45.56 103.04 44.33 104.44 42.92 106.07H42.9Z" stroke="black" stroke-width="4" stroke-miterlimit="10"/>
<path d="M126.5 114.94C142.86 114.77 156.89 128.62 157.07 145.11C157.25 162.18 143.73 176.21 126.92 176.4C109.72 176.59 95.77 163.05 95.61 145.98C95.44 128.81 109.07 115.12 126.51 114.94H126.5Z" stroke="black" stroke-width="4" stroke-miterlimit="10"/>
<path d="M95.64 49.83V25.07C103.89 33.32 112.17 41.61 120.38 49.83H95.64Z" stroke="black" stroke-width="4" stroke-miterlimit="10"/>
<path d="M122.19 152.88H137.37V157.21H122.17V165.9H117.83V157.24H113.5V152.89H117.81V126.82C117.92 126.81 118.02 126.79 118.11 126.79C122.18 126.79 126.25 126.77 130.32 126.8C132.44 126.82 134.5 127.21 136.41 128.19C139.44 129.74 141.09 132.27 141.59 135.59C141.93 137.86 141.78 140.1 140.92 142.25C139.77 145.11 137.61 146.87 134.73 147.81C133.28 148.28 131.79 148.5 130.28 148.51C127.74 148.53 125.21 148.51 122.67 148.52C122.53 148.52 122.38 148.52 122.21 148.52V152.88H122.19ZM122.19 144.16C122.27 144.16 122.33 144.17 122.39 144.17C125.02 144.17 127.66 144.2 130.29 144.15C131.2 144.13 132.12 144 133.01 143.79C135.15 143.27 136.61 141.99 137.15 139.8C137.43 138.67 137.46 137.53 137.31 136.38C137.01 134.01 135.78 132.39 133.48 131.64C132.39 131.28 131.27 131.14 130.13 131.14C127.58 131.13 125.03 131.14 122.48 131.14C122.39 131.14 122.29 131.14 122.18 131.14V144.17L122.19 144.16Z" fill="black"/>
</svg>
