<svg width="181" height="180" viewBox="0 0 181 180" fill="none" xmlns="http://www.w3.org/2000/svg">
<path d="M180.26 154.86C175.12 154.86 170.04 154.86 164.97 154.86C145.2 154.86 125.42 154.86 105.65 154.83C104.69 154.83 104.2 155.1 103.71 155.93C101.26 160.2 97.55 162.57 92.59 162.52C87.73 162.47 84.11 160.07 81.73 155.87C81.26 155.03 80.76 154.83 79.88 154.83C55.37 154.85 30.87 154.85 6.35999 154.85C5.98999 154.85 5.60998 154.85 5.16998 154.85V28.56H17.99V20.83C18.54 20.83 18.98 20.83 19.41 20.83C40.75 20.83 62.08 20.89 83.42 20.8C87.08 20.78 90.18 21.6399 92.72 24.4699C94.31 22.7199 96.15 21.49 98.42 21.05C99.13 20.91 99.85 20.84 100.57 20.84C122.48 20.84 144.39 20.84 166.3 20.84C166.63 20.84 166.97 20.84 167.4 20.84V28.4699H180.24V154.84L180.26 154.86ZM162.26 136.79V25.96C161.98 25.96 161.79 25.96 161.6 25.96C148.77 25.96 135.95 25.96 123.12 25.96C115.68 25.96 108.23 25.96 100.79 25.96C98.22 25.96 96.21 27.39 95.56 29.61C95.41 30.11 95.32 30.63 95.21 31.13H90.27C89.23 26.99 87.9 25.9699 83.58 25.9699C64.07 25.9699 44.57 25.96 25.06 25.95C24.46 25.95 23.86 25.95 23.19 25.95V136.79C23.73 136.79 24.22 136.79 24.7 136.79C44.66 136.79 64.63 136.79 84.59 136.77C87.54 136.77 90.01 137.78 92.1 139.82C92.31 140.03 92.55 140.21 92.79 140.41C95.06 137.83 97.87 136.76 101.24 136.76C117.62 136.8 133.99 136.78 150.37 136.78H162.25L162.26 136.79ZM17.99 141.95V33.8H10.37V149.64C10.87 149.64 11.29 149.64 11.71 149.64C35.53 149.64 59.35 149.65 83.17 149.6C84.52 149.6 84.98 149.99 85.24 151.25C85.77 153.78 87.24 155.69 89.65 156.72C94.21 158.67 98.91 156.26 100.26 151.34C100.81 149.34 100.27 149.64 102.49 149.64C126.23 149.64 149.97 149.64 173.72 149.64H175.13V33.79H167.43V141.96C163.54 141.96 159.77 141.96 155.99 141.96C137.59 141.96 119.19 141.96 100.8 141.96C98.36 141.96 96.51 143.12 95.74 145.16C95.51 145.76 95.4 146.4 95.22 147.07H90.33C89.51 142.77 87.01 141.92 83.73 141.93C62.43 141.99 41.13 141.96 19.83 141.96H18.01L17.99 141.95Z" fill="black"/>
<path d="M123.7 113.59V108.44H126.14V77.52H123.74V72.44H136.46V108.35H139.07V113.59H123.7Z" fill="black"/>
<path d="M123.66 54.28C123.7 49.99 127.26 46.49 131.49 46.56C135.64 46.63 139.21 50.21 139.14 54.25C139.06 58.65 135.57 62.14 131.29 62.09C127.1 62.05 123.62 58.48 123.67 54.28H123.66Z" fill="black"/>
<path d="M90.19 38.84C90.2 37.46 91.35 36.28 92.72 36.26C94.16 36.24 95.3 37.42 95.29 38.89C95.28 40.3 94.15 41.46 92.78 41.47C91.37 41.47 90.18 40.27 90.19 38.83V38.84Z" fill="black"/>
<path d="M95.29 80.1C95.29 81.53 94.19 82.67 92.8 82.7C91.39 82.73 90.18 81.53 90.18 80.09C90.18 78.65 91.39 77.45 92.8 77.49C94.19 77.53 95.29 78.68 95.29 80.1Z" fill="black"/>
<path d="M95.29 121.36C95.28 122.77 94.15 123.93 92.78 123.94C91.37 123.94 90.18 122.74 90.19 121.3C90.2 119.92 91.36 118.74 92.72 118.72C94.16 118.7 95.3 119.88 95.29 121.35V121.36Z" fill="black"/>
<path d="M90.2 49.18C90.2 47.76 91.3 46.61 92.69 46.57C94.09 46.54 95.31 47.76 95.31 49.18C95.31 50.61 94.09 51.82 92.69 51.79C91.31 51.76 90.2 50.59 90.21 49.18H90.2Z" fill="black"/>
<path d="M90.2 69.76C90.21 68.34 91.33 67.18 92.71 67.18C94.13 67.18 95.31 68.38 95.3 69.82C95.29 71.19 94.13 72.38 92.77 72.4C91.35 72.42 90.19 71.24 90.2 69.77V69.76Z" fill="black"/>
<path d="M95.3 90.36C95.32 91.79 94.13 93.03 92.73 93.01C91.33 92.99 90.22 91.87 90.2 90.45C90.18 89.03 91.26 87.85 92.64 87.8C94.05 87.74 95.27 88.93 95.3 90.36Z" fill="black"/>
<path d="M95.3 111.02C95.3 112.45 94.09 113.66 92.69 113.63C91.31 113.6 90.2 112.45 90.2 111.03C90.2 109.62 91.3 108.45 92.68 108.42C94.09 108.38 95.3 109.58 95.3 111.02Z" fill="black"/>
<path d="M95.31 131.57C95.34 133.01 94.17 134.23 92.76 134.24C91.39 134.26 90.23 133.1 90.21 131.7C90.19 130.23 91.33 129.03 92.75 129.03C94.11 129.03 95.29 130.2 95.32 131.57H95.31Z" fill="black"/>
<path d="M95.29 59.44C95.31 60.91 94.16 62.11 92.74 62.09C91.37 62.08 90.21 60.92 90.19 59.53C90.17 58.09 91.34 56.88 92.76 56.88C94.14 56.88 95.28 58.03 95.3 59.44H95.29Z" fill="black"/>
<path d="M95.29 100.71C95.29 102.13 94.2 103.28 92.81 103.32C91.41 103.36 90.19 102.15 90.19 100.72C90.19 99.28 91.39 98.08 92.8 98.11C94.18 98.14 95.29 99.29 95.29 100.71Z" fill="black"/>
</svg>
