<svg width="180" height="180" viewBox="0 0 180 180" fill="none" xmlns="http://www.w3.org/2000/svg">
<path d="M82.29 154.38C81.45 154.29 80.62 154.15 79.78 154.11C66.57 153.5 53.51 151.91 40.79 148.14C34.93 146.4 29.23 144.25 24.27 140.56C23.03 139.64 21.83 138.59 20.81 137.43C16.43 132.39 16.93 126.16 22.01 121.42C25.92 117.76 30.67 115.56 35.61 113.72C43.67 110.73 52.05 109.08 60.52 107.83C61.27 107.72 62.01 107.59 62.96 107.44C62.61 106.89 62.33 106.42 62.02 105.97C56.26 97.6499 50.81 89.1299 46.49 79.9499C43.69 73.9999 41.13 67.92 40.59 61.27C39.96 53.54 41.43 46.11 44.52 39.03C48.85 29.11 55.72 21.39 65.06 15.88C72.77 11.33 81.15 9.06996 90.06 9.10996C100.91 9.14996 110.8 12.36 119.53 18.89C129.04 26.01 135.22 35.3499 138.18 46.8499C140.59 56.1999 139.83 65.26 136.13 74.17C131.85 84.48 126.16 93.9799 119.92 103.19C119.02 104.52 118.13 105.84 117.09 107.37C119.39 107.73 121.51 108.03 123.62 108.39C133 109.99 142.26 112.02 150.87 116.28C154.2 117.92 157.29 119.9 159.74 122.76C163.89 127.61 163.52 133.81 158.92 138.27C154.88 142.18 149.97 144.54 144.8 146.44C134.39 150.25 123.56 152.15 112.58 153.22C108.21 153.65 103.81 153.84 99.43 154.15C99.02 154.18 98.61 154.3 98.19 154.37H82.3L82.29 154.38ZM88.57 148.15C100.05 148.14 109.9 147.57 119.69 146.12C128.58 144.8 137.34 142.93 145.66 139.37C149.01 137.94 152.27 136.3 154.79 133.55C156.9 131.25 156.95 129.12 154.91 126.75C154.3 126.04 153.58 125.4 152.84 124.83C148.25 121.32 142.9 119.44 137.46 117.84C130.2 115.69 122.74 114.51 115.25 113.45C113.35 113.18 112.43 113.79 111.33 115.18C105.31 122.83 99.19 130.4 93.07 137.97C91.02 140.5 89.06 140.53 87.02 138.01C80.63 130.11 74.29 122.17 67.94 114.24C67.49 113.68 67.18 113.17 66.25 113.33C62.71 113.93 59.14 114.35 55.61 114.97C48.02 116.31 40.54 118.09 33.5 121.36C30.45 122.78 27.48 124.37 25.32 127.07C23.59 129.23 23.61 131.29 25.5 133.31C26.62 134.5 27.91 135.59 29.29 136.47C34.6 139.88 40.55 141.76 46.6 143.3C60.89 146.95 75.47 148.06 88.57 148.15ZM90.19 132.32C97.11 123.31 103.98 114.7 110.48 105.82C117.99 95.5499 124.73 84.7999 129.87 73.0899C133.88 63.9599 134.46 54.7499 131.26 45.3399C127.19 33.3699 119.47 24.55 107.95 19.29C96.32 13.98 84.46 13.87 72.77 18.96C60.88 24.14 52.82 33.08 48.76 45.41C46.37 52.68 45.69 60.07 48.15 67.54C50.15 73.62 52.88 79.37 56.02 84.93C63.08 97.43 71.5 109.01 80.38 120.26C83.48 124.19 86.69 128.03 90.18 132.32H90.19Z" fill="black" stroke="white" stroke-miterlimit="10"/>
<path d="M90.08 94.6999C70.43 94.8699 54.08 78.57 54 58.72C53.92 39.03 70.05 22.83 89.87 22.7C109.6 22.57 125.81 38.5999 126 58.4399C126.19 78.2599 110.08 94.5199 90.08 94.6999ZM89.82 88.48C106.44 88.45 119.44 75.2301 119.76 59.3101C120.09 42.9101 107.05 29.3 90.63 28.95C74.07 28.6 60.43 41.71 60.26 58.5C60.09 74.68 72.95 88.18 89.81 88.49L89.82 88.48Z" fill="black" stroke="white" stroke-miterlimit="10"/>
<path d="M108.33 43.66C107.71 44.72 107.39 45.65 106.77 46.28C97.08 56.03 87.36 65.75 77.62 75.45C76.1 76.96 74.24 76.9901 72.96 75.6701C71.65 74.3201 71.79 72.52 73.4 70.91C80.4 63.88 87.43 56.88 94.44 49.86C97.05 47.25 99.64 44.6401 102.26 42.0501C103.6 40.7201 105.13 40.31 106.3 41.19C107.09 41.78 107.6 42.7601 108.32 43.6701L108.33 43.66Z" fill="black" stroke="white" stroke-miterlimit="10"/>
<path d="M69.72 47.9301C69.67 42.7201 73.85 38.45 79.09 38.35C84.26 38.25 88.7 42.65 88.71 47.86C88.71 53.03 84.42 57.33 79.23 57.34C74 57.36 69.77 53.1701 69.72 47.9201V47.9301ZM79.19 51.1C80.97 51.1 82.46 49.62 82.46 47.86C82.46 46.13 80.93 44.59 79.2 44.59C77.45 44.59 75.96 46.08 75.96 47.85C75.96 49.66 77.39 51.1 79.19 51.1Z" fill="black" stroke="white" stroke-miterlimit="10"/>
<path d="M100.86 78.98C95.64 79 91.38 74.7801 91.35 69.5601C91.32 64.3201 95.69 59.93 100.88 59.99C106.07 60.05 110.36 64.36 110.35 69.51C110.34 74.7 106.08 78.95 100.86 78.97V78.98ZM100.8 72.73C102.58 72.75 104.08 71.31 104.1 69.54C104.13 67.82 102.61 66.26 100.87 66.24C99.12 66.21 97.61 67.69 97.59 69.47C97.57 71.27 98.99 72.72 100.8 72.74V72.73Z" fill="black" stroke="white" stroke-miterlimit="10"/>
</svg>
