<svg width="180" height="180" viewBox="0 0 180 180" fill="none" xmlns="http://www.w3.org/2000/svg">
<path d="M155.39 120.48C154.84 119.3 154.32 118.18 153.8 117.07C153.36 116.13 153.35 116.13 152.4 116.59C151.08 117.23 149.76 117.86 148.46 118.54C148.17 118.69 147.87 119.01 147.79 119.31C147.18 121.47 146.18 123.4 144.46 124.89C144.1 125.2 144.21 125.5 144.34 125.87C144.69 126.88 145.18 127.89 145.31 128.93C145.8 132.78 144.27 135.78 141.09 137.91C138.77 139.46 136.19 139.74 133.52 139.04C132.92 138.88 132.73 139.05 132.55 139.59C131.41 143.14 129 145.35 125.39 146.19C123.59 146.61 121.79 146.45 120.06 145.78C119.53 145.57 119.29 145.69 119.11 146.24C117.59 150.93 112.69 153.68 107.88 152.54C107.3 152.4 107.02 152.56 106.74 153.07C104.47 157.2 99.08 159.44 94.44 156.96C91.94 155.62 89.57 154.05 87.14 152.58C86.4 152.13 86.39 152.13 85.92 152.86C85.39 153.66 84.93 154.53 84.3 155.24C82.13 157.66 79.37 158.06 76.38 157.29C74.03 156.68 72.15 155.35 71 153.14C70.71 152.58 70.34 152.83 69.96 152.98C65.58 154.71 60.25 152.72 58.15 148.53C57.8 147.83 57.61 147.03 57.44 146.25C57.32 145.7 57.16 145.48 56.54 145.56C52.79 146.06 48.32 143.74 46.66 140.39C46.28 139.63 46.11 138.75 45.94 137.91C45.85 137.45 45.74 137.24 45.23 137.22C41.21 137.02 37.72 133.98 37.04 130.05C36.69 127.97 37.24 126.06 38.29 124.26C38.55 123.8 38.8 123.34 39.1 122.9C39.36 122.51 39.31 122.24 38.94 121.98C37.44 120.93 36.24 119.6 35.14 118.14C34.8 117.69 34.14 117.46 33.59 117.21C31.67 116.36 32.06 116.19 31.16 118.08C30.79 118.86 30.42 119.64 30.02 120.49C28.86 119.96 27.76 119.45 26.66 118.95C20.76 116.21 14.87 113.47 8.96004 110.75C8.38004 110.48 8.30003 110.24 8.57003 109.67C14.45 97.0601 20.31 84.4301 26.17 71.8101C27.77 68.3601 29.39 64.93 30.97 61.47C31.23 60.89 31.49 60.87 32.01 61.11C38.82 64.28 45.63 67.44 52.45 70.58C52.92 70.8 53.06 71 52.8 71.51C52.28 72.53 51.85 73.59 51.34 74.62C51.1101 75.09 51.15 75.35 51.67 75.57C53.67 76.43 55.61 77.4301 57.65 78.1701C59.68 78.9101 61.86 79.04 63.95 78.5C65.84 78.01 67.66 77.22 69.49 76.51C69.73 76.42 69.97 76.03 70 75.75C70.2 73.72 70.4 71.7001 71.22 69.7901C72.7 66.3601 75.2 64.3501 78.96 63.8101C85.4 62.8901 91.8501 62.5601 98.34 62.8001C101.82 62.9201 105.09 63.98 108.25 65.36C115.34 68.45 121.94 72.3701 127.83 77.4101C128.14 77.6801 128.42 77.78 128.82 77.58C130.42 76.78 132.02 75.99 133.63 75.21C134.08 74.99 134.17 74.7501 133.94 74.3001C133.48 73.3801 133.08 72.43 132.62 71.5C132.4 71.07 132.42 70.82 132.91 70.59C139.73 67.44 146.54 64.29 153.35 61.11C153.93 60.84 154.21 60.91 154.49 61.51C158.65 70.51 162.83 79.49 167.01 88.48C169.92 94.75 172.84 101.01 175.76 107.28C176.16 108.13 176.53 108.99 176.94 109.84C177.14 110.24 177.05 110.45 176.65 110.64C173.07 112.28 169.5 113.94 165.93 115.6C162.73 117.08 159.54 118.57 156.34 120.05C156.07 120.17 155.79 120.28 155.41 120.45L155.39 120.48ZM69.97 80.47C69.84 80.44 69.79 80.4101 69.75 80.4301C69.02 80.7101 68.31 81.0101 67.58 81.2801C63.24 82.8501 58.94 82.8801 54.7 80.9101C53.31 80.2601 51.9 79.6501 50.5 79.0401C49.5 78.6001 49.49 78.61 49.04 79.58C44.94 88.4 40.84 97.2201 36.74 106.05C35.77 108.15 34.79 110.24 33.82 112.34C33.45 113.15 33.46 113.16 34.24 113.5C34.91 113.8 35.57 114.11 36.25 114.38C37.05 114.69 37.58 115.25 38.11 115.92C38.99 117.02 40.03 117.99 41.02 118.99C41.43 119.4 41.81 119.35 42.25 118.9C43.16 117.97 44.12 117.08 45.1 116.22C46.19 115.27 47.46 114.66 48.92 114.48C52.79 114 56.28 116.61 57.66 119.86C58.05 120.78 58.05 120.78 58.88 120.24C58.92 120.22 58.95 120.19 58.99 120.16C63.92 116.97 69.95 118.91 71.87 123.62C72.06 124.08 72.3 124.11 72.72 123.89C74.1 123.15 75.58 122.88 77.16 122.93C81.35 123.06 85.07 126.8 85.1 130.99C85.1067 132.01 85.6133 132.62 86.62 132.82C91.67 133.83 94.24 138.77 91.98 143.38C91.11 145.16 89.9 146.77 88.81 148.43C88.5 148.91 88.54 149.19 89.02 149.48C89.73 149.9 90.41 150.37 91.12 150.79C92.89 151.84 94.6 153.02 96.46 153.88C99.15 155.14 102.43 153.76 103.7 151.07C103.94 150.56 103.92 150.2 103.49 149.8C101.95 148.36 100.44 146.89 98.91 145.45C97.88 144.48 96.81 143.53 95.79 142.56C95.2 142 95.19 141.28 95.47 140.58C95.74 139.91 96.32 139.49 97.04 139.6C97.57 139.68 98.18 139.88 98.56 140.24C101.34 142.79 104.06 145.42 106.84 147.98C107.29 148.4 107.88 148.76 108.46 148.93C112 149.98 115.6 147.51 115.97 143.82C116.03 143.22 115.92 142.72 115.48 142.25C112.71 139.3 110 136.28 107.18 133.37C104.95 131.07 102.58 128.9 100.28 126.67C99.59 126 99.44 125.08 99.87 124.36C100.31 123.63 101.17 123.29 102.02 123.59C102.37 123.71 102.71 123.96 102.98 124.22C105.11 126.26 107.29 128.26 109.34 130.39C112.59 133.77 115.76 137.24 118.94 140.69C120.5 142.38 122.39 143.11 124.63 142.65C126.9 142.19 128.41 140.75 129.09 138.54C129.37 137.64 129.6 136.74 128.82 135.84C122.64 128.68 116.44 121.53 109.34 115.25C108.43 114.45 108.32 113.38 109 112.58C109.69 111.78 110.86 111.74 111.75 112.54C113.11 113.76 114.48 114.98 115.79 116.26C121.36 121.71 126.54 127.52 131.54 133.49C132.89 135.1 134.49 135.86 136.57 135.76C139.94 135.59 142.54 132.06 141.56 128.84C141.25 127.8 140.78 126.77 140.18 125.87C138.43 123.24 136.65 120.63 134.75 118.1C129.26 110.76 123.02 104.1 116.25 97.9301C111.44 93.5501 106.46 89.3701 101.01 85.7901C97.65 83.5901 94.14 81.66 90.39 80.2C89.72 79.94 89.61 80.03 89.47 80.72C89.11 82.58 88.75 84.4501 88.37 86.3101C88.04 87.9001 87.66 89.4801 86.84 90.9101C84.2501 95.4601 78.71 97.45 74.1 96.61C71.63 96.16 70.15 95 70.2 92.02C70.26 88.43 70.12 84.83 70.07 81.24C70.07 80.98 70.01 80.72 69.98 80.49L69.97 80.47ZM73.67 83.7801C73.67 83.7801 73.77 83.7801 73.82 83.7801C73.82 86.4601 73.81 89.14 73.82 91.82C73.82 92.75 74 93.0201 74.93 93.0501C76.08 93.0901 77.28 93.08 78.4 92.83C81.43 92.15 83.59 90.3 84.35 87.27C85.15 84.13 85.67 80.92 86.24 77.72C86.55 75.98 87.37 75.37 89.04 75.89C94.51 77.6 99.48 80.3301 104.19 83.5401C110.6 87.9101 116.45 92.98 122.03 98.36C129.34 105.4 135.96 113.04 141.67 121.44C142.11 122.08 142.25 122.09 142.73 121.51C143.66 120.39 144.2 119.08 144.4 117.65C144.52 116.79 144.9 116.22 145.67 115.85C147.4 115.02 149.12 114.16 150.85 113.31C151.84 112.83 151.84 112.82 151.37 111.83C146.29 100.89 141.2 89.96 136.13 79.01C135.86 78.42 135.6 78.28 135 78.59C132.98 79.62 130.93 80.59 128.9 81.6C128.05 82.02 127.3 81.88 126.62 81.26C126.19 80.88 125.79 80.47 125.36 80.1C120.39 75.83 114.83 72.51 108.96 69.64C104.13 67.28 99.09 66.1201 93.7 66.3101C88.96 66.4801 84.24 66.7901 79.54 67.4101C76.95 67.7501 75.35 69.16 74.46 71.52C73.77 73.35 73.68 75.27 73.68 77.2C73.68 79.4 73.68 81.6001 73.68 83.7901L73.67 83.7801ZM66.61 149.96C68.6 150.01 69.99 149.03 71.04 147.43C72.51 145.19 73.96 142.94 75.5 140.75C77.07 138.53 78.73 136.37 80.37 134.19C81.72 132.39 81.83 130.35 80.63 128.65C79.37 126.86 77.21 126.03 75.21 126.81C74.24 127.19 73.35 127.88 72.58 128.6C71.71 129.43 70.98 130.42 70.25 131.39C67.4 135.14 64.54 138.89 61.74 142.69C60.57 144.28 60.72 146.33 61.97 147.78C63.19 149.19 64.74 149.91 66.6 149.96H66.61ZM55.5 141.97C56.76 142.01 57.87 141.7 58.66 140.65C61.79 136.53 64.91 132.42 68.02 128.29C68.24 128 68.44 127.68 68.56 127.35C69.1 125.85 68.44 124.16 66.96 123.11C65.17 121.85 62.8 121.78 60.88 123.31C59.03 124.78 57.29 126.44 55.74 128.23C53.79 130.49 52.06 132.95 50.29 135.36C49.15 136.91 49.33 138.52 50.7 139.88C52.02 141.19 53.62 141.89 55.49 141.95L55.5 141.97ZM84.75 136.24C83.87 136.19 83.06 136.53 82.48 137.36C79.79 141.21 77.1 145.05 74.44 148.91C73.76 149.9 73.81 150.94 74.5 151.93C75.17 152.89 76.13 153.46 77.23 153.79C79.24 154.38 81.1 153.92 82.23 151.94C83.19 150.25 84.32 148.66 85.38 147.02C86.44 145.39 87.55 143.79 88.55 142.12C89.11 141.19 89.41 140.14 89.04 139.03C88.5 137.42 86.76 136.26 84.75 136.24ZM54.61 122.89C54.59 121.03 53.28 119.2 51.43 118.39C50.13 117.82 48.85 117.88 47.74 118.78C45.06 120.96 42.78 123.48 41.17 126.6C40 128.87 40.89 130.93 42.22 132.21C44.32 134.23 46.79 134.05 48.52 131.73C48.6 131.62 48.68 131.51 48.77 131.4C50.47 129.19 52.16 126.97 53.87 124.77C54.33 124.17 54.67 123.55 54.62 122.89H54.61Z" fill="black"/>
</svg>
