<svg width="76" height="76" viewBox="0 0 76 76" fill="none" xmlns="http://www.w3.org/2000/svg">
<path d="M38.2099 0.920044C17.5599 0.920044 0.809998 17.6599 0.809998 38.3199C0.809998 58.9799 17.5499 75.72 38.2099 75.72C58.8699 75.72 75.6099 58.9799 75.6099 38.3199C75.6099 17.6599 58.8699 0.920044 38.2099 0.920044ZM58.02 21.28L49.9999 54.3101C49.6199 55.8701 47.8799 56.6701 46.4499 55.9301L36.31 50.7L31.52 58.54C30.22 60.68 26.92 59.75 26.92 57.25V48.51C26.92 47.83 27.1999 47.19 27.6899 46.72L47.4399 27.86C47.4199 27.62 47.17 27.42 46.92 27.59L23.3499 44L15.43 39.91C13.58 38.95 13.6499 36.2601 15.5699 35.4301L54.6199 18.41C56.4899 17.59 58.5 19.27 58.0099 21.27L58.02 21.28Z" fill="#D1AB8C"/>
</svg>
