<?xml version="1.0" encoding="utf-8"?>
<!-- Generator: Adobe Illustrator 24.0.3, SVG Export Plug-In . SVG Version: 6.00 Build 0)  -->
<svg version="1.1" id="Слой_1" xmlns="http://www.w3.org/2000/svg" xmlns:xlink="http://www.w3.org/1999/xlink" x="0px" y="0px"
	 viewBox="0 0 215.9 43" style="enable-background:new 0 0 215.9 43;" xml:space="preserve">
<style type="text/css">
	.st0{fill:#fff;}
</style>
<title>Logo_glc</title>
<path class="st0" d="M44,0.7v23.4h13.4v6H37.3V0.7H44z"/>
<path class="st0" d="M67.7,0.7v29.4h-6.7V0.7H67.7z"/>
<path class="st0" d="M79.7,0.7l17.6,19.8V0.7h6.6v29.4h-6.3L80,10.3v19.9h-6.6V0.7H79.7z"/>
<path class="st0" d="M133.8,10.9c-2.2-3.2-5.2-4.9-9.8-4.9c-5.9,0-9.7,3.7-9.7,9.5s4,9.5,9.7,9.5c4.7,0,7.6-1.8,9.8-5l5.2,3
	c-3,5.2-8,7.9-14.9,7.9c-9.4,0-16.5-5.9-16.5-15.4S114.8,0,124,0c6.9,0,11.9,2.7,14.9,7.9L133.8,10.9z"/>
<path class="st0" d="M156.7,30.9c-8.9,0-16.5-6.2-16.5-15.4S147.8,0,156.7,0c9,0,16.5,6.2,16.5,15.4S165.7,30.9,156.7,30.9z
	 M156.7,25.2c5.5,0,9.9-3.7,9.9-9.7s-4.3-9.8-9.9-9.8s-9.9,3.7-9.9,9.8S151.2,25.2,156.7,25.2z"/>
<path class="st0" d="M185.9,0.7l10.3,21.4h0.2l10.8-21.4h8.5v29.4h-6.5V9.5h-0.3l-10,20.6h-5.6l-9.5-20.6h-0.3v20.6H177V0.7H185.9z"
	/>
<path class="st0" d="M5.8,39.8v3.1H5.1l-0.2-0.4C4.3,42.8,3.7,43,3,43c-1.5,0.1-2.9-1.1-3-2.6c-0.1-1.5,1.1-2.9,2.6-3
	c0.1,0,0.2,0,0.3,0c1.1-0.1,2.1,0.4,2.7,1.3l-1,0.5c-0.4-0.6-1.1-0.9-1.7-0.8c-0.9-0.1-1.8,0.6-1.8,1.6c-0.1,0.9,0.6,1.8,1.6,1.8
	c0.1,0,0.2,0,0.3,0c0.6,0,1.2-0.1,1.6-0.5v-0.6H3.3v-1L5.8,39.8z"/>
<path class="st0" d="M9.1,37.5v4.2h3.7v1.1H7.9v-5.3H9.1z"/>
<path class="st0" d="M19.4,37.5v1.1h-3.6v1h3.3v1.1h-3.3v1.1h3.8v1.1h-5v-5.3H19.4z"/>
<path class="st0" d="M25.6,37.5l2.3,5.3h-1.3L26.3,42H23l-0.4,0.8h-1.3l2.3-5.3H25.6z M23.4,41h2.4l-1-2.4h-0.4L23.4,41z"/>
<path class="st0" d="M30.9,37.5l3.2,3.6v-3.6h1.2v5.3h-1.1L31,39.3v3.6h-1.2v-5.3H30.9z"/>
<path class="st0" d="M38.5,37.5v5.3h-1.2v-5.3H38.5z"/>
<path class="st0" d="M41.7,37.5l3.2,3.6v-3.6h1.2v5.3H45l-3.2-3.6v3.6h-1.2v-5.3H41.7z"/>
<path class="st0" d="M53.8,39.8v3.1h-0.8l-0.2-0.4c-0.5,0.4-1.2,0.6-1.9,0.5c-1.5,0.1-2.9-1.1-3-2.6c-0.1-1.5,1.1-2.9,2.6-3
	c0.1,0,0.2,0,0.3,0c1.1-0.1,2.1,0.4,2.7,1.3l-1,0.5c-0.4-0.6-1.1-0.9-1.8-0.8c-0.9-0.1-1.8,0.6-1.8,1.6c-0.1,0.9,0.6,1.8,1.6,1.8
	c0.1,0,0.2,0,0.3,0c0.6,0,1.2-0.1,1.6-0.5v-0.6h-1.4v-1L53.8,39.8z"/>
<path class="st0" d="M61,37.5v5.3h-1.2v-5.3H61z"/>
<path class="st0" d="M64.2,37.5l3.2,3.6v-3.6h1.2v5.3h-1.2l-3.2-3.6v3.6h-1.2v-5.3H64.2z"/>
<path class="st0" d="M71.8,37.5l1.8,4.2h0.3l1.8-4.2h1.3l-2.3,5.3h-1.7l-2.3-5.3H71.8z"/>
<path class="st0" d="M83.5,37.5v1.1h-3.6v1h3.3v1.1h-3.3v1.1h3.8v1.1h-5v-5.3H83.5z"/>
<path class="st0" d="M90.2,39.1c-0.6-0.4-1.4-0.6-2.1-0.6c-1,0-1.3,0.3-1.3,0.6s0.3,0.4,0.7,0.4l1.6,0.2c1.1,0.1,1.8,0.6,1.8,1.6
	c0,1.2-1.2,1.7-2.8,1.7c-1,0-2-0.3-2.8-0.9l0.6-0.9c0.7,0.5,1.5,0.8,2.3,0.8c0.8,0,1.5-0.2,1.5-0.7c0-0.3-0.2-0.4-0.6-0.5l-1.8-0.2
	c-1.1-0.1-1.8-0.5-1.8-1.5s1.1-1.7,2.5-1.7c1,0,1.9,0.2,2.7,0.8L90.2,39.1z"/>
<path class="st0" d="M98.2,37.5v1.1H96v4.2h-1.2v-4.2h-2.2v-1.1H98.2z"/>
<path class="st0" d="M101.6,37.5l1.9,3.9l0,0l1.9-3.9h1.5v5.3h-1.2v-3.7h-0.1l-1.8,3.7h-1l-1.7-3.7h-0.1v3.7H100v-5.3H101.6z"/>
<path class="st0" d="M113.9,37.5v1.1h-3.6v1h3.3v1.1h-3.3v1.1h3.8v1.1h-5v-5.3H113.9z"/>
<path class="st0" d="M117.2,37.5l3.2,3.6v-3.6h1.2v5.3h-1.1l-3.2-3.6v3.6h-1.2v-5.3H117.2z"/>
<path class="st0" d="M129,37.5v1.1h-2.2v4.2h-1.2v-4.2h-2.2v-1.1H129z"/>
<path class="st0" d="M139.3,39.4c-0.4-0.6-1.1-0.9-1.8-0.9c-0.9-0.1-1.7,0.6-1.8,1.5c0,0.1,0,0.2,0,0.2c0,0.9,0.7,1.7,1.6,1.7
	c0.1,0,0.1,0,0.2,0c0.7,0,1.4-0.3,1.8-0.9l0.9,0.5c-0.6,0.9-1.6,1.5-2.7,1.4c-1.5,0.1-2.9-1.1-3-2.6c-0.1-1.5,1.1-2.9,2.6-3
	c0.1,0,0.2,0,0.3,0c1.1-0.1,2.1,0.5,2.7,1.4L139.3,39.4z"/>
<path class="st0" d="M145,43c-1.5-0.1-2.7-1.5-2.6-3c0.1-1.5,1.5-2.7,3-2.6c1.5,0.1,2.6,1.3,2.6,2.8c0,1.6-1.3,2.8-2.9,2.8
	C145.1,43,145.1,43,145,43z M145,42c1,0,1.7-0.8,1.7-1.8c0-1-0.8-1.7-1.8-1.7c-1,0-1.7,0.8-1.7,1.7c0,0.9,0.7,1.7,1.6,1.8
	C144.9,42,145,42,145,42z"/>
<path class="st0" d="M151.6,37.5l1.8,3.9h0.1l1.9-3.9h1.5v5.3h-1.2v-3.7h-0.1l-1.8,3.7h-1l-1.7-3.7h-0.1v3.7H150v-5.3H151.6z"/>
<path class="st0" d="M162.4,37.5c0.8-0.1,1.5,0.4,1.7,1.2c0,0.1,0,0.2,0,0.2c0,0.4-0.1,0.7-0.4,0.9c0.5,0.3,0.8,0.8,0.8,1.3
	c0,0.9-0.8,1.7-1.7,1.7c0,0,0,0-0.1,0H159v-5.4H162.4z M160.2,39.6h2.3c0.3,0,0.5-0.3,0.5-0.5c0-0.3-0.3-0.5-0.5-0.5h-2.2V39.6z
	 M160.2,41.8h2.5c0.3,0,0.6-0.2,0.6-0.5c0,0,0,0,0-0.1c0-0.3-0.2-0.6-0.5-0.6c0,0,0,0,0,0h-2.5V41.8z"/>
<path class="st0" d="M167.6,37.5v5.3h-1.1v-5.3H167.6z"/>
<path class="st0" d="M170.8,37.5l3.2,3.6v-3.6h1.2v5.3H174l-3.2-3.6v3.6h-1.2v-5.3H170.8z"/>
<path class="st0" d="M181.3,37.5l2.3,5.3h-1.3l-0.3-0.8h-3.3l-0.3,0.8H177l2.3-5.3H181.3z M179.1,41h2.3l-1-2.4H180L179.1,41z"/>
<path class="st0" d="M189.9,37.5v1.1h-2.2v4.2h-1.2v-4.2h-2.2v-1.1H189.9z"/>
<path class="st0" d="M193,37.5v5.3h-1.2v-5.3H193z"/>
<path class="st0" d="M197.9,43c-1.5-0.1-2.7-1.5-2.6-3c0.1-1.5,1.5-2.7,3-2.6c1.5,0.1,2.6,1.3,2.6,2.8c0,1.6-1.3,2.8-2.9,2.8
	C198,43,198,43,197.9,43z M197.9,42c1,0,1.8-0.8,1.7-1.8c0-1-0.8-1.8-1.8-1.7c-1,0-1.7,0.8-1.7,1.7c0,0.9,0.7,1.7,1.6,1.8
	C197.8,42,197.9,42,197.9,42z"/>
<path class="st0" d="M204,37.5l3.2,3.6v-3.6h1.2v5.3h-1.1l-3.2-3.6v3.6h-1.2v-5.3H204z"/>
<path class="st0" d="M215.1,39.1c-0.6-0.4-1.4-0.6-2.1-0.6c-1,0-1.3,0.3-1.3,0.6s0.3,0.4,0.7,0.4l1.6,0.2c1.1,0.1,1.8,0.6,1.8,1.6
	c0,1.2-1.2,1.7-2.8,1.7c-1,0-2-0.3-2.8-0.9l0.6-0.9c0.7,0.5,1.5,0.8,2.3,0.8c0.8,0,1.4-0.2,1.4-0.7c0-0.3-0.1-0.4-0.6-0.5l-1.8-0.2
	c-1.1-0.1-1.8-0.5-1.8-1.5s1.1-1.7,2.5-1.7c1,0,1.9,0.2,2.7,0.8L215.1,39.1z"/>
<path class="st0" d="M31.8,13v17.1h-4.2l-0.9-2.3c-3,2.1-6.6,3.2-10.3,3C7.2,30.8,0,24.9,0,15.4S7.2,0,16.4,0
	c6.8,0,11.5,2.5,14.8,7.4l-5.3,3c-2.3-3-4.8-4.4-9.6-4.4c-5.9,0-9.7,3.6-9.7,9.4s3.8,9.4,9.7,9.4c4.2,0,6.6-0.8,9-2.7v-3.4l-7.5-0.3
	V13H31.8z"/>
</svg>
