<svg width="166" height="34" viewBox="0 0 166 34" fill="none" xmlns="http://www.w3.org/2000/svg">
<path d="M165.427 0.320801V33.5008H159.307V0.320801H165.427Z" fill="#090808"/>
<path d="M135.852 0.320801C138.172 0.320801 140.412 0.7208 142.572 1.5208C144.732 2.2808 146.632 3.3808 148.272 4.8208C149.952 6.2608 151.272 8.0008 152.232 10.0408C153.232 12.0808 153.732 14.3608 153.732 16.8808C153.732 19.4008 153.232 21.7008 152.232 23.7808C151.232 25.8208 149.912 27.5608 148.272 29.0008C146.632 30.4408 144.732 31.5608 142.572 32.3608C140.412 33.1208 138.172 33.5008 135.852 33.5008H119.112V0.320801H135.852ZM125.232 27.9208H135.732C137.492 27.9208 139.092 27.6608 140.532 27.1408C142.012 26.5808 143.272 25.8208 144.312 24.8608C145.352 23.9008 146.152 22.7408 146.712 21.3808C147.312 20.0208 147.612 18.5208 147.612 16.8808C147.612 15.2408 147.312 13.7408 146.712 12.3808C146.152 11.0208 145.352 9.8608 144.312 8.9008C143.272 7.9408 142.012 7.2008 140.532 6.6808C139.092 6.1208 137.492 5.8408 135.732 5.8408H125.232V27.9208Z" fill="#090808"/>
<path d="M100.35 0.320801C102.27 0.320801 104.05 0.640801 105.69 1.2808C107.33 1.8808 108.75 2.7408 109.95 3.8608C111.15 4.9808 112.09 6.3408 112.77 7.9408C113.49 9.5008 113.85 11.2408 113.85 13.1608C113.85 15.8008 113.21 18.0808 111.93 20.0008C110.69 21.8808 109.03 23.3208 106.95 24.3208L112.17 33.5008H105.51L101.31 25.8208H86.97V33.5008H80.85V0.320801H100.35ZM86.97 20.2408H100.11C102.39 20.2408 104.23 19.6208 105.63 18.3808C107.07 17.1408 107.79 15.4008 107.79 13.1608C107.79 10.8808 107.07 9.1008 105.63 7.8208C104.23 6.5408 102.39 5.9008 100.11 5.9008H86.97V20.2408Z" fill="#090808"/>
<path d="M74.0461 0.320801V5.8408H50.4661V13.8208H71.7061V19.2808H50.4661V27.9208H74.9461V33.5008H44.3461V0.320801H74.0461Z" fill="#090808"/>
<path d="M6.91263 0.320801L18.6126 27.9808H21.0126L32.7126 0.320801H39.3726L24.7326 33.5008H14.7726L0.192627 0.320801H6.91263Z" fill="#090808"/>
</svg>
