<svg width="685" height="577" viewBox="0 0 685 577" fill="none" xmlns="http://www.w3.org/2000/svg">
<path d="M517.4 1.51001C517.4 2.34001 516.72 3.02002 515.89 3.02002C515.06 3.02002 514.38 2.34001 514.38 1.51001C514.38 0.68001 515.06 0 515.89 0C516.72 0 517.4 0.68001 517.4 1.51001Z" fill="#010101"/>
<path d="M462.46 382.14H217.54C201.44 382.14 188.4 369.09 188.4 352.99V348.51C188.4 332.41 201.45 319.36 217.54 319.36H462.46C478.56 319.36 491.61 332.41 491.61 348.51V352.99C491.61 369.09 478.56 382.14 462.46 382.14Z" fill="#010101"/>
<path d="M219.126 337.096H221.918V345.744L229.328 337.096H232.052V349.55H229.26V340.947L221.873 349.55H219.126V337.096ZM234.301 337.096H237.116V341.848H244.142V337.096H246.957V349.55H244.142V344.37H237.116V349.55H234.301V337.096ZM249.211 337.096H257.228C259.48 337.096 261.079 338.403 261.079 340.429C261.079 341.33 260.764 342.096 260.111 342.546C261.26 343.132 261.935 344.145 261.935 345.677C261.935 347.816 260.201 349.55 257.836 349.55H249.211V337.096ZM252.026 339.619V341.893H257.319C257.927 341.893 258.332 341.33 258.332 340.767C258.332 340.227 258.039 339.619 257.093 339.619H252.026ZM252.026 344.348V347.005H257.746C258.647 347.005 259.188 346.442 259.188 345.677C259.188 344.866 258.625 344.348 257.814 344.348H252.026ZM263.814 337.096H275.119V339.641H266.629V341.938H274.263V344.483H266.629V346.96H275.434V349.55H263.814V337.096ZM290.356 340.137L288.172 341.398C287.226 340.047 285.988 339.303 284.006 339.303C281.506 339.303 279.885 340.88 279.885 343.335C279.885 345.744 281.574 347.366 284.006 347.366C285.988 347.366 287.226 346.622 288.172 345.271L290.356 346.532C289.073 348.717 286.956 349.865 284.051 349.865C280.065 349.865 277.092 347.366 277.092 343.335C277.092 339.303 280.132 336.804 284.051 336.804C286.956 336.804 289.073 337.952 290.356 340.137ZM291.668 337.096H304.617V339.619H299.55V349.55H296.735V339.619H291.668V337.096ZM308.608 343.335C308.608 345.902 310.432 347.456 312.774 347.456C315.116 347.456 316.94 345.902 316.94 343.335C316.94 340.767 315.116 339.213 312.774 339.213C310.432 339.213 308.608 340.767 308.608 343.335ZM319.755 343.335C319.755 347.253 316.558 349.865 312.774 349.865C308.991 349.865 305.793 347.253 305.793 343.335C305.793 339.416 308.991 336.804 312.774 336.804C316.558 336.804 319.755 339.416 319.755 343.335ZM321.83 337.096H329.171C332.099 337.096 334.306 339.056 334.306 341.983C334.306 344.911 332.099 346.78 329.171 346.78H324.645V349.55H321.83V337.096ZM324.645 339.664V344.213H329.058C330.5 344.213 331.491 343.425 331.491 341.983C331.491 340.542 330.5 339.664 329.058 339.664H324.645ZM342.7 337.096H350.717C352.969 337.096 354.568 338.403 354.568 340.429C354.568 341.33 354.253 342.096 353.6 342.546C354.748 343.132 355.424 344.145 355.424 345.677C355.424 347.816 353.69 349.55 351.325 349.55H342.7V337.096ZM345.515 339.619V341.893H350.807C351.415 341.893 351.821 341.33 351.821 340.767C351.821 340.227 351.528 339.619 350.582 339.619H345.515ZM345.515 344.348V347.005H351.235C352.136 347.005 352.676 346.442 352.676 345.677C352.676 344.866 352.113 344.348 351.303 344.348H345.515ZM370.68 337.096H373.495V349.55H370.68V337.096ZM357.303 337.096H360.118V339.934H364.419C367.347 339.934 369.554 341.736 369.554 344.663C369.554 347.591 367.347 349.55 364.419 349.55H357.303V337.096ZM360.118 342.434V346.983H364.217C365.883 346.983 366.739 346.195 366.739 344.663C366.739 343.132 365.883 342.434 364.217 342.434H360.118ZM375.754 337.096H386.519V339.619H378.547V341.218H383.704C386.249 341.218 388.073 342.929 388.073 345.316C388.073 347.636 386.249 349.55 383.704 349.55H375.754V337.096ZM378.547 343.695V347.028H383.501C384.807 347.028 385.28 346.262 385.28 345.316C385.28 344.393 384.785 343.695 383.479 343.695H378.547ZM389.873 337.096H392.666V345.744L400.075 337.096H402.8V349.55H400.007V340.947L392.621 349.55H389.873V337.096ZM405.048 337.096H412.389C415.317 337.096 417.524 339.056 417.524 341.983C417.524 344.911 415.317 346.78 412.389 346.78H407.863V349.55H405.048V337.096ZM407.863 339.664V344.213H412.277C413.718 344.213 414.709 343.425 414.709 341.983C414.709 340.542 413.718 339.664 412.277 339.664H407.863ZM425.263 339.596L422.943 345.204H428.483L426.231 339.596H425.263ZM423.506 337.096H428.078L433.37 349.55H430.397L429.586 347.658H421.907L421.096 349.55H418.079L423.506 337.096ZM435.177 337.096H446.482V339.641H437.992V341.938H445.627V344.483H437.992V346.96H446.798V349.55H435.177V337.096ZM448.45 337.096H461.399V339.619H456.332V349.55H453.517V339.619H448.45V337.096Z" fill="white"/>
<path d="M218.925 359.092H223.277V364.55H222.044V360.197H219.951L219.398 363.158C219.221 364.126 218.619 364.55 217.721 364.55H217.069V363.425H217.661C217.948 363.425 218.135 363.297 218.194 363L218.925 359.092ZM224.26 359.092H225.474V361.135H226.352C226.639 359.743 227.833 358.964 229.264 358.964C230.912 358.964 232.245 360 232.245 361.826C232.245 363.652 230.912 364.688 229.264 364.688C227.744 364.688 226.49 363.81 226.303 362.24H225.474V364.55H224.26V359.092ZM227.507 361.826C227.507 362.951 228.109 363.632 229.264 363.632C230.419 363.632 231.021 362.951 231.021 361.826C231.021 360.701 230.419 360.02 229.264 360.02C228.109 360.02 227.507 360.701 227.507 361.826ZM233.079 359.092H237.797V360.197H234.303V360.898H236.563C237.679 360.898 238.478 361.648 238.478 362.694C238.478 363.711 237.679 364.55 236.563 364.55H233.079V359.092ZM234.303 361.984V363.445H236.475C237.047 363.445 237.254 363.109 237.254 362.694C237.254 362.29 237.037 361.984 236.465 361.984H234.303ZM240.422 361.826C240.422 362.951 241.222 363.632 242.248 363.632C243.274 363.632 244.074 362.951 244.074 361.826C244.074 360.701 243.274 360.02 242.248 360.02C241.222 360.02 240.422 360.701 240.422 361.826ZM245.308 361.826C245.308 363.543 243.906 364.688 242.248 364.688C240.59 364.688 239.188 363.543 239.188 361.826C239.188 360.109 240.59 358.964 242.248 358.964C243.906 358.964 245.308 360.109 245.308 361.826ZM246.217 359.092H251.171V360.207H247.45V361.214H250.796V362.329H247.45V363.415H251.31V364.55H246.217V359.092ZM255.075 359.092H260.454V364.55H259.22V360.188H256.299V364.55H255.075V359.092ZM262.591 361.826C262.591 362.951 263.39 363.632 264.417 363.632C265.443 363.632 266.243 362.951 266.243 361.826C266.243 360.701 265.443 360.02 264.417 360.02C263.39 360.02 262.591 360.701 262.591 361.826ZM267.477 361.826C267.477 363.543 266.075 364.688 264.417 364.688C262.759 364.688 261.357 363.543 261.357 361.826C261.357 360.109 262.759 358.964 264.417 358.964C266.075 358.964 267.477 360.109 267.477 361.826ZM268.386 359.092H270.034L271.949 363.05H271.998L273.992 359.092H275.571V364.55H274.357V360.73H274.298L272.452 364.55H271.416L269.639 360.73H269.58V364.55H268.386V359.092ZM276.559 359.092H281.514V360.207H277.793V361.214H281.139V362.329H277.793V363.415H281.652V364.55H276.559V359.092ZM289.759 364.55H282.574V359.092H283.788V363.445H285.851V359.092H287.065V363.445H289.127V359.092H290.342V363.435H290.914V365.596H289.848L289.759 364.55ZM291.702 359.092H296.656V360.207H292.935V361.214H296.281V362.329H292.935V363.415H296.795V364.55H291.702V359.092ZM297.716 359.092H298.95V361.175H302.029V359.092H303.263V364.55H302.029V362.28H298.95V364.55H297.716V359.092ZM304.251 359.092H305.475V362.882L308.722 359.092H309.917V364.55H308.693V360.78L305.455 364.55H304.251V359.092ZM310.902 359.092H315.857V360.207H312.136V361.214H315.482V362.329H312.136V363.415H315.995V364.55H310.902V359.092ZM319.76 359.092H320.984V362.882L324.231 359.092H325.425V364.55H324.201V360.78L320.964 364.55H319.76V359.092ZM327.921 361.125H330.092C330.388 361.125 330.546 360.977 330.546 360.691C330.546 360.266 330.092 360.049 329.125 360.049C328.157 360.049 327.664 360.188 326.963 360.622L326.45 359.733C327.319 359.151 328.128 358.964 329.105 358.964C329.974 358.964 330.694 359.112 331.168 359.447C331.563 359.724 331.78 360.118 331.78 360.651C331.78 361.007 331.642 361.323 331.375 361.5C331.869 361.757 332.135 362.181 332.135 362.803C332.135 363.356 331.869 363.8 331.395 364.155C330.882 364.54 330.082 364.688 329.115 364.688C327.93 364.688 327.121 364.461 326.233 363.859L326.795 362.941C327.486 363.376 328.246 363.603 329.174 363.603C330.22 363.603 330.901 363.385 330.901 362.754C330.901 362.389 330.694 362.211 330.092 362.211H327.921V361.125ZM335.808 359.092H341.187V364.55H339.954V360.188H337.032V364.55H335.808V359.092ZM341.883 359.092H343.157L343.946 361.392C344.015 361.589 344.173 361.688 344.371 361.688H345.881L346.74 359.092H347.993L346.542 363.415C346.315 364.076 345.703 364.55 344.983 364.55H343.443V363.504H344.923C345.141 363.504 345.348 363.385 345.427 363.158L345.545 362.783H344.312C343.502 362.783 343.019 362.408 342.762 361.658L341.883 359.092ZM349.664 359.092H354.016V364.55H352.783V360.197H350.69L350.137 363.158C349.96 364.126 349.358 364.55 348.459 364.55H347.808V363.425H348.4C348.686 363.425 348.874 363.297 348.933 363L349.664 359.092ZM357.95 360.188L356.933 362.645H359.361L358.374 360.188H357.95ZM357.18 359.092H359.184L361.503 364.55H360.2L359.845 363.721H356.479L356.124 364.55H354.801L357.18 359.092ZM365.139 359.092H370.518V364.55H369.284V360.188H366.363V364.55H365.139V359.092ZM371.5 359.092H374.718C376.001 359.092 376.968 359.951 376.968 361.234C376.968 362.517 376.001 363.336 374.718 363.336H372.734V364.55H371.5V359.092ZM372.734 360.217V362.211H374.668C375.3 362.211 375.734 361.865 375.734 361.234C375.734 360.602 375.3 360.217 374.668 360.217H372.734ZM378.959 361.826C378.959 362.951 379.758 363.632 380.785 363.632C381.811 363.632 382.611 362.951 382.611 361.826C382.611 360.701 381.811 360.02 380.785 360.02C379.758 360.02 378.959 360.701 378.959 361.826ZM383.844 361.826C383.844 363.543 382.443 364.688 380.785 364.688C379.126 364.688 377.725 363.543 377.725 361.826C377.725 360.109 379.126 358.964 380.785 358.964C382.443 358.964 383.844 360.109 383.844 361.826ZM384.753 359.092H389.708V360.207H385.987V361.214H389.333V362.329H385.987V363.415H389.846V364.55H384.753V359.092ZM390.768 359.092H391.992V361.105H393.581L394.953 359.092H396.374L394.627 361.619L396.502 364.55H395.042L393.61 362.231H391.992V364.55H390.768V359.092ZM397.028 359.092H402.704V360.197H400.483V364.55H399.249V360.197H397.028V359.092ZM404.453 361.826C404.453 362.951 405.252 363.632 406.279 363.632C407.305 363.632 408.105 362.951 408.105 361.826C408.105 360.701 407.305 360.02 406.279 360.02C405.252 360.02 404.453 360.701 404.453 361.826ZM409.339 361.826C409.339 363.543 407.937 364.688 406.279 364.688C404.621 364.688 403.219 363.543 403.219 361.826C403.219 360.109 404.621 358.964 406.279 358.964C407.937 358.964 409.339 360.109 409.339 361.826ZM410.248 359.092H413.761C414.748 359.092 415.449 359.664 415.449 360.553C415.449 360.947 415.311 361.283 415.025 361.48C415.528 361.737 415.824 362.181 415.824 362.852C415.824 363.79 415.064 364.55 414.028 364.55H410.248V359.092ZM411.481 360.197V361.194H413.801C414.067 361.194 414.245 360.947 414.245 360.701C414.245 360.464 414.117 360.197 413.702 360.197H411.481ZM411.481 362.27V363.435H413.988C414.383 363.435 414.62 363.188 414.62 362.852C414.62 362.497 414.373 362.27 414.018 362.27H411.481ZM422.709 361.382H425.285V364.55H424.515L424.347 364.126C423.824 364.491 423.261 364.688 422.442 364.688C420.725 364.688 419.392 363.593 419.392 361.826C419.392 360.059 420.725 358.964 422.442 358.964C423.706 358.964 424.564 359.418 425.186 360.345L424.209 360.898C423.775 360.336 423.321 360.089 422.423 360.089C421.327 360.089 420.616 360.75 420.616 361.826C420.616 362.902 421.327 363.563 422.423 363.563C423.202 363.563 423.656 363.415 424.1 363.07V362.448L422.709 362.398V361.382ZM426.325 359.092H427.559V363.435H431.319V364.55H426.325V359.092ZM432.079 359.092H433.313V364.55H432.079V359.092ZM434.296 359.092H435.461L438.728 362.764V359.092H439.952V364.55H438.777L435.51 360.869V364.55H434.296V359.092ZM446.652 360.424L445.695 360.977C445.28 360.385 444.737 360.059 443.869 360.059C442.773 360.059 442.062 360.75 442.062 361.826C442.062 362.882 442.803 363.593 443.869 363.593C444.737 363.593 445.28 363.267 445.695 362.675L446.652 363.227C446.089 364.185 445.162 364.688 443.888 364.688C442.141 364.688 440.838 363.593 440.838 361.826C440.838 360.059 442.171 358.964 443.888 358.964C445.162 358.964 446.089 359.467 446.652 360.424ZM448.579 361.826C448.579 362.951 449.378 363.632 450.405 363.632C451.431 363.632 452.231 362.951 452.231 361.826C452.231 360.701 451.431 360.02 450.405 360.02C449.378 360.02 448.579 360.701 448.579 361.826ZM453.464 361.826C453.464 363.543 452.063 364.688 450.405 364.688C448.747 364.688 447.345 363.543 447.345 361.826C447.345 360.109 448.747 358.964 450.405 358.964C452.063 358.964 453.464 360.109 453.464 361.826ZM454.373 359.092H456.022L457.937 363.05H457.986L459.98 359.092H461.559V364.55H460.345V360.73H460.286L458.44 364.55H457.404L455.627 360.73H455.568V364.55H454.373V359.092Z" fill="white"/>
<path d="M114.2 61.0699C114.2 64.0399 111.79 66.4399 108.83 66.4399C105.87 66.4399 103.46 64.0399 103.46 61.0699C103.46 58.0999 105.86 55.7 108.83 55.7C111.8 55.7 114.2 58.0999 114.2 61.0699Z" fill="#010101"/>
<path d="M573.11 3.62994C573.11 5.10994 571.91 6.31995 570.42 6.31995C568.93 6.31995 567.73 5.11994 567.73 3.62994C567.73 2.13994 568.93 0.939941 570.42 0.939941C571.91 0.939941 573.11 2.13994 573.11 3.62994Z" fill="#010101"/>
<path d="M464.2 32.3799C464.2 33.8599 463 35.0699 461.51 35.0699C460.02 35.0699 458.82 33.8699 458.82 32.3799C458.82 30.8899 460.02 29.6899 461.51 29.6899C463 29.6899 464.2 30.8899 464.2 32.3799Z" fill="#010101"/>
<path d="M10.7998 54.23C10.7998 52.56 12.1498 51.21 13.8198 51.21C15.4898 51.21 16.8398 52.56 16.8398 54.23C16.8398 55.9 15.4898 57.2499 13.8198 57.2499C12.1498 57.2499 10.7998 55.9 10.7998 54.23Z" fill="#010101"/>
<path d="M605.55 45.9299C605.55 45.0999 606.23 44.4199 607.06 44.4199C607.89 44.4199 608.57 45.0999 608.57 45.9299C608.57 46.7599 607.89 47.4399 607.06 47.4399C606.23 47.4399 605.55 46.7599 605.55 45.9299Z" fill="#010101"/>
<path d="M240.5 74.29C240.5 73.46 241.18 72.78 242.01 72.78C242.84 72.78 243.52 73.46 243.52 74.29C243.52 75.12 242.84 75.8 242.01 75.8C241.18 75.8 240.5 75.12 240.5 74.29Z" fill="#010101"/>
<path d="M435.489 159.671C435.489 162.285 437.346 163.868 439.731 163.868C442.116 163.868 443.973 162.285 443.973 159.671C443.973 157.057 442.116 155.475 439.731 155.475C437.346 155.475 435.489 157.057 435.489 159.671ZM446.839 159.671C446.839 163.661 443.583 166.321 439.731 166.321C435.879 166.321 432.623 163.661 432.623 159.671C432.623 155.681 435.879 153.022 439.731 153.022C443.583 153.022 446.839 155.681 446.839 159.671ZM448.045 153.32H461.23V155.888H456.07V166H453.204V155.888H448.045V153.32Z" fill="#010101"/>
<path d="M444.982 178.395L443.881 180.573C442.414 179.77 441.176 179.541 439.433 179.541C437.346 179.541 435.993 180.366 435.627 182.293C437.025 181.811 438.172 181.582 439.662 181.582C442.689 181.582 445.28 182.774 445.28 185.916C445.28 188.644 442.781 190.318 439.181 190.318C434.847 190.318 432.783 187.681 432.783 183.668C432.783 179.839 435.42 177.042 439.433 177.042C441.542 177.042 443.285 177.386 444.982 178.395ZM435.558 184.563C435.741 186.764 436.613 187.773 439.433 187.773C441.497 187.773 442.483 187.177 442.483 185.893C442.483 184.586 441.588 184.104 439.341 184.104C437.988 184.104 436.979 184.242 435.558 184.563ZM453.878 177.34H457.707L462.155 186.535H462.27L466.902 177.34H470.571V190.02H467.75V181.146H467.613L463.325 190.02H460.917L456.79 181.146H456.652V190.02H453.878V177.34ZM476.191 177.34H486.303V190.02H483.437V179.908H478.576L477.292 186.787C476.879 189.034 475.481 190.02 473.394 190.02H471.88V187.406H473.256C473.921 187.406 474.357 187.108 474.495 186.42L476.191 177.34ZM488.586 177.34H491.452V182.178H498.606V177.34H501.473V190.02H498.606V184.746H491.452V190.02H488.586V177.34ZM510.374 177.34H517.849C520.83 177.34 523.077 179.335 523.077 182.316C523.077 185.296 520.83 187.2 517.849 187.2H513.24V190.02H510.374V177.34ZM513.24 179.954V184.586H517.735C519.202 184.586 520.211 183.783 520.211 182.316C520.211 180.848 519.202 179.954 517.735 179.954H513.24ZM523.66 177.34H526.618L528.452 182.682C528.613 183.141 528.979 183.37 529.438 183.37H532.946L534.941 177.34H537.853L534.483 187.383C533.955 188.919 532.534 190.02 530.86 190.02H527.283V187.589H530.722C531.227 187.589 531.708 187.314 531.892 186.787L532.167 185.916H529.3C527.42 185.916 526.297 185.044 525.7 183.302L523.66 177.34ZM539.552 177.34H550.512V179.908H542.395V181.536H547.646C550.237 181.536 552.094 183.279 552.094 185.709C552.094 188.071 550.237 190.02 547.646 190.02H539.552V177.34ZM542.395 184.058V187.452H547.44C548.769 187.452 549.251 186.672 549.251 185.709C549.251 184.769 548.747 184.058 547.417 184.058H542.395ZM555.716 186.282C556.84 186.282 557.757 187.177 557.757 188.3C557.757 189.424 556.84 190.249 555.716 190.249C554.593 190.249 553.698 189.424 553.698 188.3C553.698 187.177 554.593 186.282 555.716 186.282Z" fill="#010101"/>
<path d="M134.758 198.736H136.43V201.557H140.601V198.736H142.272V206.13H140.601V203.055H136.43V206.13H134.758V198.736ZM147.608 200.22L146.231 203.549H149.52L148.183 200.22H147.608ZM146.566 198.736H149.28L152.422 206.13H150.657L150.175 205.007H145.616L145.135 206.13H143.343L146.566 198.736ZM157.346 198.736H162.106C163.443 198.736 164.392 199.512 164.392 200.715C164.392 201.25 164.205 201.704 163.817 201.972C164.499 202.319 164.9 202.921 164.9 203.83C164.9 205.1 163.871 206.13 162.467 206.13H157.346V198.736ZM159.018 200.234V201.584H162.16C162.521 201.584 162.761 201.25 162.761 200.916C162.761 200.595 162.587 200.234 162.026 200.234H159.018ZM159.018 203.041V204.619H162.414C162.948 204.619 163.269 204.285 163.269 203.83C163.269 203.349 162.935 203.041 162.454 203.041H159.018ZM173.958 198.736H175.629V206.13H173.958V198.736ZM166.016 198.736H167.687V200.421H170.241C171.979 200.421 173.289 201.49 173.289 203.229C173.289 204.967 171.979 206.13 170.241 206.13H166.016V198.736ZM167.687 201.905V204.606H170.121C171.11 204.606 171.618 204.138 171.618 203.229C171.618 202.319 171.11 201.905 170.121 201.905H167.687ZM176.797 198.736H178.695L180.634 201.584H181.102L183.04 198.736H184.939L182.466 202.239L185.086 206.13H183.147L181.129 203.082H180.607L178.588 206.13H176.65L179.283 202.279L176.797 198.736ZM187.126 202.44C187.126 203.964 188.209 204.886 189.599 204.886C190.99 204.886 192.073 203.964 192.073 202.44C192.073 200.916 190.99 199.993 189.599 199.993C188.209 199.993 187.126 200.916 187.126 202.44ZM193.744 202.44C193.744 204.766 191.846 206.317 189.599 206.317C187.353 206.317 185.455 204.766 185.455 202.44C185.455 200.113 187.353 198.562 189.599 198.562C191.846 198.562 193.744 200.113 193.744 202.44ZM196.744 198.736H202.64V204.632H203.509V207.547H202.065L201.931 206.13H196.222L196.088 207.547H194.644V204.632H195.58L196.744 198.736ZM198.107 200.194L197.318 204.632H200.968V200.194H198.107ZM204.651 198.736H211.362V200.247H206.322V201.611H210.854V203.122H206.322V204.592H211.549V206.13H204.651V198.736Z" fill="#010101"/>
<path d="M134.758 214.776H136.416V219.91L140.815 214.776H142.433V222.17H140.775V217.063L136.389 222.17H134.758V214.776ZM145.813 217.53H148.754C149.156 217.53 149.369 217.33 149.369 216.942C149.369 216.367 148.754 216.073 147.444 216.073C146.134 216.073 145.465 216.26 144.516 216.849L143.821 215.645C144.997 214.856 146.094 214.602 147.417 214.602C148.594 214.602 149.57 214.803 150.212 215.258C150.747 215.632 151.041 216.167 151.041 216.889C151.041 217.37 150.854 217.798 150.493 218.039C151.161 218.386 151.522 218.961 151.522 219.803C151.522 220.552 151.161 221.154 150.519 221.635C149.824 222.156 148.741 222.357 147.431 222.357C145.826 222.357 144.73 222.05 143.527 221.234L144.289 219.991C145.225 220.579 146.254 220.886 147.511 220.886C148.928 220.886 149.851 220.592 149.851 219.737C149.851 219.242 149.57 219.001 148.754 219.001H145.813V217.53ZM156.498 214.776H158.73L161.324 220.138H161.391L164.092 214.776H166.231V222.17H164.586V216.996H164.506L162.006 222.17H160.602L158.196 216.996H158.115V222.17H156.498V214.776ZM167.57 214.776H174.281V216.287H169.241V217.651H173.773V219.162H169.241V220.632H174.469V222.17H167.57V214.776ZM175.45 214.776H183.137V216.274H180.129V222.17H178.458V216.274H175.45V214.776ZM184.204 214.776H188.562C190.301 214.776 191.611 215.939 191.611 217.678C191.611 219.416 190.301 220.525 188.562 220.525H185.875V222.17H184.204V214.776ZM185.875 216.3V219.001H188.496C189.351 219.001 189.94 218.533 189.94 217.678C189.94 216.822 189.351 216.3 188.496 216.3H185.875ZM194.307 218.48C194.307 220.004 195.39 220.926 196.781 220.926C198.171 220.926 199.254 220.004 199.254 218.48C199.254 216.956 198.171 216.033 196.781 216.033C195.39 216.033 194.307 216.956 194.307 218.48ZM200.925 218.48C200.925 220.806 199.027 222.357 196.781 222.357C194.534 222.357 192.636 220.806 192.636 218.48C192.636 216.153 194.534 214.602 196.781 214.602C199.027 214.602 200.925 216.153 200.925 218.48Z" fill="#010101"/>
<path d="M15.442 372.325H20.5826C22.0266 372.325 23.0519 373.162 23.0519 374.462C23.0519 375.039 22.8497 375.53 22.4309 375.819C23.1674 376.195 23.6006 376.844 23.6006 377.826C23.6006 379.198 22.4887 380.31 20.9725 380.31H15.442V372.325ZM17.247 373.942V375.4H20.6404C21.0303 375.4 21.2902 375.039 21.2902 374.678C21.2902 374.332 21.1025 373.942 20.496 373.942H17.247ZM17.247 376.974V378.678H20.9147C21.4923 378.678 21.8389 378.317 21.8389 377.826C21.8389 377.307 21.4779 376.974 20.9581 376.974H17.247ZM37.3261 374.274L35.9254 375.083C35.319 374.216 34.5248 373.74 33.254 373.74C31.6512 373.74 30.6115 374.751 30.6115 376.325C30.6115 377.87 31.6945 378.909 33.254 378.909C34.5248 378.909 35.319 378.433 35.9254 377.566L37.3261 378.375C36.503 379.776 35.1457 380.512 33.2829 380.512C30.727 380.512 28.821 378.909 28.821 376.325C28.821 373.74 30.7704 372.137 33.2829 372.137C35.1457 372.137 36.503 372.873 37.3261 374.274ZM40.1452 376.325C40.1452 377.971 41.3148 378.967 42.8166 378.967C44.3184 378.967 45.488 377.971 45.488 376.325C45.488 374.678 44.3184 373.682 42.8166 373.682C41.3148 373.682 40.1452 374.678 40.1452 376.325ZM47.293 376.325C47.293 378.837 45.2425 380.512 42.8166 380.512C40.3907 380.512 38.3402 378.837 38.3402 376.325C38.3402 373.812 40.3907 372.137 42.8166 372.137C45.2425 372.137 47.293 373.812 47.293 376.325ZM56.9837 374.274L55.583 375.083C54.9765 374.216 54.1823 373.74 52.9116 373.74C51.3088 373.74 50.2691 374.751 50.2691 376.325C50.2691 377.87 51.3521 378.909 52.9116 378.909C54.1823 378.909 54.9765 378.433 55.583 377.566L56.9837 378.375C56.1606 379.776 54.8033 380.512 52.9405 380.512C50.3846 380.512 48.4785 378.909 48.4785 376.325C48.4785 373.74 50.4279 372.137 52.9405 372.137C54.8033 372.137 56.1606 372.873 56.9837 374.274ZM57.8245 372.325H66.1275V373.942H62.8785V380.31H61.0735V373.942H57.8245V372.325ZM70.2995 373.928L68.8122 377.523H72.3645L70.9205 373.928H70.2995ZM69.1732 372.325H72.1045L75.4979 380.31H73.5919L73.072 379.097H68.148L67.6281 380.31H65.6932L69.1732 372.325ZM76.6569 372.325H81.7975C83.2415 372.325 84.2667 373.162 84.2667 374.462C84.2667 375.039 84.0646 375.53 83.6458 375.819C84.3823 376.195 84.8155 376.844 84.8155 377.826C84.8155 379.198 83.7036 380.31 82.1874 380.31H76.6569V372.325ZM78.4619 373.942V375.4H81.8553C82.2451 375.4 82.5051 375.039 82.5051 374.678C82.5051 374.332 82.3173 373.942 81.7109 373.942H78.4619ZM78.4619 376.974V378.678H82.1296C82.7072 378.678 83.0538 378.317 83.0538 377.826C83.0538 377.307 82.6928 376.974 82.1729 376.974H78.4619ZM86.0203 372.325H93.2692V373.956H87.8253V375.429H92.7205V377.061H87.8253V378.649H93.4713V380.31H86.0203V372.325Z" fill="#010101"/>
<path d="M15.1532 389.655H23.4562V391.272H20.2072V397.64H18.4022V391.272H15.1532V389.655ZM24.608 389.655H26.413V396.008H30.6295V389.655H32.4345V396.008H33.272V399.171H31.7125L31.5825 397.64H24.608V389.655Z" fill="#010101"/>
<path d="M151.252 470.046H155.32V480H153.088V472.044H151.252V470.046ZM164.91 470.046H172.848V480H170.598V472.062H166.782L165.774 477.462C165.45 479.226 164.352 480 162.714 480H161.526V477.948H162.606C163.128 477.948 163.47 477.714 163.578 477.174L164.91 470.046ZM174.64 470.046H176.872V476.958L182.794 470.046H184.972V480H182.74V473.124L176.836 480H174.64V470.046ZM186.769 470.046H189.019V473.844H194.635V470.046H196.885V480H194.635V475.86H189.019V480H186.769V470.046ZM198.687 470.046H200.919V476.958L206.841 470.046H209.019V480H206.787V473.124L200.883 480H198.687V470.046ZM220.446 470.046V480H218.196V477.786H214.488L213.318 480H210.87L212.4 477.264C211.23 476.634 210.474 475.482 210.474 473.952C210.474 471.612 212.238 470.046 214.578 470.046H220.446ZM218.196 472.098H214.668C213.516 472.098 212.724 472.8 212.724 473.952C212.724 475.104 213.516 475.734 214.668 475.734H218.196V472.098ZM227.12 473.934H229.334V471.666H231.404V473.934H233.618V475.788H231.404V477.966H229.334V475.788H227.12V473.934Z" fill="#010101"/>
<path d="M126.9 490.686H129.132V497.598L135.054 490.686H137.232V500.64H135V493.764L129.096 500.64H126.9V490.686ZM139.029 490.686H141.279V494.484H146.895V490.686H149.145V500.64H146.895V496.5H141.279V500.64H139.029V490.686ZM150.587 490.686H160.937V492.702H156.887V500.64H154.637V492.702H150.587V490.686ZM162.373 490.686H171.409V492.72H164.623V494.556H170.725V496.59H164.623V498.57H171.661V500.64H162.373V490.686ZM173.341 490.686H175.591V494.484H181.207V490.686H183.457V500.64H181.207V496.5H175.591V500.64H173.341V490.686ZM195.681 493.116L193.935 494.124C193.179 493.044 192.189 492.45 190.605 492.45C188.607 492.45 187.311 493.71 187.311 495.672C187.311 497.598 188.661 498.894 190.605 498.894C192.189 498.894 193.179 498.3 193.935 497.22L195.681 498.228C194.655 499.974 192.963 500.892 190.641 500.892C187.455 500.892 185.079 498.894 185.079 495.672C185.079 492.45 187.509 490.452 190.641 490.452C192.963 490.452 194.655 491.37 195.681 493.116ZM197.265 490.686H199.497V497.598L205.419 490.686H207.597V500.64H205.365V493.764L199.461 500.64H197.265V490.686ZM209.394 490.686H215.802C217.602 490.686 218.88 491.73 218.88 493.35C218.88 494.07 218.628 494.682 218.106 495.042C219.024 495.51 219.564 496.32 219.564 497.544C219.564 499.254 218.178 500.64 216.288 500.64H209.394V490.686ZM211.644 492.702V494.52H215.874C216.36 494.52 216.684 494.07 216.684 493.62C216.684 493.188 216.45 492.702 215.694 492.702H211.644ZM211.644 496.482V498.606H216.216C216.936 498.606 217.368 498.156 217.368 497.544C217.368 496.896 216.918 496.482 216.27 496.482H211.644ZM221.066 490.686H223.316V494.484H228.932V490.686H231.182V500.64H228.932V496.5H223.316V500.64H221.066V490.686ZM243.676 490.686H245.926V500.64H243.676V490.686ZM232.984 490.686H235.234V492.954H238.672C241.012 492.954 242.776 494.394 242.776 496.734C242.776 499.074 241.012 500.64 238.672 500.64H232.984V490.686ZM235.234 494.952V498.588H238.51C239.842 498.588 240.526 497.958 240.526 496.734C240.526 495.51 239.842 494.952 238.51 494.952H235.234ZM247.732 490.686H249.964V497.598L255.886 490.686H258.064V500.64H255.832V493.764L249.928 500.64H247.732V490.686ZM254.716 487.284L255.796 488.472C254.716 489.48 253.834 489.714 252.79 489.714C251.746 489.714 250.864 489.48 249.784 488.472L250.864 487.284C251.404 487.752 251.908 487.986 252.79 487.986C253.672 487.986 254.176 487.752 254.716 487.284Z" fill="#010101"/>
<path d="M157.76 512.286H168.11V514.302H164.06V522.24H161.81V514.302H157.76V512.286ZM169.546 512.286H175.414C177.754 512.286 179.518 513.852 179.518 516.192C179.518 518.532 177.754 520.026 175.414 520.026H171.796V522.24H169.546V512.286ZM171.796 514.338V517.974H175.324C176.476 517.974 177.268 517.344 177.268 516.192C177.268 515.04 176.476 514.338 175.324 514.338H171.796ZM185.703 514.284L183.849 518.766H188.277L186.477 514.284H185.703ZM184.299 512.286H187.953L192.183 522.24H189.807L189.159 520.728H183.021L182.373 522.24H179.961L184.299 512.286ZM198.843 513.366V512.286H201.075V513.366H203.091C205.431 513.366 207.195 514.932 207.195 517.272C207.195 519.612 205.431 521.106 203.091 521.106H201.075V522.24H198.843V521.106H196.827C194.487 521.106 192.723 519.612 192.723 517.272C192.723 514.932 194.487 513.366 196.827 513.366H198.843ZM198.843 515.418H196.917C195.693 515.418 194.973 516.048 194.973 517.254C194.973 518.442 195.765 519.054 196.917 519.054H198.843V515.418ZM201.075 515.418V519.054H203.001C204.153 519.054 204.945 518.442 204.945 517.254C204.945 516.048 204.225 515.418 203.001 515.418H201.075ZM208.64 512.286H210.872V519.198L216.794 512.286H218.972V522.24H216.74V515.364L210.836 522.24H208.64V512.286ZM220.769 512.286H223.001V515.958H225.899L228.401 512.286H230.993L227.807 516.894L231.227 522.24H228.563L225.953 518.01H223.001V522.24H220.769V512.286Z" fill="#010101"/>
<path d="M617.088 282.972H619.806V292.542H626.157V282.972H628.876V292.542H630.138V297.306H627.789L627.593 295H617.088V282.972ZM638.374 285.386L636.134 290.802H641.484L639.309 285.386H638.374ZM636.677 282.972H641.093L646.204 295H643.333L642.55 293.173H635.133L634.35 295H631.436L636.677 282.972ZM649.836 288.997C649.836 291.476 651.598 292.977 653.86 292.977C656.122 292.977 657.883 291.476 657.883 288.997C657.883 286.517 656.122 285.017 653.86 285.017C651.598 285.017 649.836 286.517 649.836 288.997ZM660.602 288.997C660.602 292.781 657.514 295.305 653.86 295.305C650.206 295.305 647.117 292.781 647.117 288.997C647.117 285.212 650.206 282.689 653.86 282.689C657.514 282.689 660.602 285.212 660.602 288.997Z" fill="#010101"/>
<path d="M500.784 456.329H505.896C507.934 456.329 509.471 457.693 509.471 459.732C509.471 461.77 507.934 463.071 505.896 463.071H502.744V465H500.784V456.329ZM502.744 458.116V461.284H505.817C506.821 461.284 507.511 460.735 507.511 459.732C507.511 458.728 506.821 458.116 505.817 458.116H502.744ZM510.798 456.329H512.743V462.35L517.901 456.329H519.799V465H517.854V459.01L512.711 465H510.798V456.329ZM521.05 456.329H530.066V458.085H526.538V465H524.578V458.085H521.05V456.329ZM531.317 456.329H539.188V458.101H533.277V459.7H538.593V461.472H533.277V463.197H539.408V465H531.317V456.329ZM540.872 456.329H542.816V462.35L547.975 456.329H549.872V465H547.928V459.01L542.785 465H540.872V456.329ZM546.956 453.365L547.897 454.4C546.956 455.278 546.188 455.482 545.278 455.482C544.369 455.482 543.6 455.278 542.66 454.4L543.6 453.365C544.071 453.773 544.51 453.977 545.278 453.977C546.047 453.977 546.486 453.773 546.956 453.365ZM553.711 456.329H560.626V465H558.666V458.085H555.342L554.464 462.789C554.182 464.326 553.225 465 551.798 465H550.764V463.212H551.704C552.159 463.212 552.457 463.009 552.551 462.538L553.711 456.329Z" fill="#010101"/>
<path d="M500.784 474.329H506.366C507.934 474.329 509.047 475.238 509.047 476.65C509.047 477.277 508.828 477.81 508.373 478.124C509.173 478.531 509.643 479.237 509.643 480.303C509.643 481.793 508.436 483 506.789 483H500.784V474.329ZM502.744 476.085V477.669H506.429C506.852 477.669 507.134 477.277 507.134 476.885C507.134 476.508 506.931 476.085 506.272 476.085H502.744ZM502.744 479.378V481.228H506.727C507.354 481.228 507.73 480.836 507.73 480.303C507.73 479.739 507.338 479.378 506.774 479.378H502.744ZM515.359 474.329H517.585L519.498 477.606H521.176V474.329H523.136V477.606H524.814L526.727 474.329H528.953L526.492 478.359L529.236 483H526.978L524.877 479.331H523.136V483H521.176V479.331H519.436L517.335 483H515.077L517.821 478.359L515.359 474.329ZM530.414 474.329H532.358V477.528H534.882L537.062 474.329H539.32L536.545 478.343L539.524 483H537.203L534.93 479.315H532.358V483H530.414V474.329Z" fill="#010101"/>
<path d="M500.784 492.339H508.279V494.095H502.728V495.208H506.319C508.091 495.208 509.361 496.4 509.361 498.062C509.361 499.677 508.091 501.01 506.319 501.01H500.784V492.339ZM502.728 496.933V499.254H506.178C507.087 499.254 507.417 498.721 507.417 498.062C507.417 497.419 507.072 496.933 506.162 496.933H502.728ZM510.615 492.339H512.559V498.36L517.718 492.339H519.615V501.01H517.671V495.02L512.528 501.01H510.615V492.339ZM523.579 495.569H527.029C527.499 495.569 527.75 495.334 527.75 494.879C527.75 494.205 527.029 493.86 525.492 493.86C523.956 493.86 523.172 494.079 522.058 494.769L521.243 493.358C522.623 492.433 523.909 492.135 525.461 492.135C526.841 492.135 527.985 492.37 528.738 492.903C529.365 493.342 529.71 493.97 529.71 494.816C529.71 495.381 529.491 495.883 529.067 496.165C529.851 496.573 530.275 497.247 530.275 498.235C530.275 499.113 529.851 499.818 529.099 500.383C528.283 500.994 527.013 501.23 525.477 501.23C523.595 501.23 522.309 500.869 520.898 499.912L521.792 498.454C522.889 499.144 524.097 499.505 525.571 499.505C527.233 499.505 528.315 499.16 528.315 498.156C528.315 497.576 527.985 497.294 527.029 497.294H523.579V495.569ZM531.593 492.339H533.553V495.647H538.445V492.339H540.405V501.01H538.445V497.404H533.553V501.01H531.593V492.339ZM541.975 492.339H549.846V494.111H543.935V495.71H549.25V497.482H543.935V499.207H550.066V501.01H541.975V492.339ZM560.455 494.456L558.934 495.334C558.276 494.393 557.413 493.876 556.033 493.876C554.293 493.876 553.164 494.973 553.164 496.682C553.164 498.36 554.34 499.489 556.033 499.489C557.413 499.489 558.276 498.972 558.934 498.031L560.455 498.909C559.561 500.43 558.088 501.23 556.065 501.23C553.289 501.23 551.22 499.489 551.22 496.682C551.22 493.876 553.337 492.135 556.065 492.135C558.088 492.135 559.561 492.935 560.455 494.456ZM561.678 495.726H566.617V497.451H561.678V495.726ZM568.021 492.339H569.966V495.538H572.49L574.67 492.339H576.927L574.152 496.353L577.131 501.01H574.811L572.537 497.325H569.966V501.01H568.021V492.339ZM580.554 492.339H587.469V501.01H585.509V494.095H582.185L581.307 498.799C581.025 500.336 580.068 501.01 578.641 501.01H577.606V499.222H578.547C579.002 499.222 579.3 499.019 579.394 498.548L580.554 492.339ZM593.718 494.079L592.103 497.984H595.961L594.393 494.079H593.718ZM592.495 492.339H595.678L599.363 501.01H597.293L596.729 499.693H591.382L590.817 501.01H588.716L592.495 492.339ZM609.226 494.456L607.705 495.334C607.046 494.393 606.184 493.876 604.804 493.876C603.063 493.876 601.934 494.973 601.934 496.682C601.934 498.36 603.11 499.489 604.804 499.489C606.184 499.489 607.046 498.972 607.705 498.031L609.226 498.909C608.332 500.43 606.858 501.23 604.835 501.23C602.06 501.23 599.99 499.489 599.99 496.682C599.99 493.876 602.107 492.135 604.835 492.135C606.858 492.135 608.332 492.935 609.226 494.456ZM619.531 494.456L618.01 495.334C617.351 494.393 616.489 493.876 615.109 493.876C613.369 493.876 612.24 494.973 612.24 496.682C612.24 498.36 613.416 499.489 615.109 499.489C616.489 499.489 617.351 498.972 618.01 498.031L619.531 498.909C618.637 500.43 617.163 501.23 615.14 501.23C612.365 501.23 610.295 499.489 610.295 496.682C610.295 493.876 612.412 492.135 615.14 492.135C617.163 492.135 618.637 492.935 619.531 494.456ZM625.124 494.079L623.509 497.984H627.366L625.798 494.079H625.124ZM623.901 492.339H627.084L630.769 501.01H628.699L628.135 499.693H622.788L622.223 501.01H620.122L623.901 492.339Z" fill="#010101"/>
<path d="M582.64 177.32C582.64 226.1 543.1 265.64 494.32 265.64C445.54 265.64 406 226.1 406 177.32C406 128.54 445.54 89 494.32 89C543.1 89 582.64 128.54 582.64 177.32Z" stroke="#010101" stroke-width="3" stroke-miterlimit="10"/>
<path d="M676.63 290.5C676.63 311.33 659.74 328.22 638.91 328.22C618.08 328.22 601.19 311.33 601.19 290.5C601.19 269.67 618.08 252.78 638.91 252.78C659.74 252.78 676.63 269.67 676.63 290.5Z" stroke="#010101" stroke-miterlimit="10"/>
<path d="M103.14 383.75C103.14 411.67 80.5101 434.3 52.6001 434.3C24.6901 434.3 2.06006 411.67 2.06006 383.75C2.06006 355.83 24.6901 333.21 52.6001 333.21C80.5101 333.21 103.14 355.84 103.14 383.75Z" stroke="#010101" stroke-width="4" stroke-miterlimit="10"/>
<path d="M192.462 574.095C235.49 573.389 269.799 537.936 269.093 494.908C268.387 451.879 232.934 417.57 189.906 418.276C146.877 418.982 112.568 454.436 113.274 497.464C113.98 540.492 149.434 574.801 192.462 574.095Z" stroke="#010101" stroke-miterlimit="10"/>
<path d="M232.81 210.07C232.81 243.07 206.06 269.82 173.06 269.82C140.06 269.82 113.31 243.07 113.31 210.07C113.31 177.07 140.06 150.32 173.06 150.32C206.06 150.32 232.81 177.07 232.81 210.07Z" stroke="#010101" stroke-width="0.5" stroke-miterlimit="10"/>
<path d="M660.14 481.53C660.14 533.55 617.97 575.73 565.94 575.73C513.91 575.73 471.74 533.56 471.74 481.53C471.74 429.5 513.91 387.33 565.94 387.33C617.97 387.33 660.14 429.5 660.14 481.53Z" stroke="#010101" stroke-miterlimit="10"/>
<path d="M19.1001 213.43C19.1001 218.68 14.8501 222.93 9.6001 222.93C4.3501 222.93 0.100098 218.68 0.100098 213.43C0.100098 208.18 4.3501 203.93 9.6001 203.93C14.8501 203.93 19.1001 208.18 19.1001 213.43Z" fill="#010101"/>
<path d="M684.37 138.15C684.37 141.49 681.66 144.19 678.33 144.19C675 144.19 672.29 141.48 672.29 138.15C672.29 134.82 675 132.11 678.33 132.11C681.66 132.11 684.37 134.82 684.37 138.15Z" fill="#010101"/>
<path d="M601.33 121.76C601.33 123.43 599.98 124.78 598.31 124.78C596.64 124.78 595.29 123.43 595.29 121.76C595.29 120.09 596.64 118.74 598.31 118.74C599.98 118.74 601.33 120.09 601.33 121.76Z" fill="#010101"/>
<path d="M87.9101 184.45C87.9101 185.28 87.2301 185.96 86.4001 185.96C85.5701 185.96 84.8901 185.28 84.8901 184.45C84.8901 183.62 85.5701 182.94 86.4001 182.94C87.2301 182.94 87.9101 183.62 87.9101 184.45Z" fill="#010101"/>
<path d="M91.0601 461.68C91.0601 464.65 88.6501 467.05 85.6901 467.05C82.7301 467.05 80.3201 464.65 80.3201 461.68C80.3201 458.71 82.7201 456.31 85.6901 456.31C88.6601 456.31 91.0601 458.71 91.0601 461.68Z" fill="#010101"/>
<path d="M28.2301 525.28C28.2301 526.76 27.0301 527.97 25.5401 527.97C24.0501 527.97 22.8501 526.77 22.8501 525.28C22.8501 523.79 24.0501 522.59 25.5401 522.59C27.0301 522.59 28.2301 523.79 28.2301 525.28Z" fill="#010101"/>
<path d="M378.4 430.48C378.4 432.59 376.69 434.29 374.59 434.29C372.49 434.29 370.77 432.58 370.77 430.48C370.77 428.38 372.48 426.67 374.59 426.67C376.7 426.67 378.4 428.38 378.4 430.48Z" fill="#010101"/>
<path d="M445.43 450.66C443.1 449.53 440.46 448.53 438.11 447.06C431.93 443.21 428.6 437.34 427.09 430.38C425.05 420.99 426.4 411.87 429.66 402.97C431.54 397.84 434.07 393.06 437.51 388.79C437.94 388.25 438.33 387.63 439.15 388C439.98 388.37 440.2 389.16 439.92 389.91C439.28 391.61 438.57 393.29 437.77 394.92C433.64 403.36 431.01 412.16 431.26 421.65C431.42 427.57 433.04 432.99 437.34 437.32C440.83 440.84 445.2 442.63 450.08 443.42C448.34 441.85 446.62 440.28 444.87 438.73C444.09 438.04 443.72 437.25 443.97 436.2C444.42 434.27 445.46 433.9 447.05 435.04C451.01 437.88 454.97 440.7 458.97 443.48C459.94 444.16 461.05 444.64 462.07 445.24C464 446.38 464.54 448.49 463.35 450.42C462.99 451.02 462.52 451.63 461.95 452.01C456.12 455.88 449.84 458.39 442.7 458.17C440.64 458.11 439.9 457.47 439.7 455.73C439.46 453.67 440.42 452 442.14 451.54C443.35 451.21 444.56 450.91 445.44 450.68L445.43 450.66Z" stroke="#010101" stroke-miterlimit="10"/>
<path d="M512.16 289.68C514.15 293.5 515.74 297.4 516.72 301.53C518.26 308.07 518.45 314.59 516.12 321.01C512.75 330.29 504.97 334.8 495.25 333.11C493.64 332.83 492.05 332.35 490.47 331.9C489.66 331.67 489.42 331.07 489.67 330.22C489.93 329.33 490.36 329.14 491.28 329.3C493.45 329.68 495.62 330.24 497.8 330.29C505.74 330.48 511.66 325.81 513.6 318.08C514.46 314.67 514.41 311.25 513.82 307.81C512.9 302.45 511.15 297.41 508.15 292.84C508.07 292.71 507.98 292.59 507.74 292.5C507.78 292.88 507.81 293.25 507.85 293.63C508.12 296.69 508.43 299.76 508.64 302.83C508.69 303.64 508.51 304.5 508.28 305.29C508.07 306.03 507.41 306.57 506.67 306.41C506.24 306.32 505.7 305.67 505.61 305.2C505.14 302.7 504.71 300.18 504.42 297.66C503.96 293.68 503.62 289.68 503.24 285.69C503.12 284.41 503.14 283.15 503.81 281.98C504.66 280.5 506.09 280.1 507.51 281.04C511.46 283.67 514.97 286.83 518.29 290.21C519.03 290.97 519.79 291.7 520.53 292.45C521.17 293.11 521.2 293.91 520.64 294.63C520.21 295.18 519.78 295.31 519.15 294.83C516.85 293.09 514.51 291.4 512.18 289.69" fill="black"/>
<path d="M256.25 250.82C259.73 251.18 262.79 251.48 265.84 251.81C267.61 252 268.94 251.29 269.53 249.81C270.06 248.5 269.59 247.7 268.22 247.36C260.41 245.43 252.58 243.55 244.81 241.48C242.73 240.93 240.86 240.03 238.77 241.45C236.12 243.25 235.43 245.43 236.67 248.39C239.86 256.06 243.02 263.74 246.18 271.42C246.97 273.35 248.12 273.96 250.12 273.4C253.16 272.55 254.78 269.91 253.99 266.89C253.19 263.82 252.29 260.77 251.4 257.6C251.68 257.74 251.92 257.8 252.1 257.95C260.67 265.06 268.64 272.75 274.29 282.48C278.67 290.02 281.45 298.12 282.07 306.88C282.13 307.73 281.99 308.61 282.11 309.45C282.2 310.13 282.52 311.33 282.75 311.34C283.57 311.35 284.54 311.13 285.18 310.65C285.64 310.31 285.77 309.41 285.87 308.73C287.96 295.4 283.99 283.61 276.65 272.7C271.38 264.87 264.82 258.22 257.68 252.1C257.31 251.78 256.94 251.46 256.22 250.82H256.25Z" stroke="#010101" stroke-miterlimit="10"/>
<path d="M586.26 337.32C583.37 341.17 580.31 344.04 576.77 346.38C568.04 352.15 558.18 354.82 547.98 356.14C531.48 358.28 515.17 357.35 499.25 352.08C498.32 351.77 497.15 351.53 496.29 351.84C495.42 352.15 494.3 353.11 494.21 353.89C494.13 354.6 495.13 355.84 495.93 356.17C506.49 360.56 517.41 363.57 528.88 364.4C544.6 365.53 559.97 363.94 574.8 358.44C582.72 355.5 589.73 351.12 595.04 344.36C595.15 344.22 595.34 344.13 595.76 343.82C595.72 344.77 595.66 345.47 595.66 346.18C595.66 352.32 595.69 358.46 595.66 364.6C595.65 366.15 596.42 366.86 597.81 366.99C599.17 367.12 600.39 366.82 600.88 365.29C601.58 363.11 602.63 360.98 602.94 358.75C604.14 350.12 605.1 341.45 606.15 332.79C606.23 332.12 606.28 331.44 606.35 330.77C606.84 325.5 604 323.02 598.77 324.36C595.37 325.23 592.07 326.54 588.68 327.44C581.43 329.37 574.13 331.15 566.86 333.02C565.75 333.3 564.61 333.6 563.6 334.11C561.26 335.29 560.97 337.62 562.88 339.42C564.41 340.86 566.29 341.4 568.33 341.01C573.71 339.98 579.07 338.86 584.43 337.77C584.86 337.68 585.29 337.57 586.28 337.34" fill="black"/>
<path d="M134.11 359.42C137.95 359.13 141.59 358.92 145.22 358.57C159.34 357.17 173.13 354.02 186.86 350.62C188.03 350.33 189.2 350.06 190.38 349.84C190.86 349.75 191.45 349.65 191.84 349.86C192.36 350.13 192.95 350.63 193.1 351.15C193.19 351.45 192.55 352.17 192.1 352.38C189.92 353.39 187.73 354.39 185.48 355.22C172.03 360.16 158.07 362.86 143.91 364.71C140.98 365.09 138.04 365.36 135.04 365.91C136.19 366.27 137.35 366.63 138.5 366.99C141.23 367.84 143.97 368.63 146.67 369.55C147.88 369.96 149.44 370.47 149.19 372.08C148.96 373.59 147.31 373.78 146.15 373.7C142.46 373.45 138.75 373.2 135.14 372.48C128.88 371.23 122.87 369.11 117.14 366.29C115.94 365.7 114.77 364.75 113.98 363.68C112.91 362.23 113.48 360.58 115.03 359.58C121.34 355.5 127.62 351.39 133.95 347.36C135.68 346.26 137.47 345.2 139.36 344.45C140.48 344 141.94 343.88 143.11 344.16C146.58 344.99 147.29 347.37 145.1 350.17C142.5 353.49 139.13 355.93 135.7 358.3C135.22 358.64 134.74 358.98 134.12 359.42" fill="black"/>
<path d="M239.82 416.96C240.09 415.37 240.39 413.79 240.59 412.2C240.66 411.63 240.55 411 240.36 410.45C240.16 409.86 239.68 409.42 238.98 409.5C238.24 409.58 237.91 410.1 237.78 410.77C237.33 413.12 236.87 415.47 236.44 417.83C236.11 419.69 235.81 421.55 235.51 423.41C235.36 424.36 235.55 425.23 236.36 425.8C236.64 426 237.21 426.12 237.48 425.97C241.24 423.78 245.18 421.88 248.45 418.94C248.76 418.66 249.03 418.2 249.08 417.79C249.19 416.74 248.57 416.23 247.58 416.56C246.34 416.96 245.15 417.48 243.93 417.95C243.76 418.02 243.6 418.09 243.29 418.23C243.43 417.98 243.48 417.86 243.55 417.74C248.58 409.84 250.94 401.15 251.3 391.86C251.34 390.73 251.36 389.59 251.37 388.45C251.37 388.21 251.4 387.92 251.28 387.75C251.1 387.47 250.8 387.27 250.56 387.03C250.36 387.27 250.04 387.49 250 387.76C249.81 388.88 249.66 390.01 249.56 391.14C248.75 400.36 245.66 408.74 240.42 416.35C240.26 416.58 240.09 416.8 239.92 417.02C239.89 417 239.85 416.99 239.82 416.97" fill="black"/>
<path d="M343.9 287.57C343.9 288.4 343.22 289.08 342.39 289.08C341.56 289.08 340.88 288.4 340.88 287.57C340.88 286.74 341.56 286.06 342.39 286.06C343.22 286.06 343.9 286.74 343.9 287.57Z" fill="#010101"/>
</svg>
