<svg width="327" height="402" viewBox="0 0 327 402" fill="none" xmlns="http://www.w3.org/2000/svg">
<rect x="4.99951" width="322" height="64" rx="32" fill="black"/>
<circle cx="72.9995" cy="191" r="57" stroke="black" stroke-width="2"/>
<circle cx="244.5" cy="252.5" r="50.5" stroke="black" stroke-width="2"/>
<circle cx="70.4995" cy="352.5" r="48.5" stroke="black" stroke-width="2"/>
<circle cx="272.5" cy="327.5" r="34.5" fill="white" stroke="black" stroke-width="2"/>
<path d="M258.55 323.258H260.3V329.418H264.388V323.258H266.138V329.418H266.95V332.484H265.438L265.312 331H258.55V323.258ZM272.252 324.812L270.81 328.298H274.254L272.854 324.812H272.252ZM271.16 323.258H274.002L277.292 331H275.444L274.94 329.824H270.166L269.662 331H267.786L271.16 323.258ZM279.63 327.136C279.63 328.732 280.764 329.698 282.22 329.698C283.676 329.698 284.81 328.732 284.81 327.136C284.81 325.54 283.676 324.574 282.22 324.574C280.764 324.574 279.63 325.54 279.63 327.136ZM286.56 327.136C286.56 329.572 284.572 331.196 282.22 331.196C279.868 331.196 277.88 329.572 277.88 327.136C277.88 324.7 279.868 323.076 282.22 323.076C284.572 323.076 286.56 324.7 286.56 327.136Z" fill="black"/>
<path d="M31.2034 345.258H36.1874C37.5874 345.258 38.5814 346.07 38.5814 347.33C38.5814 347.89 38.3854 348.366 37.9794 348.646C38.6934 349.01 39.1134 349.64 39.1134 350.592C39.1134 351.922 38.0354 353 36.5654 353H31.2034V345.258ZM32.9534 346.826V348.24H36.2434C36.6214 348.24 36.8734 347.89 36.8734 347.54C36.8734 347.204 36.6914 346.826 36.1034 346.826H32.9534ZM32.9534 349.766V351.418H36.5094C37.0694 351.418 37.4054 351.068 37.4054 350.592C37.4054 350.088 37.0554 349.766 36.5514 349.766H32.9534ZM52.4207 347.148L51.0627 347.932C50.4747 347.092 49.7047 346.63 48.4727 346.63C46.9187 346.63 45.9107 347.61 45.9107 349.136C45.9107 350.634 46.9607 351.642 48.4727 351.642C49.7047 351.642 50.4747 351.18 51.0627 350.34L52.4207 351.124C51.6227 352.482 50.3067 353.196 48.5007 353.196C46.0227 353.196 44.1747 351.642 44.1747 349.136C44.1747 346.63 46.0647 345.076 48.5007 345.076C50.3067 345.076 51.6227 345.79 52.4207 347.148ZM55.1539 349.136C55.1539 350.732 56.2879 351.698 57.7439 351.698C59.1999 351.698 60.3339 350.732 60.3339 349.136C60.3339 347.54 59.1999 346.574 57.7439 346.574C56.2879 346.574 55.1539 347.54 55.1539 349.136ZM62.0839 349.136C62.0839 351.572 60.0959 353.196 57.7439 353.196C55.3919 353.196 53.4039 351.572 53.4039 349.136C53.4039 346.7 55.3919 345.076 57.7439 345.076C60.0959 345.076 62.0839 346.7 62.0839 349.136ZM71.4793 347.148L70.1213 347.932C69.5333 347.092 68.7633 346.63 67.5313 346.63C65.9773 346.63 64.9693 347.61 64.9693 349.136C64.9693 350.634 66.0193 351.642 67.5313 351.642C68.7633 351.642 69.5333 351.18 70.1213 350.34L71.4793 351.124C70.6813 352.482 69.3653 353.196 67.5593 353.196C65.0813 353.196 63.2333 351.642 63.2333 349.136C63.2333 346.63 65.1233 345.076 67.5593 345.076C69.3653 345.076 70.6813 345.79 71.4793 347.148ZM72.2945 345.258H80.3445V346.826H77.1945V353H75.4445V346.826H72.2945V345.258ZM84.3894 346.812L82.9474 350.298H86.3914L84.9914 346.812H84.3894ZM83.2974 345.258H86.1394L89.4294 353H87.5814L87.0774 351.824H82.3034L81.7994 353H79.9234L83.2974 345.258ZM90.553 345.258H95.537C96.937 345.258 97.931 346.07 97.931 347.33C97.931 347.89 97.735 348.366 97.329 348.646C98.043 349.01 98.463 349.64 98.463 350.592C98.463 351.922 97.385 353 95.915 353H90.553V345.258ZM92.303 346.826V348.24H95.593C95.971 348.24 96.223 347.89 96.223 347.54C96.223 347.204 96.041 346.826 95.453 346.826H92.303ZM92.303 349.766V351.418H95.859C96.419 351.418 96.755 351.068 96.755 350.592C96.755 350.088 96.405 349.766 95.901 349.766H92.303ZM99.6312 345.258H106.659V346.84H101.381V348.268H106.127V349.85H101.381V351.39H106.855V353H99.6312V345.258ZM62.2183 359.258H70.2683V360.826H67.1183V367H65.3683V360.826H62.2183V359.258ZM71.3851 359.258H73.1351V365.418H77.2231V359.258H78.9731V365.418H79.7851V368.484H78.2731L78.1471 367H71.3851V359.258Z" fill="black"/>
<path d="M218.048 235.364V242H216.836V236.456H215.564V235.364H218.048ZM229.986 235.364V242H228.762V236.468H225.798L225.066 240.356C224.962 240.924 224.738 241.34 224.394 241.604C224.058 241.868 223.63 242 223.11 242H222.438V240.86H223.026C223.258 240.86 223.446 240.808 223.59 240.704C223.734 240.6 223.83 240.432 223.878 240.2L224.79 235.364H229.986ZM232.474 235.364V240.38L236.902 235.364H238.114V242H236.902V237.008L232.486 242H231.262V235.364H232.474ZM240.608 235.364V238.016H244.868V235.364H246.08V242H244.868V239.108H240.608V242H239.384V235.364H240.608ZM248.576 235.364V240.38L253.004 235.364H254.216V242H253.004V237.008L248.588 242H247.364V235.364H248.576ZM261.857 242H260.633V240.44H257.741L256.889 242H255.545L256.589 240.152C256.157 239.936 255.825 239.64 255.593 239.264C255.369 238.888 255.257 238.444 255.257 237.932C255.257 237.548 255.325 237.2 255.461 236.888C255.597 236.568 255.785 236.296 256.025 236.072C256.265 235.848 256.549 235.676 256.877 235.556C257.205 235.428 257.561 235.364 257.945 235.364H261.857V242ZM258.005 236.48C257.549 236.48 257.181 236.612 256.901 236.876C256.621 237.132 256.481 237.484 256.481 237.932C256.481 238.388 256.621 238.736 256.901 238.976C257.181 239.208 257.549 239.324 258.005 239.324H260.633V236.48H258.005ZM268.078 238.076V236.528H269.194V238.076H270.73V239.096H269.194V240.596H268.078V239.096H266.554V238.076H268.078ZM202.58 249.364V254.38L207.008 249.364H208.22V256H207.008V251.008L202.592 256H201.368V249.364H202.58ZM210.713 249.364V252.016H214.973V249.364H216.185V256H214.973V253.108H210.713V256H209.489V249.364H210.713ZM224.057 249.364V250.468H221.237V256H220.013V250.468H217.193V249.364H224.057ZM230.992 249.364V250.468H226.276V252.064H230.524V253.156H226.276V254.884H231.172V256H225.052V249.364H230.992ZM233.576 249.364V252.016H237.836V249.364H239.048V256H237.836V253.108H233.576V256H232.352V249.364H233.576ZM246.201 251.428C245.937 251.068 245.613 250.792 245.229 250.6C244.853 250.4 244.389 250.3 243.837 250.3C243.461 250.3 243.121 250.356 242.817 250.468C242.521 250.58 242.265 250.74 242.049 250.948C241.841 251.156 241.677 251.408 241.557 251.704C241.445 252 241.389 252.328 241.389 252.688C241.389 253.04 241.449 253.364 241.569 253.66C241.689 253.948 241.857 254.2 242.073 254.416C242.289 254.624 242.545 254.788 242.841 254.908C243.145 255.02 243.477 255.076 243.837 255.076C244.389 255.076 244.849 254.98 245.217 254.788C245.593 254.588 245.921 254.304 246.201 253.936L247.161 254.5C246.809 255.036 246.361 255.448 245.817 255.736C245.273 256.024 244.621 256.168 243.861 256.168C243.333 256.168 242.845 256.088 242.397 255.928C241.949 255.768 241.557 255.54 241.221 255.244C240.893 254.94 240.637 254.572 240.453 254.14C240.269 253.708 240.177 253.224 240.177 252.688C240.177 252.152 240.269 251.668 240.453 251.236C240.645 250.804 240.905 250.44 241.233 250.144C241.569 249.84 241.961 249.608 242.409 249.448C242.857 249.288 243.341 249.208 243.861 249.208C244.613 249.208 245.261 249.352 245.805 249.64C246.357 249.92 246.805 250.332 247.149 250.876L246.201 251.428ZM249.455 249.364V254.38L253.883 249.364H255.095V256H253.883V251.008L249.467 256H248.243V249.364H249.455ZM260.6 249.364C260.896 249.364 261.168 249.404 261.416 249.484C261.672 249.564 261.888 249.68 262.064 249.832C262.24 249.984 262.376 250.164 262.472 250.372C262.576 250.58 262.628 250.816 262.628 251.08C262.628 251.632 262.44 252.036 262.064 252.292C262.392 252.436 262.644 252.652 262.82 252.94C263.004 253.22 263.096 253.56 263.096 253.96C263.096 254.24 263.04 254.504 262.928 254.752C262.824 255 262.676 255.216 262.484 255.4C262.292 255.584 262.06 255.732 261.788 255.844C261.524 255.948 261.228 256 260.9 256H256.364V249.364H260.6ZM257.588 252.004H260.708C260.94 252.004 261.12 251.928 261.248 251.776C261.376 251.616 261.44 251.44 261.44 251.248C261.44 251.144 261.424 251.048 261.392 250.96C261.368 250.864 261.32 250.78 261.248 250.708C261.176 250.636 261.08 250.58 260.96 250.54C260.848 250.492 260.704 250.468 260.528 250.468H257.588V252.004ZM257.588 254.896H260.852C261.204 254.896 261.468 254.808 261.644 254.632C261.82 254.448 261.908 254.228 261.908 253.972C261.908 253.692 261.82 253.472 261.644 253.312C261.476 253.152 261.252 253.072 260.972 253.072H257.588V254.896ZM265.369 249.364V252.016H269.629V249.364H270.841V256H269.629V253.108H265.369V256H264.145V249.364H265.369ZM280.514 249.364V256H279.29V249.364H280.514ZM273.35 249.364V250.96H275.87C276.254 250.96 276.61 251.02 276.938 251.14C277.266 251.252 277.55 251.416 277.79 251.632C278.03 251.848 278.218 252.112 278.354 252.424C278.49 252.728 278.558 253.072 278.558 253.456C278.558 253.84 278.49 254.188 278.354 254.5C278.218 254.812 278.03 255.08 277.79 255.304C277.55 255.528 277.266 255.7 276.938 255.82C276.61 255.94 276.254 256 275.87 256H272.126V249.364H273.35ZM273.35 254.884H275.774C276.27 254.884 276.654 254.764 276.926 254.524C277.198 254.276 277.334 253.92 277.334 253.456C277.334 252.984 277.198 252.632 276.926 252.4C276.654 252.168 276.27 252.052 275.774 252.052H273.35V254.884ZM282.994 249.364V254.38L287.422 249.364H288.634V256H287.422V251.008L283.006 256H281.782V249.364H282.994ZM287.062 247.828C286.758 248.164 286.45 248.396 286.138 248.524C285.834 248.644 285.506 248.704 285.154 248.704C284.802 248.704 284.47 248.644 284.158 248.524C283.854 248.396 283.546 248.164 283.234 247.828L283.858 247.192C284.042 247.376 284.234 247.516 284.434 247.612C284.634 247.7 284.874 247.744 285.154 247.744C285.434 247.744 285.67 247.7 285.862 247.612C286.062 247.516 286.254 247.376 286.438 247.192L287.062 247.828ZM227.485 263.364V264.468H224.665V270H223.441V264.468H220.621V263.364H227.485ZM232.379 263.364C232.763 263.364 233.119 263.428 233.447 263.556C233.775 263.676 234.059 263.848 234.299 264.072C234.539 264.296 234.727 264.568 234.863 264.888C235.007 265.2 235.079 265.548 235.079 265.932C235.079 266.316 235.007 266.664 234.863 266.976C234.727 267.288 234.539 267.556 234.299 267.78C234.059 267.996 233.775 268.164 233.447 268.284C233.119 268.404 232.763 268.464 232.379 268.464H229.703V270H228.479V263.364H232.379ZM229.703 267.348H232.331C232.787 267.348 233.155 267.224 233.435 266.976C233.723 266.728 233.867 266.38 233.867 265.932C233.867 265.476 233.723 265.12 233.435 264.864C233.155 264.608 232.787 264.48 232.331 264.48H229.703V267.348ZM237.631 267.876H241.207L239.815 264.456H239.059L237.631 267.876ZM240.619 263.364L243.439 270H242.155L241.699 268.956H237.175L236.719 270H235.411L238.315 263.364H240.619ZM248.06 263.364H249.26V264.12H250.76C251.144 264.12 251.496 264.184 251.816 264.312C252.144 264.432 252.428 264.604 252.668 264.828C252.908 265.052 253.096 265.324 253.232 265.644C253.368 265.956 253.436 266.304 253.436 266.688C253.436 267.072 253.368 267.42 253.232 267.732C253.096 268.044 252.908 268.308 252.668 268.524C252.428 268.74 252.144 268.908 251.816 269.028C251.496 269.148 251.144 269.208 250.76 269.208H249.26V270H248.06V269.208H246.56C246.176 269.208 245.82 269.148 245.492 269.028C245.164 268.908 244.88 268.74 244.64 268.524C244.4 268.308 244.212 268.044 244.076 267.732C243.94 267.42 243.872 267.072 243.872 266.688C243.872 266.304 243.94 265.956 244.076 265.644C244.212 265.324 244.4 265.052 244.64 264.828C244.88 264.604 245.164 264.432 245.492 264.312C245.82 264.184 246.176 264.12 246.56 264.12H248.06V263.364ZM246.62 265.224C246.14 265.224 245.764 265.348 245.492 265.596C245.228 265.844 245.096 266.204 245.096 266.676C245.096 267.14 245.236 267.496 245.516 267.744C245.796 267.984 246.164 268.104 246.62 268.104H248.06V265.224H246.62ZM249.26 268.104H250.7C251.148 268.104 251.512 267.984 251.792 267.744C252.08 267.496 252.224 267.14 252.224 266.676C252.224 266.204 252.088 265.844 251.816 265.596C251.552 265.348 251.18 265.224 250.7 265.224H249.26V268.104ZM255.695 263.364V268.38L260.123 263.364H261.335V270H260.123V265.008L255.707 270H254.483V263.364H255.695ZM263.816 263.364V265.932H266.132L267.884 263.364H269.288L267.176 266.436L269.456 270H268.016L266.168 267.036H263.816V270H262.604V263.364H263.816Z" fill="black"/>
<path d="M31.4995 179.47V185H32.7495V183.77H34.7595C36.0595 183.77 37.0395 182.94 37.0395 181.64C37.0395 180.34 36.0595 179.47 34.7595 179.47H31.4995ZM32.7495 180.61H34.7095C35.3495 180.61 35.7895 181 35.7895 181.64C35.7895 182.28 35.3495 182.63 34.7095 182.63H32.7495V180.61ZM37.8862 179.47V185H39.1062L42.3862 181.18V185H43.6262V179.47H42.4162L39.1262 183.31V179.47H37.8862ZM44.4245 179.47V180.59H46.6745V185H47.9245V180.59H50.1745V179.47H44.4245ZM50.9722 179.47V185H56.1322V183.85H52.2222V182.75H55.6122V181.62H52.2222V180.6H55.9922V179.47H50.9722ZM57.0659 179.47V185H58.2859L61.5659 181.18V185H62.8059V179.47H61.5959L58.3059 183.31V179.47H57.0659ZM60.9459 177.58C60.6459 177.84 60.3659 177.97 59.8759 177.97C59.3859 177.97 59.1059 177.84 58.8059 177.58L58.2059 178.24C58.8059 178.8 59.2959 178.93 59.8759 178.93C60.4559 178.93 60.9459 178.8 61.5459 178.24L60.9459 177.58ZM65.2542 179.47L64.5142 183.43C64.4542 183.73 64.2642 183.86 63.9742 183.86H63.3742V185H64.0342C64.9442 185 65.5542 184.57 65.7342 183.59L66.2942 180.59H68.4142V185H69.6642V179.47H65.2542ZM73.5405 179.47V185H77.3705C78.4205 185 79.1905 184.23 79.1905 183.28C79.1905 182.6 78.8905 182.15 78.3805 181.89C78.6705 181.69 78.8105 181.35 78.8105 180.95C78.8105 180.05 78.1005 179.47 77.1005 179.47H73.5405ZM74.7905 180.59H77.0405C77.4605 180.59 77.5905 180.86 77.5905 181.1C77.5905 181.35 77.4105 181.6 77.1405 181.6H74.7905V180.59ZM74.7905 182.69H77.3605C77.7205 182.69 77.9705 182.92 77.9705 183.28C77.9705 183.62 77.7305 183.87 77.3305 183.87H74.7905V182.69ZM82.8358 179.47L84.4058 182.04L82.6558 185H84.0958L85.4358 182.66H86.5458V185H87.7958V182.66H88.9058L90.2458 185H91.6858L89.9358 182.04L91.5058 179.47H90.0858L88.8658 181.56H87.7958V179.47H86.5458V181.56H85.4758L84.2558 179.47H82.8358ZM92.437 179.47V185H93.677V182.65H95.317L96.767 185H98.247L96.347 182.03L98.117 179.47H96.677L95.287 181.51H93.677V179.47H92.437ZM31.4995 195.47V201H35.0295C36.1595 201 36.9695 200.15 36.9695 199.12C36.9695 198.06 36.1595 197.3 35.0295 197.3H32.7395V196.59H36.2795V195.47H31.4995ZM32.7395 198.4H34.9295C35.5095 198.4 35.7295 198.71 35.7295 199.12C35.7295 199.54 35.5195 199.88 34.9395 199.88H32.7395V198.4ZM37.769 195.47V201H38.989L42.269 197.18V201H43.509V195.47H42.299L39.009 199.31V195.47H37.769ZM46.0373 197.53V198.63H48.2373C48.8473 198.63 49.0573 198.81 49.0573 199.18C49.0573 199.82 48.3673 200.04 47.3073 200.04C46.3673 200.04 45.5973 199.81 44.8973 199.37L44.3273 200.3C45.2273 200.91 46.0473 201.14 47.2473 201.14C48.2273 201.14 49.0373 200.99 49.5573 200.6C50.0373 200.24 50.3073 199.79 50.3073 199.23C50.3073 198.6 50.0373 198.17 49.5373 197.91C49.8073 197.73 49.9473 197.41 49.9473 197.05C49.9473 196.51 49.7273 196.11 49.3273 195.83C48.8473 195.49 48.1173 195.34 47.2373 195.34C46.2473 195.34 45.4273 195.53 44.5473 196.12L45.0673 197.02C45.7773 196.58 46.2773 196.44 47.2573 196.44C48.2373 196.44 48.6973 196.66 48.6973 197.09C48.6973 197.38 48.5373 197.53 48.2373 197.53H46.0373ZM51.1479 195.47V201H52.3979V198.7H55.5179V201H56.7679V195.47H55.5179V197.58H52.3979V195.47H51.1479ZM57.769 195.47V201H62.929V199.85H59.019V198.75H62.409V197.62H59.019V196.6H62.789V195.47H57.769ZM69.5551 196.82C68.9851 195.85 68.0451 195.34 66.7551 195.34C65.0151 195.34 63.6651 196.45 63.6651 198.24C63.6651 200.03 64.9851 201.14 66.7551 201.14C68.0451 201.14 68.9851 200.63 69.5551 199.66L68.5851 199.1C68.1651 199.7 67.6151 200.03 66.7351 200.03C65.6551 200.03 64.9051 199.31 64.9051 198.24C64.9051 197.15 65.6251 196.45 66.7351 196.45C67.6151 196.45 68.1651 196.78 68.5851 197.38L69.5551 196.82ZM70.3351 197.63V198.73H73.4851V197.63H70.3351ZM74.3804 195.47V201H75.6204V198.65H77.2604L78.7104 201H80.1904L78.2904 198.03L80.0604 195.47H78.6204L77.2304 197.51H75.6204V195.47H74.3804ZM82.3733 195.47L81.6333 199.43C81.5733 199.73 81.3833 199.86 81.0933 199.86H80.4933V201H81.1533C82.0633 201 82.6733 200.57 82.8533 199.59L83.4133 196.59H85.5333V201H86.7833V195.47H82.3733ZM90.7688 196.58H91.1988L92.1988 199.07H89.7388L90.7688 196.58ZM89.9888 195.47L87.5788 201H88.9188L89.2788 200.16H92.6888L93.0488 201H94.3688L92.0188 195.47H89.9888ZM100.659 196.82C100.089 195.85 99.1487 195.34 97.8587 195.34C96.1187 195.34 94.7687 196.45 94.7687 198.24C94.7687 200.03 96.0887 201.14 97.8587 201.14C99.1487 201.14 100.089 200.63 100.659 199.66L99.6887 199.1C99.2687 199.7 98.7187 200.03 97.8387 200.03C96.7587 200.03 96.0087 199.31 96.0087 198.24C96.0087 197.15 96.7287 196.45 97.8387 196.45C98.7187 196.45 99.2687 196.78 99.6887 197.38L100.659 196.82ZM107.231 196.82C106.661 195.85 105.721 195.34 104.431 195.34C102.691 195.34 101.341 196.45 101.341 198.24C101.341 200.03 102.661 201.14 104.431 201.14C105.721 201.14 106.661 200.63 107.231 199.66L106.261 199.1C105.841 199.7 105.291 200.03 104.411 200.03C103.331 200.03 102.581 199.31 102.581 198.24C102.581 197.15 103.301 196.45 104.411 196.45C105.291 196.45 105.841 196.78 106.261 197.38L107.231 196.82ZM110.798 196.58H111.228L112.228 199.07H109.768L110.798 196.58ZM110.018 195.47L107.608 201H108.948L109.308 200.16H112.718L113.078 201H114.398L112.048 195.47H110.018Z" fill="black"/>
<path d="M52.3606 25.834V38H54.6046L62.7006 28.848V38H64.9226V25.834H62.7006L54.5826 35.03V25.834H52.3606ZM67.4693 25.834V38H69.7133V32.698H77.5233V38H79.7453V25.834H77.5233V30.696H69.7133V25.834H67.4693ZM82.3201 25.834V38H90.6361C93.0341 38 94.6621 36.306 94.6621 34.26C94.6621 32.808 93.9581 31.73 92.7701 31.202C93.4741 30.718 93.8041 29.97 93.8041 28.98C93.8041 27.066 92.2861 25.834 90.0861 25.834H82.3201ZM84.5641 27.858H89.9541C91.2301 27.858 91.6261 28.54 91.6261 29.288C91.6261 29.992 91.1421 30.674 90.2841 30.674H84.5641V27.858ZM84.5641 32.632H90.7681C91.7801 32.632 92.4841 33.248 92.4841 34.282C92.4841 35.228 91.8241 35.976 90.5481 35.976H84.5641V32.632ZM96.8057 25.834V38H108.026V35.954H99.0497V32.786H106.838V30.784H99.0497V27.858H107.696V25.834H96.8057ZM122.692 28.606C121.438 26.626 119.392 25.548 116.664 25.548C112.858 25.548 109.91 27.968 109.91 31.928C109.91 35.866 112.792 38.308 116.664 38.308C119.436 38.308 121.438 37.208 122.714 35.25L120.954 34.216C119.942 35.558 118.644 36.306 116.62 36.306C113.958 36.306 112.132 34.502 112.132 31.928C112.132 29.266 113.892 27.55 116.62 27.55C118.622 27.55 119.986 28.298 120.954 29.618L122.692 28.606ZM124.197 25.834V27.858H129.367V38H131.611V27.858H136.781V25.834H124.197ZM140.373 31.928C140.373 29.134 142.375 27.484 144.927 27.484C147.501 27.484 149.503 29.134 149.503 31.928C149.503 34.722 147.501 36.372 144.927 36.372C142.375 36.372 140.373 34.722 140.373 31.928ZM151.725 31.928C151.725 28.078 148.689 25.548 144.927 25.548C141.165 25.548 138.129 28.078 138.129 31.928C138.129 35.778 141.165 38.308 144.927 38.308C148.689 38.308 151.725 35.778 151.725 31.928ZM154.039 25.834V38H156.283V35.184H161.189C163.983 35.184 166.139 33.38 166.139 30.542C166.139 27.704 163.983 25.834 161.189 25.834H154.039ZM156.283 27.88H161.101C162.773 27.88 163.917 28.892 163.917 30.542C163.917 32.17 162.773 33.138 161.101 33.138H156.283V27.88ZM175.169 25.834V38H183.485C185.883 38 187.511 36.306 187.511 34.26C187.511 32.808 186.807 31.73 185.619 31.202C186.323 30.718 186.653 29.97 186.653 28.98C186.653 27.066 185.135 25.834 182.935 25.834H175.169ZM177.413 27.858H182.803C184.079 27.858 184.475 28.54 184.475 29.288C184.475 29.992 183.991 30.674 183.133 30.674H177.413V27.858ZM177.413 32.632H183.617C184.629 32.632 185.333 33.248 185.333 34.282C185.333 35.228 184.673 35.976 183.397 35.976H177.413V32.632ZM202.788 25.834V38H205.032V25.834H202.788ZM189.654 25.834V38H196.518C199.312 38 201.446 36.152 201.446 33.336C201.446 30.498 199.312 28.76 196.518 28.76H191.898V25.834H189.654ZM191.898 30.762H196.342C198.146 30.762 199.202 31.62 199.202 33.336C199.202 35.03 198.146 35.954 196.342 35.954H191.898V30.762ZM207.577 25.834V38H215.299C217.719 38 219.501 36.196 219.501 33.952C219.501 31.642 217.719 30.036 215.299 30.036H209.799V27.858H217.961V25.834H207.577ZM209.799 32.016H215.079C216.641 32.016 217.279 32.83 217.279 33.952C217.279 35.096 216.663 35.976 215.101 35.976H209.799V32.016ZM221.59 25.834V38H223.834L231.93 28.848V38H234.152V25.834H231.93L223.812 35.03V25.834H221.59ZM236.699 25.834V38H238.943V35.184H243.849C246.643 35.184 248.799 33.38 248.799 30.542C248.799 27.704 246.643 25.834 243.849 25.834H236.699ZM238.943 27.88H243.761C245.433 27.88 246.577 28.892 246.577 30.542C246.577 32.17 245.433 33.138 243.761 33.138H238.943V27.88ZM256.316 27.836H257.702L260.254 34.106H253.698L256.316 27.836ZM254.952 25.834L249.628 38H252.026L252.862 36.086H261.156L261.992 38H264.346L259.176 25.834H254.952ZM266.465 25.834V38H277.685V35.954H268.709V32.786H276.497V30.784H268.709V27.858H277.355V25.834H266.465ZM279.564 25.834V27.858H284.734V38H286.978V27.858H292.148V25.834H279.564Z" fill="white"/>
<path d="M97.4469 77.705L96.3069 83.75C96.1869 84.335 95.8119 84.575 95.2419 84.575H94.5069V86H95.3469C96.6369 86 97.5369 85.355 97.7919 83.945L98.7069 79.085H102.412V86H103.942V77.705H97.4469ZM105.688 77.705V86H107.188V82.325H108.718C108.928 84.875 110.848 86.21 113.203 86.21C115.693 86.21 117.718 84.695 117.718 81.86C117.718 79.025 115.693 77.51 113.203 77.51C110.983 77.51 109.153 78.695 108.778 80.945H107.188V77.705H105.688ZM110.203 81.86C110.203 80.015 111.223 78.83 113.203 78.83C115.183 78.83 116.203 80.015 116.203 81.86C116.203 83.705 115.183 84.89 113.203 84.89C111.223 84.89 110.203 83.705 110.203 81.86ZM119.197 77.705V86H124.462C126.112 86 127.327 84.77 127.327 83.24C127.327 81.665 126.112 80.57 124.462 80.57H120.712V79.085H126.277V77.705H119.197ZM120.712 81.92H124.312C125.377 81.92 125.812 82.475 125.812 83.24C125.812 84.02 125.392 84.62 124.327 84.62H120.712V81.92ZM130.101 81.86C130.101 79.955 131.466 78.83 133.206 78.83C134.961 78.83 136.326 79.955 136.326 81.86C136.326 83.765 134.961 84.89 133.206 84.89C131.466 84.89 130.101 83.765 130.101 81.86ZM137.841 81.86C137.841 79.235 135.771 77.51 133.206 77.51C130.641 77.51 128.571 79.235 128.571 81.86C128.571 84.485 130.641 86.21 133.206 86.21C135.771 86.21 137.841 84.485 137.841 81.86ZM139.419 77.705V86H147.069V84.605H140.949V82.445H146.259V81.08H140.949V79.085H146.844V77.705H139.419ZM153.386 77.705V86H154.901V79.07H159.971V86H161.486V77.705H153.386ZM164.598 81.86C164.598 79.955 165.963 78.83 167.703 78.83C169.458 78.83 170.823 79.955 170.823 81.86C170.823 83.765 169.458 84.89 167.703 84.89C165.963 84.89 164.598 83.765 164.598 81.86ZM172.338 81.86C172.338 79.235 170.268 77.51 167.703 77.51C165.138 77.51 163.068 79.235 163.068 81.86C163.068 84.485 165.138 86.21 167.703 86.21C170.268 86.21 172.338 84.485 172.338 81.86ZM173.915 77.705V86H175.385V79.595H175.55L178.685 86H180.05L183.2 79.595H183.35V86H184.865V77.705H182.705L179.45 84.23H179.375L176.135 77.705H173.915ZM186.604 77.705V86H194.254V84.605H188.134V82.445H193.444V81.08H188.134V79.085H194.029V77.705H186.604ZM207.145 86L207.28 87.665H208.57V84.62H207.655V77.705H206.155V84.62H202.525V77.705H201.025V84.62H197.38V77.705H195.88V86H207.145ZM209.917 77.705V86H217.567V84.605H211.447V82.445H216.757V81.08H211.447V79.085H217.342V77.705H209.917ZM219.193 77.705V86H220.723V82.385H226.048V86H227.563V77.705H226.048V81.02H220.723V77.705H219.193ZM229.319 77.705V86H230.849L236.369 79.76V86H237.884V77.705H236.369L230.834 83.975V77.705H229.319ZM239.62 77.705V86H247.27V84.605H241.15V82.445H246.46V81.08H241.15V79.085H247.045V77.705H239.62ZM64.0319 94.705V103H65.5619L71.0819 96.76V103H72.5969V94.705H71.0819L65.5469 100.975V94.705H64.0319ZM76.6433 97.885V99.235H79.8833C80.9783 99.235 81.3683 99.625 81.3683 100.315C81.3683 101.395 80.1983 101.86 78.3983 101.86C76.9433 101.86 75.8183 101.53 74.7083 100.87L74.0033 102.025C75.3233 102.88 76.5833 103.21 78.3083 103.21C79.7933 103.21 81.0233 102.955 81.8033 102.37C82.5083 101.845 82.8983 101.185 82.8983 100.36C82.8983 99.4 82.4483 98.695 81.5933 98.365C82.0883 98.065 82.3433 97.6 82.3433 96.97C82.3433 96.13 81.9533 95.545 81.3233 95.155C80.5733 94.69 79.4933 94.51 78.3383 94.51C76.8983 94.51 75.6683 94.795 74.3783 95.62L75.0233 96.745C76.0733 96.1 76.9283 95.86 78.3533 95.86C80.0333 95.86 80.8283 96.25 80.8283 97.045C80.8283 97.615 80.4383 97.885 79.8383 97.885H76.6433ZM89.0473 94.705V103H90.5623V96.07H95.6323V103H97.1473V94.705H89.0473ZM98.4743 94.705L99.8243 98.59C100.199 99.67 100.964 100.255 102.104 100.255H104.279L104.024 101.035C103.859 101.485 103.439 101.695 103.019 101.695H100.874V103H103.109C104.189 103 105.074 102.31 105.404 101.32L107.594 94.705H106.064L104.684 98.89H102.194C101.789 98.89 101.444 98.68 101.309 98.29L100.049 94.705H98.4743ZM110.48 94.705L109.34 100.75C109.22 101.335 108.845 101.575 108.275 101.575H107.54V103H108.38C109.67 103 110.57 102.355 110.825 100.945L111.74 96.085H115.445V103H116.975V94.705H110.48ZM122.981 96.07H123.926L125.666 100.345H121.196L122.981 96.07ZM122.051 94.705L118.421 103H120.056L120.626 101.695H126.281L126.851 103H128.456L124.931 94.705H122.051ZM134.592 94.705V103H136.107V96.07H141.177V103H142.692V94.705H134.592ZM144.454 94.705V103H145.984V101.08H149.329C151.234 101.08 152.704 99.85 152.704 97.915C152.704 95.98 151.234 94.705 149.329 94.705H144.454ZM145.984 96.1H149.269C150.409 96.1 151.189 96.79 151.189 97.915C151.189 99.025 150.409 99.685 149.269 99.685H145.984V96.1ZM155.52 98.86C155.52 96.955 156.885 95.83 158.625 95.83C160.38 95.83 161.745 96.955 161.745 98.86C161.745 100.765 160.38 101.89 158.625 101.89C156.885 101.89 155.52 100.765 155.52 98.86ZM163.26 98.86C163.26 96.235 161.19 94.51 158.625 94.51C156.06 94.51 153.99 96.235 153.99 98.86C153.99 101.485 156.06 103.21 158.625 103.21C161.19 103.21 163.26 101.485 163.26 98.86ZM164.837 94.705V103H172.487V101.605H166.367V99.445H171.677V98.08H166.367V96.085H172.262V94.705H164.837ZM174.113 94.705V103H175.628V99.295H178.568L180.878 103H182.678L179.828 98.545L182.468 94.705H180.713L178.523 97.915H175.628V94.705H174.113ZM183.63 94.705V96.085H187.155V103H188.685V96.085H192.21V94.705H183.63ZM194.66 98.86C194.66 96.955 196.025 95.83 197.765 95.83C199.52 95.83 200.885 96.955 200.885 98.86C200.885 100.765 199.52 101.89 197.765 101.89C196.025 101.89 194.66 100.765 194.66 98.86ZM202.4 98.86C202.4 96.235 200.33 94.51 197.765 94.51C195.2 94.51 193.13 96.235 193.13 98.86C193.13 101.485 195.2 103.21 197.765 103.21C200.33 103.21 202.4 101.485 202.4 98.86ZM203.977 94.705V103H209.647C211.282 103 212.392 101.845 212.392 100.45C212.392 99.46 211.912 98.725 211.102 98.365C211.582 98.035 211.807 97.525 211.807 96.85C211.807 95.545 210.772 94.705 209.272 94.705H203.977ZM205.507 96.085H209.182C210.052 96.085 210.322 96.55 210.322 97.06C210.322 97.54 209.992 98.005 209.407 98.005H205.507V96.085ZM205.507 99.34H209.737C210.427 99.34 210.907 99.76 210.907 100.465C210.907 101.11 210.457 101.62 209.587 101.62H205.507V99.34ZM223.585 98.29V99.535L225.775 99.625V100.84C225.07 101.5 224.26 101.815 222.925 101.815C221.11 101.815 219.865 100.645 219.865 98.86C219.865 97.045 221.065 95.905 222.925 95.905C224.335 95.905 225.16 96.325 225.85 97.195L227.05 96.505C226.135 95.185 224.845 94.51 222.97 94.51C220.36 94.51 218.35 96.16 218.35 98.86C218.35 101.545 220.33 103.21 222.97 103.21C224.335 103.21 225.235 102.865 226.045 102.235L226.27 103H227.245V98.29H223.585ZM229.037 94.705V103H236.537V101.62H230.567V94.705H229.037ZM237.902 94.705V103H239.432V94.705H237.902ZM241.173 94.705V103H242.673V96.805L248.178 103H249.723V94.705H248.208V100.87L242.703 94.705H241.173ZM259.979 96.595C259.124 95.245 257.729 94.51 255.869 94.51C253.274 94.51 251.264 96.16 251.264 98.86C251.264 101.545 253.229 103.21 255.869 103.21C257.759 103.21 259.124 102.46 259.994 101.125L258.794 100.42C258.104 101.335 257.219 101.845 255.839 101.845C254.024 101.845 252.779 100.615 252.779 98.86C252.779 97.045 253.979 95.875 255.839 95.875C257.204 95.875 258.134 96.385 258.794 97.285L259.979 96.595ZM262.7 98.86C262.7 96.955 264.065 95.83 265.805 95.83C267.56 95.83 268.925 96.955 268.925 98.86C268.925 100.765 267.56 101.89 265.805 101.89C264.065 101.89 262.7 100.765 262.7 98.86ZM270.44 98.86C270.44 96.235 268.37 94.51 265.805 94.51C263.24 94.51 261.17 96.235 261.17 98.86C261.17 101.485 263.24 103.21 265.805 103.21C268.37 103.21 270.44 101.485 270.44 98.86ZM272.018 94.705V103H273.488V96.595H273.653L276.788 103H278.153L281.303 96.595H281.453V103H282.968V94.705H280.808L277.553 101.23H277.478L274.238 94.705H272.018Z" fill="black"/>
<path d="M19.002 296.78C17.4642 295.262 15.648 293.755 14.1863 291.96C10.3373 287.252 9.28765 281.71 9.9706 275.804C10.8868 267.83 14.4179 260.99 19.3972 254.831C22.2637 251.288 25.5553 248.186 29.4275 245.738C29.9129 245.43 30.3909 245.043 30.9333 245.552C31.4836 246.07 31.4526 246.751 31.0239 247.269C30.0573 248.439 29.0475 249.574 27.9762 250.648C22.4362 256.203 17.9824 262.455 15.6186 270.022C14.148 274.743 13.9713 279.464 16.2008 284.048C18.0122 287.773 20.9778 290.366 24.6279 292.305C23.6768 290.598 22.7398 288.885 21.7727 287.189C21.3396 286.435 21.2619 285.709 21.74 284.949C22.6173 283.548 23.5398 283.53 24.4882 284.858C26.8549 288.165 29.2286 291.469 31.6318 294.746C32.2166 295.54 32.9622 296.217 33.6046 296.972C34.8213 298.395 34.6797 300.205 33.22 301.412C32.7722 301.783 32.2399 302.146 31.6888 302.292C26.0378 303.779 20.3919 304.068 14.8099 301.972C13.1957 301.366 12.7854 300.668 13.0931 299.236C13.4608 297.539 14.6704 296.482 16.1558 296.58C17.2034 296.638 18.2455 296.723 19.002 296.78Z" fill="white" stroke="black" stroke-miterlimit="10"/>
<path d="M64.2411 146.456C64.0317 145.494 63.7811 144.543 63.6264 143.572C63.4668 142.583 63.6163 141.656 64.4133 140.935C65.5204 139.935 66.4227 140.121 66.9738 141.515C67.9351 143.931 68.8331 146.371 69.7985 148.779C70.5149 150.564 71.3165 152.312 72.0565 154.089C72.4817 155.12 72.1552 156.257 71.2507 157.117C70.3809 157.942 69.7448 157.983 68.5019 157.461C64.8858 155.934 61.2484 154.446 57.6237 152.934C57.0782 152.707 56.5506 152.43 55.9992 152.204C55.4193 151.966 54.9995 151.666 55.1708 150.932C55.3687 150.088 55.876 149.581 56.6328 149.609C58.0187 149.662 59.4026 149.753 60.8396 149.83C60.7797 149.705 60.7233 149.548 60.6349 149.412C55.311 140.94 55.6732 132.415 60.4447 123.971C63.6345 118.32 68.4776 114.488 74.3809 111.987C74.7156 111.843 75.3229 111.835 75.5321 112.04C75.9688 112.471 75.7094 113.024 75.3221 113.414C75.0735 113.663 74.7471 113.836 74.4325 114.007C69.2869 116.837 65.2113 120.758 62.6538 126.124C60.0972 131.472 59.6619 136.983 61.9722 142.573C62.5453 143.955 63.3459 145.241 64.0378 146.57C64.1095 146.531 64.1753 146.493 64.2411 146.456Z" fill="black"/>
<path d="M290.353 175.317C292.73 172.705 294.828 170.413 296.908 168.114C298.111 166.785 299.593 166.42 301.031 167.129C302.31 167.764 302.496 168.682 301.695 169.855C297.113 176.563 292.486 183.244 288.03 190.034C286.834 191.852 286.03 193.782 283.499 194.123C280.297 194.55 278.314 193.37 277.246 190.312C274.489 182.386 271.695 174.479 268.898 166.577C268.194 164.593 268.656 163.362 270.531 162.435C273.391 161.023 276.387 161.925 277.831 164.729C279.297 167.58 280.669 170.479 282.132 173.458C282.255 173.164 282.389 172.955 282.424 172.727C284.096 161.603 284.911 150.457 282.621 139.332C280.851 130.708 277.483 122.74 272.053 115.733C271.522 115.047 270.834 114.481 270.349 113.774C269.957 113.203 269.388 112.077 269.561 111.922C270.171 111.355 271.047 110.877 271.861 110.807C272.434 110.76 273.14 111.349 273.674 111.785C284.212 120.411 289.163 131.958 290.985 145.106C292.295 154.547 291.828 163.971 290.573 173.378C290.531 173.867 290.474 174.356 290.353 175.317Z" stroke="black" stroke-miterlimit="10"/>
<path d="M295.493 301.824C297.092 300.528 298.271 299.182 299.217 297.634C301.549 293.817 302.537 289.572 302.948 285.198C303.61 278.122 302.968 271.176 300.476 264.46C300.33 264.068 300.209 263.572 300.328 263.203C300.447 262.827 300.842 262.334 301.172 262.287C301.472 262.243 302.017 262.651 302.173 262.988C304.206 267.429 305.658 272.043 306.184 276.928C306.904 283.62 306.461 290.206 304.334 296.618C303.2 300.042 301.438 303.102 298.631 305.47C298.571 305.521 298.539 305.6 298.411 305.785C298.815 305.754 299.115 305.72 299.417 305.707C302.038 305.613 304.658 305.535 307.276 305.424C307.937 305.395 308.252 305.714 308.331 306.305C308.406 306.884 308.298 307.407 307.651 307.641C306.731 307.975 305.838 308.453 304.889 308.618C301.22 309.262 297.535 309.805 293.856 310.382C293.571 310.427 293.284 310.46 292.997 310.496C290.756 310.785 289.656 309.613 290.145 307.357C290.465 305.891 290.975 304.465 291.308 303.001C292.021 299.877 292.672 296.735 293.359 293.603C293.463 293.126 293.574 292.636 293.775 292.194C294.243 291.178 295.232 291.016 296.031 291.804C296.67 292.435 296.927 293.229 296.79 294.104C296.43 296.415 296.032 298.718 295.649 301.026C295.617 301.215 295.576 301.399 295.493 301.824Z" fill="black"/>
<circle cx="177.5" cy="177.5" r="55.5" fill="white" stroke="black" stroke-width="4"/>
<path d="M144.955 167.364V170.016H149.215V167.364H150.427V174H149.215V171.108H144.955V174H143.731V167.364H144.955ZM153.692 171.876H157.268L155.876 168.456H155.12L153.692 171.876ZM156.68 167.364L159.5 174H158.216L157.76 172.956H153.236L152.78 174H151.472L154.376 167.364H156.68ZM168.405 167.364C168.701 167.364 168.973 167.404 169.221 167.484C169.477 167.564 169.693 167.68 169.869 167.832C170.045 167.984 170.181 168.164 170.277 168.372C170.381 168.58 170.433 168.816 170.433 169.08C170.433 169.632 170.245 170.036 169.869 170.292C170.197 170.436 170.449 170.652 170.625 170.94C170.809 171.22 170.901 171.56 170.901 171.96C170.901 172.24 170.845 172.504 170.733 172.752C170.629 173 170.481 173.216 170.289 173.4C170.097 173.584 169.865 173.732 169.593 173.844C169.329 173.948 169.033 174 168.705 174H164.169V167.364H168.405ZM165.393 170.004H168.513C168.745 170.004 168.925 169.928 169.053 169.776C169.181 169.616 169.245 169.44 169.245 169.248C169.245 169.144 169.229 169.048 169.197 168.96C169.173 168.864 169.125 168.78 169.053 168.708C168.981 168.636 168.885 168.58 168.765 168.54C168.653 168.492 168.509 168.468 168.333 168.468H165.393V170.004ZM165.393 172.896H168.657C169.009 172.896 169.273 172.808 169.449 172.632C169.625 172.448 169.713 172.228 169.713 171.972C169.713 171.692 169.625 171.472 169.449 171.312C169.281 171.152 169.057 171.072 168.777 171.072H165.393V172.896ZM180.338 167.364V174H179.114V167.364H180.338ZM173.174 167.364V168.96H175.694C176.078 168.96 176.434 169.02 176.762 169.14C177.09 169.252 177.374 169.416 177.614 169.632C177.854 169.848 178.042 170.112 178.178 170.424C178.314 170.728 178.382 171.072 178.382 171.456C178.382 171.84 178.314 172.188 178.178 172.5C178.042 172.812 177.854 173.08 177.614 173.304C177.374 173.528 177.09 173.7 176.762 173.82C176.434 173.94 176.078 174 175.694 174H171.95V167.364H173.174ZM173.174 172.884H175.598C176.094 172.884 176.478 172.764 176.75 172.524C177.022 172.276 177.158 171.92 177.158 171.456C177.158 170.984 177.022 170.632 176.75 170.4C176.478 170.168 176.094 170.052 175.598 170.052H173.174V172.884ZM182.878 167.364L184.714 170.04H185.278L187.114 167.364H188.506L186.274 170.508L188.686 174H187.27L185.314 171.144H184.678L182.71 174H181.294L183.73 170.544L181.486 167.364H182.878ZM190.257 170.688C190.257 171.072 190.321 171.416 190.449 171.72C190.577 172.016 190.753 172.268 190.977 172.476C191.201 172.684 191.461 172.844 191.757 172.956C192.061 173.06 192.389 173.112 192.741 173.112C193.093 173.112 193.421 173.06 193.725 172.956C194.029 172.844 194.293 172.684 194.517 172.476C194.741 172.268 194.917 172.016 195.045 171.72C195.173 171.416 195.237 171.072 195.237 170.688C195.237 170.304 195.173 169.964 195.045 169.668C194.917 169.364 194.741 169.108 194.517 168.9C194.293 168.692 194.029 168.536 193.725 168.432C193.421 168.32 193.093 168.264 192.741 168.264C192.389 168.264 192.061 168.32 191.757 168.432C191.461 168.536 191.201 168.692 190.977 168.9C190.753 169.108 190.577 169.364 190.449 169.668C190.321 169.964 190.257 170.304 190.257 170.688ZM196.449 170.688C196.449 171.216 196.353 171.696 196.161 172.128C195.969 172.552 195.705 172.916 195.369 173.22C195.033 173.524 194.637 173.76 194.181 173.928C193.733 174.088 193.253 174.168 192.741 174.168C192.229 174.168 191.745 174.088 191.289 173.928C190.841 173.76 190.449 173.524 190.113 173.22C189.777 172.916 189.513 172.552 189.321 172.128C189.129 171.696 189.033 171.216 189.033 170.688C189.033 170.16 189.129 169.684 189.321 169.26C189.513 168.828 189.777 168.46 190.113 168.156C190.449 167.852 190.841 167.62 191.289 167.46C191.745 167.292 192.229 167.208 192.741 167.208C193.253 167.208 193.733 167.292 194.181 167.46C194.637 167.62 195.033 167.852 195.369 168.156C195.705 168.46 195.969 168.828 196.161 169.26C196.353 169.684 196.449 170.16 196.449 170.688ZM204.397 167.364V172.896H205.201V175.332H204.157L204.049 174H198.385L198.277 175.332H197.233V172.896H198.097L199.225 167.364H204.397ZM199.381 172.896H203.173V168.432H200.209L199.381 172.896ZM212.179 167.364V168.468H207.463V170.064H211.711V171.156H207.463V172.884H212.359V174H206.239V167.364H212.179ZM149.531 184.364V189.38L153.959 184.364H155.171V191H153.959V186.008L149.543 191H148.319V184.364H149.531ZM160.844 186.908C161.084 186.908 161.276 186.856 161.42 186.752C161.564 186.64 161.636 186.468 161.636 186.236C161.636 185.916 161.476 185.68 161.156 185.528C160.836 185.368 160.336 185.288 159.656 185.288C159.368 185.288 159.108 185.3 158.876 185.324C158.644 185.348 158.42 185.388 158.204 185.444C157.996 185.5 157.792 185.576 157.592 185.672C157.4 185.76 157.2 185.868 156.992 185.996L156.476 185.096C156.988 184.768 157.5 184.54 158.012 184.412C158.524 184.276 159.068 184.208 159.644 184.208C160.108 184.208 160.544 184.248 160.952 184.328C161.368 184.408 161.728 184.54 162.032 184.724C162.288 184.884 162.488 185.084 162.632 185.324C162.776 185.556 162.848 185.84 162.848 186.176C162.848 186.68 162.648 187.052 162.248 187.292C162.592 187.428 162.852 187.632 163.028 187.904C163.204 188.176 163.292 188.504 163.292 188.888C163.292 189.224 163.216 189.524 163.064 189.788C162.912 190.052 162.696 190.288 162.416 190.496C162.104 190.728 161.708 190.896 161.228 191C160.756 191.112 160.22 191.168 159.62 191.168C158.932 191.168 158.316 191.096 157.772 190.952C157.236 190.808 156.704 190.564 156.176 190.22L156.74 189.296C157.188 189.56 157.644 189.76 158.108 189.896C158.58 190.024 159.108 190.088 159.692 190.088C160.42 190.088 160.996 189.992 161.42 189.8C161.852 189.6 162.068 189.284 162.068 188.852C162.068 188.572 161.98 188.36 161.804 188.216C161.628 188.064 161.32 187.988 160.88 187.988H158.288V186.908H160.844ZM169.747 184.364L172.339 189.584H172.399L175.003 184.364H176.731V191H175.519V185.876H175.399L172.879 191H171.787L169.279 185.876H169.147V191H167.971V184.364H169.747ZM183.943 184.364V185.468H179.227V187.064H183.475V188.156H179.227V189.884H184.123V191H178.003V184.364H183.943ZM191.891 184.364V185.468H189.071V191H187.847V185.468H185.027V184.364H191.891ZM196.786 184.364C197.17 184.364 197.526 184.428 197.854 184.556C198.182 184.676 198.466 184.848 198.706 185.072C198.946 185.296 199.134 185.568 199.27 185.888C199.414 186.2 199.486 186.548 199.486 186.932C199.486 187.316 199.414 187.664 199.27 187.976C199.134 188.288 198.946 188.556 198.706 188.78C198.466 188.996 198.182 189.164 197.854 189.284C197.526 189.404 197.17 189.464 196.786 189.464H194.11V191H192.886V184.364H196.786ZM194.11 188.348H196.738C197.194 188.348 197.562 188.224 197.842 187.976C198.13 187.728 198.274 187.38 198.274 186.932C198.274 186.476 198.13 186.12 197.842 185.864C197.562 185.608 197.194 185.48 196.738 185.48H194.11V188.348ZM201.618 187.688C201.618 188.072 201.682 188.416 201.81 188.72C201.938 189.016 202.114 189.268 202.338 189.476C202.562 189.684 202.822 189.844 203.118 189.956C203.422 190.06 203.75 190.112 204.102 190.112C204.454 190.112 204.782 190.06 205.086 189.956C205.39 189.844 205.654 189.684 205.878 189.476C206.102 189.268 206.278 189.016 206.406 188.72C206.534 188.416 206.598 188.072 206.598 187.688C206.598 187.304 206.534 186.964 206.406 186.668C206.278 186.364 206.102 186.108 205.878 185.9C205.654 185.692 205.39 185.536 205.086 185.432C204.782 185.32 204.454 185.264 204.102 185.264C203.75 185.264 203.422 185.32 203.118 185.432C202.822 185.536 202.562 185.692 202.338 185.9C202.114 186.108 201.938 186.364 201.81 186.668C201.682 186.964 201.618 187.304 201.618 187.688ZM207.81 187.688C207.81 188.216 207.714 188.696 207.522 189.128C207.33 189.552 207.066 189.916 206.73 190.22C206.394 190.524 205.998 190.76 205.542 190.928C205.094 191.088 204.614 191.168 204.102 191.168C203.59 191.168 203.106 191.088 202.65 190.928C202.202 190.76 201.81 190.524 201.474 190.22C201.138 189.916 200.874 189.552 200.682 189.128C200.49 188.696 200.394 188.216 200.394 187.688C200.394 187.16 200.49 186.684 200.682 186.26C200.874 185.828 201.138 185.46 201.474 185.156C201.81 184.852 202.202 184.62 202.65 184.46C203.106 184.292 203.59 184.208 204.102 184.208C204.614 184.208 205.094 184.292 205.542 184.46C205.998 184.62 206.394 184.852 206.73 185.156C207.066 185.46 207.33 185.828 207.522 186.26C207.714 186.684 207.81 187.16 207.81 187.688Z" fill="black"/>
<path d="M209.471 145.106C209.917 143.052 210.388 141.123 210.747 139.162C212.145 131.535 212.24 123.668 212.152 115.771C212.145 115.099 212.151 114.431 212.192 113.768C212.209 113.501 212.241 113.169 212.448 113.016C212.734 112.808 213.185 112.621 213.58 112.666C213.809 112.693 214.209 113.185 214.283 113.471C214.631 114.832 214.972 116.199 215.179 117.559C216.408 125.664 215.958 133.517 214.879 141.267C214.657 142.872 214.345 144.456 214.229 146.136C214.68 145.625 215.132 145.111 215.583 144.6C216.648 143.389 217.675 142.154 218.79 140.974C219.288 140.445 219.917 139.761 221.019 140.259C222.059 140.728 221.911 141.626 221.654 142.211C220.847 144.055 220.047 145.924 218.923 147.623C216.975 150.569 214.444 153.181 211.471 155.489C210.847 155.972 209.974 156.352 209.076 156.514C207.861 156.73 206.785 156.046 206.339 155.016C204.511 150.807 202.653 146.595 200.857 142.381C200.369 141.231 199.914 140.059 199.705 138.905C199.58 138.22 199.74 137.441 200.14 136.898C201.313 135.296 203.133 135.487 204.753 137.274C206.674 139.394 207.839 141.704 208.944 144.028C209.099 144.359 209.265 144.685 209.471 145.106Z" fill="black"/>
<circle cx="147" cy="300" r="52" fill="white" stroke="black" stroke-width="2"/>
<path d="M138.086 291.136C138.086 292.732 139.22 293.698 140.676 293.698C142.132 293.698 143.266 292.732 143.266 291.136C143.266 289.54 142.132 288.574 140.676 288.574C139.22 288.574 138.086 289.54 138.086 291.136ZM145.016 291.136C145.016 293.572 143.028 295.196 140.676 295.196C138.324 295.196 136.336 293.572 136.336 291.136C136.336 288.7 138.324 287.076 140.676 287.076C143.028 287.076 145.016 288.7 145.016 291.136ZM145.752 287.258H153.802V288.826H150.652V295H148.902V288.826H145.752V287.258ZM116.367 301.902L115.695 303.232C114.799 302.742 114.043 302.602 112.979 302.602C111.705 302.602 110.879 303.106 110.655 304.282C111.509 303.988 112.209 303.848 113.119 303.848C114.967 303.848 116.549 304.576 116.549 306.494C116.549 308.16 115.023 309.182 112.825 309.182C110.179 309.182 108.919 307.572 108.919 305.122C108.919 302.784 110.529 301.076 112.979 301.076C114.267 301.076 115.331 301.286 116.367 301.902ZM110.613 305.668C110.725 307.012 111.257 307.628 112.979 307.628C114.239 307.628 114.841 307.264 114.841 306.48C114.841 305.682 114.295 305.388 112.923 305.388C112.097 305.388 111.481 305.472 110.613 305.668ZM121.798 301.258H124.136L126.852 306.872H126.922L129.75 301.258H131.99V309H130.268V303.582H130.184L127.566 309H126.096L123.576 303.582H123.492V309H121.798V301.258ZM135.422 301.258H141.596V309H139.846V302.826H136.878L136.094 307.026C135.842 308.398 134.988 309 133.714 309H132.79V307.404H133.63C134.036 307.404 134.302 307.222 134.386 306.802L135.422 301.258ZM142.99 301.258H144.74V304.212H149.108V301.258H150.858V309H149.108V305.78H144.74V309H142.99V301.258ZM156.292 301.258H160.856C162.676 301.258 164.048 302.476 164.048 304.296C164.048 306.116 162.676 307.278 160.856 307.278H158.042V309H156.292V301.258ZM158.042 302.854V305.682H160.786C161.682 305.682 162.298 305.192 162.298 304.296C162.298 303.4 161.682 302.854 160.786 302.854H158.042ZM164.404 301.258H166.21L167.33 304.52C167.428 304.8 167.652 304.94 167.932 304.94H170.074L171.292 301.258H173.07L171.012 307.39C170.69 308.328 169.822 309 168.8 309H166.616V307.516H168.716C169.024 307.516 169.318 307.348 169.43 307.026L169.598 306.494H167.848C166.7 306.494 166.014 305.962 165.65 304.898L164.404 301.258ZM174.107 301.258H180.799V302.826H175.843V303.82H179.049C180.631 303.82 181.765 304.884 181.765 306.368C181.765 307.81 180.631 309 179.049 309H174.107V301.258ZM175.843 305.36V307.432H178.923C179.735 307.432 180.029 306.956 180.029 306.368C180.029 305.794 179.721 305.36 178.909 305.36H175.843ZM183.976 306.718C184.662 306.718 185.222 307.264 185.222 307.95C185.222 308.636 184.662 309.14 183.976 309.14C183.29 309.14 182.744 308.636 182.744 307.95C182.744 307.264 183.29 306.718 183.976 306.718Z" fill="black"/>
<path d="M128.863 257.693C128.987 257.058 129.138 256.43 129.226 255.79C129.317 255.139 129.206 254.532 128.673 254.07C127.932 253.429 127.342 253.564 127 254.487C126.402 256.087 125.846 257.701 125.246 259.296C124.8 260.478 124.298 261.637 123.837 262.814C123.572 263.497 123.803 264.239 124.408 264.791C124.991 265.32 125.409 265.339 126.218 264.979C128.572 263.926 130.939 262.898 133.298 261.855C133.653 261.698 133.996 261.508 134.355 261.352C134.732 261.189 135.004 260.985 134.881 260.506C134.739 259.954 134.399 259.629 133.903 259.657C132.993 259.711 132.086 259.791 131.143 259.861C131.181 259.778 131.216 259.674 131.272 259.584C134.65 253.947 134.293 248.354 131.042 242.875C128.869 239.209 125.636 236.761 121.724 235.2C121.503 235.111 121.104 235.114 120.969 235.252C120.688 235.541 120.866 235.9 121.126 236.151C121.293 236.31 121.51 236.42 121.719 236.527C125.137 238.314 127.868 240.832 129.622 244.32C131.375 247.796 131.738 251.409 130.299 255.112C129.942 256.027 129.434 256.883 128.998 257.765C128.95 257.74 128.906 257.717 128.863 257.693Z" fill="black"/>
</svg>
