<svg width="695" height="370" viewBox="0 0 695 370" fill="none" xmlns="http://www.w3.org/2000/svg">
<rect x="55" y="104" width="258" height="74" rx="37" fill="black"/>
<rect x="381" y="104" width="258" height="74" rx="37" fill="black"/>
<circle cx="185" cy="185" r="183" stroke="black" stroke-width="4"/>
<circle cx="510" cy="185" r="183" stroke="black" stroke-width="4"/>
<circle cx="347.5" cy="184.5" r="17.5" fill="black"/>
<path d="M95.4177 230.599H104.683V240H102.558V232.486H97.5257V240H95.4177V230.599ZM106.545 230.599H112.087C114.297 230.599 115.963 232.078 115.963 234.288C115.963 236.498 114.297 237.909 112.087 237.909H108.67V240H106.545V230.599ZM108.67 232.537V235.971H112.002C113.09 235.971 113.838 235.376 113.838 234.288C113.838 233.2 113.09 232.537 112.002 232.537H108.67ZM119.561 235.308C119.561 237.246 120.938 238.419 122.706 238.419C124.474 238.419 125.851 237.246 125.851 235.308C125.851 233.37 124.474 232.197 122.706 232.197C120.938 232.197 119.561 233.37 119.561 235.308ZM127.976 235.308C127.976 238.266 125.562 240.238 122.706 240.238C119.85 240.238 117.436 238.266 117.436 235.308C117.436 232.35 119.85 230.378 122.706 230.378C125.562 230.378 127.976 232.35 127.976 235.308ZM131.96 230.599H139.457V238.096H140.562V241.802H138.726L138.556 240H131.297L131.127 241.802H129.291V238.096H130.481L131.96 230.599ZM133.694 232.452L132.691 238.096H137.332V232.452H133.694ZM147.267 232.486L145.516 236.719H149.698L147.998 232.486H147.267ZM145.941 230.599H149.392L153.387 240H151.143L150.531 238.572H144.734L144.122 240H141.844L145.941 230.599ZM154.921 230.599H160.973C162.673 230.599 163.88 231.585 163.88 233.115C163.88 233.795 163.642 234.373 163.149 234.713C164.016 235.155 164.526 235.92 164.526 237.076C164.526 238.691 163.217 240 161.432 240H154.921V230.599ZM157.046 232.503V234.22H161.041C161.5 234.22 161.806 233.795 161.806 233.37C161.806 232.962 161.585 232.503 160.871 232.503H157.046ZM157.046 236.073V238.079H161.364C162.044 238.079 162.452 237.654 162.452 237.076C162.452 236.464 162.027 236.073 161.415 236.073H157.046ZM166.114 230.599H174.648V232.52H168.239V234.254H174.002V236.175H168.239V238.045H174.886V240H166.114V230.599ZM176.644 230.599H178.769V238.079H183.733V230.599H185.858V238.079H186.844V241.802H185.008L184.855 240H176.644V230.599ZM198.978 234.543H203.415V240H202.089L201.8 239.269C200.899 239.898 199.93 240.238 198.519 240.238C195.561 240.238 193.266 238.351 193.266 235.308C193.266 232.265 195.561 230.378 198.519 230.378C200.695 230.378 202.174 231.16 203.245 232.758L201.562 233.71C200.814 232.741 200.032 232.316 198.485 232.316C196.598 232.316 195.374 233.455 195.374 235.308C195.374 237.161 196.598 238.3 198.485 238.3C199.828 238.3 200.61 238.045 201.375 237.45V236.379L198.978 236.294V234.543ZM205.376 230.599H207.501V238.079H213.978V240H205.376V230.599ZM215.458 230.599H217.583V240H215.458V230.599ZM219.446 230.599H221.452L227.079 236.923V230.599H229.187V240H227.164L221.537 233.659V240H219.446V230.599ZM240.897 232.894L239.248 233.846C238.534 232.826 237.599 232.265 236.103 232.265C234.216 232.265 232.992 233.455 232.992 235.308C232.992 237.127 234.267 238.351 236.103 238.351C237.599 238.351 238.534 237.79 239.248 236.77L240.897 237.722C239.928 239.371 238.33 240.238 236.137 240.238C233.128 240.238 230.884 238.351 230.884 235.308C230.884 232.265 233.179 230.378 236.137 230.378C238.33 230.378 239.928 231.245 240.897 232.894ZM244.386 235.308C244.386 237.246 245.763 238.419 247.531 238.419C249.299 238.419 250.676 237.246 250.676 235.308C250.676 233.37 249.299 232.197 247.531 232.197C245.763 232.197 244.386 233.37 244.386 235.308ZM252.801 235.308C252.801 238.266 250.387 240.238 247.531 240.238C244.675 240.238 242.261 238.266 242.261 235.308C242.261 232.35 244.675 230.378 247.531 230.378C250.387 230.378 252.801 232.35 252.801 235.308ZM254.537 230.599H257.376L260.674 237.416H260.759L264.193 230.599H266.913V240H264.822V233.421H264.72L261.541 240H259.756L256.696 233.421H256.594V240H254.537V230.599ZM273.683 234.271H281.758V236.141H273.683V234.271ZM79.0675 248.599H88.3325V258H86.2075V250.486H81.1755V258H79.0675V248.599ZM92.1835 253.308C92.1835 255.246 93.5605 256.419 95.3285 256.419C97.0965 256.419 98.4735 255.246 98.4735 253.308C98.4735 251.37 97.0965 250.197 95.3285 250.197C93.5605 250.197 92.1835 251.37 92.1835 253.308ZM100.599 253.308C100.599 256.266 98.1845 258.238 95.3285 258.238C92.4725 258.238 90.0585 256.266 90.0585 253.308C90.0585 250.35 92.4725 248.378 95.3285 248.378C98.1845 248.378 100.599 250.35 100.599 253.308ZM102.334 248.599H104.442V252.067H107.179L109.542 248.599H111.99L108.981 252.951L112.211 258H109.695L107.23 254.005H104.442V258H102.334V248.599ZM112.802 248.599H114.995L116.355 252.56C116.474 252.9 116.746 253.07 117.086 253.07H119.687L121.166 248.599H123.325L120.826 256.045C120.435 257.184 119.381 258 118.14 258H115.488V256.198H118.038C118.412 256.198 118.769 255.994 118.905 255.603L119.109 254.957H116.984C115.59 254.957 114.757 254.311 114.315 253.019L112.802 248.599ZM124.754 248.599H134.019V258H131.894V250.486H126.862V258H124.754V248.599ZM140.964 250.486L139.213 254.719H143.395L141.695 250.486H140.964ZM139.638 248.599H143.089L147.084 258H144.84L144.228 256.572H138.431L137.819 258H135.541L139.638 248.599ZM146.751 248.599H156.526V250.503H152.701V258H150.576V250.503H146.751V248.599ZM158.052 248.599H166.586V250.52H160.177V252.254H165.94V254.175H160.177V256.045H166.824V258H158.052V248.599ZM171.047 248.599H178.544V258H176.419V250.503H172.815L171.863 255.603C171.557 257.269 170.52 258 168.973 258H167.851V256.062H168.871C169.364 256.062 169.687 255.841 169.789 255.331L171.047 248.599ZM180.406 248.599H182.531V250.741H185.778C187.988 250.741 189.654 252.101 189.654 254.311C189.654 256.521 187.988 258 185.778 258H180.406V248.599ZM182.531 252.628V256.062H185.625C186.883 256.062 187.529 255.467 187.529 254.311C187.529 253.155 186.883 252.628 185.625 252.628H182.531ZM200.824 248.191L200.637 249.177C201.062 249.364 201.317 249.84 201.317 250.299C201.317 250.996 200.739 251.54 199.991 251.54C199.362 251.54 198.767 251.081 198.767 250.282C198.767 250.129 198.801 249.993 198.869 249.84L199.736 247.953L200.824 248.191ZM198.24 247.851L197.917 249.177C198.342 249.364 198.563 249.84 198.563 250.299C198.563 250.996 197.985 251.54 197.237 251.54C196.608 251.54 196.013 251.081 196.013 250.282C196.013 250.129 196.047 249.993 196.115 249.84L197.084 247.613L198.24 247.851ZM203.179 248.599H205.287V255.127L210.88 248.599H212.937V258H210.829V251.506L205.253 258H203.179V248.599ZM214.804 248.599H216.929V252.186H222.233V248.599H224.358V258H222.233V254.09H216.929V258H214.804V248.599ZM226.23 248.599H232.282C233.982 248.599 235.189 249.585 235.189 251.115C235.189 251.795 234.951 252.373 234.458 252.713C235.325 253.155 235.835 253.92 235.835 255.076C235.835 256.691 234.526 258 232.741 258H226.23V248.599ZM228.355 250.503V252.22H232.35C232.809 252.22 233.115 251.795 233.115 251.37C233.115 250.962 232.894 250.503 232.18 250.503H228.355ZM228.355 254.073V256.079H232.673C233.353 256.079 233.761 255.654 233.761 255.076C233.761 254.464 233.336 254.073 232.724 254.073H228.355ZM237.423 248.599H245.957V250.52H239.548V252.254H245.311V254.175H239.548V256.045H246.195V258H237.423V248.599ZM257.63 250.894L255.981 251.846C255.267 250.826 254.332 250.265 252.836 250.265C250.949 250.265 249.725 251.455 249.725 253.308C249.725 255.127 251 256.351 252.836 256.351C254.332 256.351 255.267 255.79 255.981 254.77L257.63 255.722C256.661 257.371 255.063 258.238 252.87 258.238C249.861 258.238 247.617 256.351 247.617 253.308C247.617 250.265 249.912 248.378 252.87 248.378C255.063 248.378 256.661 249.245 257.63 250.894ZM258.789 248.599H268.564V250.503H264.739V258H262.614V250.503H258.789V248.599ZM271.747 253.308C271.747 255.246 273.124 256.419 274.892 256.419C276.66 256.419 278.037 255.246 278.037 253.308C278.037 251.37 276.66 250.197 274.892 250.197C273.124 250.197 271.747 251.37 271.747 253.308ZM280.162 253.308C280.162 256.266 277.748 258.238 274.892 258.238C272.036 258.238 269.622 256.266 269.622 253.308C269.622 250.35 272.036 248.378 274.892 248.378C277.748 248.378 280.162 250.35 280.162 253.308ZM281.898 248.599H287.44C289.65 248.599 291.316 250.078 291.316 252.288C291.316 254.498 289.65 255.909 287.44 255.909H284.023V258H281.898V248.599ZM284.023 250.537V253.971H287.355C288.443 253.971 289.191 253.376 289.191 252.288C289.191 251.2 288.443 250.537 287.355 250.537H284.023ZM293.129 251.285L293.316 250.299C292.891 250.112 292.636 249.636 292.636 249.177C292.636 248.48 293.214 247.936 293.962 247.936C294.591 247.936 295.186 248.395 295.186 249.194C295.186 249.347 295.152 249.483 295.084 249.636L294.217 251.523L293.129 251.285ZM295.713 251.625L296.036 250.299C295.611 250.112 295.39 249.636 295.39 249.177C295.39 248.48 295.968 247.936 296.716 247.936C297.345 247.936 297.94 248.395 297.94 249.194C297.94 249.347 297.906 249.483 297.838 249.636L296.869 251.863L295.713 251.625Z" fill="black"/>
<path d="M88.8025 128.705V137H90.6625V130.37H95.1025V137H96.9775V128.705H88.8025ZM100.376 132.86C100.376 131.15 101.591 130.115 103.151 130.115C104.711 130.115 105.926 131.15 105.926 132.86C105.926 134.57 104.711 135.605 103.151 135.605C101.591 135.605 100.376 134.57 100.376 132.86ZM107.801 132.86C107.801 130.25 105.671 128.51 103.151 128.51C100.631 128.51 98.5005 130.25 98.5005 132.86C98.5005 135.47 100.631 137.21 103.151 137.21C105.671 137.21 107.801 135.47 107.801 132.86ZM111.316 128.705L110.011 135.32H108.961V138.59H110.581L110.731 137H117.136L117.286 138.59H118.906V135.32H117.931V128.705H111.316ZM112.846 130.34H116.056V135.32H111.961L112.846 130.34ZM120.337 128.705V137H122.197V130.37H126.637V137H128.512V128.705H120.337ZM130.154 128.705V137H131.984L136.904 131.27V137H138.764V128.705H136.949L132.014 134.465V128.705H130.154ZM149.097 130.73C148.242 129.275 146.832 128.51 144.897 128.51C142.287 128.51 140.262 130.175 140.262 132.86C140.262 135.545 142.242 137.21 144.897 137.21C146.832 137.21 148.242 136.445 149.097 134.99L147.642 134.15C147.012 135.05 146.187 135.545 144.867 135.545C143.247 135.545 142.122 134.465 142.122 132.86C142.122 131.225 143.202 130.175 144.867 130.175C146.187 130.175 147.012 130.67 147.642 131.57L149.097 130.73ZM154.598 130.37H155.243L156.743 134.105H153.053L154.598 130.37ZM153.428 128.705L149.813 137H151.823L152.363 135.74H157.478L158.018 137H159.998L156.473 128.705H153.428ZM161.352 128.705V137H163.227V133.55H167.907V137H169.782V128.705H167.907V131.87H163.227V128.705H161.352ZM171.433 128.705V137H173.263L178.183 131.27V137H180.043V128.705H178.228L173.293 134.465V128.705H171.433ZM181.691 128.705V137H189.431V135.275H183.566V133.625H188.651V131.93H183.566V130.4H189.221V128.705H181.691ZM197.583 128.705L196.278 135.32H195.228V138.59H196.848L196.998 137H203.403L203.553 138.59H205.173V135.32H204.198V128.705H197.583ZM199.113 130.34H202.323V135.32H198.228L199.113 130.34ZM208.066 132.86C208.066 131.15 209.281 130.115 210.841 130.115C212.401 130.115 213.616 131.15 213.616 132.86C213.616 134.57 212.401 135.605 210.841 135.605C209.281 135.605 208.066 134.57 208.066 132.86ZM215.491 132.86C215.491 130.25 213.361 128.51 210.841 128.51C208.321 128.51 206.191 130.25 206.191 132.86C206.191 135.47 208.321 137.21 210.841 137.21C213.361 137.21 215.491 135.47 215.491 132.86ZM217.022 128.705V137H218.897V130.4H224.672V128.705H217.022ZM227.467 132.86C227.467 131.15 228.682 130.115 230.242 130.115C231.802 130.115 233.017 131.15 233.017 132.86C233.017 134.57 231.802 135.605 230.242 135.605C228.682 135.605 227.467 134.57 227.467 132.86ZM234.892 132.86C234.892 130.25 232.762 128.51 230.242 128.51C227.722 128.51 225.592 130.25 225.592 132.86C225.592 135.47 227.722 137.21 230.242 137.21C232.762 137.21 234.892 135.47 234.892 132.86ZM236.424 128.705V137H242.169C243.744 137 244.899 135.845 244.899 134.42C244.899 133.4 244.449 132.725 243.684 132.335C244.119 132.035 244.329 131.525 244.329 130.925C244.329 129.575 243.264 128.705 241.764 128.705H236.424ZM238.299 130.385H241.674C242.304 130.385 242.499 130.79 242.499 131.15C242.499 131.525 242.229 131.9 241.824 131.9H238.299V130.385ZM238.299 133.535H242.154C242.694 133.535 243.069 133.88 243.069 134.42C243.069 134.93 242.709 135.305 242.109 135.305H238.299V133.535ZM248.055 132.86C248.055 131.15 249.27 130.115 250.83 130.115C252.39 130.115 253.605 131.15 253.605 132.86C253.605 134.57 252.39 135.605 250.83 135.605C249.27 135.605 248.055 134.57 248.055 132.86ZM255.48 132.86C255.48 130.25 253.35 128.51 250.83 128.51C248.31 128.51 246.18 130.25 246.18 132.86C246.18 135.47 248.31 137.21 250.83 137.21C253.35 137.21 255.48 135.47 255.48 132.86ZM257.012 128.705V137H258.887V135.155H261.902C263.852 135.155 265.322 133.91 265.322 131.96C265.322 130.01 263.852 128.705 261.902 128.705H257.012ZM258.887 130.415H261.827C262.787 130.415 263.447 131 263.447 131.96C263.447 132.92 262.787 133.445 261.827 133.445H258.887V130.415ZM270.626 130.37H271.271L272.771 134.105H269.081L270.626 130.37ZM269.456 128.705L265.841 137H267.851L268.391 135.74H273.506L274.046 137H276.026L272.501 128.705H269.456ZM276.629 131.945V133.595H281.354V131.945H276.629ZM119.84 144.705V153H121.7V149.475H124.16L126.335 153H128.555L125.705 148.545L128.36 144.705H126.2L124.115 147.765H121.7V144.705H119.84ZM129.077 144.705L130.412 148.605C130.802 149.745 131.537 150.315 132.767 150.315H134.642L134.462 150.885C134.342 151.23 134.027 151.41 133.697 151.41H131.447V153H133.787C134.882 153 135.812 152.28 136.157 151.275L138.362 144.705H136.457L135.152 148.65H132.857C132.557 148.65 132.317 148.5 132.212 148.2L131.012 144.705H129.077ZM139.623 144.705V153H141.483V146.37H145.923V153H147.798V144.705H139.623ZM151.616 144.705L150.506 150.645C150.416 151.095 150.131 151.29 149.696 151.29H148.796V153H149.786C151.151 153 152.066 152.355 152.336 150.885L153.176 146.385H156.356V153H158.231V144.705H151.616ZM159.874 144.705V153H161.704L166.624 147.27V153H168.484V144.705H166.669L161.734 150.465V144.705H159.874ZM174.603 144.705V153H176.463V146.37H180.903V153H182.778V144.705H174.603ZM184.421 144.705V153H186.296V151.155H189.311C191.261 151.155 192.731 149.91 192.731 147.96C192.731 146.01 191.261 144.705 189.311 144.705H184.421ZM186.296 146.415H189.236C190.196 146.415 190.856 147 190.856 147.96C190.856 148.92 190.196 149.445 189.236 149.445H186.296V146.415ZM195.906 148.86C195.906 147.15 197.121 146.115 198.681 146.115C200.241 146.115 201.456 147.15 201.456 148.86C201.456 150.57 200.241 151.605 198.681 151.605C197.121 151.605 195.906 150.57 195.906 148.86ZM203.331 148.86C203.331 146.25 201.201 144.51 198.681 144.51C196.161 144.51 194.031 146.25 194.031 148.86C194.031 151.47 196.161 153.21 198.681 153.21C201.201 153.21 203.331 151.47 203.331 148.86ZM206.846 144.705L205.541 151.32H204.491V154.59H206.111L206.261 153H212.666L212.816 154.59H214.436V151.32H213.461V144.705H206.846ZM208.376 146.34H211.586V151.32H207.491L208.376 146.34ZM220.352 146.37H220.997L222.497 150.105H218.807L220.352 146.37ZM219.182 144.705L215.567 153H217.577L218.117 151.74H223.232L223.772 153H225.752L222.227 144.705H219.182ZM227 144.705L229.355 148.56L226.73 153H228.89L230.9 149.49H232.565V153H234.44V149.49H236.105L238.115 153H240.275L237.65 148.56L240.005 144.705H237.875L236.045 147.84H234.44V144.705H232.565V147.84H230.96L229.13 144.705H227ZM241.552 144.705V153H243.382L248.302 147.27V153H250.162V144.705H248.347L243.412 150.465V144.705H241.552Z" fill="white"/>
<path d="M420.036 128.705V137H421.896V130.37H426.336V137H428.211V128.705H420.036ZM431.609 132.86C431.609 131.15 432.824 130.115 434.384 130.115C435.944 130.115 437.159 131.15 437.159 132.86C437.159 134.57 435.944 135.605 434.384 135.605C432.824 135.605 431.609 134.57 431.609 132.86ZM439.034 132.86C439.034 130.25 436.904 128.51 434.384 128.51C431.864 128.51 429.734 130.25 429.734 132.86C429.734 135.47 431.864 137.21 434.384 137.21C436.904 137.21 439.034 135.47 439.034 132.86ZM442.549 128.705L441.244 135.32H440.194V138.59H441.814L441.964 137H448.369L448.519 138.59H450.139V135.32H449.164V128.705H442.549ZM444.079 130.34H447.289V135.32H443.194L444.079 130.34ZM451.57 128.705V137H453.43V130.37H457.87V137H459.745V128.705H451.57ZM461.388 128.705V137H463.218L468.138 131.27V137H469.998V128.705H468.183L463.248 134.465V128.705H461.388ZM480.331 130.73C479.476 129.275 478.066 128.51 476.131 128.51C473.521 128.51 471.496 130.175 471.496 132.86C471.496 135.545 473.476 137.21 476.131 137.21C478.066 137.21 479.476 136.445 480.331 134.99L478.876 134.15C478.246 135.05 477.421 135.545 476.101 135.545C474.481 135.545 473.356 134.465 473.356 132.86C473.356 131.225 474.436 130.175 476.101 130.175C477.421 130.175 478.246 130.67 478.876 131.57L480.331 130.73ZM485.831 130.37H486.476L487.976 134.105H484.286L485.831 130.37ZM484.661 128.705L481.046 137H483.056L483.596 135.74H488.711L489.251 137H491.231L487.706 128.705H484.661ZM492.585 128.705V137H494.46V133.55H499.14V137H501.015V128.705H499.14V131.87H494.46V128.705H492.585ZM502.667 128.705V137H504.497L509.417 131.27V137H511.277V128.705H509.462L504.527 134.465V128.705H502.667ZM512.924 128.705V137H520.664V135.275H514.799V133.625H519.884V131.93H514.799V130.4H520.454V128.705H512.924ZM528.816 128.705L527.511 135.32H526.461V138.59H528.081L528.231 137H534.636L534.786 138.59H536.406V135.32H535.431V128.705H528.816ZM530.346 130.34H533.556V135.32H529.461L530.346 130.34ZM539.299 132.86C539.299 131.15 540.514 130.115 542.074 130.115C543.634 130.115 544.849 131.15 544.849 132.86C544.849 134.57 543.634 135.605 542.074 135.605C540.514 135.605 539.299 134.57 539.299 132.86ZM546.724 132.86C546.724 130.25 544.594 128.51 542.074 128.51C539.554 128.51 537.424 130.25 537.424 132.86C537.424 135.47 539.554 137.21 542.074 137.21C544.594 137.21 546.724 135.47 546.724 132.86ZM548.256 128.705V137H550.131V130.4H555.906V128.705H548.256ZM558.701 132.86C558.701 131.15 559.916 130.115 561.476 130.115C563.036 130.115 564.251 131.15 564.251 132.86C564.251 134.57 563.036 135.605 561.476 135.605C559.916 135.605 558.701 134.57 558.701 132.86ZM566.126 132.86C566.126 130.25 563.996 128.51 561.476 128.51C558.956 128.51 556.826 130.25 556.826 132.86C556.826 135.47 558.956 137.21 561.476 137.21C563.996 137.21 566.126 135.47 566.126 132.86ZM567.657 128.705V137H573.402C574.977 137 576.132 135.845 576.132 134.42C576.132 133.4 575.682 132.725 574.917 132.335C575.352 132.035 575.562 131.525 575.562 130.925C575.562 129.575 574.497 128.705 572.997 128.705H567.657ZM569.532 130.385H572.907C573.537 130.385 573.732 130.79 573.732 131.15C573.732 131.525 573.462 131.9 573.057 131.9H569.532V130.385ZM569.532 133.535H573.387C573.927 133.535 574.302 133.88 574.302 134.42C574.302 134.93 573.942 135.305 573.342 135.305H569.532V133.535ZM579.289 132.86C579.289 131.15 580.504 130.115 582.064 130.115C583.624 130.115 584.839 131.15 584.839 132.86C584.839 134.57 583.624 135.605 582.064 135.605C580.504 135.605 579.289 134.57 579.289 132.86ZM586.714 132.86C586.714 130.25 584.584 128.51 582.064 128.51C579.544 128.51 577.414 130.25 577.414 132.86C577.414 135.47 579.544 137.21 582.064 137.21C584.584 137.21 586.714 135.47 586.714 132.86ZM588.245 128.705V137H590.12V135.155H593.135C595.085 135.155 596.555 133.91 596.555 131.96C596.555 130.01 595.085 128.705 593.135 128.705H588.245ZM590.12 130.415H593.06C594.02 130.415 594.68 131 594.68 131.96C594.68 132.92 594.02 133.445 593.06 133.445H590.12V130.415ZM601.86 130.37H602.505L604.005 134.105H600.315L601.86 130.37ZM600.69 128.705L597.075 137H599.085L599.625 135.74H604.74L605.28 137H607.26L603.735 128.705H600.69ZM451.914 146.37H452.559L454.059 150.105H450.369L451.914 146.37ZM450.744 144.705L447.129 153H449.139L449.679 151.74H454.794L455.334 153H457.314L453.789 144.705H450.744ZM458.667 144.705V153H460.542V151.155H463.557C465.507 151.155 466.977 149.91 466.977 147.96C466.977 146.01 465.507 144.705 463.557 144.705H458.667ZM460.542 146.415H463.482C464.442 146.415 465.102 147 465.102 147.96C465.102 148.92 464.442 149.445 463.482 149.445H460.542V146.415ZM468.397 144.705V153H476.137V151.275H470.272V149.625H475.357V147.93H470.272V146.4H475.927V144.705H468.397ZM477.688 144.705V153H479.563V149.55H484.243V153H486.118V144.705H484.243V147.87H479.563V144.705H477.688ZM489.9 144.705L488.595 151.32H487.545V154.59H489.165L489.315 153H495.72L495.87 154.59H497.49V151.32H496.515V144.705H489.9ZM491.43 146.34H494.64V151.32H490.545L491.43 146.34ZM507.831 144.705V153H509.706V144.705H507.831ZM498.921 144.705V153H503.661C505.611 153 507.081 151.695 507.081 149.745C507.081 147.795 505.611 146.595 503.661 146.595H500.796V144.705H498.921ZM500.796 148.26H503.526C504.636 148.26 505.206 148.725 505.206 149.745C505.206 150.765 504.636 151.29 503.526 151.29H500.796V148.26ZM515.832 144.705V153H517.707V149.55H522.387V153H524.262V144.705H522.387V147.87H517.707V144.705H515.832ZM530.399 146.37H531.044L532.544 150.105H528.854L530.399 146.37ZM529.229 144.705L525.614 153H527.624L528.164 151.74H533.279L533.819 153H535.799L532.274 144.705H529.229ZM541.309 144.705V146.37H542.839V153H544.699V144.705H541.309ZM550.815 144.705V153H552.69V146.4H558.465V144.705H550.815ZM561.26 148.86C561.26 147.15 562.475 146.115 564.035 146.115C565.595 146.115 566.81 147.15 566.81 148.86C566.81 150.57 565.595 151.605 564.035 151.605C562.475 151.605 561.26 150.57 561.26 148.86ZM568.685 148.86C568.685 146.25 566.555 144.51 564.035 144.51C561.515 144.51 559.385 146.25 559.385 148.86C559.385 151.47 561.515 153.21 564.035 153.21C566.555 153.21 568.685 151.47 568.685 148.86ZM572.2 144.705L570.895 151.32H569.845V154.59H571.465L571.615 153H578.02L578.17 154.59H579.79V151.32H578.815V144.705H572.2ZM573.73 146.34H576.94V151.32H572.845L573.73 146.34Z" fill="white"/>
<path d="M393.405 232.486L391.654 236.719H395.836L394.136 232.486H393.405ZM392.079 230.599H395.53L399.525 240H397.281L396.669 238.572H390.872L390.26 240H387.982L392.079 230.599ZM401.06 230.599H406.602C408.812 230.599 410.478 232.078 410.478 234.288C410.478 236.498 408.812 237.909 406.602 237.909H403.185V240H401.06V230.599ZM403.185 232.537V235.971H406.517C407.605 235.971 408.353 235.376 408.353 234.288C408.353 233.2 407.605 232.537 406.517 232.537H403.185ZM412.087 230.599H420.621V232.52H414.212V234.254H419.975V236.175H414.212V238.045H420.859V240H412.087V230.599ZM422.616 230.599H424.741V234.186H430.045V230.599H432.17V240H430.045V236.09H424.741V240H422.616V230.599ZM436.456 230.599H443.953V238.096H445.058V241.802H443.222L443.052 240H435.793L435.623 241.802H433.787V238.096H434.977L436.456 230.599ZM438.19 232.452L437.187 238.096H441.828V232.452H438.19ZM448.337 235.308C448.337 237.246 449.714 238.419 451.482 238.419C453.25 238.419 454.627 237.246 454.627 235.308C454.627 233.37 453.25 232.197 451.482 232.197C449.714 232.197 448.337 233.37 448.337 235.308ZM456.752 235.308C456.752 238.266 454.338 240.238 451.482 240.238C448.626 240.238 446.212 238.266 446.212 235.308C446.212 232.35 448.626 230.378 451.482 230.378C454.338 230.378 456.752 232.35 456.752 235.308ZM460.736 230.599H468.233V238.096H469.338V241.802H467.502L467.332 240H460.073L459.903 241.802H458.067V238.096H459.257L460.736 230.599ZM462.47 232.452L461.467 238.096H466.108V232.452H462.47ZM476.042 232.486L474.291 236.719H478.473L476.773 232.486H476.042ZM474.716 230.599H478.167L482.162 240H479.918L479.306 238.572H473.509L472.897 240H470.619L474.716 230.599ZM481.83 230.599H491.605V232.503H487.78V240H485.655V232.503H481.83V230.599ZM493.131 230.599H501.665V232.52H495.256V234.254H501.019V236.175H495.256V238.045H501.903V240H493.131V230.599ZM506.125 230.599H513.622V240H511.497V232.503H507.893L506.941 237.603C506.635 239.269 505.598 240 504.051 240H502.929V238.062H503.949C504.442 238.062 504.765 237.841 504.867 237.331L506.125 230.599ZM515.484 230.599H517.609V232.741H520.856C523.066 232.741 524.732 234.101 524.732 236.311C524.732 238.521 523.066 240 520.856 240H515.484V230.599ZM517.609 234.628V238.062H520.703C521.961 238.062 522.607 237.467 522.607 236.311C522.607 235.155 521.961 234.628 520.703 234.628H517.609ZM535.902 230.191L535.715 231.177C536.14 231.364 536.395 231.84 536.395 232.299C536.395 232.996 535.817 233.54 535.069 233.54C534.44 233.54 533.845 233.081 533.845 232.282C533.845 232.129 533.879 231.993 533.947 231.84L534.814 229.953L535.902 230.191ZM533.318 229.851L532.995 231.177C533.42 231.364 533.641 231.84 533.641 232.299C533.641 232.996 533.063 233.54 532.315 233.54C531.686 233.54 531.091 233.081 531.091 232.282C531.091 232.129 531.125 231.993 531.193 231.84L532.162 229.613L533.318 229.851ZM538.257 230.599H540.365V237.127L545.958 230.599H548.015V240H545.907V233.506L540.331 240H538.257V230.599ZM549.882 230.599H552.007V234.186H557.311V230.599H559.436V240H557.311V236.09H552.007V240H549.882V230.599ZM561.308 230.599H567.36C569.06 230.599 570.267 231.585 570.267 233.115C570.267 233.795 570.029 234.373 569.536 234.713C570.403 235.155 570.913 235.92 570.913 237.076C570.913 238.691 569.604 240 567.819 240H561.308V230.599ZM563.433 232.503V234.22H567.428C567.887 234.22 568.193 233.795 568.193 233.37C568.193 232.962 567.972 232.503 567.258 232.503H563.433ZM563.433 236.073V238.079H567.751C568.431 238.079 568.839 237.654 568.839 237.076C568.839 236.464 568.414 236.073 567.802 236.073H563.433ZM572.501 230.599H581.035V232.52H574.626V234.254H580.389V236.175H574.626V238.045H581.273V240H572.501V230.599ZM592.708 232.894L591.059 233.846C590.345 232.826 589.41 232.265 587.914 232.265C586.027 232.265 584.803 233.455 584.803 235.308C584.803 237.127 586.078 238.351 587.914 238.351C589.41 238.351 590.345 237.79 591.059 236.77L592.708 237.722C591.739 239.371 590.141 240.238 587.948 240.238C584.939 240.238 582.695 238.351 582.695 235.308C582.695 232.265 584.99 230.378 587.948 230.378C590.141 230.378 591.739 231.245 592.708 232.894ZM593.867 230.599H603.642V232.503H599.817V240H597.692V232.503H593.867V230.599ZM606.825 235.308C606.825 237.246 608.202 238.419 609.97 238.419C611.738 238.419 613.115 237.246 613.115 235.308C613.115 233.37 611.738 232.197 609.97 232.197C608.202 232.197 606.825 233.37 606.825 235.308ZM615.24 235.308C615.24 238.266 612.826 240.238 609.97 240.238C607.114 240.238 604.7 238.266 604.7 235.308C604.7 232.35 607.114 230.378 609.97 230.378C612.826 230.378 615.24 232.35 615.24 235.308ZM616.976 230.599H622.518C624.728 230.599 626.394 232.078 626.394 234.288C626.394 236.498 624.728 237.909 622.518 237.909H619.101V240H616.976V230.599ZM619.101 232.537V235.971H622.433C623.521 235.971 624.269 235.376 624.269 234.288C624.269 233.2 623.521 232.537 622.433 232.537H619.101ZM628.208 233.285L628.395 232.299C627.97 232.112 627.715 231.636 627.715 231.177C627.715 230.48 628.293 229.936 629.041 229.936C629.67 229.936 630.265 230.395 630.265 231.194C630.265 231.347 630.231 231.483 630.163 231.636L629.296 233.523L628.208 233.285ZM630.792 233.625L631.115 232.299C630.69 232.112 630.469 231.636 630.469 231.177C630.469 230.48 631.047 229.936 631.795 229.936C632.424 229.936 633.019 230.395 633.019 231.194C633.019 231.347 632.985 231.483 632.917 231.636L631.948 233.863L630.792 233.625ZM639.778 234.271H647.853V236.141H639.778V234.271ZM432.128 250.486L430.377 254.719H434.559L432.859 250.486H432.128ZM430.802 248.599H434.253L438.248 258H436.004L435.392 256.572H429.595L428.983 258H426.705L430.802 248.599ZM439.782 248.599H445.324C447.534 248.599 449.2 250.078 449.2 252.288C449.2 254.498 447.534 255.909 445.324 255.909H441.907V258H439.782V248.599ZM441.907 250.537V253.971H445.239C446.327 253.971 447.075 253.376 447.075 252.288C447.075 251.2 446.327 250.537 445.239 250.537H441.907ZM450.809 248.599H459.343V250.52H452.934V252.254H458.697V254.175H452.934V256.045H459.581V258H450.809V248.599ZM461.339 248.599H463.464V252.186H468.768V248.599H470.893V258H468.768V254.09H463.464V258H461.339V248.599ZM475.179 248.599H482.676V256.096H483.781V259.802H481.945L481.775 258H474.516L474.346 259.802H472.51V256.096H473.7L475.179 248.599ZM476.913 250.452L475.91 256.096H480.551V250.452H476.913ZM490.485 250.486L488.734 254.719H492.916L491.216 250.486H490.485ZM489.159 248.599H492.61L496.605 258H494.361L493.749 256.572H487.952L487.34 258H485.062L489.159 248.599ZM496.273 248.599H506.048V250.503H502.223V258H500.098V250.503H496.273V248.599ZM509.231 253.308C509.231 255.246 510.608 256.419 512.376 256.419C514.144 256.419 515.521 255.246 515.521 253.308C515.521 251.37 514.144 250.197 512.376 250.197C510.608 250.197 509.231 251.37 509.231 253.308ZM517.646 253.308C517.646 256.266 515.232 258.238 512.376 258.238C509.52 258.238 507.106 256.266 507.106 253.308C507.106 250.35 509.52 248.378 512.376 248.378C515.232 248.378 517.646 250.35 517.646 253.308ZM519.381 248.599H524.923C527.133 248.599 528.799 250.078 528.799 252.288C528.799 254.498 527.133 255.909 524.923 255.909H521.506V258H519.381V248.599ZM521.506 250.537V253.971H524.838C525.926 253.971 526.674 253.376 526.674 252.288C526.674 251.2 525.926 250.537 524.838 250.537H521.506ZM541.018 252.543H545.455V258H544.129L543.84 257.269C542.939 257.898 541.97 258.238 540.559 258.238C537.601 258.238 535.306 256.351 535.306 253.308C535.306 250.265 537.601 248.378 540.559 248.378C542.735 248.378 544.214 249.16 545.285 250.758L543.602 251.71C542.854 250.741 542.072 250.316 540.525 250.316C538.638 250.316 537.414 251.455 537.414 253.308C537.414 255.161 538.638 256.3 540.525 256.3C541.868 256.3 542.65 256.045 543.415 255.45V254.379L541.018 254.294V252.543ZM547.417 248.599H549.542V256.079H556.019V258H547.417V248.599ZM557.498 248.599H559.623V258H557.498V248.599ZM561.486 248.599H563.492L569.119 254.923V248.599H571.227V258H569.204L563.577 251.659V258H561.486V248.599ZM582.938 250.894L581.289 251.846C580.575 250.826 579.64 250.265 578.144 250.265C576.257 250.265 575.033 251.455 575.033 253.308C575.033 255.127 576.308 256.351 578.144 256.351C579.64 256.351 580.575 255.79 581.289 254.77L582.938 255.722C581.969 257.371 580.371 258.238 578.178 258.238C575.169 258.238 572.925 256.351 572.925 253.308C572.925 250.265 575.22 248.378 578.178 248.378C580.371 248.378 581.969 249.245 582.938 250.894ZM586.426 253.308C586.426 255.246 587.803 256.419 589.571 256.419C591.339 256.419 592.716 255.246 592.716 253.308C592.716 251.37 591.339 250.197 589.571 250.197C587.803 250.197 586.426 251.37 586.426 253.308ZM594.841 253.308C594.841 256.266 592.427 258.238 589.571 258.238C586.715 258.238 584.301 256.266 584.301 253.308C584.301 250.35 586.715 248.378 589.571 248.378C592.427 248.378 594.841 250.35 594.841 253.308ZM596.577 248.599H599.416L602.714 255.416H602.799L606.233 248.599H608.953V258H606.862V251.421H606.76L603.581 258H601.796L598.736 251.421H598.634V258H596.577V248.599Z" fill="black"/>
<path d="M342.864 182.901V185.682H346.185V188.949H349.29V185.682H352.611V182.901H349.29V179.499H346.185V182.901H342.864Z" fill="white"/>
</svg>
