<svg width="347" height="321" viewBox="0 0 347 321" fill="none" xmlns="http://www.w3.org/2000/svg">
<rect x="1" y="1" width="345" height="319" rx="16" stroke="black" stroke-width="2"/>
<rect x="44" y="178" width="258" height="55" rx="27.5" fill="black"/>
<rect x="44" y="28" width="258" height="55" rx="27.5" fill="black"/>
<path d="M81.4177 92.599H90.6827V102H88.5577V94.486H83.5257V102H81.4177V92.599ZM92.5447 92.599H98.0867C100.297 92.599 101.963 94.078 101.963 96.288C101.963 98.498 100.297 99.909 98.0867 99.909H94.6697V102H92.5447V92.599ZM94.6697 94.537V97.971H98.0017C99.0897 97.971 99.8377 97.376 99.8377 96.288C99.8377 95.2 99.0897 94.537 98.0017 94.537H94.6697ZM105.561 97.308C105.561 99.246 106.938 100.419 108.706 100.419C110.474 100.419 111.851 99.246 111.851 97.308C111.851 95.37 110.474 94.197 108.706 94.197C106.938 94.197 105.561 95.37 105.561 97.308ZM113.976 97.308C113.976 100.266 111.562 102.238 108.706 102.238C105.85 102.238 103.436 100.266 103.436 97.308C103.436 94.35 105.85 92.378 108.706 92.378C111.562 92.378 113.976 94.35 113.976 97.308ZM117.96 92.599H125.457V100.096H126.562V103.802H124.726L124.556 102H117.297L117.127 103.802H115.291V100.096H116.481L117.96 92.599ZM119.694 94.452L118.691 100.096H123.332V94.452H119.694ZM133.267 94.486L131.516 98.719H135.698L133.998 94.486H133.267ZM131.941 92.599H135.392L139.387 102H137.143L136.531 100.572H130.734L130.122 102H127.844L131.941 92.599ZM140.921 92.599H146.973C148.673 92.599 149.88 93.585 149.88 95.115C149.88 95.795 149.642 96.373 149.149 96.713C150.016 97.155 150.526 97.92 150.526 99.076C150.526 100.691 149.217 102 147.432 102H140.921V92.599ZM143.046 94.503V96.22H147.041C147.5 96.22 147.806 95.795 147.806 95.37C147.806 94.962 147.585 94.503 146.871 94.503H143.046ZM143.046 98.073V100.079H147.364C148.044 100.079 148.452 99.654 148.452 99.076C148.452 98.464 148.027 98.073 147.415 98.073H143.046ZM152.114 92.599H160.648V94.52H154.239V96.254H160.002V98.175H154.239V100.045H160.886V102H152.114V92.599ZM162.644 92.599H164.769V100.079H169.733V92.599H171.858V100.079H172.844V103.802H171.008L170.855 102H162.644V92.599ZM184.978 96.543H189.415V102H188.089L187.8 101.269C186.899 101.898 185.93 102.238 184.519 102.238C181.561 102.238 179.266 100.351 179.266 97.308C179.266 94.265 181.561 92.378 184.519 92.378C186.695 92.378 188.174 93.16 189.245 94.758L187.562 95.71C186.814 94.741 186.032 94.316 184.485 94.316C182.598 94.316 181.374 95.455 181.374 97.308C181.374 99.161 182.598 100.3 184.485 100.3C185.828 100.3 186.61 100.045 187.375 99.45V98.379L184.978 98.294V96.543ZM191.376 92.599H193.501V100.079H199.978V102H191.376V92.599ZM201.458 92.599H203.583V102H201.458V92.599ZM205.446 92.599H207.452L213.079 98.923V92.599H215.187V102H213.164L207.537 95.659V102H205.446V92.599ZM226.897 94.894L225.248 95.846C224.534 94.826 223.599 94.265 222.103 94.265C220.216 94.265 218.992 95.455 218.992 97.308C218.992 99.127 220.267 100.351 222.103 100.351C223.599 100.351 224.534 99.79 225.248 98.77L226.897 99.722C225.928 101.371 224.33 102.238 222.137 102.238C219.128 102.238 216.884 100.351 216.884 97.308C216.884 94.265 219.179 92.378 222.137 92.378C224.33 92.378 225.928 93.245 226.897 94.894ZM230.386 97.308C230.386 99.246 231.763 100.419 233.531 100.419C235.299 100.419 236.676 99.246 236.676 97.308C236.676 95.37 235.299 94.197 233.531 94.197C231.763 94.197 230.386 95.37 230.386 97.308ZM238.801 97.308C238.801 100.266 236.387 102.238 233.531 102.238C230.675 102.238 228.261 100.266 228.261 97.308C228.261 94.35 230.675 92.378 233.531 92.378C236.387 92.378 238.801 94.35 238.801 97.308ZM240.537 92.599H243.376L246.674 99.416H246.759L250.193 92.599H252.913V102H250.822V95.421H250.72L247.541 102H245.756L242.696 95.421H242.594V102H240.537V92.599ZM259.683 96.271H267.758V98.141H259.683V96.271ZM65.0675 110.599H74.3325V120H72.2075V112.486H67.1755V120H65.0675V110.599ZM78.1835 115.308C78.1835 117.246 79.5605 118.419 81.3285 118.419C83.0965 118.419 84.4735 117.246 84.4735 115.308C84.4735 113.37 83.0965 112.197 81.3285 112.197C79.5605 112.197 78.1835 113.37 78.1835 115.308ZM86.5985 115.308C86.5985 118.266 84.1845 120.238 81.3285 120.238C78.4725 120.238 76.0585 118.266 76.0585 115.308C76.0585 112.35 78.4725 110.378 81.3285 110.378C84.1845 110.378 86.5985 112.35 86.5985 115.308ZM88.3342 110.599H90.4422V114.067H93.1792L95.5422 110.599H97.9902L94.9812 114.951L98.2112 120H95.6952L93.2302 116.005H90.4422V120H88.3342V110.599ZM98.8023 110.599H100.995L102.355 114.56C102.474 114.9 102.746 115.07 103.086 115.07H105.687L107.166 110.599H109.325L106.826 118.045C106.435 119.184 105.381 120 104.14 120H101.488V118.198H104.038C104.412 118.198 104.769 117.994 104.905 117.603L105.109 116.957H102.984C101.59 116.957 100.757 116.311 100.315 115.019L98.8023 110.599ZM110.754 110.599H120.019V120H117.894V112.486H112.862V120H110.754V110.599ZM126.964 112.486L125.213 116.719H129.395L127.695 112.486H126.964ZM125.638 110.599H129.089L133.084 120H130.84L130.228 118.572H124.431L123.819 120H121.541L125.638 110.599ZM132.751 110.599H142.526V112.503H138.701V120H136.576V112.503H132.751V110.599ZM144.052 110.599H152.586V112.52H146.177V114.254H151.94V116.175H146.177V118.045H152.824V120H144.052V110.599ZM157.047 110.599H164.544V120H162.419V112.503H158.815L157.863 117.603C157.557 119.269 156.52 120 154.973 120H153.851V118.062H154.871C155.364 118.062 155.687 117.841 155.789 117.331L157.047 110.599ZM166.406 110.599H168.531V112.741H171.778C173.988 112.741 175.654 114.101 175.654 116.311C175.654 118.521 173.988 120 171.778 120H166.406V110.599ZM168.531 114.628V118.062H171.625C172.883 118.062 173.529 117.467 173.529 116.311C173.529 115.155 172.883 114.628 171.625 114.628H168.531ZM186.824 110.191L186.637 111.177C187.062 111.364 187.317 111.84 187.317 112.299C187.317 112.996 186.739 113.54 185.991 113.54C185.362 113.54 184.767 113.081 184.767 112.282C184.767 112.129 184.801 111.993 184.869 111.84L185.736 109.953L186.824 110.191ZM184.24 109.851L183.917 111.177C184.342 111.364 184.563 111.84 184.563 112.299C184.563 112.996 183.985 113.54 183.237 113.54C182.608 113.54 182.013 113.081 182.013 112.282C182.013 112.129 182.047 111.993 182.115 111.84L183.084 109.613L184.24 109.851ZM189.179 110.599H191.287V117.127L196.88 110.599H198.937V120H196.829V113.506L191.253 120H189.179V110.599ZM200.804 110.599H202.929V114.186H208.233V110.599H210.358V120H208.233V116.09H202.929V120H200.804V110.599ZM212.23 110.599H218.282C219.982 110.599 221.189 111.585 221.189 113.115C221.189 113.795 220.951 114.373 220.458 114.713C221.325 115.155 221.835 115.92 221.835 117.076C221.835 118.691 220.526 120 218.741 120H212.23V110.599ZM214.355 112.503V114.22H218.35C218.809 114.22 219.115 113.795 219.115 113.37C219.115 112.962 218.894 112.503 218.18 112.503H214.355ZM214.355 116.073V118.079H218.673C219.353 118.079 219.761 117.654 219.761 117.076C219.761 116.464 219.336 116.073 218.724 116.073H214.355ZM223.423 110.599H231.957V112.52H225.548V114.254H231.311V116.175H225.548V118.045H232.195V120H223.423V110.599ZM243.63 112.894L241.981 113.846C241.267 112.826 240.332 112.265 238.836 112.265C236.949 112.265 235.725 113.455 235.725 115.308C235.725 117.127 237 118.351 238.836 118.351C240.332 118.351 241.267 117.79 241.981 116.77L243.63 117.722C242.661 119.371 241.063 120.238 238.87 120.238C235.861 120.238 233.617 118.351 233.617 115.308C233.617 112.265 235.912 110.378 238.87 110.378C241.063 110.378 242.661 111.245 243.63 112.894ZM244.789 110.599H254.564V112.503H250.739V120H248.614V112.503H244.789V110.599ZM257.747 115.308C257.747 117.246 259.124 118.419 260.892 118.419C262.66 118.419 264.037 117.246 264.037 115.308C264.037 113.37 262.66 112.197 260.892 112.197C259.124 112.197 257.747 113.37 257.747 115.308ZM266.162 115.308C266.162 118.266 263.748 120.238 260.892 120.238C258.036 120.238 255.622 118.266 255.622 115.308C255.622 112.35 258.036 110.378 260.892 110.378C263.748 110.378 266.162 112.35 266.162 115.308ZM267.898 110.599H273.44C275.65 110.599 277.316 112.078 277.316 114.288C277.316 116.498 275.65 117.909 273.44 117.909H270.023V120H267.898V110.599ZM270.023 112.537V115.971H273.355C274.443 115.971 275.191 115.376 275.191 114.288C275.191 113.2 274.443 112.537 273.355 112.537H270.023ZM279.129 113.285L279.316 112.299C278.891 112.112 278.636 111.636 278.636 111.177C278.636 110.48 279.214 109.936 279.962 109.936C280.591 109.936 281.186 110.395 281.186 111.194C281.186 111.347 281.152 111.483 281.084 111.636L280.217 113.523L279.129 113.285ZM281.713 113.625L282.036 112.299C281.611 112.112 281.39 111.636 281.39 111.177C281.39 110.48 281.968 109.936 282.716 109.936C283.345 109.936 283.94 110.395 283.94 111.194C283.94 111.347 283.906 111.483 283.838 111.636L282.869 113.863L281.713 113.625Z" fill="black"/>
<path d="M74.8025 43.705V52H76.6625V45.37H81.1025V52H82.9775V43.705H74.8025ZM86.3755 47.86C86.3755 46.15 87.5905 45.115 89.1505 45.115C90.7105 45.115 91.9255 46.15 91.9255 47.86C91.9255 49.57 90.7105 50.605 89.1505 50.605C87.5905 50.605 86.3755 49.57 86.3755 47.86ZM93.8005 47.86C93.8005 45.25 91.6705 43.51 89.1505 43.51C86.6305 43.51 84.5005 45.25 84.5005 47.86C84.5005 50.47 86.6305 52.21 89.1505 52.21C91.6705 52.21 93.8005 50.47 93.8005 47.86ZM97.3155 43.705L96.0105 50.32H94.9605V53.59H96.5805L96.7305 52H103.136L103.286 53.59H104.906V50.32H103.931V43.705H97.3155ZM98.8455 45.34H102.056V50.32H97.9605L98.8455 45.34ZM106.337 43.705V52H108.197V45.37H112.637V52H114.512V43.705H106.337ZM116.154 43.705V52H117.984L122.904 46.27V52H124.764V43.705H122.949L118.014 49.465V43.705H116.154ZM135.097 45.73C134.242 44.275 132.832 43.51 130.897 43.51C128.287 43.51 126.262 45.175 126.262 47.86C126.262 50.545 128.242 52.21 130.897 52.21C132.832 52.21 134.242 51.445 135.097 49.99L133.642 49.15C133.012 50.05 132.187 50.545 130.867 50.545C129.247 50.545 128.122 49.465 128.122 47.86C128.122 46.225 129.202 45.175 130.867 45.175C132.187 45.175 133.012 45.67 133.642 46.57L135.097 45.73ZM140.598 45.37H141.243L142.743 49.105H139.053L140.598 45.37ZM139.428 43.705L135.813 52H137.823L138.363 50.74H143.478L144.018 52H145.998L142.473 43.705H139.428ZM147.352 43.705V52H149.227V48.55H153.907V52H155.782V43.705H153.907V46.87H149.227V43.705H147.352ZM157.433 43.705V52H159.263L164.183 46.27V52H166.043V43.705H164.228L159.293 49.465V43.705H157.433ZM167.691 43.705V52H175.431V50.275H169.566V48.625H174.651V46.93H169.566V45.4H175.221V43.705H167.691ZM183.583 43.705L182.278 50.32H181.228V53.59H182.848L182.998 52H189.403L189.553 53.59H191.173V50.32H190.198V43.705H183.583ZM185.113 45.34H188.323V50.32H184.228L185.113 45.34ZM194.066 47.86C194.066 46.15 195.281 45.115 196.841 45.115C198.401 45.115 199.616 46.15 199.616 47.86C199.616 49.57 198.401 50.605 196.841 50.605C195.281 50.605 194.066 49.57 194.066 47.86ZM201.491 47.86C201.491 45.25 199.361 43.51 196.841 43.51C194.321 43.51 192.191 45.25 192.191 47.86C192.191 50.47 194.321 52.21 196.841 52.21C199.361 52.21 201.491 50.47 201.491 47.86ZM203.022 43.705V52H204.897V45.4H210.672V43.705H203.022ZM213.467 47.86C213.467 46.15 214.682 45.115 216.242 45.115C217.802 45.115 219.017 46.15 219.017 47.86C219.017 49.57 217.802 50.605 216.242 50.605C214.682 50.605 213.467 49.57 213.467 47.86ZM220.892 47.86C220.892 45.25 218.762 43.51 216.242 43.51C213.722 43.51 211.592 45.25 211.592 47.86C211.592 50.47 213.722 52.21 216.242 52.21C218.762 52.21 220.892 50.47 220.892 47.86ZM222.424 43.705V52H228.169C229.744 52 230.899 50.845 230.899 49.42C230.899 48.4 230.449 47.725 229.684 47.335C230.119 47.035 230.329 46.525 230.329 45.925C230.329 44.575 229.264 43.705 227.764 43.705H222.424ZM224.299 45.385H227.674C228.304 45.385 228.499 45.79 228.499 46.15C228.499 46.525 228.229 46.9 227.824 46.9H224.299V45.385ZM224.299 48.535H228.154C228.694 48.535 229.069 48.88 229.069 49.42C229.069 49.93 228.709 50.305 228.109 50.305H224.299V48.535ZM234.055 47.86C234.055 46.15 235.27 45.115 236.83 45.115C238.39 45.115 239.605 46.15 239.605 47.86C239.605 49.57 238.39 50.605 236.83 50.605C235.27 50.605 234.055 49.57 234.055 47.86ZM241.48 47.86C241.48 45.25 239.35 43.51 236.83 43.51C234.31 43.51 232.18 45.25 232.18 47.86C232.18 50.47 234.31 52.21 236.83 52.21C239.35 52.21 241.48 50.47 241.48 47.86ZM243.012 43.705V52H244.887V50.155H247.902C249.852 50.155 251.322 48.91 251.322 46.96C251.322 45.01 249.852 43.705 247.902 43.705H243.012ZM244.887 45.415H247.827C248.787 45.415 249.447 46 249.447 46.96C249.447 47.92 248.787 48.445 247.827 48.445H244.887V45.415ZM256.626 45.37H257.271L258.771 49.105H255.081L256.626 45.37ZM255.456 43.705L251.841 52H253.851L254.391 50.74H259.506L260.046 52H262.026L258.501 43.705H255.456ZM262.629 46.945V48.595H267.354V46.945H262.629ZM105.84 61.705V70H107.7V66.475H110.16L112.335 70H114.555L111.705 65.545L114.36 61.705H112.2L110.115 64.765H107.7V61.705H105.84ZM115.077 61.705L116.412 65.605C116.802 66.745 117.537 67.315 118.767 67.315H120.642L120.462 67.885C120.342 68.23 120.027 68.41 119.697 68.41H117.447V70H119.787C120.882 70 121.812 69.28 122.157 68.275L124.362 61.705H122.457L121.152 65.65H118.857C118.557 65.65 118.317 65.5 118.212 65.2L117.012 61.705H115.077ZM125.623 61.705V70H127.483V63.37H131.923V70H133.798V61.705H125.623ZM137.616 61.705L136.506 67.645C136.416 68.095 136.131 68.29 135.696 68.29H134.796V70H135.786C137.151 70 138.066 69.355 138.336 67.885L139.176 63.385H142.356V70H144.231V61.705H137.616ZM145.874 61.705V70H147.704L152.624 64.27V70H154.484V61.705H152.669L147.734 67.465V61.705H145.874ZM160.603 61.705V70H162.463V63.37H166.903V70H168.778V61.705H160.603ZM170.421 61.705V70H172.296V68.155H175.311C177.261 68.155 178.731 66.91 178.731 64.96C178.731 63.01 177.261 61.705 175.311 61.705H170.421ZM172.296 63.415H175.236C176.196 63.415 176.856 64 176.856 64.96C176.856 65.92 176.196 66.445 175.236 66.445H172.296V63.415ZM181.906 65.86C181.906 64.15 183.121 63.115 184.681 63.115C186.241 63.115 187.456 64.15 187.456 65.86C187.456 67.57 186.241 68.605 184.681 68.605C183.121 68.605 181.906 67.57 181.906 65.86ZM189.331 65.86C189.331 63.25 187.201 61.51 184.681 61.51C182.161 61.51 180.031 63.25 180.031 65.86C180.031 68.47 182.161 70.21 184.681 70.21C187.201 70.21 189.331 68.47 189.331 65.86ZM192.846 61.705L191.541 68.32H190.491V71.59H192.111L192.261 70H198.666L198.816 71.59H200.436V68.32H199.461V61.705H192.846ZM194.376 63.34H197.586V68.32H193.491L194.376 63.34ZM206.352 63.37H206.997L208.497 67.105H204.807L206.352 63.37ZM205.182 61.705L201.567 70H203.577L204.117 68.74H209.232L209.772 70H211.752L208.227 61.705H205.182ZM213 61.705L215.355 65.56L212.73 70H214.89L216.9 66.49H218.565V70H220.44V66.49H222.105L224.115 70H226.275L223.65 65.56L226.005 61.705H223.875L222.045 64.84H220.44V61.705H218.565V64.84H216.96L215.13 61.705H213ZM227.552 61.705V70H229.382L234.302 64.27V70H236.162V61.705H234.347L229.412 67.465V61.705H227.552Z" fill="white"/>
<path d="M83.0362 193.705V202H84.8962V195.37H89.3362V202H91.2112V193.705H83.0362ZM94.6092 197.86C94.6092 196.15 95.8242 195.115 97.3842 195.115C98.9442 195.115 100.159 196.15 100.159 197.86C100.159 199.57 98.9442 200.605 97.3842 200.605C95.8242 200.605 94.6092 199.57 94.6092 197.86ZM102.034 197.86C102.034 195.25 99.9042 193.51 97.3842 193.51C94.8642 193.51 92.7342 195.25 92.7342 197.86C92.7342 200.47 94.8642 202.21 97.3842 202.21C99.9042 202.21 102.034 200.47 102.034 197.86ZM105.549 193.705L104.244 200.32H103.194V203.59H104.814L104.964 202H111.369L111.519 203.59H113.139V200.32H112.164V193.705H105.549ZM107.079 195.34H110.289V200.32H106.194L107.079 195.34ZM114.57 193.705V202H116.43V195.37H120.87V202H122.745V193.705H114.57ZM124.388 193.705V202H126.218L131.138 196.27V202H132.998V193.705H131.183L126.248 199.465V193.705H124.388ZM143.331 195.73C142.476 194.275 141.066 193.51 139.131 193.51C136.521 193.51 134.496 195.175 134.496 197.86C134.496 200.545 136.476 202.21 139.131 202.21C141.066 202.21 142.476 201.445 143.331 199.99L141.876 199.15C141.246 200.05 140.421 200.545 139.101 200.545C137.481 200.545 136.356 199.465 136.356 197.86C136.356 196.225 137.436 195.175 139.101 195.175C140.421 195.175 141.246 195.67 141.876 196.57L143.331 195.73ZM148.831 195.37H149.476L150.976 199.105H147.286L148.831 195.37ZM147.661 193.705L144.046 202H146.056L146.596 200.74H151.711L152.251 202H154.231L150.706 193.705H147.661ZM155.585 193.705V202H157.46V198.55H162.14V202H164.015V193.705H162.14V196.87H157.46V193.705H155.585ZM165.667 193.705V202H167.497L172.417 196.27V202H174.277V193.705H172.462L167.527 199.465V193.705H165.667ZM175.924 193.705V202H183.664V200.275H177.799V198.625H182.884V196.93H177.799V195.4H183.454V193.705H175.924ZM191.816 193.705L190.511 200.32H189.461V203.59H191.081L191.231 202H197.636L197.786 203.59H199.406V200.32H198.431V193.705H191.816ZM193.346 195.34H196.556V200.32H192.461L193.346 195.34ZM202.299 197.86C202.299 196.15 203.514 195.115 205.074 195.115C206.634 195.115 207.849 196.15 207.849 197.86C207.849 199.57 206.634 200.605 205.074 200.605C203.514 200.605 202.299 199.57 202.299 197.86ZM209.724 197.86C209.724 195.25 207.594 193.51 205.074 193.51C202.554 193.51 200.424 195.25 200.424 197.86C200.424 200.47 202.554 202.21 205.074 202.21C207.594 202.21 209.724 200.47 209.724 197.86ZM211.256 193.705V202H213.131V195.4H218.906V193.705H211.256ZM221.701 197.86C221.701 196.15 222.916 195.115 224.476 195.115C226.036 195.115 227.251 196.15 227.251 197.86C227.251 199.57 226.036 200.605 224.476 200.605C222.916 200.605 221.701 199.57 221.701 197.86ZM229.126 197.86C229.126 195.25 226.996 193.51 224.476 193.51C221.956 193.51 219.826 195.25 219.826 197.86C219.826 200.47 221.956 202.21 224.476 202.21C226.996 202.21 229.126 200.47 229.126 197.86ZM230.657 193.705V202H236.402C237.977 202 239.132 200.845 239.132 199.42C239.132 198.4 238.682 197.725 237.917 197.335C238.352 197.035 238.562 196.525 238.562 195.925C238.562 194.575 237.497 193.705 235.997 193.705H230.657ZM232.532 195.385H235.907C236.537 195.385 236.732 195.79 236.732 196.15C236.732 196.525 236.462 196.9 236.057 196.9H232.532V195.385ZM232.532 198.535H236.387C236.927 198.535 237.302 198.88 237.302 199.42C237.302 199.93 236.942 200.305 236.342 200.305H232.532V198.535ZM242.289 197.86C242.289 196.15 243.504 195.115 245.064 195.115C246.624 195.115 247.839 196.15 247.839 197.86C247.839 199.57 246.624 200.605 245.064 200.605C243.504 200.605 242.289 199.57 242.289 197.86ZM249.714 197.86C249.714 195.25 247.584 193.51 245.064 193.51C242.544 193.51 240.414 195.25 240.414 197.86C240.414 200.47 242.544 202.21 245.064 202.21C247.584 202.21 249.714 200.47 249.714 197.86ZM251.245 193.705V202H253.12V200.155H256.135C258.085 200.155 259.555 198.91 259.555 196.96C259.555 195.01 258.085 193.705 256.135 193.705H251.245ZM253.12 195.415H256.06C257.02 195.415 257.68 196 257.68 196.96C257.68 197.92 257.02 198.445 256.06 198.445H253.12V195.415ZM264.86 195.37H265.505L267.005 199.105H263.315L264.86 195.37ZM263.69 193.705L260.075 202H262.085L262.625 200.74H267.74L268.28 202H270.26L266.735 193.705H263.69ZM114.914 213.37H115.559L117.059 217.105H113.369L114.914 213.37ZM113.744 211.705L110.129 220H112.139L112.679 218.74H117.794L118.334 220H120.314L116.789 211.705H113.744ZM121.667 211.705V220H123.542V218.155H126.557C128.507 218.155 129.977 216.91 129.977 214.96C129.977 213.01 128.507 211.705 126.557 211.705H121.667ZM123.542 213.415H126.482C127.442 213.415 128.102 214 128.102 214.96C128.102 215.92 127.442 216.445 126.482 216.445H123.542V213.415ZM131.397 211.705V220H139.137V218.275H133.272V216.625H138.357V214.93H133.272V213.4H138.927V211.705H131.397ZM140.688 211.705V220H142.563V216.55H147.243V220H149.118V211.705H147.243V214.87H142.563V211.705H140.688ZM152.9 211.705L151.595 218.32H150.545V221.59H152.165L152.315 220H158.72L158.87 221.59H160.49V218.32H159.515V211.705H152.9ZM154.43 213.34H157.64V218.32H153.545L154.43 213.34ZM170.831 211.705V220H172.706V211.705H170.831ZM161.921 211.705V220H166.661C168.611 220 170.081 218.695 170.081 216.745C170.081 214.795 168.611 213.595 166.661 213.595H163.796V211.705H161.921ZM163.796 215.26H166.526C167.636 215.26 168.206 215.725 168.206 216.745C168.206 217.765 167.636 218.29 166.526 218.29H163.796V215.26ZM178.832 211.705V220H180.707V216.55H185.387V220H187.262V211.705H185.387V214.87H180.707V211.705H178.832ZM193.399 213.37H194.044L195.544 217.105H191.854L193.399 213.37ZM192.229 211.705L188.614 220H190.624L191.164 218.74H196.279L196.819 220H198.799L195.274 211.705H192.229ZM204.309 211.705V213.37H205.839V220H207.699V211.705H204.309ZM213.815 211.705V220H215.69V213.4H221.465V211.705H213.815ZM224.26 215.86C224.26 214.15 225.475 213.115 227.035 213.115C228.595 213.115 229.81 214.15 229.81 215.86C229.81 217.57 228.595 218.605 227.035 218.605C225.475 218.605 224.26 217.57 224.26 215.86ZM231.685 215.86C231.685 213.25 229.555 211.51 227.035 211.51C224.515 211.51 222.385 213.25 222.385 215.86C222.385 218.47 224.515 220.21 227.035 220.21C229.555 220.21 231.685 218.47 231.685 215.86ZM235.2 211.705L233.895 218.32H232.845V221.59H234.465L234.615 220H241.02L241.17 221.59H242.79V218.32H241.815V211.705H235.2ZM236.73 213.34H239.94V218.32H235.845L236.73 213.34Z" fill="white"/>
<path d="M49.4052 247.486L47.6542 251.719H51.8362L50.1362 247.486H49.4052ZM48.0792 245.599H51.5302L55.5252 255H53.2812L52.6692 253.572H46.8722L46.2602 255H43.9822L48.0792 245.599ZM57.0596 245.599H62.6016C64.8116 245.599 66.4776 247.078 66.4776 249.288C66.4776 251.498 64.8116 252.909 62.6016 252.909H59.1846V255H57.0596V245.599ZM59.1846 247.537V250.971H62.5166C63.6046 250.971 64.3526 250.376 64.3526 249.288C64.3526 248.2 63.6046 247.537 62.5166 247.537H59.1846ZM68.087 245.599H76.621V247.52H70.212V249.254H75.975V251.175H70.212V253.045H76.859V255H68.087V245.599ZM78.6164 245.599H80.7414V249.186H86.0454V245.599H88.1704V255H86.0454V251.09H80.7414V255H78.6164V245.599ZM92.4563 245.599H99.9533V253.096H101.058V256.802H99.2223L99.0523 255H91.7933L91.6233 256.802H89.7873V253.096H90.9773L92.4563 245.599ZM94.1903 247.452L93.1873 253.096H97.8283V247.452H94.1903ZM104.337 250.308C104.337 252.246 105.714 253.419 107.482 253.419C109.25 253.419 110.627 252.246 110.627 250.308C110.627 248.37 109.25 247.197 107.482 247.197C105.714 247.197 104.337 248.37 104.337 250.308ZM112.752 250.308C112.752 253.266 110.338 255.238 107.482 255.238C104.626 255.238 102.212 253.266 102.212 250.308C102.212 247.35 104.626 245.378 107.482 245.378C110.338 245.378 112.752 247.35 112.752 250.308ZM116.736 245.599H124.233V253.096H125.338V256.802H123.502L123.332 255H116.073L115.903 256.802H114.067V253.096H115.257L116.736 245.599ZM118.47 247.452L117.467 253.096H122.108V247.452H118.47ZM132.042 247.486L130.291 251.719H134.473L132.773 247.486H132.042ZM130.716 245.599H134.167L138.162 255H135.918L135.306 253.572H129.509L128.897 255H126.619L130.716 245.599ZM137.83 245.599H147.605V247.503H143.78V255H141.655V247.503H137.83V245.599ZM149.131 245.599H157.665V247.52H151.256V249.254H157.019V251.175H151.256V253.045H157.903V255H149.131V245.599ZM162.125 245.599H169.622V255H167.497V247.503H163.893L162.941 252.603C162.635 254.269 161.598 255 160.051 255H158.929V253.062H159.949C160.442 253.062 160.765 252.841 160.867 252.331L162.125 245.599ZM171.484 245.599H173.609V247.741H176.856C179.066 247.741 180.732 249.101 180.732 251.311C180.732 253.521 179.066 255 176.856 255H171.484V245.599ZM173.609 249.628V253.062H176.703C177.961 253.062 178.607 252.467 178.607 251.311C178.607 250.155 177.961 249.628 176.703 249.628H173.609ZM191.902 245.191L191.715 246.177C192.14 246.364 192.395 246.84 192.395 247.299C192.395 247.996 191.817 248.54 191.069 248.54C190.44 248.54 189.845 248.081 189.845 247.282C189.845 247.129 189.879 246.993 189.947 246.84L190.814 244.953L191.902 245.191ZM189.318 244.851L188.995 246.177C189.42 246.364 189.641 246.84 189.641 247.299C189.641 247.996 189.063 248.54 188.315 248.54C187.686 248.54 187.091 248.081 187.091 247.282C187.091 247.129 187.125 246.993 187.193 246.84L188.162 244.613L189.318 244.851ZM194.257 245.599H196.365V252.127L201.958 245.599H204.015V255H201.907V248.506L196.331 255H194.257V245.599ZM205.882 245.599H208.007V249.186H213.311V245.599H215.436V255H213.311V251.09H208.007V255H205.882V245.599ZM217.308 245.599H223.36C225.06 245.599 226.267 246.585 226.267 248.115C226.267 248.795 226.029 249.373 225.536 249.713C226.403 250.155 226.913 250.92 226.913 252.076C226.913 253.691 225.604 255 223.819 255H217.308V245.599ZM219.433 247.503V249.22H223.428C223.887 249.22 224.193 248.795 224.193 248.37C224.193 247.962 223.972 247.503 223.258 247.503H219.433ZM219.433 251.073V253.079H223.751C224.431 253.079 224.839 252.654 224.839 252.076C224.839 251.464 224.414 251.073 223.802 251.073H219.433ZM228.501 245.599H237.035V247.52H230.626V249.254H236.389V251.175H230.626V253.045H237.273V255H228.501V245.599ZM248.708 247.894L247.059 248.846C246.345 247.826 245.41 247.265 243.914 247.265C242.027 247.265 240.803 248.455 240.803 250.308C240.803 252.127 242.078 253.351 243.914 253.351C245.41 253.351 246.345 252.79 247.059 251.77L248.708 252.722C247.739 254.371 246.141 255.238 243.948 255.238C240.939 255.238 238.695 253.351 238.695 250.308C238.695 247.265 240.99 245.378 243.948 245.378C246.141 245.378 247.739 246.245 248.708 247.894ZM249.867 245.599H259.642V247.503H255.817V255H253.692V247.503H249.867V245.599ZM262.825 250.308C262.825 252.246 264.202 253.419 265.97 253.419C267.738 253.419 269.115 252.246 269.115 250.308C269.115 248.37 267.738 247.197 265.97 247.197C264.202 247.197 262.825 248.37 262.825 250.308ZM271.24 250.308C271.24 253.266 268.826 255.238 265.97 255.238C263.114 255.238 260.7 253.266 260.7 250.308C260.7 247.35 263.114 245.378 265.97 245.378C268.826 245.378 271.24 247.35 271.24 250.308ZM272.976 245.599H278.518C280.728 245.599 282.394 247.078 282.394 249.288C282.394 251.498 280.728 252.909 278.518 252.909H275.101V255H272.976V245.599ZM275.101 247.537V250.971H278.433C279.521 250.971 280.269 250.376 280.269 249.288C280.269 248.2 279.521 247.537 278.433 247.537H275.101ZM284.208 248.285L284.395 247.299C283.97 247.112 283.715 246.636 283.715 246.177C283.715 245.48 284.293 244.936 285.041 244.936C285.67 244.936 286.265 245.395 286.265 246.194C286.265 246.347 286.231 246.483 286.163 246.636L285.296 248.523L284.208 248.285ZM286.792 248.625L287.115 247.299C286.69 247.112 286.469 246.636 286.469 246.177C286.469 245.48 287.047 244.936 287.795 244.936C288.424 244.936 289.019 245.395 289.019 246.194C289.019 246.347 288.985 246.483 288.917 246.636L287.948 248.863L286.792 248.625ZM295.778 249.271H303.853V251.141H295.778V249.271ZM88.1277 265.486L86.3767 269.719H90.5587L88.8587 265.486H88.1277ZM86.8017 263.599H90.2527L94.2477 273H92.0037L91.3917 271.572H85.5947L84.9827 273H82.7047L86.8017 263.599ZM95.7821 263.599H101.324C103.534 263.599 105.2 265.078 105.2 267.288C105.2 269.498 103.534 270.909 101.324 270.909H97.9071V273H95.7821V263.599ZM97.9071 265.537V268.971H101.239C102.327 268.971 103.075 268.376 103.075 267.288C103.075 266.2 102.327 265.537 101.239 265.537H97.9071ZM106.809 263.599H115.343V265.52H108.934V267.254H114.697V269.175H108.934V271.045H115.581V273H106.809V263.599ZM117.339 263.599H119.464V267.186H124.768V263.599H126.893V273H124.768V269.09H119.464V273H117.339V263.599ZM131.179 263.599H138.676V271.096H139.781V274.802H137.945L137.775 273H130.516L130.346 274.802H128.51V271.096H129.7L131.179 263.599ZM132.913 265.452L131.91 271.096H136.551V265.452H132.913ZM146.485 265.486L144.734 269.719H148.916L147.216 265.486H146.485ZM145.159 263.599H148.61L152.605 273H150.361L149.749 271.572H143.952L143.34 273H141.062L145.159 263.599ZM152.273 263.599H162.048V265.503H158.223V273H156.098V265.503H152.273V263.599ZM165.231 268.308C165.231 270.246 166.608 271.419 168.376 271.419C170.144 271.419 171.521 270.246 171.521 268.308C171.521 266.37 170.144 265.197 168.376 265.197C166.608 265.197 165.231 266.37 165.231 268.308ZM173.646 268.308C173.646 271.266 171.232 273.238 168.376 273.238C165.52 273.238 163.106 271.266 163.106 268.308C163.106 265.35 165.52 263.378 168.376 263.378C171.232 263.378 173.646 265.35 173.646 268.308ZM175.381 263.599H180.923C183.133 263.599 184.799 265.078 184.799 267.288C184.799 269.498 183.133 270.909 180.923 270.909H177.506V273H175.381V263.599ZM177.506 265.537V268.971H180.838C181.926 268.971 182.674 268.376 182.674 267.288C182.674 266.2 181.926 265.537 180.838 265.537H177.506ZM197.018 267.543H201.455V273H200.129L199.84 272.269C198.939 272.898 197.97 273.238 196.559 273.238C193.601 273.238 191.306 271.351 191.306 268.308C191.306 265.265 193.601 263.378 196.559 263.378C198.735 263.378 200.214 264.16 201.285 265.758L199.602 266.71C198.854 265.741 198.072 265.316 196.525 265.316C194.638 265.316 193.414 266.455 193.414 268.308C193.414 270.161 194.638 271.3 196.525 271.3C197.868 271.3 198.65 271.045 199.415 270.45V269.379L197.018 269.294V267.543ZM203.417 263.599H205.542V271.079H212.019V273H203.417V263.599ZM213.498 263.599H215.623V273H213.498V263.599ZM217.486 263.599H219.492L225.119 269.923V263.599H227.227V273H225.204L219.577 266.659V273H217.486V263.599ZM238.938 265.894L237.289 266.846C236.575 265.826 235.64 265.265 234.144 265.265C232.257 265.265 231.033 266.455 231.033 268.308C231.033 270.127 232.308 271.351 234.144 271.351C235.64 271.351 236.575 270.79 237.289 269.77L238.938 270.722C237.969 272.371 236.371 273.238 234.178 273.238C231.169 273.238 228.925 271.351 228.925 268.308C228.925 265.265 231.22 263.378 234.178 263.378C236.371 263.378 237.969 264.245 238.938 265.894ZM242.426 268.308C242.426 270.246 243.803 271.419 245.571 271.419C247.339 271.419 248.716 270.246 248.716 268.308C248.716 266.37 247.339 265.197 245.571 265.197C243.803 265.197 242.426 266.37 242.426 268.308ZM250.841 268.308C250.841 271.266 248.427 273.238 245.571 273.238C242.715 273.238 240.301 271.266 240.301 268.308C240.301 265.35 242.715 263.378 245.571 263.378C248.427 263.378 250.841 265.35 250.841 268.308ZM252.577 263.599H255.416L258.714 270.416H258.799L262.233 263.599H264.953V273H262.862V266.421H262.76L259.581 273H257.796L254.736 266.421H254.634V273H252.577V263.599Z" fill="black"/>
<path d="M163.378 144.782V148.25H170.11V154.778H173.782V148.25H180.565V144.782H173.782V138.152H170.11V144.782H163.378Z" fill="black"/>
</svg>
