<svg width="420" height="420" viewBox="0 0 420 420" fill="none" xmlns="http://www.w3.org/2000/svg">
<circle cx="210" cy="210" r="208" stroke="black" stroke-width="4"/>
<path d="M63.6661 172.728H71.4901C74.6101 172.728 76.9621 174.816 76.9621 177.936C76.9621 181.056 74.6101 183.048 71.4901 183.048H66.6661V186H63.6661V172.728ZM66.6661 175.464V180.312H71.3701C72.9061 180.312 73.9621 179.472 73.9621 177.936C73.9621 176.4 72.9061 175.464 71.3701 175.464H66.6661ZM79.2342 172.728H91.2822V175.44H82.2342V177.888H90.3702V180.6H82.2342V183.24H91.6182V186H79.2342V172.728ZM94.0992 172.728H106.339V175.44H97.0992V186H94.0992V172.728ZM108.472 172.728H111.448V181.944L119.344 172.728H122.248V186H119.272V176.832L111.4 186H108.472V172.728ZM138.78 175.968L136.452 177.312C135.444 175.872 134.124 175.08 132.012 175.08C129.348 175.08 127.62 176.76 127.62 179.376C127.62 181.944 129.42 183.672 132.012 183.672C134.124 183.672 135.444 182.88 136.452 181.44L138.78 182.784C137.412 185.112 135.156 186.336 132.06 186.336C127.812 186.336 124.644 183.672 124.644 179.376C124.644 175.08 127.884 172.416 132.06 172.416C135.156 172.416 137.412 173.64 138.78 175.968ZM140.417 172.728H154.217V175.416H148.817V186H145.817V175.416H140.417V172.728ZM156.372 172.728H164.196C167.316 172.728 169.668 174.816 169.668 177.936C169.668 181.056 167.316 183.048 164.196 183.048H159.372V186H156.372V172.728ZM159.372 175.464V180.312H164.076C165.612 180.312 166.668 179.472 166.668 177.936C166.668 176.4 165.612 175.464 164.076 175.464H159.372ZM178.155 175.392L175.683 181.368H181.587L179.187 175.392H178.155ZM176.283 172.728H181.155L186.795 186H183.627L182.763 183.984H174.579L173.715 186H170.499L176.283 172.728ZM188.961 172.728H191.961V183.288H198.969V172.728H201.969V183.288H203.361V188.544H200.769L200.553 186H188.961V172.728ZM205.514 172.728H208.49V181.944L216.386 172.728H219.29V186H216.314V176.832L208.442 186H205.514V172.728ZM234.765 172.728V186H231.765V183.048H226.821L225.261 186H221.997L224.037 182.352C222.477 181.512 221.469 179.976 221.469 177.936C221.469 174.816 223.821 172.728 226.941 172.728H234.765ZM231.765 175.464H227.061C225.525 175.464 224.469 176.4 224.469 177.936C224.469 179.472 225.525 180.312 227.061 180.312H231.765V175.464ZM244.577 172.728H257.657V186H254.657V175.392H247.553V186H244.577V172.728ZM260.286 172.728H272.334V175.44H263.286V177.888H271.422V180.6H263.286V183.24H272.67V186H260.286V172.728ZM275.151 172.728H282.975C286.095 172.728 288.447 174.816 288.447 177.936C288.447 181.056 286.095 183.048 282.975 183.048H278.151V186H275.151V172.728ZM278.151 175.464V180.312H282.855C284.391 180.312 285.447 179.472 285.447 177.936C285.447 176.4 284.391 175.464 282.855 175.464H278.151ZM290.719 172.728H302.767V175.44H293.719V177.888H301.855V180.6H293.719V183.24H303.103V186H290.719V172.728ZM305.272 172.728H308.68L312.16 177.84H313L316.48 172.728H319.888L315.448 179.016L320.152 186H316.672L313.048 180.528H312.112L308.488 186H305.008L309.736 179.088L305.272 172.728ZM324.054 179.376C324.054 182.112 325.998 183.768 328.494 183.768C330.99 183.768 332.934 182.112 332.934 179.376C332.934 176.64 330.99 174.984 328.494 174.984C325.998 174.984 324.054 176.64 324.054 179.376ZM335.934 179.376C335.934 183.552 332.526 186.336 328.494 186.336C324.462 186.336 321.054 183.552 321.054 179.376C321.054 175.2 324.462 172.416 328.494 172.416C332.526 172.416 335.934 175.2 335.934 179.376ZM341.558 172.728H352.142V183.312H353.702V188.544H351.11L350.87 186H340.622L340.382 188.544H337.79V183.312H339.47L341.558 172.728ZM344.006 175.344L342.59 183.312H349.142V175.344H344.006ZM363.168 175.392L360.696 181.368H366.6L364.2 175.392H363.168ZM361.296 172.728H366.168L371.808 186H368.64L367.776 183.984H359.592L358.728 186H355.512L361.296 172.728ZM67.0411 202.728H80.1211V216H77.1211V205.392H70.0171V216H67.0411V202.728ZM82.7498 202.728H90.5738C93.6938 202.728 96.0458 204.816 96.0458 207.936C96.0458 211.056 93.6938 213.048 90.5738 213.048H85.7498V216H82.7498V202.728ZM85.7498 205.464V210.312H90.4538C91.9898 210.312 93.0458 209.472 93.0458 207.936C93.0458 206.4 91.9898 205.464 90.4538 205.464H85.7498ZM104.533 205.392L102.061 211.368H107.965L105.565 205.392H104.533ZM102.661 202.728H107.533L113.173 216H110.005L109.141 213.984H100.957L100.093 216H96.877L102.661 202.728ZM115.339 202.728H123.883C126.283 202.728 127.987 204.12 127.987 206.28C127.987 207.24 127.651 208.056 126.955 208.536C128.179 209.16 128.899 210.24 128.899 211.872C128.899 214.152 127.051 216 124.531 216H115.339V202.728ZM118.339 205.416V207.84H123.979C124.627 207.84 125.059 207.24 125.059 206.64C125.059 206.064 124.747 205.416 123.739 205.416H118.339ZM118.339 210.456V213.288H124.435C125.395 213.288 125.971 212.688 125.971 211.872C125.971 211.008 125.371 210.456 124.507 210.456H118.339ZM137.591 205.392L135.119 211.368H141.023L138.623 205.392H137.591ZM135.719 202.728H140.591L146.231 216H143.063L142.199 213.984H134.015L133.151 216H129.935L135.719 202.728ZM169.447 205.968L167.119 207.312C166.111 205.872 164.791 205.08 162.679 205.08C160.015 205.08 158.287 206.76 158.287 209.376C158.287 211.944 160.087 213.672 162.679 213.672C164.791 213.672 166.111 212.88 167.119 211.44L169.447 212.784C168.079 215.112 165.823 216.336 162.727 216.336C158.479 216.336 155.311 213.672 155.311 209.376C155.311 205.08 158.551 202.416 162.727 202.416C165.823 202.416 168.079 203.64 169.447 205.968ZM174.373 209.376C174.373 212.112 176.317 213.768 178.813 213.768C181.309 213.768 183.253 212.112 183.253 209.376C183.253 206.64 181.309 204.984 178.813 204.984C176.317 204.984 174.373 206.64 174.373 209.376ZM186.253 209.376C186.253 213.552 182.845 216.336 178.813 216.336C174.781 216.336 171.373 213.552 171.373 209.376C171.373 205.2 174.781 202.416 178.813 202.416C182.845 202.416 186.253 205.2 186.253 209.376ZM188.703 202.728H200.175V205.416H191.679V207.12H197.175C199.887 207.12 201.831 208.944 201.831 211.488C201.831 213.96 199.887 216 197.175 216H188.703V202.728ZM191.679 209.76V213.312H196.959C198.351 213.312 198.855 212.496 198.855 211.488C198.855 210.504 198.327 209.76 196.935 209.76H191.679ZM217.886 205.968L215.558 207.312C214.55 205.872 213.23 205.08 211.118 205.08C208.454 205.08 206.726 206.76 206.726 209.376C206.726 211.944 208.526 213.672 211.118 213.672C213.23 213.672 214.55 212.88 215.558 211.44L217.886 212.784C216.518 215.112 214.262 216.336 211.166 216.336C206.918 216.336 203.75 213.672 203.75 209.376C203.75 205.08 206.99 202.416 211.166 202.416C214.262 202.416 216.518 203.64 217.886 205.968ZM219.524 202.728H233.324V205.416H227.924V216H224.924V205.416H219.524V202.728ZM235.478 202.728H244.022C246.422 202.728 248.126 204.12 248.126 206.28C248.126 207.24 247.79 208.056 247.094 208.536C248.318 209.16 249.038 210.24 249.038 211.872C249.038 214.152 247.19 216 244.67 216H235.478V202.728ZM238.478 205.416V207.84H244.118C244.766 207.84 245.198 207.24 245.198 206.64C245.198 206.064 244.886 205.416 243.878 205.416H238.478ZM238.478 210.456V213.288H244.574C245.534 213.288 246.11 212.688 246.11 211.872C246.11 211.008 245.51 210.456 244.646 210.456H238.478ZM251.28 202.728H263.328V205.44H254.28V207.888H262.416V210.6H254.28V213.24H263.664V216H251.28V202.728ZM266.145 202.728H269.145V207.792H276.633V202.728H279.633V216H276.633V210.48H269.145V216H266.145V202.728ZM282.276 202.728H285.276V207.792H292.764V202.728H295.764V216H292.764V210.48H285.276V216H282.276V202.728ZM301.215 209.376C301.215 212.112 303.159 213.768 305.655 213.768C308.151 213.768 310.095 212.112 310.095 209.376C310.095 206.64 308.151 204.984 305.655 204.984C303.159 204.984 301.215 206.64 301.215 209.376ZM313.095 209.376C313.095 213.552 309.687 216.336 305.655 216.336C301.623 216.336 298.215 213.552 298.215 209.376C298.215 205.2 301.623 202.416 305.655 202.416C309.687 202.416 313.095 205.2 313.095 209.376ZM329.441 205.968L327.113 207.312C326.105 205.872 324.785 205.08 322.673 205.08C320.009 205.08 318.281 206.76 318.281 209.376C318.281 211.944 320.081 213.672 322.673 213.672C324.785 213.672 326.105 212.88 327.113 211.44L329.441 212.784C328.073 215.112 325.817 216.336 322.721 216.336C318.473 216.336 315.305 213.672 315.305 209.376C315.305 205.08 318.545 202.416 322.721 202.416C325.817 202.416 328.073 203.64 329.441 205.968ZM331.079 202.728H344.879V205.416H339.479V216H336.479V205.416H331.079V202.728ZM347.033 202.728H350.009V211.944L357.905 202.728H360.809V216H357.833V206.832L349.961 216H347.033V202.728ZM95.8833 232.728H98.8833V237.792H106.371V232.728H109.371V246H106.371V240.48H98.8833V246H95.8833V232.728ZM119.19 235.392L116.718 241.368H122.622L120.222 235.392H119.19ZM117.318 232.728H122.19L127.83 246H124.662L123.798 243.984H115.614L114.75 246H111.534L117.318 232.728ZM137.15 232.728H140.15V237.792H147.638V232.728H150.638V246H147.638V240.48H140.15V246H137.15V232.728ZM153.281 232.728H165.329V235.44H156.281V237.888H164.417V240.6H156.281V243.24H165.665V246H153.281V232.728ZM171.554 232.728H182.138V243.312H183.698V248.544H181.106L180.866 246H170.618L170.378 248.544H167.786V243.312H169.466L171.554 232.728ZM174.002 235.344L172.586 243.312H179.138V235.344H174.002ZM185.987 232.728H194.531C196.931 232.728 198.635 234.12 198.635 236.28C198.635 237.24 198.299 238.056 197.603 238.536C198.827 239.16 199.547 240.24 199.547 241.872C199.547 244.152 197.699 246 195.179 246H185.987V232.728ZM188.987 235.416V237.84H194.627C195.275 237.84 195.707 237.24 195.707 236.64C195.707 236.064 195.395 235.416 194.387 235.416H188.987ZM188.987 240.456V243.288H195.083C196.043 243.288 196.619 242.688 196.619 241.872C196.619 241.008 196.019 240.456 195.155 240.456H188.987ZM201.79 232.728H204.766V241.944L212.662 232.728H215.566V246H212.59V236.832L204.718 246H201.79V232.728ZM218.034 232.728H221.442L224.37 237.744H226.938V232.728H229.938V237.744H232.506L235.434 232.728H238.842L235.074 238.896L239.274 246H235.818L232.602 240.384H229.938V246H226.938V240.384H224.274L221.058 246H217.602L221.802 238.896L218.034 232.728ZM241.317 232.728H244.293V241.944L252.189 232.728H255.093V246H252.117V236.832L244.245 246H241.317V232.728ZM257.729 232.728H261.737L266.393 242.352H266.513L271.361 232.728H275.201V246H272.249V236.712H272.105L267.617 246H265.097L260.777 236.712H260.633V246H257.729V232.728ZM280.652 239.376C280.652 242.112 282.596 243.768 285.092 243.768C287.588 243.768 289.532 242.112 289.532 239.376C289.532 236.64 287.588 234.984 285.092 234.984C282.596 234.984 280.652 236.64 280.652 239.376ZM292.532 239.376C292.532 243.552 289.124 246.336 285.092 246.336C281.06 246.336 277.652 243.552 277.652 239.376C277.652 235.2 281.06 232.416 285.092 232.416C289.124 232.416 292.532 235.2 292.532 239.376ZM308.878 235.968L306.55 237.312C305.542 235.872 304.222 235.08 302.11 235.08C299.446 235.08 297.718 236.76 297.718 239.376C297.718 241.944 299.518 243.672 302.11 243.672C304.222 243.672 305.542 242.88 306.55 241.44L308.878 242.784C307.51 245.112 305.254 246.336 302.158 246.336C297.91 246.336 294.742 243.672 294.742 239.376C294.742 235.08 297.982 232.416 302.158 232.416C305.254 232.416 307.51 233.64 308.878 235.968ZM310.515 232.728H324.315V235.416H318.915V246H315.915V235.416H310.515V232.728ZM326.47 232.728H329.47V235.752H334.054C337.174 235.752 339.526 237.672 339.526 240.792C339.526 243.912 337.174 246 334.054 246H326.47V232.728ZM329.47 238.416V243.264H333.838C335.614 243.264 336.526 242.424 336.526 240.792C336.526 239.16 335.614 238.416 333.838 238.416H329.47Z" fill="black"/>
</svg>
