<svg width="347" height="116" viewBox="0 0 347 116" fill="none" xmlns="http://www.w3.org/2000/svg">
<path d="M57.2148 34.493H63.4088C65.8788 34.493 67.7408 36.146 67.7408 38.616C67.7408 41.086 65.8788 42.663 63.4088 42.663H59.5898V45H57.2148V34.493ZM59.5898 36.659V40.497H63.3138C64.5298 40.497 65.3658 39.832 65.3658 38.616C65.3658 37.4 64.5298 36.659 63.3138 36.659H59.5898ZM69.5396 34.493H79.0776V36.64H71.9146V38.578H78.3556V40.725H71.9146V42.815H79.3436V45H69.5396V34.493ZM81.3077 34.493H90.9977V36.64H83.6827V45H81.3077V34.493ZM92.6862 34.493H95.0422V41.789L101.293 34.493H103.592V45H101.236V37.742L95.0042 45H92.6862V34.493ZM116.68 37.058L114.837 38.122C114.039 36.982 112.994 36.355 111.322 36.355C109.213 36.355 107.845 37.685 107.845 39.756C107.845 41.789 109.27 43.157 111.322 43.157C112.994 43.157 114.039 42.53 114.837 41.39L116.68 42.454C115.597 44.297 113.811 45.266 111.36 45.266C107.997 45.266 105.489 43.157 105.489 39.756C105.489 36.355 108.054 34.246 111.36 34.246C113.811 34.246 115.597 35.215 116.68 37.058ZM117.976 34.493H128.901V36.621H124.626V45H122.251V36.621H117.976V34.493ZM130.607 34.493H136.801C139.271 34.493 141.133 36.146 141.133 38.616C141.133 41.086 139.271 42.663 136.801 42.663H132.982V45H130.607V34.493ZM132.982 36.659V40.497H136.706C137.922 40.497 138.758 39.832 138.758 38.616C138.758 37.4 137.922 36.659 136.706 36.659H132.982ZM147.852 36.602L145.895 41.333H150.569L148.669 36.602H147.852ZM146.37 34.493H150.227L154.692 45H152.184L151.5 43.404H145.021L144.337 45H141.791L146.37 34.493ZM156.407 34.493H158.782V42.853H164.33V34.493H166.705V42.853H167.807V47.014H165.755L165.584 45H156.407V34.493ZM169.511 34.493H171.867V41.789L178.118 34.493H180.417V45H178.061V37.742L171.829 45H169.511V34.493ZM192.668 34.493V45H190.293V42.663H186.379L185.144 45H182.56L184.175 42.112C182.94 41.447 182.142 40.231 182.142 38.616C182.142 36.146 184.004 34.493 186.474 34.493H192.668ZM190.293 36.659H186.569C185.353 36.659 184.517 37.4 184.517 38.616C184.517 39.832 185.353 40.497 186.569 40.497H190.293V36.659ZM200.436 34.493H210.791V45H208.416V36.602H202.792V45H200.436V34.493ZM212.872 34.493H222.41V36.64H215.247V38.578H221.688V40.725H215.247V42.815H222.676V45H212.872V34.493ZM224.64 34.493H230.834C233.304 34.493 235.166 36.146 235.166 38.616C235.166 41.086 233.304 42.663 230.834 42.663H227.015V45H224.64V34.493ZM227.015 36.659V40.497H230.739C231.955 40.497 232.791 39.832 232.791 38.616C232.791 37.4 231.955 36.659 230.739 36.659H227.015ZM236.965 34.493H246.503V36.64H239.34V38.578H245.781V40.725H239.34V42.815H246.769V45H236.965V34.493ZM248.486 34.493H251.184L253.939 38.54H254.604L257.359 34.493H260.057L256.542 39.471L260.266 45H257.511L254.642 40.668H253.901L251.032 45H248.277L252.02 39.528L248.486 34.493ZM263.355 39.756C263.355 41.922 264.894 43.233 266.87 43.233C268.846 43.233 270.385 41.922 270.385 39.756C270.385 37.59 268.846 36.279 266.87 36.279C264.894 36.279 263.355 37.59 263.355 39.756ZM272.76 39.756C272.76 43.062 270.062 45.266 266.87 45.266C263.678 45.266 260.98 43.062 260.98 39.756C260.98 36.45 263.678 34.246 266.87 34.246C270.062 34.246 272.76 36.45 272.76 39.756ZM277.213 34.493H285.592V42.872H286.827V47.014H284.775L284.585 45H276.472L276.282 47.014H274.23V42.872H275.56L277.213 34.493ZM279.151 36.564L278.03 42.872H283.217V36.564H279.151ZM294.32 36.602L292.363 41.333H297.037L295.137 36.602H294.32ZM292.838 34.493H296.695L301.16 45H298.652L297.968 43.404H291.489L290.805 45H288.259L292.838 34.493ZM59.8867 52.493H70.2417V63H67.8667V54.602H62.2427V63H59.8867V52.493ZM72.3228 52.493H78.5168C80.9868 52.493 82.8488 54.146 82.8488 56.616C82.8488 59.086 80.9868 60.663 78.5168 60.663H74.6978V63H72.3228V52.493ZM74.6978 54.659V58.497H78.4218C79.6378 58.497 80.4738 57.832 80.4738 56.616C80.4738 55.4 79.6378 54.659 78.4218 54.659H74.6978ZM89.5678 54.602L87.6108 59.333H92.2848L90.3848 54.602H89.5678ZM88.0858 52.493H91.9428L96.4078 63H93.8998L93.2158 61.404H86.7368L86.0528 63H83.5068L88.0858 52.493ZM98.1227 52.493H104.887C106.787 52.493 108.136 53.595 108.136 55.305C108.136 56.065 107.87 56.711 107.319 57.091C108.288 57.585 108.858 58.44 108.858 59.732C108.858 61.537 107.395 63 105.4 63H98.1227V52.493ZM100.498 54.621V56.54H104.963C105.476 56.54 105.818 56.065 105.818 55.59C105.818 55.134 105.571 54.621 104.773 54.621H100.498ZM100.498 58.611V60.853H105.324C106.084 60.853 106.54 60.378 106.54 59.732C106.54 59.048 106.065 58.611 105.381 58.611H100.498ZM115.739 54.602L113.782 59.333H118.456L116.556 54.602H115.739ZM114.257 52.493H118.114L122.579 63H120.071L119.387 61.404H112.908L112.224 63H109.678L114.257 52.493ZM140.958 55.058L139.115 56.122C138.317 54.982 137.272 54.355 135.6 54.355C133.491 54.355 132.123 55.685 132.123 57.756C132.123 59.789 133.548 61.157 135.6 61.157C137.272 61.157 138.317 60.53 139.115 59.39L140.958 60.454C139.875 62.297 138.089 63.266 135.638 63.266C132.275 63.266 129.767 61.157 129.767 57.756C129.767 54.355 132.332 52.246 135.638 52.246C138.089 52.246 139.875 53.215 140.958 55.058ZM144.858 57.756C144.858 59.922 146.397 61.233 148.373 61.233C150.349 61.233 151.888 59.922 151.888 57.756C151.888 55.59 150.349 54.279 148.373 54.279C146.397 54.279 144.858 55.59 144.858 57.756ZM154.263 57.756C154.263 61.062 151.565 63.266 148.373 63.266C145.181 63.266 142.483 61.062 142.483 57.756C142.483 54.45 145.181 52.246 148.373 52.246C151.565 52.246 154.263 54.45 154.263 57.756ZM156.203 52.493H165.285V54.621H158.559V55.97H162.91C165.057 55.97 166.596 57.414 166.596 59.428C166.596 61.385 165.057 63 162.91 63H156.203V52.493ZM158.559 58.06V60.872H162.739C163.841 60.872 164.24 60.226 164.24 59.428C164.24 58.649 163.822 58.06 162.72 58.06H158.559ZM179.306 55.058L177.463 56.122C176.665 54.982 175.62 54.355 173.948 54.355C171.839 54.355 170.471 55.685 170.471 57.756C170.471 59.789 171.896 61.157 173.948 61.157C175.62 61.157 176.665 60.53 177.463 59.39L179.306 60.454C178.223 62.297 176.437 63.266 173.986 63.266C170.623 63.266 168.115 61.157 168.115 57.756C168.115 54.355 170.68 52.246 173.986 52.246C176.437 52.246 178.223 53.215 179.306 55.058ZM180.602 52.493H191.527V54.621H187.252V63H184.877V54.621H180.602V52.493ZM193.233 52.493H199.997C201.897 52.493 203.246 53.595 203.246 55.305C203.246 56.065 202.98 56.711 202.429 57.091C203.398 57.585 203.968 58.44 203.968 59.732C203.968 61.537 202.505 63 200.51 63H193.233V52.493ZM195.608 54.621V56.54H200.073C200.586 56.54 200.928 56.065 200.928 55.59C200.928 55.134 200.681 54.621 199.883 54.621H195.608ZM195.608 58.611V60.853H200.434C201.194 60.853 201.65 60.378 201.65 59.732C201.65 59.048 201.175 58.611 200.491 58.611H195.608ZM205.743 52.493H215.281V54.64H208.118V56.578H214.559V58.725H208.118V60.815H215.547V63H205.743V52.493ZM217.511 52.493H219.886V56.502H225.814V52.493H228.189V63H225.814V58.63H219.886V63H217.511V52.493ZM230.281 52.493H232.656V56.502H238.584V52.493H240.959V63H238.584V58.63H232.656V63H230.281V52.493ZM245.274 57.756C245.274 59.922 246.813 61.233 248.789 61.233C250.765 61.233 252.304 59.922 252.304 57.756C252.304 55.59 250.765 54.279 248.789 54.279C246.813 54.279 245.274 55.59 245.274 57.756ZM254.679 57.756C254.679 61.062 251.981 63.266 248.789 63.266C245.597 63.266 242.899 61.062 242.899 57.756C242.899 54.45 245.597 52.246 248.789 52.246C251.981 52.246 254.679 54.45 254.679 57.756ZM267.62 55.058L265.777 56.122C264.979 54.982 263.934 54.355 262.262 54.355C260.153 54.355 258.785 55.685 258.785 57.756C258.785 59.789 260.21 61.157 262.262 61.157C263.934 61.157 264.979 60.53 265.777 59.39L267.62 60.454C266.537 62.297 264.751 63.266 262.3 63.266C258.937 63.266 256.429 61.157 256.429 57.756C256.429 54.355 258.994 52.246 262.3 52.246C264.751 52.246 266.537 53.215 267.62 55.058ZM268.916 52.493H279.841V54.621H275.566V63H273.191V54.621H268.916V52.493ZM281.547 52.493H283.903V59.789L290.154 52.493H292.453V63H290.097V55.742L283.865 63H281.547V52.493ZM82.7201 70.493H85.0951V74.502H91.0231V70.493H93.3981V81H91.0231V76.63H85.0951V81H82.7201V70.493ZM101.171 72.602L99.2142 77.333H103.888L101.988 72.602H101.171ZM99.6892 70.493H103.546L108.011 81H105.503L104.819 79.404H98.3402L97.6562 81H95.1102L99.6892 70.493ZM115.39 70.493H117.765V74.502H123.693V70.493H126.068V81H123.693V76.63H117.765V81H115.39V70.493ZM128.16 70.493H137.698V72.64H130.535V74.578H136.976V76.725H130.535V78.815H137.964V81H128.16V70.493ZM142.626 70.493H151.005V78.872H152.24V83.014H150.188L149.998 81H141.885L141.695 83.014H139.643V78.872H140.973L142.626 70.493ZM144.564 72.564L143.443 78.872H148.63V72.564H144.564ZM154.052 70.493H160.816C162.716 70.493 164.065 71.595 164.065 73.305C164.065 74.065 163.799 74.711 163.248 75.091C164.217 75.585 164.787 76.44 164.787 77.732C164.787 79.537 163.324 81 161.329 81H154.052V70.493ZM156.427 72.621V74.54H160.892C161.405 74.54 161.747 74.065 161.747 73.59C161.747 73.134 161.5 72.621 160.702 72.621H156.427ZM156.427 76.611V78.853H161.253C162.013 78.853 162.469 78.378 162.469 77.732C162.469 77.048 161.994 76.611 161.31 76.611H156.427ZM166.563 70.493H168.919V77.789L175.17 70.493H177.469V81H175.113V73.742L168.881 81H166.563V70.493ZM179.423 70.493H182.121L184.439 74.464H186.472V70.493H188.847V74.464H190.88L193.198 70.493H195.896L192.913 75.376L196.238 81H193.502L190.956 76.554H188.847V81H186.472V76.554H184.363L181.817 81H179.081L182.406 75.376L179.423 70.493ZM197.855 70.493H200.211V77.789L206.462 70.493H208.761V81H206.405V73.742L200.173 81H197.855V70.493ZM210.848 70.493H214.021L217.707 78.112H217.802L221.64 70.493H224.68V81H222.343V73.647H222.229L218.676 81H216.681L213.261 73.647H213.147V81H210.848V70.493ZM228.995 75.756C228.995 77.922 230.534 79.233 232.51 79.233C234.486 79.233 236.025 77.922 236.025 75.756C236.025 73.59 234.486 72.279 232.51 72.279C230.534 72.279 228.995 73.59 228.995 75.756ZM238.4 75.756C238.4 79.062 235.702 81.266 232.51 81.266C229.318 81.266 226.62 79.062 226.62 75.756C226.62 72.45 229.318 70.246 232.51 70.246C235.702 70.246 238.4 72.45 238.4 75.756ZM251.341 73.058L249.498 74.122C248.7 72.982 247.655 72.355 245.983 72.355C243.874 72.355 242.506 73.685 242.506 75.756C242.506 77.789 243.931 79.157 245.983 79.157C247.655 79.157 248.7 78.53 249.498 77.39L251.341 78.454C250.258 80.297 248.472 81.266 246.021 81.266C242.658 81.266 240.15 79.157 240.15 75.756C240.15 72.355 242.715 70.246 246.021 70.246C248.472 70.246 250.258 71.215 251.341 73.058ZM252.637 70.493H263.562V72.621H259.287V81H256.912V72.621H252.637V70.493ZM265.268 70.493H267.643V72.887H271.272C273.742 72.887 275.604 74.407 275.604 76.877C275.604 79.347 273.742 81 271.272 81H265.268V70.493ZM267.643 74.996V78.834H271.101C272.507 78.834 273.229 78.169 273.229 76.877C273.229 75.585 272.507 74.996 271.101 74.996H267.643Z" fill="black"/>
<rect x="1" y="1" width="345" height="114" rx="57" stroke="black" stroke-width="2"/>
</svg>
