<svg width="674" height="593" viewBox="0 0 674 593" fill="none" xmlns="http://www.w3.org/2000/svg">
<path d="M334.413 361.1C433.852 361.1 514.463 280.489 514.463 181.05C514.463 81.6111 433.852 1 334.413 1C234.974 1 154.363 81.6111 154.363 181.05C154.363 280.489 234.974 361.1 334.413 361.1Z" stroke="#010101" stroke-width="0.5" stroke-miterlimit="10"/>
<path d="M242.814 81.7657H254.365V84.3658H245.69V86.7129H253.49V89.313H245.69V91.8441H254.687V94.4902H242.814V81.7657ZM256.674 81.7657H259.942L262.749 86.5748H265.211V81.7657H268.087V86.5748H270.549L273.356 81.7657H276.624L273.011 87.6793L277.038 94.4902H273.725L270.641 89.1059H268.087V94.4902H265.211V89.1059H262.657L259.573 94.4902H256.26L260.287 87.6793L256.674 81.7657ZM278.767 81.7657H290.318V84.3658H281.643V86.7129H289.443V89.313H281.643V91.8441H290.64V94.4902H278.767V81.7657ZM292.788 81.7657H296.631L301.095 90.9927H301.21L305.858 81.7657H309.54V94.4902H306.709V85.5854H306.571L302.269 94.4902H299.853L295.711 85.5854H295.573V94.4902H292.788V81.7657ZM311.844 81.7657H323.395V84.3658H314.72V86.7129H322.52V89.313H314.72V91.8441H323.717V94.4902H311.844V81.7657ZM338.963 84.8721L336.731 86.1606C335.734 84.734 334.315 84.0207 332.475 84.0207C331.201 84.0207 330.181 84.3965 329.414 85.1482C328.647 85.8845 328.264 86.8816 328.264 88.1395C328.264 89.3667 328.655 90.3638 329.437 91.1308C330.22 91.8824 331.232 92.2583 332.475 92.2583C334.315 92.2583 335.734 91.545 336.731 90.1183L338.963 91.4069C337.629 93.6772 335.481 94.8124 332.521 94.8124C330.45 94.8124 328.747 94.2064 327.412 92.9946C326.078 91.7827 325.41 90.1644 325.41 88.1395C325.41 86.1146 326.078 84.4962 327.412 83.2844C328.762 82.0725 330.465 81.4666 332.521 81.4666C335.481 81.4666 337.629 82.6017 338.963 84.8721ZM353.298 81.7657V94.4902H350.422V91.66H345.682L344.186 94.4902H341.057L343.013 90.9927C341.372 90.103 340.551 88.6917 340.551 86.7589C340.551 85.2862 341.042 84.0897 342.024 83.1693C343.021 82.2336 344.279 81.7657 345.797 81.7657H353.298ZM350.422 84.3888H345.912C345.161 84.3888 344.555 84.6036 344.094 85.0331C343.65 85.4626 343.427 86.0379 343.427 86.7589C343.427 87.4799 343.65 88.0398 344.094 88.4386C344.555 88.8374 345.161 89.0369 345.912 89.0369H350.422V84.3888ZM355.617 81.7657H358.493V86.5058C358.493 88.2699 359.352 89.1519 361.07 89.1519H365.166V81.7657H368.042V94.4902H365.166V91.752H360.633C359.129 91.752 357.918 91.2918 356.997 90.3714C356.077 89.451 355.617 88.2469 355.617 86.7589V81.7657ZM370.402 81.7657H373.278V86.6208H380.458V81.7657H383.334V94.4902H380.458V89.1979H373.278V94.4902H370.402V81.7657ZM399.305 81.7657H402.182V94.4902H399.305V81.7657ZM385.637 81.7657H388.514V84.665H392.909C394.443 84.665 395.7 85.1022 396.682 85.9765C397.664 86.8509 398.155 88.0244 398.155 89.4971C398.155 90.9697 397.656 92.1739 396.659 93.1096C395.677 94.03 394.427 94.4902 392.909 94.4902H385.637V81.7657ZM388.514 87.2191V91.8671H392.701C394.42 91.8671 395.279 91.0771 395.279 89.4971C395.279 87.9784 394.42 87.2191 392.701 87.2191H388.514ZM404.49 81.7657H407.344V90.6015L414.914 81.7657H417.698V94.4902H414.845V85.7004L407.298 94.4902H404.49V81.7657ZM413.418 77.4168L414.799 78.9355C414.154 79.5491 413.533 79.9709 412.935 80.201C412.337 80.4158 411.677 80.5232 410.956 80.5232C410.235 80.5232 409.576 80.4158 408.977 80.201C408.379 79.9709 407.758 79.5491 407.113 78.9355L408.494 77.4168C409.184 78.0151 410.005 78.3142 410.956 78.3142C411.907 78.3142 412.728 78.0151 413.418 77.4168Z" fill="#010101"/>
<path d="M266.377 112.492L264.145 113.781C263.148 112.354 261.729 111.641 259.888 111.641C258.615 111.641 257.594 112.017 256.827 112.768C256.06 113.504 255.677 114.502 255.677 115.759C255.677 116.987 256.068 117.984 256.85 118.751C257.633 119.502 258.645 119.878 259.888 119.878C261.729 119.878 263.148 119.165 264.145 117.738L266.377 119.027C265.042 121.297 262.894 122.432 259.934 122.432C257.863 122.432 256.16 121.826 254.826 120.615C253.491 119.403 252.824 117.784 252.824 115.759C252.824 113.735 253.491 112.116 254.826 110.904C256.176 109.692 257.878 109.087 259.934 109.087C262.894 109.087 265.042 110.222 266.377 112.492ZM267.716 109.386H280.947V111.963H275.77V122.11H272.894V111.963H267.716V109.386ZM287.595 111.94L285.225 117.669H290.886L288.585 111.94H287.595ZM285.8 109.386H290.471L295.879 122.11H292.842L292.013 120.177H284.167L283.338 122.11H280.255L285.8 109.386ZM297.726 109.386H308.724V111.963H300.579V113.597H305.848C307.152 113.597 308.218 113.988 309.047 114.77C309.89 115.552 310.312 116.557 310.312 117.784C310.312 118.981 309.89 120.001 309.047 120.845C308.203 121.688 307.137 122.11 305.848 122.11H297.726V109.386ZM300.579 116.128V119.533H305.641C306.853 119.533 307.459 118.95 307.459 117.784C307.459 116.68 306.845 116.128 305.618 116.128H300.579ZM312.152 109.386H315.005V118.222L322.575 109.386H325.36V122.11H322.506V113.32L314.959 122.11H312.152V109.386ZM330.993 109.386H341.14V122.11H338.264V111.963H333.386L332.097 118.866C331.699 121.029 330.395 122.11 328.186 122.11H326.667V119.487H328.048C328.738 119.487 329.152 119.157 329.29 118.498L330.993 109.386ZM343.431 109.386H346.307V112.285H350.702C352.236 112.285 353.494 112.722 354.476 113.597C355.458 114.471 355.948 115.644 355.948 117.117C355.948 118.59 355.45 119.794 354.453 120.73C353.471 121.65 352.221 122.11 350.702 122.11H343.431V109.386ZM346.307 114.839V119.487H350.495C352.213 119.487 353.072 118.697 353.072 117.117C353.072 115.598 352.213 114.839 350.495 114.839H346.307ZM357.857 109.386H360.733V114.241H367.913V109.386H370.789V122.11H367.913V116.818H360.733V122.11H357.857V109.386ZM386.76 109.386H389.637V122.11H386.76V109.386ZM373.092 109.386H375.969V112.285H380.363C381.897 112.285 383.155 112.722 384.137 113.597C385.119 114.471 385.61 115.644 385.61 117.117C385.61 118.59 385.111 119.794 384.114 120.73C383.132 121.65 381.882 122.11 380.363 122.11H373.092V109.386ZM375.969 114.839V119.487H380.156C381.874 119.487 382.734 118.697 382.734 117.117C382.734 115.598 381.874 114.839 380.156 114.839H375.969ZM391.945 109.386H394.798V118.222L402.369 109.386H405.153V122.11H402.3V113.32L394.752 122.11H391.945V109.386ZM400.873 105.037L402.254 106.555C401.609 107.169 400.988 107.591 400.39 107.821C399.792 108.036 399.132 108.143 398.411 108.143C397.69 108.143 397.03 108.036 396.432 107.821C395.834 107.591 395.213 107.169 394.568 106.555L395.949 105.037C396.639 105.635 397.46 105.934 398.411 105.934C399.362 105.934 400.183 105.635 400.873 105.037Z" fill="#010101"/>
<path d="M236.573 140.44L234.203 146.169H239.864L237.563 140.44H236.573ZM234.779 137.886H239.45L244.857 150.61H241.82L240.991 148.677H233.145L232.317 150.61H229.233L234.779 137.886ZM246.704 137.886H254.205C255.724 137.886 256.974 138.354 257.956 139.289C258.953 140.21 259.451 141.406 259.451 142.879C259.451 144.352 258.953 145.54 257.956 146.445C256.974 147.335 255.724 147.78 254.205 147.78H249.58V150.61H246.704V137.886ZM249.58 140.509V145.157H254.09C254.842 145.157 255.44 144.957 255.885 144.559C256.345 144.16 256.575 143.6 256.575 142.879C256.575 142.158 256.345 141.583 255.885 141.153C255.44 140.724 254.842 140.509 254.09 140.509H249.58ZM261.4 137.886H272.951V140.486H264.276V142.833H272.076V145.433H264.276V147.964H273.273V150.61H261.4V137.886ZM275.421 137.886H278.298V142.741H285.477V137.886H288.353V150.61H285.477V145.318H278.298V150.61H275.421V137.886ZM293.924 137.886H304.071V148.033H305.567V153.049H303.082L302.852 150.61H293.027L292.796 153.049H290.311V148.033H291.922L293.924 137.886ZM296.271 140.394L294.913 148.033H301.195V140.394H296.271ZM307.532 137.886H310.408V142.741H317.587V137.886H320.464V150.61H317.587V145.318H310.408V150.61H307.532V137.886ZM336.435 137.886H339.311V150.61H336.435V137.886ZM322.767 137.886H325.643V140.785H330.038C331.572 140.785 332.83 141.222 333.812 142.097C334.794 142.971 335.285 144.144 335.285 145.617C335.285 147.09 334.786 148.294 333.789 149.23C332.807 150.15 331.557 150.61 330.038 150.61H322.767V137.886ZM325.643 143.339V147.987H329.831C331.549 147.987 332.408 147.197 332.408 145.617C332.408 144.098 331.549 143.339 329.831 143.339H325.643ZM341.62 137.886H344.473V146.722L352.044 137.886H354.828V150.61H351.975V141.82L344.427 150.61H341.62V137.886ZM350.548 133.537L351.929 135.055C351.284 135.669 350.663 136.091 350.065 136.321C349.466 136.536 348.807 136.643 348.086 136.643C347.365 136.643 346.705 136.536 346.107 136.321C345.509 136.091 344.887 135.669 344.243 135.055L345.624 133.537C346.314 134.135 347.135 134.434 348.086 134.434C349.037 134.434 349.858 134.135 350.548 133.537ZM363.754 137.886H376.294V150.61H373.418V140.44H366.607V150.61H363.754V137.886ZM382.473 141.199C381.675 141.951 381.277 142.971 381.277 144.259C381.277 145.548 381.675 146.576 382.473 147.343C383.286 148.094 384.306 148.47 385.533 148.47C386.761 148.47 387.773 148.094 388.571 147.343C389.384 146.576 389.79 145.548 389.79 144.259C389.79 142.971 389.384 141.951 388.571 141.199C387.773 140.432 386.761 140.049 385.533 140.049C384.306 140.049 383.286 140.432 382.473 141.199ZM390.573 139.45C391.969 140.693 392.666 142.296 392.666 144.259C392.666 146.223 391.969 147.826 390.573 149.069C389.192 150.311 387.512 150.932 385.533 150.932C383.555 150.932 381.867 150.311 380.471 149.069C379.091 147.826 378.4 146.223 378.4 144.259C378.4 142.296 379.091 140.693 380.471 139.45C381.867 138.208 383.555 137.587 385.533 137.587C387.512 137.587 389.192 138.208 390.573 139.45ZM393.876 137.886H407.107V140.463H401.93V150.61H399.053V140.463H393.876V137.886ZM412.382 141.199C411.584 141.951 411.185 142.971 411.185 144.259C411.185 145.548 411.584 146.576 412.382 147.343C413.195 148.094 414.215 148.47 415.442 148.47C416.669 148.47 417.682 148.094 418.479 147.343C419.292 146.576 419.699 145.548 419.699 144.259C419.699 142.971 419.292 141.951 418.479 141.199C417.682 140.432 416.669 140.049 415.442 140.049C414.215 140.049 413.195 140.432 412.382 141.199ZM420.481 139.45C421.877 140.693 422.575 142.296 422.575 144.259C422.575 146.223 421.877 147.826 420.481 149.069C419.1 150.311 417.421 150.932 415.442 150.932C413.463 150.932 411.776 150.311 410.38 149.069C408.999 147.826 408.309 146.223 408.309 144.259C408.309 142.296 408.999 140.693 410.38 139.45C411.776 138.208 413.463 137.587 415.442 137.587C417.421 137.587 419.1 138.208 420.481 139.45ZM424.694 137.886H427.547V142.58H431.252L434.45 137.886H437.764L433.691 143.776L438.063 150.61H434.658L431.321 145.203H427.547V150.61H424.694V137.886Z" fill="#010101"/>
<rect x="393.413" y="192.55" width="74" height="35" rx="17.5" fill="black"/>
<path d="M213.18 203.995H218.381V216.72H215.527V206.549H213.18V203.995ZM223.689 211.289L221.319 211.128L221.664 203.995H231.903V206.572H224.356L224.218 208.597C225.185 208.306 226.251 208.16 227.416 208.16C229.135 208.16 230.461 208.536 231.397 209.287C232.348 210.039 232.824 211.098 232.824 212.463C232.824 214.012 232.249 215.163 231.098 215.914C229.963 216.651 228.406 217.019 226.427 217.019C225.138 217.019 224.003 216.881 223.022 216.605C222.04 216.329 221.073 215.861 220.122 215.201L221.434 212.969C222.339 213.521 223.167 213.905 223.919 214.12C224.686 214.334 225.599 214.442 226.657 214.442C228.851 214.442 229.948 213.782 229.948 212.463C229.948 211.834 229.702 211.381 229.211 211.105C228.72 210.814 227.953 210.668 226.91 210.668C225.775 210.668 224.701 210.875 223.689 211.289ZM245.325 203.765L247.327 204.685L239.986 217.41L237.985 216.49L245.325 203.765ZM247.672 217.042C246.629 217.042 245.77 216.704 245.095 216.029C244.435 215.354 244.105 214.503 244.105 213.475C244.105 212.448 244.443 211.596 245.118 210.921C245.793 210.246 246.644 209.909 247.672 209.909C248.684 209.909 249.52 210.246 250.18 210.921C250.855 211.596 251.192 212.448 251.192 213.475C251.192 214.503 250.855 215.354 250.18 216.029C249.52 216.704 248.684 217.042 247.672 217.042ZM247.672 215.017C248.086 215.017 248.439 214.894 248.73 214.649C249.022 214.388 249.167 213.997 249.167 213.475C249.167 212.969 249.022 212.593 248.73 212.348C248.439 212.087 248.086 211.957 247.672 211.957C247.242 211.957 246.874 212.087 246.567 212.348C246.276 212.593 246.13 212.969 246.13 213.475C246.13 213.997 246.276 214.388 246.567 214.649C246.874 214.894 247.242 215.017 247.672 215.017ZM240.401 210.116C239.741 210.791 238.897 211.128 237.869 211.128C236.842 211.128 235.99 210.791 235.315 210.116C234.656 209.441 234.326 208.59 234.326 207.562C234.326 206.534 234.656 205.683 235.315 205.008C235.99 204.333 236.842 203.995 237.869 203.995C238.897 203.995 239.741 204.333 240.401 205.008C241.076 205.683 241.413 206.534 241.413 207.562C241.413 208.59 241.076 209.441 240.401 210.116ZM236.765 208.712C237.072 208.958 237.44 209.08 237.869 209.08C238.299 209.08 238.659 208.958 238.951 208.712C239.242 208.467 239.388 208.083 239.388 207.562C239.388 207.04 239.242 206.657 238.951 206.411C238.659 206.15 238.299 206.02 237.869 206.02C237.44 206.02 237.072 206.15 236.765 206.411C236.474 206.657 236.328 207.04 236.328 207.562C236.328 208.083 236.474 208.467 236.765 208.712ZM259.819 203.995H271.554V206.595H262.695V216.72H259.819V203.995ZM276.808 207.309C276.01 208.06 275.611 209.08 275.611 210.369C275.611 211.658 276.01 212.685 276.808 213.452C277.621 214.204 278.641 214.58 279.868 214.58C281.095 214.58 282.108 214.204 282.905 213.452C283.718 212.685 284.125 211.658 284.125 210.369C284.125 209.08 283.718 208.06 282.905 207.309C282.108 206.542 281.095 206.158 279.868 206.158C278.641 206.158 277.621 206.542 276.808 207.309ZM284.907 205.56C286.303 206.802 287.001 208.405 287.001 210.369C287.001 212.332 286.303 213.936 284.907 215.178C283.527 216.421 281.847 217.042 279.868 217.042C277.889 217.042 276.202 216.421 274.806 215.178C273.425 213.936 272.735 212.332 272.735 210.369C272.735 208.405 273.425 206.802 274.806 205.56C276.202 204.317 277.889 203.696 279.868 203.696C281.847 203.696 283.527 204.317 284.907 205.56ZM292.163 203.995H302.31V214.143H303.806V219.159H301.321L301.091 216.72H291.266L291.036 219.159H288.55V214.143H290.161L292.163 203.995ZM294.51 206.503L293.152 214.143H299.434V206.503H294.51ZM309.21 207.309C308.413 208.06 308.014 209.08 308.014 210.369C308.014 211.658 308.413 212.685 309.21 213.452C310.023 214.204 311.044 214.58 312.271 214.58C313.498 214.58 314.51 214.204 315.308 213.452C316.121 212.685 316.528 211.658 316.528 210.369C316.528 209.08 316.121 208.06 315.308 207.309C314.51 206.542 313.498 206.158 312.271 206.158C311.044 206.158 310.023 206.542 309.21 207.309ZM317.31 205.56C318.706 206.802 319.404 208.405 319.404 210.369C319.404 212.332 318.706 213.936 317.31 215.178C315.929 216.421 314.25 217.042 312.271 217.042C310.292 217.042 308.604 216.421 307.209 215.178C305.828 213.936 305.138 212.332 305.138 210.369C305.138 208.405 305.828 206.802 307.209 205.56C308.604 204.317 310.292 203.696 312.271 203.696C314.25 203.696 315.929 204.317 317.31 205.56ZM321.523 203.995H329.715C330.88 203.995 331.824 204.31 332.545 204.939C333.281 205.552 333.649 206.373 333.649 207.401C333.649 208.382 333.32 209.103 332.66 209.564C333.902 210.193 334.524 211.259 334.524 212.762C334.524 213.866 334.125 214.802 333.327 215.569C332.53 216.336 331.532 216.72 330.336 216.72H321.523V203.995ZM324.399 206.572V208.896H329.807C330.113 208.896 330.359 208.781 330.543 208.551C330.742 208.321 330.842 208.053 330.842 207.746C330.842 207.424 330.742 207.148 330.543 206.917C330.344 206.687 330.021 206.572 329.577 206.572H324.399ZM324.399 211.404V214.12H330.244C330.689 214.12 331.042 213.997 331.302 213.751C331.578 213.491 331.716 213.161 331.716 212.762C331.716 212.348 331.586 212.018 331.325 211.773C331.065 211.527 330.727 211.404 330.313 211.404H324.399ZM350.112 203.995H352.988V216.72H350.112V203.995ZM336.444 203.995H339.32V206.894H343.715C345.249 206.894 346.507 207.332 347.488 208.206C348.47 209.08 348.961 210.254 348.961 211.727C348.961 213.199 348.462 214.403 347.465 215.339C346.484 216.26 345.233 216.72 343.715 216.72H336.444V203.995ZM339.32 209.449V214.097H343.508C345.226 214.097 346.085 213.307 346.085 211.727C346.085 210.208 345.226 209.449 343.508 209.449H339.32ZM354.997 203.995H358.265L361.601 208.896H362.407L365.743 203.995H369.01L364.754 210.024L369.264 216.72H365.927L362.453 211.473H361.555L358.081 216.72H354.744L359.277 210.093L354.997 203.995ZM377.402 208.965H388.332V211.496H377.402V208.965Z" fill="#010101"/>
<path d="M408.564 202.825H420.299V205.425H411.44V215.55H408.564V202.825ZM425.553 206.139C424.755 206.89 424.356 207.91 424.356 209.199C424.356 210.488 424.755 211.515 425.553 212.282C426.366 213.034 427.386 213.41 428.613 213.41C429.84 213.41 430.853 213.034 431.65 212.282C432.463 211.515 432.87 210.488 432.87 209.199C432.87 207.91 432.463 206.89 431.65 206.139C430.853 205.372 429.84 204.988 428.613 204.988C427.386 204.988 426.366 205.372 425.553 206.139ZM433.652 204.39C435.048 205.632 435.746 207.236 435.746 209.199C435.746 211.163 435.048 212.766 433.652 214.008C432.272 215.251 430.592 215.872 428.613 215.872C426.634 215.872 424.947 215.251 423.551 214.008C422.17 212.766 421.48 211.163 421.48 209.199C421.48 207.236 422.17 205.632 423.551 204.39C424.947 203.147 426.634 202.526 428.613 202.526C430.592 202.526 432.272 203.147 433.652 204.39ZM440.908 202.825H451.056V212.973H452.551V217.989H450.066L449.836 215.55H440.011L439.781 217.989H437.296V212.973H438.906L440.908 202.825ZM443.255 205.333L441.898 212.973H448.179V205.333H443.255Z" fill="white"/>
<path d="M78.9324 439.391H84.1236V441.204H78.9324V439.391ZM90.1717 437.767H91.7812V442.751L96.0517 437.767H97.6222V444.945H96.0127V439.986L91.7553 444.945H90.1717V437.767ZM98.918 437.767H100.541V440.506H104.59V437.767H106.213V444.945H104.59V441.959H100.541V444.945H98.918V437.767ZM107.512 437.767H112.133C112.791 437.767 113.323 437.944 113.73 438.299C114.145 438.645 114.353 439.108 114.353 439.688C114.353 440.242 114.167 440.648 113.795 440.908C114.495 441.263 114.846 441.864 114.846 442.712C114.846 443.335 114.621 443.863 114.171 444.296C113.721 444.728 113.158 444.945 112.484 444.945H107.512V437.767ZM109.135 439.221V440.532H112.185C112.358 440.532 112.497 440.467 112.6 440.337C112.713 440.207 112.769 440.056 112.769 439.883C112.769 439.701 112.713 439.545 112.6 439.415C112.488 439.286 112.306 439.221 112.055 439.221H109.135ZM109.135 441.946V443.478H112.432C112.683 443.478 112.882 443.409 113.029 443.27C113.184 443.123 113.262 442.937 113.262 442.712C113.262 442.479 113.189 442.293 113.042 442.154C112.895 442.016 112.704 441.946 112.471 441.946H109.135ZM115.929 437.767H122.445V439.234H117.551V440.558H121.952V442.024H117.551V443.452H122.627V444.945H115.929V437.767ZM131.227 439.519L129.968 440.246C129.406 439.441 128.605 439.039 127.567 439.039C126.849 439.039 126.273 439.251 125.841 439.675C125.408 440.09 125.192 440.653 125.192 441.362C125.192 442.055 125.412 442.617 125.854 443.05C126.295 443.474 126.866 443.686 127.567 443.686C128.605 443.686 129.406 443.283 129.968 442.479L131.227 443.206C130.474 444.486 129.263 445.127 127.593 445.127C126.425 445.127 125.464 444.785 124.711 444.101C123.958 443.418 123.582 442.505 123.582 441.362C123.582 440.22 123.958 439.307 124.711 438.624C125.473 437.94 126.433 437.598 127.593 437.598C129.263 437.598 130.474 438.238 131.227 439.519ZM131.983 437.767H139.447V439.221H136.526V444.945H134.904V439.221H131.983V437.767ZM142.422 439.636C141.972 440.06 141.747 440.635 141.747 441.362C141.747 442.089 141.972 442.669 142.422 443.102C142.881 443.526 143.456 443.738 144.148 443.738C144.841 443.738 145.412 443.526 145.862 443.102C146.32 442.669 146.55 442.089 146.55 441.362C146.55 440.635 146.32 440.06 145.862 439.636C145.412 439.203 144.841 438.987 144.148 438.987C143.456 438.987 142.881 439.203 142.422 439.636ZM146.991 438.65C147.778 439.35 148.172 440.255 148.172 441.362C148.172 442.47 147.778 443.374 146.991 444.075C146.212 444.776 145.265 445.127 144.148 445.127C143.032 445.127 142.08 444.776 141.293 444.075C140.514 443.374 140.125 442.47 140.125 441.362C140.125 440.255 140.514 439.35 141.293 438.65C142.08 437.949 143.032 437.598 144.148 437.598C145.265 437.598 146.212 437.949 146.991 438.65ZM149.368 437.767H153.599C154.456 437.767 155.161 438.031 155.715 438.559C156.277 439.078 156.559 439.753 156.559 440.584C156.559 441.414 156.277 442.085 155.715 442.595C155.161 443.097 154.456 443.348 153.599 443.348H150.99V444.945H149.368V437.767ZM150.99 439.247V441.869H153.534C153.958 441.869 154.296 441.756 154.547 441.531C154.806 441.306 154.936 440.99 154.936 440.584C154.936 440.177 154.806 439.852 154.547 439.61C154.296 439.368 153.958 439.247 153.534 439.247H150.99Z" fill="#010101"/>
<path d="M54.8521 453.847H57.0198L59.5379 459.052H59.6028L62.2248 453.847H64.3016V461.025H62.705V456.002H62.6271L60.1999 461.025H58.837L56.5006 456.002H56.4227V461.025H54.8521V453.847ZM67.7948 455.716C67.3448 456.14 67.1198 456.716 67.1198 457.442C67.1198 458.169 67.3448 458.749 67.7948 459.182C68.2534 459.606 68.8289 459.818 69.5211 459.818C70.2134 459.818 70.7845 459.606 71.2345 459.182C71.6931 458.749 71.9224 458.169 71.9224 457.442C71.9224 456.716 71.6931 456.14 71.2345 455.716C70.7845 455.283 70.2134 455.067 69.5211 455.067C68.8289 455.067 68.2534 455.283 67.7948 455.716ZM72.3638 454.73C73.1512 455.431 73.5449 456.335 73.5449 457.442C73.5449 458.55 73.1512 459.454 72.3638 460.155C71.585 460.856 70.6374 461.207 69.5211 461.207C68.4049 461.207 67.453 460.856 66.6655 460.155C65.8867 459.454 65.4973 458.55 65.4973 457.442C65.4973 456.335 65.8867 455.431 66.6655 454.73C67.453 454.029 68.4049 453.678 69.5211 453.678C70.6374 453.678 71.585 454.029 72.3638 454.73ZM74.1299 453.847H75.973L77.5566 456.56H78.9454V453.847H80.5679V456.56H81.9568L83.5404 453.847H85.3835L83.3457 457.183L85.6172 461.025H83.748L82.0087 457.988H80.5679V461.025H78.9454V457.988H77.5047L75.7653 461.025H73.8962L76.1677 457.183L74.1299 453.847ZM86.5923 453.847H93.1082V455.314H88.2148V456.638H92.615V458.104H88.2148V459.532H93.29V461.025H86.5923V453.847ZM94.2424 453.847H101.706V455.301H98.7854V461.025H97.1629V455.301H94.2424V453.847ZM106.481 453.847H113.555V461.025H111.932V455.288H108.09V461.025H106.481V453.847ZM114.847 453.847H121.363V455.314H116.469V456.638H120.869V458.104H116.469V459.532H121.544V461.025H114.847V453.847ZM122.756 453.847H126.988C127.844 453.847 128.55 454.111 129.104 454.639C129.666 455.158 129.947 455.833 129.947 456.664C129.947 457.494 129.666 458.165 129.104 458.676C128.55 459.177 127.844 459.428 126.988 459.428H124.379V461.025H122.756V453.847ZM124.379 455.327V457.949H126.923C127.347 457.949 127.684 457.836 127.935 457.611C128.195 457.386 128.325 457.07 128.325 456.664C128.325 456.257 128.195 455.932 127.935 455.69C127.684 455.448 127.347 455.327 126.923 455.327H124.379ZM131.046 453.847H137.562V455.314H132.669V456.638H137.069V458.104H132.669V459.532H137.744V461.025H131.046V453.847ZM146.345 455.599L145.086 456.326C144.523 455.521 143.723 455.119 142.684 455.119C141.966 455.119 141.391 455.331 140.958 455.755C140.525 456.17 140.309 456.733 140.309 457.442C140.309 458.135 140.53 458.697 140.971 459.13C141.412 459.554 141.983 459.766 142.684 459.766C143.723 459.766 144.523 459.363 145.086 458.559L146.345 459.286C145.592 460.566 144.38 461.207 142.71 461.207C141.542 461.207 140.581 460.865 139.829 460.181C139.076 459.498 138.699 458.585 138.699 457.442C138.699 456.3 139.076 455.387 139.829 454.704C140.59 454.02 141.551 453.678 142.71 453.678C144.38 453.678 145.592 454.319 146.345 455.599ZM149.203 453.847H154.927V459.571H155.771V462.401H154.369L154.239 461.025H148.697L148.567 462.401H147.165V459.571H148.074L149.203 453.847ZM150.527 455.262L149.761 459.571H153.305V455.262H150.527ZM160.761 455.288L159.424 458.52H162.617L161.319 455.288H160.761ZM159.748 453.847H162.383L165.433 461.025H163.72L163.253 459.935H158.826L158.359 461.025H156.62L159.748 453.847ZM165.049 453.847H172.513V455.301H169.592V461.025H167.97V455.301H165.049V453.847ZM173.548 453.847H175.171V455.482H177.65C178.515 455.482 179.225 455.729 179.779 456.222C180.332 456.716 180.609 457.378 180.609 458.208C180.609 459.039 180.328 459.718 179.766 460.246C179.212 460.765 178.506 461.025 177.65 461.025H173.548V453.847ZM175.171 456.923V459.545H177.533C178.502 459.545 178.987 459.1 178.987 458.208C178.987 457.352 178.502 456.923 177.533 456.923H175.171Z" fill="#010101"/>
<path d="M73.0843 470.087H78.8085V477.265H77.186V471.541H74.4342L73.7074 475.435C73.4824 476.655 72.7468 477.265 71.5008 477.265H70.6441V475.785H71.4229C71.8123 475.785 72.0459 475.599 72.1238 475.227L73.0843 470.087ZM82.2942 471.956C81.8443 472.38 81.6193 472.956 81.6193 473.683C81.6193 474.41 81.8443 474.989 82.2942 475.422C82.7529 475.846 83.3283 476.058 84.0206 476.058C84.7128 476.058 85.284 475.846 85.7339 475.422C86.1926 474.989 86.4219 474.41 86.4219 473.683C86.4219 472.956 86.1926 472.38 85.7339 471.956C85.284 471.524 84.7128 471.307 84.0206 471.307C83.3283 471.307 82.7529 471.524 82.2942 471.956ZM86.8632 470.97C87.6507 471.671 88.0444 472.575 88.0444 473.683C88.0444 474.79 87.6507 475.695 86.8632 476.395C86.0844 477.096 85.1369 477.447 84.0206 477.447C82.9043 477.447 81.9524 477.096 81.165 476.395C80.3862 475.695 79.9968 474.79 79.9968 473.683C79.9968 472.575 80.3862 471.671 81.165 470.97C81.9524 470.269 82.9043 469.918 84.0206 469.918C85.1369 469.918 86.0844 470.269 86.8632 470.97ZM88.7267 470.087H96.1902V471.541H93.2697V477.265H91.6472V471.541H88.7267V470.087ZM100.965 470.087H105.586C106.243 470.087 106.776 470.265 107.182 470.619C107.598 470.966 107.805 471.428 107.805 472.008C107.805 472.562 107.619 472.969 107.247 473.228C107.948 473.583 108.299 474.185 108.299 475.033C108.299 475.656 108.074 476.183 107.624 476.616C107.174 477.049 106.611 477.265 105.936 477.265H100.965V470.087ZM102.587 471.541V472.852H105.638C105.811 472.852 105.949 472.787 106.053 472.657C106.166 472.527 106.222 472.376 106.222 472.203C106.222 472.021 106.166 471.865 106.053 471.736C105.941 471.606 105.759 471.541 105.508 471.541H102.587ZM102.587 474.267V475.798H105.884C106.135 475.798 106.334 475.729 106.481 475.591C106.637 475.444 106.715 475.258 106.715 475.033C106.715 474.799 106.642 474.613 106.494 474.474C106.347 474.336 106.157 474.267 105.923 474.267H102.587ZM117.002 471.528L115.665 474.76H118.858L117.56 471.528H117.002ZM115.99 470.087H118.625L121.675 477.265H119.961L119.494 476.175H115.068L114.601 477.265H112.861L115.99 470.087ZM122.717 470.087H126.948C127.805 470.087 128.51 470.351 129.064 470.879C129.626 471.398 129.908 472.073 129.908 472.904C129.908 473.735 129.626 474.405 129.064 474.916C128.51 475.418 127.805 475.669 126.948 475.669H124.339V477.265H122.717V470.087ZM124.339 471.567V474.189H126.883C127.307 474.189 127.645 474.076 127.896 473.851C128.155 473.626 128.285 473.311 128.285 472.904C128.285 472.497 128.155 472.173 127.896 471.93C127.645 471.688 127.307 471.567 126.883 471.567H124.339ZM131.007 470.087H137.523V471.554H132.629V472.878H137.029V474.345H132.629V475.772H137.704V477.265H131.007V470.087ZM138.916 470.087H140.539V472.826H144.589V470.087H146.211V477.265H144.589V474.28H140.539V477.265H138.916V470.087ZM149.354 470.087H155.078V475.811H155.921V478.641H154.52L154.39 477.265H148.847L148.718 478.641H147.316V475.811H148.224L149.354 470.087ZM150.678 471.502L149.912 475.811H153.455V471.502H150.678ZM156.4 470.087H158.074L159.113 473.112C159.199 473.371 159.385 473.501 159.671 473.501H161.657L162.786 470.087H164.435L162.527 475.772C162.379 476.214 162.116 476.573 161.735 476.85C161.363 477.127 160.943 477.265 160.476 477.265H158.451V475.889H160.398C160.735 475.889 160.956 475.738 161.06 475.435L161.216 474.942H159.593C158.572 474.942 157.893 474.448 157.555 473.462L156.4 470.087Z" fill="#010101"/>
<path d="M53.5719 485.667H60.646V492.845H59.0235V487.108H55.1814V492.845H53.5719V485.667ZM64.1315 487.536C63.6815 487.96 63.4565 488.536 63.4565 489.263C63.4565 489.99 63.6815 490.569 64.1315 491.002C64.5901 491.426 65.1656 491.638 65.8578 491.638C66.5501 491.638 67.1212 491.426 67.5712 491.002C68.0298 490.569 68.2591 489.99 68.2591 489.263C68.2591 488.536 68.0298 487.96 67.5712 487.536C67.1212 487.104 66.5501 486.887 65.8578 486.887C65.1656 486.887 64.5901 487.104 64.1315 487.536ZM68.7004 486.55C69.4879 487.251 69.8816 488.155 69.8816 489.263C69.8816 490.37 69.4879 491.275 68.7004 491.976C67.9216 492.676 66.9741 493.027 65.8578 493.027C64.7415 493.027 63.7897 492.676 63.0022 491.976C62.2234 491.275 61.834 490.37 61.834 489.263C61.834 488.155 62.2234 487.251 63.0022 486.55C63.7897 485.849 64.7415 485.499 65.8578 485.499C66.9741 485.499 67.9216 485.849 68.7004 486.55ZM74.8165 485.667H81.0209V487.121H76.426V488.043H79.3984C80.1339 488.043 80.7353 488.263 81.2026 488.705C81.6786 489.146 81.9165 489.713 81.9165 490.405C81.9165 491.08 81.6786 491.655 81.2026 492.131C80.7267 492.607 80.1253 492.845 79.3984 492.845H74.8165V485.667ZM76.426 489.47V491.391H79.2816C79.9652 491.391 80.307 491.063 80.307 490.405C80.307 489.782 79.9609 489.47 79.2686 489.47H76.426ZM85.1479 487.536C84.698 487.96 84.473 488.536 84.473 489.263C84.473 489.99 84.698 490.569 85.1479 491.002C85.6066 491.426 86.182 491.638 86.8743 491.638C87.5665 491.638 88.1377 491.426 88.5876 491.002C89.0463 490.569 89.2756 489.99 89.2756 489.263C89.2756 488.536 89.0463 487.96 88.5876 487.536C88.1377 487.104 87.5665 486.887 86.8743 486.887C86.182 486.887 85.6066 487.104 85.1479 487.536ZM89.7169 486.55C90.5043 487.251 90.8981 488.155 90.8981 489.263C90.8981 490.37 90.5043 491.275 89.7169 491.976C88.9381 492.676 87.9906 493.027 86.8743 493.027C85.758 493.027 84.8061 492.676 84.0187 491.976C83.2399 491.275 82.8505 490.37 82.8505 489.263C82.8505 488.155 83.2399 487.251 84.0187 486.55C84.8061 485.849 85.758 485.499 86.8743 485.499C87.9906 485.499 88.9381 485.849 89.7169 486.55ZM93.8489 485.667H99.5731V492.845H97.9506V487.121H95.1988L94.4719 491.015C94.2469 492.235 93.5114 492.845 92.2653 492.845H91.4087V491.365H92.1875C92.5769 491.365 92.8105 491.179 92.8884 490.807L93.8489 485.667ZM100.865 485.667H107.381V487.134H102.488V488.458H106.888V489.925H102.488V491.353H107.563V492.845H100.865V485.667ZM108.775 485.667H115.291V487.134H110.397V488.458H114.798V489.925H110.397V491.353H115.473V492.845H108.775V485.667ZM120.424 485.667H125.045C125.702 485.667 126.235 485.845 126.641 486.199C127.057 486.546 127.264 487.009 127.264 487.588C127.264 488.142 127.078 488.549 126.706 488.808C127.407 489.163 127.758 489.765 127.758 490.613C127.758 491.236 127.533 491.764 127.083 492.196C126.633 492.629 126.07 492.845 125.395 492.845H120.424V485.667ZM122.046 487.121V488.432H125.097C125.27 488.432 125.408 488.367 125.512 488.237C125.625 488.108 125.681 487.956 125.681 487.783C125.681 487.601 125.625 487.446 125.512 487.316C125.4 487.186 125.218 487.121 124.967 487.121H122.046ZM122.046 489.847V491.378H125.343C125.594 491.378 125.793 491.309 125.94 491.171C126.096 491.024 126.174 490.838 126.174 490.613C126.174 490.379 126.101 490.193 125.953 490.055C125.806 489.916 125.616 489.847 125.382 489.847H122.046ZM136.551 485.667H138.173V492.845H136.551V485.667ZM128.841 485.667H130.463V487.303H132.942C133.808 487.303 134.517 487.549 135.071 488.043C135.625 488.536 135.902 489.198 135.902 490.029C135.902 490.859 135.621 491.539 135.058 492.066C134.504 492.586 133.799 492.845 132.942 492.845H128.841V485.667ZM130.463 488.744V491.365H132.825C133.795 491.365 134.279 490.92 134.279 490.029C134.279 489.172 133.795 488.744 132.825 488.744H130.463ZM146.991 487.42L145.732 488.146C145.17 487.342 144.369 486.939 143.331 486.939C142.612 486.939 142.037 487.151 141.604 487.575C141.172 487.991 140.955 488.553 140.955 489.263C140.955 489.955 141.176 490.517 141.617 490.95C142.059 491.374 142.63 491.586 143.331 491.586C144.369 491.586 145.17 491.184 145.732 490.379L146.991 491.106C146.238 492.387 145.027 493.027 143.357 493.027C142.188 493.027 141.228 492.685 140.475 492.002C139.722 491.318 139.346 490.405 139.346 489.263C139.346 488.12 139.722 487.208 140.475 486.524C141.237 485.84 142.197 485.499 143.357 485.499C145.027 485.499 146.238 486.139 146.991 487.42ZM150.2 487.536C149.75 487.96 149.525 488.536 149.525 489.263C149.525 489.99 149.75 490.569 150.2 491.002C150.659 491.426 151.234 491.638 151.926 491.638C152.619 491.638 153.19 491.426 153.64 491.002C154.098 490.569 154.328 489.99 154.328 489.263C154.328 488.536 154.098 487.96 153.64 487.536C153.19 487.104 152.619 486.887 151.926 486.887C151.234 486.887 150.659 487.104 150.2 487.536ZM154.769 486.55C155.556 487.251 155.95 488.155 155.95 489.263C155.95 490.37 155.556 491.275 154.769 491.976C153.99 492.676 153.043 493.027 151.926 493.027C150.81 493.027 149.858 492.676 149.071 491.976C148.292 491.275 147.903 490.37 147.903 489.263C147.903 488.155 148.292 487.251 149.071 486.55C149.858 485.849 150.81 485.499 151.926 485.499C153.043 485.499 153.99 485.849 154.769 486.55ZM157.146 485.667H158.755V488.315H160.845L162.649 485.667H164.518L162.221 488.99L164.687 492.845H162.766L160.884 489.795H158.755V492.845H157.146V485.667ZM167.312 487.536C166.862 487.96 166.637 488.536 166.637 489.263C166.637 489.99 166.862 490.569 167.312 491.002C167.771 491.426 168.346 491.638 169.039 491.638C169.731 491.638 170.302 491.426 170.752 491.002C171.211 490.569 171.44 489.99 171.44 489.263C171.44 488.536 171.211 487.96 170.752 487.536C170.302 487.104 169.731 486.887 169.039 486.887C168.346 486.887 167.771 487.104 167.312 487.536ZM171.881 486.55C172.669 487.251 173.062 488.155 173.062 489.263C173.062 490.37 172.669 491.275 171.881 491.976C171.103 492.676 170.155 493.027 169.039 493.027C167.922 493.027 166.971 492.676 166.183 491.976C165.404 491.275 165.015 490.37 165.015 489.263C165.015 488.155 165.404 487.251 166.183 486.55C166.971 485.849 167.922 485.499 169.039 485.499C170.155 485.499 171.103 485.849 171.881 486.55ZM174.258 485.667H175.867V490.652L180.138 485.667H181.708V492.845H180.099V487.887L175.842 492.845H174.258V485.667ZM179.294 483.214L180.073 484.071C179.71 484.417 179.359 484.655 179.022 484.785C178.684 484.906 178.312 484.966 177.905 484.966C177.499 484.966 177.127 484.906 176.789 484.785C176.452 484.655 176.101 484.417 175.738 484.071L176.516 483.214C176.906 483.552 177.369 483.72 177.905 483.72C178.442 483.72 178.905 483.552 179.294 483.214Z" fill="#010101"/>
<path d="M98.9374 503L97.6783 503.727C97.1158 502.922 96.3154 502.519 95.277 502.519C94.5588 502.519 93.9833 502.731 93.5507 503.155C93.118 503.571 92.9017 504.133 92.9017 504.843C92.9017 505.535 93.1223 506.098 93.5636 506.53C94.005 506.954 94.5761 507.166 95.277 507.166C96.3154 507.166 97.1158 506.764 97.6783 505.959L98.9374 506.686C98.1845 507.967 96.9731 508.607 95.303 508.607C94.1348 508.607 93.1742 508.265 92.4214 507.582C91.6686 506.898 91.2921 505.985 91.2921 504.843C91.2921 503.701 91.6686 502.788 92.4214 502.104C93.1829 501.42 94.1434 501.079 95.303 501.079C96.9731 501.079 98.1845 501.719 98.9374 503ZM99.6932 501.247H107.157V502.701H104.236V508.425H102.614V502.701H99.6932V501.247ZM110.907 502.688L109.57 505.92H112.763L111.465 502.688H110.907ZM109.894 501.247H112.529L115.58 508.425H113.866L113.399 507.335H108.973L108.506 508.425H106.766L109.894 501.247ZM116.621 501.247H121.242C121.9 501.247 122.432 501.425 122.839 501.78C123.254 502.126 123.462 502.589 123.462 503.168C123.462 503.722 123.276 504.129 122.904 504.389C123.605 504.743 123.955 505.345 123.955 506.193C123.955 506.816 123.73 507.344 123.28 507.776C122.83 508.209 122.268 508.425 121.593 508.425H116.621V501.247ZM118.244 502.701V504.012H121.294C121.467 504.012 121.606 503.947 121.71 503.817C121.822 503.688 121.878 503.536 121.878 503.363C121.878 503.181 121.822 503.026 121.71 502.896C121.597 502.766 121.415 502.701 121.164 502.701H118.244ZM118.244 505.427V506.959H121.541C121.792 506.959 121.991 506.889 122.138 506.751C122.294 506.604 122.372 506.418 122.372 506.193C122.372 505.959 122.298 505.773 122.151 505.635C122.004 505.496 121.813 505.427 121.58 505.427H118.244ZM125.038 501.247H126.648V503.895H128.737L130.542 501.247H132.411L130.113 504.57L132.58 508.425H130.658L128.776 505.375H126.648V508.425H125.038V501.247ZM133.531 501.247H140.047V502.714H135.153V504.038H139.554V505.505H135.153V506.933H140.229V508.425H133.531V501.247Z" fill="#010101"/>
<path d="M341.499 441.426H346.69V443.239H341.499V441.426ZM352.913 437.867H354.957V444.195L360.379 437.867H362.373V446.98H360.329V440.685L354.924 446.98H352.913V437.867ZM364.018 437.867H366.078V441.344H371.22V437.867H373.28V446.98H371.22V443.19H366.078V446.98H364.018V437.867ZM374.93 437.867H380.797C381.631 437.867 382.307 438.092 382.824 438.542C383.351 438.982 383.615 439.569 383.615 440.306C383.615 441.009 383.378 441.525 382.906 441.855C383.796 442.305 384.241 443.069 384.241 444.145C384.241 444.936 383.955 445.607 383.384 446.156C382.813 446.705 382.098 446.98 381.241 446.98H374.93V437.867ZM376.99 439.712V441.377H380.862C381.082 441.377 381.258 441.294 381.39 441.13C381.533 440.965 381.604 440.773 381.604 440.553C381.604 440.322 381.533 440.124 381.39 439.96C381.247 439.795 381.016 439.712 380.698 439.712H376.99ZM376.99 443.173V445.118H381.176C381.494 445.118 381.747 445.03 381.934 444.854C382.131 444.667 382.23 444.431 382.23 444.145C382.23 443.849 382.137 443.613 381.95 443.437C381.763 443.261 381.522 443.173 381.225 443.173H376.99ZM385.616 437.867H393.889V439.729H387.676V441.41H393.263V443.272H387.676V445.085H394.12V446.98H385.616V437.867ZM405.039 440.091L403.441 441.014C402.727 439.992 401.71 439.482 400.392 439.482C399.48 439.482 398.749 439.751 398.2 440.289C397.651 440.816 397.376 441.531 397.376 442.432C397.376 443.31 397.656 444.025 398.217 444.574C398.777 445.112 399.502 445.381 400.392 445.381C401.71 445.381 402.727 444.871 403.441 443.849L405.039 444.772C404.084 446.398 402.545 447.211 400.425 447.211C398.942 447.211 397.722 446.777 396.766 445.909C395.811 445.041 395.333 443.882 395.333 442.432C395.333 440.981 395.811 439.822 396.766 438.954C397.733 438.086 398.953 437.652 400.425 437.652C402.545 437.652 404.084 438.465 405.039 440.091ZM405.999 437.867H415.475V439.712H411.767V446.98H409.707V439.712H405.999V437.867ZM419.253 440.24C418.681 440.778 418.396 441.509 418.396 442.432C418.396 443.354 418.681 444.09 419.253 444.64C419.835 445.178 420.566 445.447 421.445 445.447C422.323 445.447 423.049 445.178 423.62 444.64C424.202 444.09 424.493 443.354 424.493 442.432C424.493 441.509 424.202 440.778 423.62 440.24C423.049 439.69 422.323 439.416 421.445 439.416C420.566 439.416 419.835 439.69 419.253 440.24ZM425.054 438.987C426.053 439.877 426.553 441.025 426.553 442.432C426.553 443.838 426.053 444.986 425.054 445.876C424.065 446.766 422.862 447.211 421.445 447.211C420.027 447.211 418.819 446.766 417.819 445.876C416.83 444.986 416.336 443.838 416.336 442.432C416.336 441.025 416.83 439.877 417.819 438.987C418.819 438.097 420.027 437.652 421.445 437.652C422.862 437.652 424.065 438.097 425.054 438.987ZM428.071 437.867H433.444C434.531 437.867 435.427 438.202 436.13 438.872C436.844 439.531 437.201 440.388 437.201 441.443C437.201 442.497 436.844 443.349 436.13 443.997C435.427 444.634 434.531 444.953 433.444 444.953H430.131V446.98H428.071V437.867ZM430.131 439.745V443.074H433.361C433.9 443.074 434.328 442.931 434.647 442.646C434.976 442.36 435.141 441.959 435.141 441.443C435.141 440.926 434.976 440.514 434.647 440.207C434.328 439.899 433.9 439.745 433.361 439.745H430.131Z" fill="#010101"/>
<path d="M320.194 457.646H322.946L326.143 464.255H326.225L329.554 457.646H332.191V466.76H330.164V460.382H330.065L326.983 466.76H325.253L322.287 460.382H322.188V466.76H320.194V457.646ZM336.626 460.019C336.055 460.558 335.769 461.288 335.769 462.211C335.769 463.134 336.055 463.87 336.626 464.42C337.209 464.958 337.939 465.227 338.818 465.227C339.697 465.227 340.422 464.958 340.993 464.42C341.576 463.87 341.867 463.134 341.867 462.211C341.867 461.288 341.576 460.558 340.993 460.019C340.422 459.47 339.697 459.195 338.818 459.195C337.939 459.195 337.209 459.47 336.626 460.019ZM342.427 458.767C343.427 459.657 343.927 460.805 343.927 462.211C343.927 463.618 343.427 464.766 342.427 465.656C341.438 466.546 340.235 466.99 338.818 466.99C337.401 466.99 336.192 466.546 335.192 465.656C334.204 464.766 333.709 463.618 333.709 462.211C333.709 460.805 334.204 459.657 335.192 458.767C336.192 457.877 337.401 457.432 338.818 457.432C340.235 457.432 341.438 457.877 342.427 458.767ZM344.67 457.646H347.01L349.02 461.091H350.784V457.646H352.844V461.091H354.607L356.618 457.646H358.958L356.37 461.882L359.254 466.76H356.881L354.673 462.903H352.844V466.76H350.784V462.903H348.954L346.746 466.76H344.373L347.257 461.882L344.67 457.646ZM360.492 457.646H368.765V459.509H362.552V461.19H368.139V463.052H362.552V464.865H368.996V466.76H360.492V457.646ZM370.205 457.646H379.681V459.492H375.973V466.76H373.913V459.492H370.205V457.646ZM385.743 457.646H391.61C392.445 457.646 393.121 457.872 393.637 458.322C394.165 458.761 394.428 459.349 394.428 460.085C394.428 460.789 394.192 461.305 393.72 461.634C394.61 462.085 395.055 462.849 395.055 463.925C395.055 464.716 394.769 465.386 394.198 465.936C393.626 466.485 392.912 466.76 392.055 466.76H385.743V457.646ZM387.803 459.492V461.157H391.676C391.896 461.157 392.072 461.074 392.204 460.909C392.346 460.745 392.418 460.552 392.418 460.333C392.418 460.102 392.346 459.904 392.204 459.739C392.061 459.574 391.83 459.492 391.511 459.492H387.803ZM387.803 462.953V464.898H391.989C392.308 464.898 392.561 464.81 392.747 464.634C392.945 464.447 393.044 464.211 393.044 463.925C393.044 463.629 392.951 463.392 392.764 463.217C392.577 463.041 392.335 462.953 392.039 462.953H387.803ZM403.567 457.646H410.835V466.76H408.775V459.492H405.281L404.358 464.436C404.072 465.985 403.138 466.76 401.556 466.76H400.469V464.881H401.458C401.952 464.881 402.249 464.645 402.347 464.172L403.567 457.646ZM412.475 457.646H414.502V461.058H415.969C416.2 459.926 416.76 459.042 417.65 458.404C418.54 457.756 419.6 457.432 420.831 457.432C422.259 457.432 423.445 457.861 424.39 458.718C425.335 459.574 425.808 460.739 425.808 462.211C425.808 463.683 425.335 464.848 424.39 465.705C423.445 466.562 422.259 466.99 420.831 466.99C419.523 466.99 418.408 466.628 417.485 465.903C416.573 465.178 416.04 464.178 415.887 462.903H414.502V466.76H412.475V457.646ZM418.639 459.986C418.144 460.514 417.897 461.255 417.897 462.211C417.897 463.167 418.144 463.909 418.639 464.436C419.144 464.963 419.875 465.227 420.831 465.227C421.786 465.227 422.512 464.963 423.006 464.436C423.511 463.909 423.764 463.167 423.764 462.211C423.764 461.255 423.511 460.514 423.006 459.986C422.512 459.459 421.786 459.195 420.831 459.195C419.875 459.195 419.144 459.459 418.639 459.986ZM427.201 457.646H435.078V459.492H429.244V460.662H433.018C433.952 460.662 434.716 460.942 435.309 461.503C435.913 462.063 436.216 462.783 436.216 463.662C436.216 464.518 435.913 465.249 435.309 465.853C434.705 466.458 433.941 466.76 433.018 466.76H427.201V457.646ZM429.244 462.475V464.914H432.87C433.738 464.914 434.172 464.497 434.172 463.662C434.172 462.87 433.733 462.475 432.854 462.475H429.244ZM440.318 460.019C439.747 460.558 439.461 461.288 439.461 462.211C439.461 463.134 439.747 463.87 440.318 464.42C440.901 464.958 441.631 465.227 442.51 465.227C443.389 465.227 444.114 464.958 444.685 464.42C445.268 463.87 445.559 463.134 445.559 462.211C445.559 461.288 445.268 460.558 444.685 460.019C444.114 459.47 443.389 459.195 442.51 459.195C441.631 459.195 440.901 459.47 440.318 460.019ZM446.119 458.767C447.119 459.657 447.619 460.805 447.619 462.211C447.619 463.618 447.119 464.766 446.119 465.656C445.13 466.546 443.927 466.99 442.51 466.99C441.093 466.99 439.884 466.546 438.885 465.656C437.896 464.766 437.401 463.618 437.401 462.211C437.401 460.805 437.896 459.657 438.885 458.767C439.884 457.877 441.093 457.432 442.51 457.432C443.927 457.432 445.13 457.877 446.119 458.767ZM449.137 457.646H451.18V463.975L456.602 457.646H458.596V466.76H456.553V460.464L451.147 466.76H449.137V457.646ZM455.531 454.532L456.52 455.619C456.058 456.059 455.613 456.361 455.185 456.526C454.756 456.679 454.284 456.756 453.768 456.756C453.251 456.756 452.779 456.679 452.35 456.526C451.922 456.361 451.477 456.059 451.015 455.619L452.004 454.532C452.499 454.96 453.086 455.174 453.768 455.174C454.449 455.174 455.037 454.96 455.531 454.532Z" fill="#010101"/>
<path d="M324.284 477.426H327.036L330.233 484.035H330.316L333.645 477.426H336.281V486.54H334.254V480.162H334.155L331.074 486.54H329.343L326.377 480.162H326.278V486.54H324.284V477.426ZM340.717 479.799C340.145 480.338 339.86 481.068 339.86 481.991C339.86 482.914 340.145 483.65 340.717 484.199C341.299 484.738 342.029 485.007 342.908 485.007C343.787 485.007 344.512 484.738 345.084 484.199C345.666 483.65 345.957 482.914 345.957 481.991C345.957 481.068 345.666 480.338 345.084 479.799C344.512 479.25 343.787 478.975 342.908 478.975C342.029 478.975 341.299 479.25 340.717 479.799ZM346.518 478.547C347.517 479.437 348.017 480.585 348.017 481.991C348.017 483.397 347.517 484.545 346.518 485.435C345.529 486.325 344.326 486.77 342.908 486.77C341.491 486.77 340.283 486.325 339.283 485.435C338.294 484.545 337.8 483.397 337.8 481.991C337.8 480.585 338.294 479.437 339.283 478.547C340.283 477.657 341.491 477.212 342.908 477.212C344.326 477.212 345.529 477.657 346.518 478.547ZM349.535 477.426H352.287L355.484 484.035H355.567L358.896 477.426H361.532V486.54H359.505V480.162H359.407L356.325 486.54H354.594L351.628 480.162H351.529V486.54H349.535V477.426ZM363.183 477.426H371.456V479.288H365.243V480.969H370.829V482.832H365.243V484.644H371.686V486.54H363.183V477.426ZM373.225 477.426H375.285V480.903H380.427V477.426H382.487V486.54H380.427V482.749H375.285V486.54H373.225V477.426ZM383.807 477.426H393.283V479.272H389.575V486.54H387.515V479.272H383.807V477.426ZM399.345 477.426H405.212C406.047 477.426 406.723 477.651 407.239 478.102C407.766 478.541 408.03 479.129 408.03 479.865C408.03 480.568 407.794 481.085 407.322 481.414C408.211 481.865 408.656 482.628 408.656 483.705C408.656 484.496 408.371 485.166 407.799 485.716C407.228 486.265 406.514 486.54 405.657 486.54H399.345V477.426ZM401.405 479.272V480.936H405.278C405.498 480.936 405.674 480.854 405.805 480.689C405.948 480.524 406.02 480.332 406.02 480.112C406.02 479.882 405.948 479.684 405.805 479.519C405.663 479.354 405.432 479.272 405.113 479.272H401.405ZM401.405 482.733V484.677H405.591C405.91 484.677 406.162 484.589 406.349 484.414C406.547 484.227 406.646 483.991 406.646 483.705C406.646 483.408 406.552 483.172 406.366 482.996C406.179 482.821 405.937 482.733 405.641 482.733H401.405ZM419.821 477.426H421.881V486.54H419.821V477.426ZM410.031 477.426H412.091V479.503H415.239C416.338 479.503 417.239 479.816 417.942 480.442C418.645 481.068 418.997 481.909 418.997 482.963C418.997 484.018 418.64 484.881 417.925 485.551C417.222 486.21 416.327 486.54 415.239 486.54H410.031V477.426ZM412.091 481.332V484.661H415.091C416.321 484.661 416.937 484.095 416.937 482.963C416.937 481.876 416.321 481.332 415.091 481.332H412.091ZM423.534 477.426H425.578V483.754L431 477.426H432.994V486.54H430.95V480.244L425.545 486.54H423.534V477.426ZM429.928 474.311L430.917 475.399C430.456 475.839 430.011 476.141 429.582 476.305C429.154 476.459 428.681 476.536 428.165 476.536C427.649 476.536 427.176 476.459 426.748 476.305C426.319 476.141 425.874 475.839 425.413 475.399L426.402 474.311C426.896 474.74 427.484 474.954 428.165 474.954C428.846 474.954 429.434 474.74 429.928 474.311ZM434.309 477.426H443.785V479.272H440.077V486.54H438.017V479.272H434.309V477.426ZM445.1 477.426H447.143V483.754L452.565 477.426H454.559V486.54H452.516V480.244L447.11 486.54H445.1V477.426Z" fill="#010101"/>
<path d="M332.284 497.197H334.327V503.525L339.749 497.197H341.743V506.31H339.7V500.015L334.295 506.31H332.284V497.197ZM345.91 500.591H349.536C350.041 500.591 350.294 500.35 350.294 499.866C350.294 499.152 349.503 498.795 347.921 498.795C347.119 498.795 346.465 498.867 345.96 499.009C345.454 499.141 344.905 499.388 344.312 499.751L343.455 498.268C344.729 497.411 346.207 496.982 347.888 496.982C349.426 496.982 350.574 497.252 351.332 497.79C352.013 498.262 352.354 498.933 352.354 499.8C352.354 500.449 352.129 500.921 351.678 501.218C352.524 501.657 352.947 502.382 352.947 503.393C352.947 504.283 352.535 505.036 351.711 505.651C350.92 506.244 349.651 506.541 347.904 506.541C346.915 506.541 346.047 506.436 345.3 506.228C344.564 506.019 343.828 505.662 343.092 505.156L344.031 503.624C345.207 504.36 346.531 504.728 348.003 504.728C349.926 504.728 350.887 504.256 350.887 503.311C350.887 502.992 350.783 502.761 350.574 502.619C350.376 502.476 350.03 502.404 349.536 502.404H345.91V500.591ZM361.42 497.197H368.688V504.464H369.759V508.057H367.979L367.814 506.31H360.777L360.613 508.057H358.833V504.464H359.986L361.42 497.197ZM363.101 498.993L362.129 504.464H366.628V498.993H363.101ZM373.63 499.57C373.058 500.108 372.773 500.839 372.773 501.762C372.773 502.684 373.058 503.421 373.63 503.97C374.212 504.508 374.943 504.777 375.822 504.777C376.7 504.777 377.426 504.508 377.997 503.97C378.579 503.421 378.87 502.684 378.87 501.762C378.87 500.839 378.579 500.108 377.997 499.57C377.426 499.02 376.7 498.746 375.822 498.746C374.943 498.746 374.212 499.02 373.63 499.57ZM379.431 498.317C380.43 499.207 380.93 500.355 380.93 501.762C380.93 503.168 380.43 504.316 379.431 505.206C378.442 506.096 377.239 506.541 375.822 506.541C374.404 506.541 373.196 506.096 372.196 505.206C371.207 504.316 370.713 503.168 370.713 501.762C370.713 500.355 371.207 499.207 372.196 498.317C373.196 497.427 374.404 496.982 375.822 496.982C377.239 496.982 378.442 497.427 379.431 498.317ZM382.448 497.197H390.853V499.059H384.508V506.31H382.448V497.197ZM394.616 499.57C394.045 500.108 393.759 500.839 393.759 501.762C393.759 502.684 394.045 503.421 394.616 503.97C395.198 504.508 395.929 504.777 396.808 504.777C397.687 504.777 398.412 504.508 398.983 503.97C399.565 503.421 399.857 502.684 399.857 501.762C399.857 500.839 399.565 500.108 398.983 499.57C398.412 499.02 397.687 498.746 396.808 498.746C395.929 498.746 395.198 499.02 394.616 499.57ZM400.417 498.317C401.417 499.207 401.917 500.355 401.917 501.762C401.917 503.168 401.417 504.316 400.417 505.206C399.428 506.096 398.225 506.541 396.808 506.541C395.391 506.541 394.182 506.096 393.182 505.206C392.193 504.316 391.699 503.168 391.699 501.762C391.699 500.355 392.193 499.207 393.182 498.317C394.182 497.427 395.391 496.982 396.808 496.982C398.225 496.982 399.428 497.427 400.417 498.317ZM403.434 497.197H409.301C410.136 497.197 410.812 497.422 411.328 497.872C411.856 498.312 412.119 498.9 412.119 499.636C412.119 500.339 411.883 500.855 411.411 501.185C412.301 501.635 412.746 502.399 412.746 503.475C412.746 504.267 412.46 504.937 411.889 505.486C411.317 506.035 410.603 506.31 409.746 506.31H403.434V497.197ZM405.494 499.042V500.707H409.367C409.587 500.707 409.763 500.624 409.895 500.46C410.037 500.295 410.109 500.103 410.109 499.883C410.109 499.652 410.037 499.454 409.895 499.29C409.752 499.125 409.521 499.042 409.202 499.042H405.494ZM405.494 502.503V504.448H409.68C409.999 504.448 410.252 504.36 410.438 504.184C410.636 503.997 410.735 503.761 410.735 503.475C410.735 503.179 410.642 502.943 410.455 502.767C410.268 502.591 410.026 502.503 409.73 502.503H405.494ZM416.906 499.57C416.334 500.108 416.049 500.839 416.049 501.762C416.049 502.684 416.334 503.421 416.906 503.97C417.488 504.508 418.219 504.777 419.098 504.777C419.977 504.777 420.702 504.508 421.273 503.97C421.855 503.421 422.146 502.684 422.146 501.762C422.146 500.839 421.855 500.108 421.273 499.57C420.702 499.02 419.977 498.746 419.098 498.746C418.219 498.746 417.488 499.02 416.906 499.57ZM422.707 498.317C423.707 499.207 424.206 500.355 424.206 501.762C424.206 503.168 423.707 504.316 422.707 505.206C421.718 506.096 420.515 506.541 419.098 506.541C417.68 506.541 416.472 506.096 415.472 505.206C414.483 504.316 413.989 503.168 413.989 501.762C413.989 500.355 414.483 499.207 415.472 498.317C416.472 497.427 417.68 496.982 419.098 496.982C420.515 496.982 421.718 497.427 422.707 498.317ZM425.724 497.197H431.097C432.184 497.197 433.08 497.532 433.783 498.202C434.497 498.861 434.854 499.718 434.854 500.773C434.854 501.827 434.497 502.679 433.783 503.327C433.08 503.964 432.184 504.283 431.097 504.283H427.784V506.31H425.724V497.197ZM427.784 499.075V502.404H431.014C431.553 502.404 431.981 502.261 432.3 501.976C432.629 501.69 432.794 501.289 432.794 500.773C432.794 500.256 432.629 499.844 432.3 499.537C431.981 499.229 431.553 499.075 431.014 499.075H427.784ZM440.517 499.026L438.82 503.129H442.874L441.226 499.026H440.517ZM439.232 497.197H442.577L446.45 506.31H444.275L443.681 504.926H438.062L437.468 506.31H435.26L439.232 497.197Z" fill="#010101"/>
<path d="M362.482 518.806L360.784 522.909H364.838L363.19 518.806H362.482ZM361.196 516.976H364.542L368.414 526.09H366.239L365.646 524.706H360.026L359.433 526.09H357.224L361.196 516.976ZM369.737 516.976H375.109C376.197 516.976 377.093 517.311 377.796 517.982C378.51 518.641 378.867 519.498 378.867 520.553C378.867 521.607 378.51 522.459 377.796 523.107C377.093 523.744 376.197 524.063 375.109 524.063H371.797V526.09H369.737V516.976ZM371.797 518.855V522.184H375.027C375.565 522.184 375.994 522.041 376.312 521.756C376.642 521.47 376.807 521.069 376.807 520.553C376.807 520.036 376.642 519.624 376.312 519.317C375.994 519.009 375.565 518.855 375.027 518.855H371.797ZM380.262 516.976H388.535V518.839H382.322V520.52H387.909V522.382H382.322V524.195H388.766V526.09H380.262V516.976ZM390.305 516.976H392.365V520.454H397.507V516.976H399.567V526.09H397.507V522.299H392.365V526.09H390.305V516.976ZM403.556 516.976H410.824V524.244H411.895V527.837H410.116L409.951 526.09H402.914L402.749 527.837H400.969V524.244H402.123L403.556 516.976ZM405.237 518.773L404.265 524.244H408.764V518.773H405.237ZM423.092 516.976H425.152V526.09H423.092V516.976ZM413.303 516.976H415.363V519.053H418.51C419.609 519.053 420.51 519.366 421.213 519.992C421.916 520.618 422.268 521.459 422.268 522.514C422.268 523.568 421.911 524.431 421.197 525.101C420.494 525.76 419.598 526.09 418.51 526.09H413.303V516.976ZM415.363 520.882V524.211H418.362C419.593 524.211 420.208 523.645 420.208 522.514C420.208 521.426 419.593 520.882 418.362 520.882H415.363Z" fill="#010101"/>
<path d="M523.975 309.547H527.802V310.883H523.975V309.547ZM532.038 306.922H533.605L534.577 309.753C534.658 309.996 534.832 310.118 535.1 310.118H536.958L538.016 306.922H539.559L537.773 312.244C537.635 312.657 537.388 312.993 537.031 313.252C536.683 313.512 536.29 313.641 535.853 313.641H533.957V312.353H535.78C536.096 312.353 536.302 312.211 536.4 311.928L536.545 311.466H535.027C534.071 311.466 533.435 311.005 533.119 310.081L532.038 306.922ZM547.592 308.271L546.34 311.296H549.329L548.114 308.271H547.592ZM546.644 306.922H549.11L551.966 313.641H550.362L549.924 312.621H545.781L545.344 313.641H543.716L546.644 306.922ZM552.941 306.922H556.902C557.703 306.922 558.364 307.169 558.882 307.663C559.409 308.149 559.672 308.781 559.672 309.559C559.672 310.336 559.409 310.964 558.882 311.442C558.364 311.912 557.703 312.147 556.902 312.147H554.459V313.641H552.941V306.922ZM554.459 308.307V310.762H556.841C557.238 310.762 557.554 310.656 557.789 310.446C558.032 310.235 558.153 309.939 558.153 309.559C558.153 309.178 558.032 308.874 557.789 308.647C557.554 308.421 557.238 308.307 556.841 308.307H554.459ZM560.701 306.922H566.8V308.295H562.219V309.534H566.338V310.907H562.219V312.244H566.97V313.641H560.701V306.922ZM568.104 306.922H569.623V309.486H573.414V306.922H574.933V313.641H573.414V310.847H569.623V313.641H568.104V306.922ZM577.874 306.922H583.232V312.28H584.022V314.929H582.71L582.589 313.641H577.4L577.279 314.929H575.967V312.28H576.817L577.874 306.922ZM579.114 308.247L578.397 312.28H581.714V308.247H579.114ZM588.693 308.271L587.441 311.296H590.43L589.215 308.271H588.693ZM587.745 306.922H590.211L593.067 313.641H591.463L591.025 312.621H586.882L586.445 313.641H584.817L587.745 306.922ZM592.707 306.922H599.693V308.283H596.96V313.641H595.441V308.283H592.707V306.922ZM602.479 308.672C602.057 309.069 601.847 309.607 601.847 310.288C601.847 310.968 602.057 311.511 602.479 311.916C602.908 312.313 603.447 312.511 604.095 312.511C604.743 312.511 605.277 312.313 605.698 311.916C606.128 311.511 606.342 310.968 606.342 310.288C606.342 309.607 606.128 309.069 605.698 308.672C605.277 308.267 604.743 308.064 604.095 308.064C603.447 308.064 602.908 308.267 602.479 308.672ZM606.755 307.748C607.493 308.404 607.861 309.251 607.861 310.288C607.861 311.325 607.493 312.171 606.755 312.827C606.026 313.483 605.14 313.811 604.095 313.811C603.05 313.811 602.159 313.483 601.422 312.827C600.693 312.171 600.328 311.325 600.328 310.288C600.328 309.251 600.693 308.404 601.422 307.748C602.159 307.092 603.05 306.764 604.095 306.764C605.14 306.764 606.026 307.092 606.755 307.748ZM608.98 306.922H612.941C613.743 306.922 614.403 307.169 614.922 307.663C615.448 308.149 615.711 308.781 615.711 309.559C615.711 310.336 615.448 310.964 614.922 311.442C614.403 311.912 613.743 312.147 612.941 312.147H610.499V313.641H608.98V306.922ZM610.499 308.307V310.762H612.88C613.277 310.762 613.593 310.656 613.828 310.446C614.071 310.235 614.193 309.939 614.193 309.559C614.193 309.178 614.071 308.874 613.828 308.647C613.593 308.421 613.277 308.307 612.88 308.307H610.499ZM619.886 308.271L618.635 311.296H621.624L620.409 308.271H619.886ZM618.939 306.922H621.405L624.26 313.641H622.657L622.219 312.621H618.076L617.639 313.641H616.011L618.939 306.922Z" fill="#010101"/>
<path d="M512.406 321.502H513.925V324.066H517.716V321.502H519.235V328.221H517.716V325.427H513.925V328.221H512.406V321.502ZM520.451 321.502H526.55V322.875H521.97V324.114H526.089V325.487H521.97V326.824H526.72V328.221H520.451V321.502ZM531.355 321.502H537.977V328.221H536.458V322.851H532.862V328.221H531.355V321.502ZM539.186 321.502H543.147C543.949 321.502 544.609 321.749 545.128 322.243C545.654 322.729 545.917 323.361 545.917 324.139C545.917 324.916 545.654 325.544 545.128 326.022C544.609 326.492 543.949 326.727 543.147 326.727H540.705V328.221H539.186V321.502ZM540.705 322.887V325.342H543.086C543.483 325.342 543.799 325.236 544.034 325.026C544.277 324.815 544.399 324.519 544.399 324.139C544.399 323.758 544.277 323.454 544.034 323.228C543.799 323.001 543.483 322.887 543.086 322.887H540.705ZM546.946 321.502H553.045V322.875H548.465V324.114H552.584V325.487H548.465V326.824H553.215V328.221H546.946V321.502ZM556.075 321.502H561.433V326.86H562.223V329.509H560.911L560.789 328.221H555.601L555.48 329.509H554.168V326.86H555.018L556.075 321.502ZM557.315 322.827L556.598 326.86H559.915V322.827H557.315ZM562.671 321.502H564.238L565.21 324.333C565.291 324.576 565.466 324.698 565.733 324.698H567.592L568.649 321.502H570.192L568.406 326.824C568.268 327.237 568.021 327.573 567.665 327.832C567.316 328.092 566.924 328.221 566.486 328.221H564.591V326.933H566.413C566.729 326.933 566.936 326.792 567.033 326.508L567.179 326.046H565.66C564.704 326.046 564.068 325.585 563.752 324.661L562.671 321.502ZM577.64 323.142L576.462 323.823C575.935 323.07 575.186 322.693 574.214 322.693C573.542 322.693 573.003 322.891 572.598 323.288C572.193 323.677 571.99 324.204 571.99 324.868C571.99 325.516 572.197 326.042 572.61 326.447C573.023 326.844 573.558 327.043 574.214 327.043C575.186 327.043 575.935 326.666 576.462 325.913L577.64 326.593C576.935 327.792 575.801 328.391 574.238 328.391C573.145 328.391 572.246 328.071 571.541 327.431C570.836 326.792 570.484 325.937 570.484 324.868C570.484 323.799 570.836 322.944 571.541 322.304C572.254 321.664 573.153 321.344 574.238 321.344C575.801 321.344 576.935 321.944 577.64 323.142ZM578.709 321.502H580.738L583.095 326.374H583.156L585.61 321.502H587.554V328.221H586.06V323.519H585.987L583.715 328.221H582.439L580.252 323.519H580.179V328.221H578.709V321.502ZM590.824 323.252C590.403 323.649 590.193 324.187 590.193 324.868C590.193 325.548 590.403 326.091 590.824 326.496C591.254 326.893 591.792 327.091 592.44 327.091C593.088 327.091 593.623 326.893 594.044 326.496C594.473 326.091 594.688 325.548 594.688 324.868C594.688 324.187 594.473 323.649 594.044 323.252C593.623 322.847 593.088 322.644 592.44 322.644C591.792 322.644 591.254 322.847 590.824 323.252ZM595.101 322.328C595.838 322.985 596.207 323.831 596.207 324.868C596.207 325.905 595.838 326.751 595.101 327.407C594.372 328.063 593.485 328.391 592.44 328.391C591.395 328.391 590.504 328.063 589.767 327.407C589.038 326.751 588.674 325.905 588.674 324.868C588.674 323.831 589.038 322.985 589.767 322.328C590.504 321.672 591.395 321.344 592.44 321.344C593.485 321.344 594.372 321.672 595.101 322.328ZM596.846 321.502H603.832V322.863H601.098V328.221H599.579V322.863H596.846V321.502ZM604.801 321.502H608.762C609.564 321.502 610.224 321.749 610.742 322.243C611.269 322.729 611.532 323.361 611.532 324.139C611.532 324.916 611.269 325.544 610.742 326.022C610.224 326.492 609.564 326.727 608.762 326.727H606.32V328.221H604.801V321.502ZM606.32 322.887V325.342H608.701C609.098 325.342 609.414 325.236 609.649 325.026C609.892 324.815 610.013 324.519 610.013 324.139C610.013 323.758 609.892 323.454 609.649 323.228C609.414 323.001 609.098 322.887 608.701 322.887H606.32ZM612.561 321.502H618.66V322.875H614.08V324.114H618.198V325.487H614.08V326.824H618.83V328.221H612.561V321.502ZM619.965 321.502H621.483V324.066H625.274V321.502H626.793V328.221H625.274V325.427H621.483V328.221H619.965V321.502ZM631.642 322.851L630.391 325.876H633.38L632.165 322.851H631.642ZM630.694 321.502H633.161L636.016 328.221H634.412L633.975 327.201H629.832L629.394 328.221H627.766L630.694 321.502Z" fill="#010101"/>
<path d="M527.976 336.092H532.302C532.917 336.092 533.415 336.258 533.796 336.59C534.185 336.914 534.379 337.348 534.379 337.89C534.379 338.409 534.205 338.789 533.857 339.032C534.513 339.364 534.841 339.927 534.841 340.721C534.841 341.304 534.63 341.799 534.209 342.204C533.788 342.609 533.261 342.811 532.63 342.811H527.976V336.092ZM529.495 337.453V338.68H532.35C532.512 338.68 532.642 338.619 532.739 338.498C532.844 338.376 532.897 338.235 532.897 338.073C532.897 337.902 532.844 337.757 532.739 337.635C532.634 337.514 532.464 337.453 532.229 337.453H529.495ZM529.495 340.004V341.438H532.581C532.816 341.438 533.002 341.373 533.14 341.244C533.286 341.106 533.359 340.932 533.359 340.721C533.359 340.503 533.29 340.328 533.152 340.199C533.014 340.069 532.836 340.004 532.617 340.004H529.495ZM537.908 337.842C537.487 338.239 537.276 338.777 537.276 339.458C537.276 340.138 537.487 340.681 537.908 341.086C538.337 341.483 538.876 341.681 539.524 341.681C540.172 341.681 540.707 341.483 541.128 341.086C541.557 340.681 541.772 340.138 541.772 339.458C541.772 338.777 541.557 338.239 541.128 337.842C540.707 337.437 540.172 337.234 539.524 337.234C538.876 337.234 538.337 337.437 537.908 337.842ZM542.185 336.918C542.922 337.574 543.29 338.421 543.29 339.458C543.29 340.494 542.922 341.341 542.185 341.997C541.456 342.653 540.569 342.981 539.524 342.981C538.479 342.981 537.588 342.653 536.851 341.997C536.122 341.341 535.757 340.494 535.757 339.458C535.757 338.421 536.122 337.574 536.851 336.918C537.588 336.262 538.479 335.934 539.524 335.934C540.569 335.934 541.456 336.262 542.185 336.918ZM546.031 338.595H548.704C549.077 338.595 549.263 338.417 549.263 338.06C549.263 337.534 548.68 337.271 547.513 337.271C546.922 337.271 546.44 337.323 546.068 337.429C545.695 337.526 545.29 337.708 544.853 337.975L544.221 336.882C545.16 336.25 546.25 335.934 547.489 335.934C548.623 335.934 549.47 336.133 550.028 336.529C550.531 336.878 550.782 337.372 550.782 338.012C550.782 338.49 550.616 338.838 550.284 339.057C550.907 339.381 551.219 339.915 551.219 340.66C551.219 341.317 550.915 341.871 550.308 342.325C549.725 342.762 548.789 342.981 547.501 342.981C546.772 342.981 546.132 342.904 545.582 342.75C545.039 342.596 544.496 342.333 543.953 341.961L544.646 340.831C545.513 341.373 546.489 341.645 547.574 341.645C548.992 341.645 549.7 341.296 549.7 340.6C549.7 340.365 549.623 340.195 549.47 340.089C549.324 339.984 549.069 339.931 548.704 339.931H546.031V338.595ZM552.241 336.092H554.27L556.627 340.964H556.687L559.142 336.092H561.086V342.811H559.591V338.109H559.518L557.246 342.811H555.971L553.784 338.109H553.711V342.811H552.241V336.092ZM564.356 337.842C563.934 338.239 563.724 338.777 563.724 339.458C563.724 340.138 563.934 340.681 564.356 341.086C564.785 341.483 565.324 341.681 565.972 341.681C566.62 341.681 567.154 341.483 567.575 341.086C568.005 340.681 568.219 340.138 568.219 339.458C568.219 338.777 568.005 338.239 567.575 337.842C567.154 337.437 566.62 337.234 565.972 337.234C565.324 337.234 564.785 337.437 564.356 337.842ZM568.632 336.918C569.37 337.574 569.738 338.421 569.738 339.458C569.738 340.494 569.37 341.341 568.632 341.997C567.903 342.653 567.016 342.981 565.972 342.981C564.927 342.981 564.036 342.653 563.299 341.997C562.57 341.341 562.205 340.494 562.205 339.458C562.205 338.421 562.57 337.574 563.299 336.918C564.036 336.262 564.927 335.934 565.972 335.934C567.016 335.934 567.903 336.262 568.632 336.918ZM570.286 336.092H572.011L573.493 338.631H574.793V336.092H576.312V338.631H577.612L579.094 336.092H580.82L578.912 339.215L581.038 342.811H579.289L577.661 339.968H576.312V342.811H574.793V339.968H573.445L571.816 342.811H570.067L572.193 339.215L570.286 336.092ZM581.951 336.092H583.47V338.656H587.261V336.092H588.779V342.811H587.261V340.017H583.47V342.811H581.951V336.092ZM592.049 337.842C591.628 338.239 591.417 338.777 591.417 339.458C591.417 340.138 591.628 340.681 592.049 341.086C592.478 341.483 593.017 341.681 593.665 341.681C594.313 341.681 594.848 341.483 595.269 341.086C595.698 340.681 595.913 340.138 595.913 339.458C595.913 338.777 595.698 338.239 595.269 337.842C594.848 337.437 594.313 337.234 593.665 337.234C593.017 337.234 592.478 337.437 592.049 337.842ZM596.326 336.918C597.063 337.574 597.432 338.421 597.432 339.458C597.432 340.494 597.063 341.341 596.326 341.997C595.597 342.653 594.71 342.981 593.665 342.981C592.62 342.981 591.729 342.653 590.992 341.997C590.263 341.341 589.899 340.494 589.899 339.458C589.899 338.421 590.263 337.574 590.992 336.918C591.729 336.262 592.62 335.934 593.665 335.934C594.71 335.934 595.597 336.262 596.326 336.918ZM605.585 337.732L604.407 338.413C603.88 337.659 603.131 337.283 602.159 337.283C601.487 337.283 600.948 337.481 600.543 337.878C600.138 338.267 599.936 338.793 599.936 339.458C599.936 340.106 600.142 340.632 600.555 341.037C600.968 341.434 601.503 341.632 602.159 341.632C603.131 341.632 603.88 341.256 604.407 340.503L605.585 341.183C604.881 342.382 603.747 342.981 602.183 342.981C601.09 342.981 600.191 342.661 599.486 342.021C598.781 341.381 598.429 340.527 598.429 339.458C598.429 338.388 598.781 337.534 599.486 336.894C600.199 336.254 601.098 335.934 602.183 335.934C603.747 335.934 604.881 336.534 605.585 337.732ZM606.293 336.092H613.279V337.453H610.545V342.811H609.027V337.453H606.293V336.092ZM614.248 336.092H615.767V337.623H618.088C618.898 337.623 619.562 337.854 620.08 338.316C620.599 338.777 620.858 339.397 620.858 340.174C620.858 340.952 620.595 341.588 620.068 342.082C619.55 342.568 618.89 342.811 618.088 342.811H614.248V336.092ZM615.767 338.972V341.426H617.978C618.886 341.426 619.339 341.009 619.339 340.174C619.339 339.373 618.886 338.972 617.978 338.972H615.767Z" fill="#010101"/>
<path d="M535.811 350.672H541.169V356.03H541.959V358.679H540.647L540.526 357.391H535.337L535.216 358.679H533.904V356.03H534.754L535.811 350.672ZM537.051 351.997L536.334 356.03H539.651V351.997H537.051ZM544.813 352.422C544.392 352.819 544.181 353.357 544.181 354.038C544.181 354.718 544.392 355.261 544.813 355.666C545.242 356.063 545.781 356.261 546.429 356.261C547.077 356.261 547.611 356.063 548.033 355.666C548.462 355.261 548.677 354.718 548.677 354.038C548.677 353.357 548.462 352.819 548.033 352.422C547.611 352.017 547.077 351.814 546.429 351.814C545.781 351.814 545.242 352.017 544.813 352.422ZM549.09 351.498C549.827 352.154 550.195 353.001 550.195 354.038C550.195 355.075 549.827 355.921 549.09 356.577C548.361 357.233 547.474 357.561 546.429 357.561C545.384 357.561 544.493 357.233 543.756 356.577C543.027 355.921 542.662 355.075 542.662 354.038C542.662 353.001 543.027 352.154 543.756 351.498C544.493 350.842 545.384 350.514 546.429 350.514C547.474 350.514 548.361 350.842 549.09 351.498ZM558.349 352.312L557.171 352.993C556.644 352.24 555.895 351.863 554.923 351.863C554.251 351.863 553.712 352.061 553.307 352.458C552.902 352.847 552.699 353.374 552.699 354.038C552.699 354.686 552.906 355.212 553.319 355.617C553.732 356.014 554.267 356.213 554.923 356.213C555.895 356.213 556.644 355.836 557.171 355.083L558.349 355.763C557.644 356.962 556.51 357.561 554.947 357.561C553.854 357.561 552.955 357.241 552.25 356.601C551.545 355.961 551.193 355.107 551.193 354.038C551.193 352.969 551.545 352.114 552.25 351.474C552.963 350.834 553.862 350.514 554.947 350.514C556.51 350.514 557.644 351.114 558.349 352.312ZM559.418 350.672H563.379C564.181 350.672 564.841 350.919 565.36 351.413C565.886 351.899 566.149 352.531 566.149 353.309C566.149 354.086 565.886 354.714 565.36 355.192C564.841 355.662 564.181 355.897 563.379 355.897H560.937V357.391H559.418V350.672ZM560.937 352.057V354.512H563.318C563.715 354.512 564.031 354.406 564.266 354.196C564.509 353.985 564.631 353.689 564.631 353.309C564.631 352.928 564.509 352.624 564.266 352.397C564.031 352.171 563.715 352.057 563.318 352.057H560.937ZM569.232 352.422C568.81 352.819 568.6 353.357 568.6 354.038C568.6 354.718 568.81 355.261 569.232 355.666C569.661 356.063 570.199 356.261 570.847 356.261C571.495 356.261 572.03 356.063 572.451 355.666C572.881 355.261 573.095 354.718 573.095 354.038C573.095 353.357 572.881 352.819 572.451 352.422C572.03 352.017 571.495 351.814 570.847 351.814C570.199 351.814 569.661 352.017 569.232 352.422ZM573.508 351.498C574.245 352.154 574.614 353.001 574.614 354.038C574.614 355.075 574.245 355.921 573.508 356.577C572.779 357.233 571.892 357.561 570.847 357.561C569.803 357.561 568.912 357.233 568.174 356.577C567.445 355.921 567.081 355.075 567.081 354.038C567.081 353.001 567.445 352.154 568.174 351.498C568.912 350.842 569.803 350.514 570.847 350.514C571.892 350.514 572.779 350.842 573.508 351.498ZM575.733 350.672H577.252V353.175C577.252 354.107 577.705 354.572 578.613 354.572H580.775V350.672H582.294V357.391H580.775V355.945H578.382C577.588 355.945 576.948 355.702 576.462 355.216C575.976 354.73 575.733 354.094 575.733 353.309V350.672ZM583.54 350.672H585.059V353.236H588.85V350.672H590.369V357.391H588.85V354.597H585.059V357.391H583.54V350.672ZM593.638 352.422C593.217 352.819 593.006 353.357 593.006 354.038C593.006 354.718 593.217 355.261 593.638 355.666C594.068 356.063 594.606 356.261 595.254 356.261C595.902 356.261 596.437 356.063 596.858 355.666C597.287 355.261 597.502 354.718 597.502 354.038C597.502 353.357 597.287 352.819 596.858 352.422C596.437 352.017 595.902 351.814 595.254 351.814C594.606 351.814 594.068 352.017 593.638 352.422ZM597.915 351.498C598.652 352.154 599.021 353.001 599.021 354.038C599.021 355.075 598.652 355.921 597.915 356.577C597.186 357.233 596.299 357.561 595.254 357.561C594.209 357.561 593.318 357.233 592.581 356.577C591.852 355.921 591.488 355.075 591.488 354.038C591.488 353.001 591.852 352.154 592.581 351.498C593.318 350.842 594.209 350.514 595.254 350.514C596.299 350.514 597.186 350.842 597.915 351.498ZM600.14 350.672H606.336V352.045H601.659V357.391H600.14V350.672ZM609.111 352.422C608.689 352.819 608.479 353.357 608.479 354.038C608.479 354.718 608.689 355.261 609.111 355.666C609.54 356.063 610.079 356.261 610.727 356.261C611.375 356.261 611.909 356.063 612.33 355.666C612.76 355.261 612.974 354.718 612.974 354.038C612.974 353.357 612.76 352.819 612.33 352.422C611.909 352.017 611.375 351.814 610.727 351.814C610.079 351.814 609.54 352.017 609.111 352.422ZM613.387 351.498C614.124 352.154 614.493 353.001 614.493 354.038C614.493 355.075 614.124 355.921 613.387 356.577C612.658 357.233 611.771 357.561 610.727 357.561C609.682 357.561 608.791 357.233 608.054 356.577C607.325 355.921 606.96 355.075 606.96 354.038C606.96 353.001 607.325 352.154 608.054 351.498C608.791 350.842 609.682 350.514 610.727 350.514C611.771 350.514 612.658 350.842 613.387 351.498Z" fill="#010101"/>
<path d="M531.647 365.252H535.607C536.409 365.252 537.07 365.499 537.588 365.993C538.114 366.479 538.378 367.111 538.378 367.889C538.378 368.666 538.114 369.294 537.588 369.772C537.07 370.242 536.409 370.477 535.607 370.477H533.165V371.971H531.647V365.252ZM533.165 366.637V369.092H535.547C535.944 369.092 536.26 368.986 536.494 368.776C536.737 368.565 536.859 368.269 536.859 367.889C536.859 367.508 536.737 367.204 536.494 366.978C536.26 366.751 535.944 366.637 535.547 366.637H533.165ZM542.553 366.601L541.301 369.626H544.29L543.075 366.601H542.553ZM541.605 365.252H544.072L546.927 371.971H545.323L544.886 370.951H540.742L540.305 371.971H538.677L541.605 365.252ZM554.569 366.892L553.39 367.573C552.864 366.82 552.115 366.443 551.143 366.443C550.47 366.443 549.932 366.641 549.527 367.038C549.122 367.427 548.919 367.954 548.919 368.618C548.919 369.266 549.126 369.792 549.539 370.197C549.952 370.594 550.487 370.793 551.143 370.793C552.115 370.793 552.864 370.416 553.39 369.663L554.569 370.343C553.864 371.542 552.73 372.141 551.167 372.141C550.073 372.141 549.174 371.821 548.47 371.181C547.765 370.542 547.413 369.687 547.413 368.618C547.413 367.549 547.765 366.694 548.47 366.054C549.182 365.414 550.082 365.094 551.167 365.094C552.73 365.094 553.864 365.694 554.569 366.892ZM555.276 365.252H562.263V366.613H559.529V371.971H558.01V366.613H555.276V365.252ZM565.048 367.002C564.627 367.399 564.416 367.937 564.416 368.618C564.416 369.298 564.627 369.841 565.048 370.246C565.477 370.643 566.016 370.841 566.664 370.841C567.312 370.841 567.846 370.643 568.268 370.246C568.697 369.841 568.912 369.298 568.912 368.618C568.912 367.937 568.697 367.399 568.268 367.002C567.846 366.597 567.312 366.394 566.664 366.394C566.016 366.394 565.477 366.597 565.048 367.002ZM569.325 366.078C570.062 366.735 570.43 367.581 570.43 368.618C570.43 369.655 570.062 370.501 569.325 371.157C568.596 371.813 567.709 372.141 566.664 372.141C565.619 372.141 564.728 371.813 563.991 371.157C563.262 370.501 562.897 369.655 562.897 368.618C562.897 367.581 563.262 366.735 563.991 366.078C564.728 365.422 565.619 365.094 566.664 365.094C567.709 365.094 568.596 365.422 569.325 366.078ZM571.549 365.252H575.51C576.312 365.252 576.972 365.499 577.491 365.993C578.017 366.479 578.28 367.111 578.28 367.889C578.28 368.666 578.017 369.294 577.491 369.772C576.972 370.242 576.312 370.477 575.51 370.477H573.068V371.971H571.549V365.252ZM573.068 366.637V369.092H575.449C575.846 369.092 576.162 368.986 576.397 368.776C576.64 368.565 576.762 368.269 576.762 367.889C576.762 367.508 576.64 367.204 576.397 366.978C576.162 366.751 575.846 366.637 575.449 366.637H573.068ZM578.738 365.252H580.463L581.945 367.792H583.245V365.252H584.764V367.792H586.064L587.546 365.252H589.272L587.364 368.375L589.49 371.971H587.741L586.113 369.128H584.764V371.971H583.245V369.128H581.897L580.269 371.971H578.519L580.645 368.375L578.738 365.252ZM590.403 365.252H596.503V366.625H591.922V367.864H596.041V369.237H591.922V370.574H596.673V371.971H590.403V365.252ZM597.807 365.252H599.326V367.816H603.117V365.252H604.635V371.971H603.117V369.177H599.326V371.971H597.807V365.252ZM605.852 365.252H607.358V369.918L611.356 365.252H612.826V371.971H611.319V367.33L607.334 371.971H605.852V365.252ZM620.539 365.252V371.971H619.02V370.477H616.517L615.728 371.971H614.075L615.108 370.124C614.241 369.655 613.808 368.909 613.808 367.889C613.808 367.111 614.067 366.479 614.585 365.993C615.112 365.499 615.776 365.252 616.578 365.252H620.539ZM619.02 366.637H616.639C616.242 366.637 615.922 366.751 615.679 366.978C615.444 367.204 615.327 367.508 615.327 367.889C615.327 368.269 615.444 368.565 615.679 368.776C615.922 368.986 616.242 369.092 616.639 369.092H619.02V366.637Z" fill="#010101"/>
<path d="M151.89 558.193C198.374 538.939 220.447 485.649 201.193 439.166C181.939 392.682 128.649 370.609 82.1654 389.863C35.6821 409.117 13.6085 462.407 32.8625 508.891C52.1165 555.374 105.407 577.447 151.89 558.193Z" stroke="#010101" stroke-width="0.5" stroke-miterlimit="10"/>
<path d="M391.81 584.62C448.59 584.62 494.62 538.59 494.62 481.81C494.62 425.03 448.59 379 391.81 379C335.03 379 289 425.03 289 481.81C289 538.59 335.03 584.62 391.81 584.62Z" stroke="#010101" stroke-width="0.5" stroke-miterlimit="10"/>
<path d="M611.34 428.427C658.563 408.867 680.988 354.728 661.427 307.505C641.867 260.282 587.728 237.857 540.505 257.417C493.282 276.978 470.857 331.116 490.417 378.34C509.978 425.563 564.117 447.988 611.34 428.427Z" stroke="#010101" stroke-width="0.5" stroke-miterlimit="10"/>
<path d="M427.764 355.358C428.836 350.545 429.63 345.654 431.006 340.927C438.99 313.49 440.962 285.436 439.834 257.043C439.668 252.792 439.697 248.524 439.468 244.274C439.342 241.746 438.897 239.237 438.548 236.358C437.931 236.738 437.69 237.013 437.444 237.028C434.571 237.227 434.731 237.218 434.753 240.141C434.796 244.804 434.563 249.464 434.505 254.124C434.468 257.296 434.544 260.47 434.557 263.645C434.629 278.606 434.464 293.568 431.727 308.328C429.973 317.796 427.685 327.153 425.687 336.585C424.357 342.886 423.119 349.204 421.827 355.508C421.651 356.381 421.369 357.225 420.998 358.588C420.182 357.266 419.778 356.242 419.069 355.545C417.592 354.102 416.117 352.496 414.328 351.58C412.257 350.512 411.111 351.627 411.713 353.879C412.27 355.917 413.122 357.879 413.796 359.879C414.593 362.227 415.345 364.597 416.161 367.09C416.873 366.864 417.433 366.683 418.097 366.467C418.186 366.71 418.401 367.138 418.347 367.174C417.137 367.992 417.97 368.862 418.247 369.7C419.241 372.679 421.083 375.079 423.501 377.02C425.557 378.665 428.439 377.742 429.402 375.295C431.589 369.685 433.842 364.098 436.026 358.477C436.27 357.864 436.216 357.14 436.285 356.465C436.05 356.416 435.803 356.368 435.568 356.318C433.081 362.216 430.595 368.114 428.12 374.009C427.914 373.916 427.698 373.837 427.491 373.744C430.041 364.269 434.983 355.795 439.489 347.138C438.851 348.595 438.189 350.056 437.577 351.519C436.975 352.967 436.426 354.429 435.862 355.882C436.018 355.974 436.175 356.065 436.322 356.171C436.628 355.969 437.073 355.837 437.213 355.558C438.609 352.683 440.046 349.824 441.267 346.886C441.685 345.863 443.12 344.05 440.162 344.03C439.725 344.023 439.397 342.772 438.835 342.53C436.512 341.565 435.008 342.171 433.672 344.386C433.467 344.715 433.22 345.017 432.652 345.275C443.507 310.526 443.934 275.012 440.905 239.247C440.852 238.585 440.496 237.963 439.877 237.334C443.233 277.466 440.111 316.891 427.747 355.337" fill="black"/>
<path d="M541.771 266.521C540.33 263.331 539.06 260.377 537.675 257.471C534.998 251.848 532.05 246.37 528.592 241.178C527.947 240.199 527.1 239.354 526.418 238.401C525.817 237.566 525.368 236.616 524.74 235.806C523.867 234.672 522.896 233.624 521.978 232.527C521.489 231.948 520.988 231.361 520.525 230.758C518.168 227.666 515.215 225.208 512.106 222.968C505.876 218.49 499.136 214.986 491.642 213.135C488.275 212.305 484.862 211.816 481.381 212.028C480.589 212.076 479.726 212.064 479.073 212.788C479.932 213.52 480.77 213.627 481.776 213.524C485.461 213.127 489.067 213.746 492.571 214.798C503.22 217.98 512.229 223.667 519.439 232.241C525.194 239.096 529.693 246.703 533.558 254.706C535.877 259.496 537.96 264.395 540.147 269.247C540.245 269.474 540.335 269.713 540.522 270.179C539.039 268.85 537.801 267.592 536.426 266.549C535.316 265.707 534.052 265.031 532.79 264.436C532.427 264.262 531.806 264.616 531.306 264.717C531.45 265.17 531.455 265.757 531.754 266.043C533.228 267.444 534.787 268.741 536.277 270.12C537.316 271.085 538.268 272.146 539.307 273.112C540.131 273.88 541.052 274.561 541.894 275.315C542.25 275.632 542.585 276.013 542.824 276.42C543.452 277.483 544.532 277.46 545.535 277.58C545.763 277.614 546.042 277.275 546.39 277.046C545.422 276.201 545.242 275.217 545.235 274.053C545.238 271.023 545.009 267.99 545.001 264.952C545.002 263.402 544.788 261.775 545.636 260.32C545.723 260.174 545.687 259.765 545.589 259.72C544.798 259.342 543.991 258.805 543.163 258.757C542.293 258.706 542.073 259.654 541.971 260.4C541.839 261.394 541.787 262.385 541.757 263.383C541.73 264.339 541.766 265.306 541.784 266.539" fill="black"/>
<path d="M394.746 226.736C393.384 226.694 392.787 226.679 392.196 226.656C391.757 226.636 391.327 226.622 389.795 226.565C391.781 227.84 392.861 228.545 394.304 229.482C393.39 229.906 392.813 230.177 392.235 230.447C395.024 235.1 390.929 233.483 389.07 233.918C386.122 234.605 383.175 235.328 380.221 235.988C353.393 242.063 328.594 253.087 304.823 266.696C266.658 288.535 235.275 317.934 208.575 352.606C205.321 356.827 202.055 361.029 198.879 365.312C197.622 367.012 196.59 368.881 194.876 371.607C196.505 370.846 197.21 370.692 197.677 370.279C209.583 359.407 224.051 353.374 239.07 348.408C241.845 347.491 244.596 346.499 247.421 345.781C249.936 345.137 251.011 345.185 251.243 348.934C251.651 355.374 248.058 357.085 243.36 359.203C231.243 364.665 219.075 370.094 207.411 376.441C201.498 379.657 196.672 384.735 189.82 386.6C186.438 387.52 184.726 387.206 184.133 383.76C183.82 381.896 183.541 379.923 183.828 378.087C186.545 360.797 184.194 343.404 184.918 326.071C185.131 320.98 186.01 316.221 189.87 312.519C190.593 311.818 191.501 310.643 192.199 310.722C193.625 310.888 196.052 311.661 196.128 312.376C196.358 314.721 195.752 317.148 195.414 319.545C195.034 322.248 194.136 324.963 194.291 327.628C194.782 335.808 195.671 343.959 196.476 352.946C198.842 349.795 200.831 347.269 202.704 344.645C234.353 300.222 275.489 267.362 324.777 244.425C344.645 235.179 365.059 227.639 386.896 224.528C391.135 223.92 391.764 224.015 394.763 226.747" fill="black"/>
<path d="M253.483 181.05H422.903" stroke="#010101" stroke-width="0.5" stroke-miterlimit="10"/>
</svg>
