<svg width="341" height="617" viewBox="0 0 341 617" fill="none" xmlns="http://www.w3.org/2000/svg">
<rect x="229" y="169" width="86" height="41" rx="12" fill="black"/>
<path d="M327 158C327 244.712 256.93 315 170.5 315C84.0704 315 14 244.712 14 158C14 71.2883 84.0704 1 170.5 1C256.93 1 327 71.2883 327 158Z" stroke="black" stroke-width="2"/>
<circle cx="113.5" cy="359.5" r="94" fill="white" stroke="black" stroke-width="3"/>
<circle cx="167" cy="521" r="95" fill="white" stroke="black" stroke-width="2"/>
<path d="M73.8846 314.422V315.668H69.4746V314.422H73.8846ZM87.8183 314.604V319H86.9083L86.6983 318.286C86.3156 318.585 85.9003 318.813 85.4523 318.972C85.0136 319.121 84.4723 319.196 83.8283 319.196C83.2123 319.196 82.6383 319.103 82.1063 318.916C81.5836 318.729 81.131 318.463 80.7483 318.118C80.3656 317.763 80.0623 317.334 79.8383 316.83C79.6236 316.326 79.5163 315.761 79.5163 315.136C79.5163 314.511 79.6236 313.946 79.8383 313.442C80.0623 312.938 80.3656 312.513 80.7483 312.168C81.1403 311.813 81.5976 311.543 82.1203 311.356C82.6523 311.169 83.2216 311.076 83.8283 311.076C84.7056 311.076 85.4523 311.235 86.0683 311.552C86.6843 311.86 87.207 312.322 87.6363 312.938L86.5163 313.582C86.1896 313.171 85.8163 312.868 85.3963 312.672C84.9856 312.476 84.449 312.378 83.7863 312.378C83.3476 312.378 82.951 312.443 82.5963 312.574C82.251 312.705 81.9523 312.891 81.7003 313.134C81.4576 313.367 81.2663 313.657 81.1263 314.002C80.9956 314.338 80.9303 314.716 80.9303 315.136C80.9303 315.556 81.0003 315.934 81.1403 316.27C81.2803 316.606 81.4763 316.895 81.7283 317.138C81.9803 317.381 82.279 317.567 82.6243 317.698C82.979 317.829 83.3663 317.894 83.7863 317.894C84.4116 317.894 84.9296 317.819 85.3403 317.67C85.751 317.521 86.1196 317.292 86.4463 316.984V315.85L84.4023 315.766V314.604H87.8183ZM90.9186 311.258V317.712H96.4906V319H89.4906V311.258H90.9186ZM99.1934 311.258V319H97.7654V311.258H99.1934ZM102.246 311.258L107.384 317.012V311.258H108.798V319H107.356L102.218 313.218V319H100.818V311.258H102.246ZM117.264 313.666C116.956 313.246 116.578 312.924 116.13 312.7C115.692 312.467 115.15 312.35 114.506 312.35C114.068 312.35 113.671 312.415 113.316 312.546C112.971 312.677 112.672 312.863 112.42 313.106C112.178 313.349 111.986 313.643 111.846 313.988C111.716 314.333 111.65 314.716 111.65 315.136C111.65 315.547 111.72 315.925 111.86 316.27C112 316.606 112.196 316.9 112.448 317.152C112.7 317.395 112.999 317.586 113.344 317.726C113.699 317.857 114.086 317.922 114.506 317.922C115.15 317.922 115.687 317.81 116.116 317.586C116.555 317.353 116.938 317.021 117.264 316.592L118.384 317.25C117.974 317.875 117.451 318.356 116.816 318.692C116.182 319.028 115.421 319.196 114.534 319.196C113.918 319.196 113.349 319.103 112.826 318.916C112.304 318.729 111.846 318.463 111.454 318.118C111.072 317.763 110.773 317.334 110.558 316.83C110.344 316.326 110.236 315.761 110.236 315.136C110.236 314.511 110.344 313.946 110.558 313.442C110.782 312.938 111.086 312.513 111.468 312.168C111.86 311.813 112.318 311.543 112.84 311.356C113.363 311.169 113.928 311.076 114.534 311.076C115.412 311.076 116.168 311.244 116.802 311.58C117.446 311.907 117.969 312.387 118.37 313.022L117.264 313.666ZM120.91 315.136C120.91 315.584 120.985 315.985 121.134 316.34C121.284 316.685 121.489 316.979 121.75 317.222C122.012 317.465 122.315 317.651 122.66 317.782C123.015 317.903 123.398 317.964 123.808 317.964C124.219 317.964 124.602 317.903 124.956 317.782C125.311 317.651 125.619 317.465 125.88 317.222C126.142 316.979 126.347 316.685 126.496 316.34C126.646 315.985 126.72 315.584 126.72 315.136C126.72 314.688 126.646 314.291 126.496 313.946C126.347 313.591 126.142 313.293 125.88 313.05C125.619 312.807 125.311 312.625 124.956 312.504C124.602 312.373 124.219 312.308 123.808 312.308C123.398 312.308 123.015 312.373 122.66 312.504C122.315 312.625 122.012 312.807 121.75 313.05C121.489 313.293 121.284 313.591 121.134 313.946C120.985 314.291 120.91 314.688 120.91 315.136ZM128.134 315.136C128.134 315.752 128.022 316.312 127.798 316.816C127.574 317.311 127.266 317.735 126.874 318.09C126.482 318.445 126.02 318.72 125.488 318.916C124.966 319.103 124.406 319.196 123.808 319.196C123.211 319.196 122.646 319.103 122.114 318.916C121.592 318.72 121.134 318.445 120.742 318.09C120.35 317.735 120.042 317.311 119.818 316.816C119.594 316.312 119.482 315.752 119.482 315.136C119.482 314.52 119.594 313.965 119.818 313.47C120.042 312.966 120.35 312.537 120.742 312.182C121.134 311.827 121.592 311.557 122.114 311.37C122.646 311.174 123.211 311.076 123.808 311.076C124.406 311.076 124.966 311.174 125.488 311.37C126.02 311.557 126.482 311.827 126.874 312.182C127.266 312.537 127.574 312.966 127.798 313.47C128.022 313.965 128.134 314.52 128.134 315.136ZM131.679 311.258L134.703 317.348H134.773L137.811 311.258H139.827V319H138.413V313.022H138.273L135.333 319H134.059L131.133 313.022H130.979V319H129.607V311.258H131.679ZM149.412 311.048L146.514 319.546L145.338 319.182L148.194 310.698L149.412 311.048ZM76.8398 329.258V335.11L82.0058 329.258H83.4198V337H82.0058V331.176L76.8538 337H75.4258V329.258H76.8398ZM86.4684 329.258V332.352H91.4384V329.258H92.8524V337H91.4384V333.626H86.4684V337H85.0404V329.258H86.4684ZM99.433 329.258C99.7783 329.258 100.096 329.305 100.385 329.398C100.684 329.491 100.936 329.627 101.141 329.804C101.346 329.981 101.505 330.191 101.617 330.434C101.738 330.677 101.799 330.952 101.799 331.26C101.799 331.904 101.58 332.375 101.141 332.674C101.524 332.842 101.818 333.094 102.023 333.43C102.238 333.757 102.345 334.153 102.345 334.62C102.345 334.947 102.28 335.255 102.149 335.544C102.028 335.833 101.855 336.085 101.631 336.3C101.407 336.515 101.136 336.687 100.819 336.818C100.511 336.939 100.166 337 99.783 337H94.491V329.258H99.433ZM95.919 332.338H99.559C99.8297 332.338 100.04 332.249 100.189 332.072C100.338 331.885 100.413 331.68 100.413 331.456C100.413 331.335 100.394 331.223 100.357 331.12C100.329 331.008 100.273 330.91 100.189 330.826C100.105 330.742 99.993 330.677 99.853 330.63C99.7223 330.574 99.5543 330.546 99.349 330.546H95.919V332.338ZM95.919 335.712H99.727C100.138 335.712 100.446 335.609 100.651 335.404C100.856 335.189 100.959 334.933 100.959 334.634C100.959 334.307 100.856 334.051 100.651 333.864C100.455 333.677 100.194 333.584 99.867 333.584H95.919V335.712ZM110.639 329.258V330.546H105.137V332.408H110.093V333.682H105.137V335.698H110.849V337H103.709V329.258H110.639ZM119.076 331.666C118.768 331.246 118.39 330.924 117.942 330.7C117.503 330.467 116.962 330.35 116.318 330.35C115.879 330.35 115.483 330.415 115.128 330.546C114.783 330.677 114.484 330.863 114.232 331.106C113.989 331.349 113.798 331.643 113.658 331.988C113.527 332.333 113.462 332.716 113.462 333.136C113.462 333.547 113.532 333.925 113.672 334.27C113.812 334.606 114.008 334.9 114.26 335.152C114.512 335.395 114.811 335.586 115.156 335.726C115.511 335.857 115.898 335.922 116.318 335.922C116.962 335.922 117.499 335.81 117.928 335.586C118.367 335.353 118.749 335.021 119.076 334.592L120.196 335.25C119.785 335.875 119.263 336.356 118.628 336.692C117.993 337.028 117.233 337.196 116.346 337.196C115.73 337.196 115.161 337.103 114.638 336.916C114.115 336.729 113.658 336.463 113.266 336.118C112.883 335.763 112.585 335.334 112.37 334.83C112.155 334.326 112.048 333.761 112.048 333.136C112.048 332.511 112.155 331.946 112.37 331.442C112.594 330.938 112.897 330.513 113.28 330.168C113.672 329.813 114.129 329.543 114.652 329.356C115.175 329.169 115.739 329.076 116.346 329.076C117.223 329.076 117.979 329.244 118.614 329.58C119.258 329.907 119.781 330.387 120.182 331.022L119.076 331.666ZM129.148 329.258V330.546H125.858V337H124.43V330.546H121.14V329.258H129.148ZM131.434 333.136C131.434 333.584 131.509 333.985 131.658 334.34C131.807 334.685 132.013 334.979 132.274 335.222C132.535 335.465 132.839 335.651 133.184 335.782C133.539 335.903 133.921 335.964 134.332 335.964C134.743 335.964 135.125 335.903 135.48 335.782C135.835 335.651 136.143 335.465 136.404 335.222C136.665 334.979 136.871 334.685 137.02 334.34C137.169 333.985 137.244 333.584 137.244 333.136C137.244 332.688 137.169 332.291 137.02 331.946C136.871 331.591 136.665 331.293 136.404 331.05C136.143 330.807 135.835 330.625 135.48 330.504C135.125 330.373 134.743 330.308 134.332 330.308C133.921 330.308 133.539 330.373 133.184 330.504C132.839 330.625 132.535 330.807 132.274 331.05C132.013 331.293 131.807 331.591 131.658 331.946C131.509 332.291 131.434 332.688 131.434 333.136ZM138.658 333.136C138.658 333.752 138.546 334.312 138.322 334.816C138.098 335.311 137.79 335.735 137.398 336.09C137.006 336.445 136.544 336.72 136.012 336.916C135.489 337.103 134.929 337.196 134.332 337.196C133.735 337.196 133.17 337.103 132.638 336.916C132.115 336.72 131.658 336.445 131.266 336.09C130.874 335.735 130.566 335.311 130.342 334.816C130.118 334.312 130.006 333.752 130.006 333.136C130.006 332.52 130.118 331.965 130.342 331.47C130.566 330.966 130.874 330.537 131.266 330.182C131.658 329.827 132.115 329.557 132.638 329.37C133.17 329.174 133.735 329.076 134.332 329.076C134.929 329.076 135.489 329.174 136.012 329.37C136.544 329.557 137.006 329.827 137.398 330.182C137.79 330.537 138.098 330.966 138.322 331.47C138.546 331.965 138.658 332.52 138.658 333.136ZM144.68 329.258C145.128 329.258 145.544 329.333 145.926 329.482C146.309 329.622 146.64 329.823 146.92 330.084C147.2 330.345 147.42 330.663 147.578 331.036C147.746 331.4 147.83 331.806 147.83 332.254C147.83 332.702 147.746 333.108 147.578 333.472C147.42 333.836 147.2 334.149 146.92 334.41C146.64 334.662 146.309 334.858 145.926 334.998C145.544 335.138 145.128 335.208 144.68 335.208H141.558V337H140.13V329.258H144.68ZM141.558 333.906H144.624C145.156 333.906 145.586 333.761 145.912 333.472C146.248 333.183 146.416 332.777 146.416 332.254C146.416 331.722 146.248 331.307 145.912 331.008C145.586 330.709 145.156 330.56 144.624 330.56H141.558V333.906ZM45.1113 347.258L48.1353 353.348H48.2053L51.2433 347.258H53.2593V355H51.8453V349.022H51.7053L48.7653 355H47.4913L44.5653 349.022H44.4113V355H43.0393V347.258H45.1113ZM56.1425 351.136C56.1425 351.584 56.2171 351.985 56.3665 352.34C56.5158 352.685 56.7211 352.979 56.9825 353.222C57.2438 353.465 57.5471 353.651 57.8925 353.782C58.2471 353.903 58.6298 353.964 59.0405 353.964C59.4511 353.964 59.8338 353.903 60.1885 353.782C60.5431 353.651 60.8511 353.465 61.1125 353.222C61.3738 352.979 61.5791 352.685 61.7285 352.34C61.8778 351.985 61.9525 351.584 61.9525 351.136C61.9525 350.688 61.8778 350.291 61.7285 349.946C61.5791 349.591 61.3738 349.293 61.1125 349.05C60.8511 348.807 60.5431 348.625 60.1885 348.504C59.8338 348.373 59.4511 348.308 59.0405 348.308C58.6298 348.308 58.2471 348.373 57.8925 348.504C57.5471 348.625 57.2438 348.807 56.9825 349.05C56.7211 349.293 56.5158 349.591 56.3665 349.946C56.2171 350.291 56.1425 350.688 56.1425 351.136ZM63.3665 351.136C63.3665 351.752 63.2545 352.312 63.0305 352.816C62.8065 353.311 62.4985 353.735 62.1065 354.09C61.7145 354.445 61.2525 354.72 60.7205 354.916C60.1978 355.103 59.6378 355.196 59.0405 355.196C58.4431 355.196 57.8785 355.103 57.3465 354.916C56.8238 354.72 56.3665 354.445 55.9745 354.09C55.5825 353.735 55.2745 353.311 55.0505 352.816C54.8265 352.312 54.7145 351.752 54.7145 351.136C54.7145 350.52 54.8265 349.965 55.0505 349.47C55.2745 348.966 55.5825 348.537 55.9745 348.182C56.3665 347.827 56.8238 347.557 57.3465 347.37C57.8785 347.174 58.4431 347.076 59.0405 347.076C59.6378 347.076 60.1978 347.174 60.7205 347.37C61.2525 347.557 61.7145 347.827 62.1065 348.182C62.4985 348.537 62.8065 348.966 63.0305 349.47C63.2545 349.965 63.3665 350.52 63.3665 351.136ZM65.7343 347.258L67.5403 350.31H69.3743V347.258H70.7883V350.31H72.6223L74.4283 347.258H76.0383L73.8543 350.856L76.2903 355H74.6523L72.6783 351.57H70.7883V355H69.3743V351.57H67.4843L65.5103 355H63.8583L66.3083 350.856L64.1243 347.258H65.7343ZM84.4323 347.258V348.546H78.9303V350.408H83.8863V351.682H78.9303V353.698H84.6423V355H77.5023V347.258H84.4323ZM93.8459 347.258V348.546H90.5559V355H89.1279V348.546H85.8379V347.258H93.8459ZM107.084 347.258V355H105.67V348.532H100.938V355H99.5239V347.258H107.084ZM115.658 347.258V348.546H110.156V350.408H115.112V351.682H110.156V353.698H115.868V355H108.728V347.258H115.658ZM121.936 347.258C122.384 347.258 122.799 347.333 123.182 347.482C123.565 347.622 123.896 347.823 124.176 348.084C124.456 348.345 124.675 348.663 124.834 349.036C125.002 349.4 125.086 349.806 125.086 350.254C125.086 350.702 125.002 351.108 124.834 351.472C124.675 351.836 124.456 352.149 124.176 352.41C123.896 352.662 123.565 352.858 123.182 352.998C122.799 353.138 122.384 353.208 121.936 353.208H118.814V355H117.386V347.258H121.936ZM118.814 351.906H121.88C122.412 351.906 122.841 351.761 123.168 351.472C123.504 351.183 123.672 350.777 123.672 350.254C123.672 349.722 123.504 349.307 123.168 349.008C122.841 348.709 122.412 348.56 121.88 348.56H118.814V351.906ZM133.384 347.258V348.546H127.882V350.408H132.838V351.682H127.882V353.698H133.594V355H126.454V347.258H133.384ZM141.82 349.666C141.512 349.246 141.134 348.924 140.686 348.7C140.248 348.467 139.706 348.35 139.062 348.35C138.624 348.35 138.227 348.415 137.872 348.546C137.527 348.677 137.228 348.863 136.976 349.106C136.734 349.349 136.542 349.643 136.402 349.988C136.272 350.333 136.206 350.716 136.206 351.136C136.206 351.547 136.276 351.925 136.416 352.27C136.556 352.606 136.752 352.9 137.004 353.152C137.256 353.395 137.555 353.586 137.9 353.726C138.255 353.857 138.642 353.922 139.062 353.922C139.706 353.922 140.243 353.81 140.672 353.586C141.111 353.353 141.494 353.021 141.82 352.592L142.94 353.25C142.53 353.875 142.007 354.356 141.372 354.692C140.738 355.028 139.977 355.196 139.09 355.196C138.474 355.196 137.905 355.103 137.382 354.916C136.86 354.729 136.402 354.463 136.01 354.118C135.628 353.763 135.329 353.334 135.114 352.83C134.9 352.326 134.792 351.761 134.792 351.136C134.792 350.511 134.9 349.946 135.114 349.442C135.338 348.938 135.642 348.513 136.024 348.168C136.416 347.813 136.874 347.543 137.396 347.356C137.919 347.169 138.484 347.076 139.09 347.076C139.968 347.076 140.724 347.244 141.358 347.58C142.002 347.907 142.525 348.387 142.926 349.022L141.82 349.666ZM152.284 347.258V353.712H153.222V356.554H152.004L151.878 355H145.27L145.144 356.554H143.926V353.712H144.934L146.25 347.258H152.284ZM146.432 353.712H150.856V348.504H147.398L146.432 353.712ZM156.883 352.522H161.055L159.431 348.532H158.549L156.883 352.522ZM160.369 347.258L163.659 355H162.161L161.629 353.782H156.351L155.819 355H154.293L157.681 347.258H160.369ZM171.436 347.258V348.546H168.146V355H166.718V348.546H163.428V347.258H171.436ZM174.164 347.258V349.12H177.104C177.552 349.12 177.967 349.19 178.35 349.33C178.732 349.461 179.064 349.652 179.344 349.904C179.624 350.156 179.843 350.464 180.002 350.828C180.16 351.183 180.24 351.584 180.24 352.032C180.24 352.48 180.16 352.886 180.002 353.25C179.843 353.614 179.624 353.927 179.344 354.188C179.064 354.449 178.732 354.65 178.35 354.79C177.967 354.93 177.552 355 177.104 355H172.736V347.258H174.164ZM174.164 353.698H176.992C177.57 353.698 178.018 353.558 178.336 353.278C178.653 352.989 178.812 352.573 178.812 352.032C178.812 351.481 178.653 351.071 178.336 350.8C178.018 350.529 177.57 350.394 176.992 350.394H174.164V353.698ZM68.7483 365.258V373H67.3203V366.546H63.8623L63.0083 371.082C62.8869 371.745 62.6256 372.23 62.2243 372.538C61.8323 372.846 61.3329 373 60.7263 373H59.9423V371.67H60.6283C60.8989 371.67 61.1183 371.609 61.2863 371.488C61.4543 371.367 61.5663 371.171 61.6223 370.9L62.6863 365.258H68.7483ZM71.6376 369.136C71.6376 369.584 71.7123 369.985 71.8616 370.34C72.011 370.685 72.2163 370.979 72.4776 371.222C72.739 371.465 73.0423 371.651 73.3876 371.782C73.7423 371.903 74.125 371.964 74.5356 371.964C74.9463 371.964 75.329 371.903 75.6836 371.782C76.0383 371.651 76.3463 371.465 76.6076 371.222C76.869 370.979 77.0743 370.685 77.2236 370.34C77.373 369.985 77.4476 369.584 77.4476 369.136C77.4476 368.688 77.373 368.291 77.2236 367.946C77.0743 367.591 76.869 367.293 76.6076 367.05C76.3463 366.807 76.0383 366.625 75.6836 366.504C75.329 366.373 74.9463 366.308 74.5356 366.308C74.125 366.308 73.7423 366.373 73.3876 366.504C73.0423 366.625 72.739 366.807 72.4776 367.05C72.2163 367.293 72.011 367.591 71.8616 367.946C71.7123 368.291 71.6376 368.688 71.6376 369.136ZM78.8616 369.136C78.8616 369.752 78.7496 370.312 78.5256 370.816C78.3016 371.311 77.9936 371.735 77.6016 372.09C77.2096 372.445 76.7476 372.72 76.2156 372.916C75.693 373.103 75.133 373.196 74.5356 373.196C73.9383 373.196 73.3736 373.103 72.8416 372.916C72.319 372.72 71.8616 372.445 71.4696 372.09C71.0776 371.735 70.7696 371.311 70.5456 370.816C70.3216 370.312 70.2096 369.752 70.2096 369.136C70.2096 368.52 70.3216 367.965 70.5456 367.47C70.7696 366.966 71.0776 366.537 71.4696 366.182C71.8616 365.827 72.319 365.557 72.8416 365.37C73.3736 365.174 73.9383 365.076 74.5356 365.076C75.133 365.076 75.693 365.174 76.2156 365.37C76.7476 365.557 77.2096 365.827 77.6016 366.182C77.9936 366.537 78.3016 366.966 78.5256 367.47C78.7496 367.965 78.8616 368.52 78.8616 369.136ZM87.7466 365.258V366.546H84.4566V373H83.0286V366.546H79.7386V365.258H87.7466ZM98.3666 365.258C98.7119 365.258 99.0292 365.305 99.3186 365.398C99.6172 365.491 99.8692 365.627 100.075 365.804C100.28 365.981 100.439 366.191 100.551 366.434C100.672 366.677 100.733 366.952 100.733 367.26C100.733 367.904 100.513 368.375 100.075 368.674C100.457 368.842 100.751 369.094 100.957 369.43C101.171 369.757 101.279 370.153 101.279 370.62C101.279 370.947 101.213 371.255 101.083 371.544C100.961 371.833 100.789 372.085 100.565 372.3C100.341 372.515 100.07 372.687 99.7526 372.818C99.4446 372.939 99.0992 373 98.7166 373H93.4246V365.258H98.3666ZM94.8526 368.338H98.4926C98.7632 368.338 98.9732 368.249 99.1226 368.072C99.2719 367.885 99.3466 367.68 99.3466 367.456C99.3466 367.335 99.3279 367.223 99.2906 367.12C99.2626 367.008 99.2066 366.91 99.1226 366.826C99.0386 366.742 98.9266 366.677 98.7866 366.63C98.6559 366.574 98.4879 366.546 98.2826 366.546H94.8526V368.338ZM94.8526 371.712H98.6606C99.0712 371.712 99.3792 371.609 99.5846 371.404C99.7899 371.189 99.8926 370.933 99.8926 370.634C99.8926 370.307 99.7899 370.051 99.5846 369.864C99.3886 369.677 99.1272 369.584 98.8006 369.584H94.8526V371.712ZM109.331 370.522H113.503L111.879 366.532H110.997L109.331 370.522ZM112.817 365.258L116.107 373H114.609L114.077 371.782H108.799L108.267 373H106.741L110.129 365.258H112.817ZM122.006 365.258C122.454 365.258 122.869 365.333 123.252 365.482C123.635 365.622 123.966 365.823 124.246 366.084C124.526 366.345 124.745 366.663 124.904 367.036C125.072 367.4 125.156 367.806 125.156 368.254C125.156 368.702 125.072 369.108 124.904 369.472C124.745 369.836 124.526 370.149 124.246 370.41C123.966 370.662 123.635 370.858 123.252 370.998C122.869 371.138 122.454 371.208 122.006 371.208H118.884V373H117.456V365.258H122.006ZM118.884 369.906H121.95C122.482 369.906 122.911 369.761 123.238 369.472C123.574 369.183 123.742 368.777 123.742 368.254C123.742 367.722 123.574 367.307 123.238 367.008C122.911 366.709 122.482 366.56 121.95 366.56H118.884V369.906ZM133.454 365.258V366.546H127.952V368.408H132.908V369.682H127.952V371.698H133.664V373H126.524V365.258H133.454ZM136.609 365.258V368.352H141.579V365.258H142.993V373H141.579V369.626H136.609V373H135.181V365.258H136.609ZM152.71 365.258V371.712H153.648V374.554H152.43L152.304 373H145.696L145.57 374.554H144.352V371.712H145.36L146.676 365.258H152.71ZM146.858 371.712H151.282V366.504H147.824L146.858 371.712ZM155.789 365.258L156.965 368.604C157.03 368.791 157.138 368.931 157.287 369.024C157.436 369.117 157.604 369.164 157.791 369.164H160.115L161.403 365.258H162.831L160.787 371.432C160.628 371.899 160.358 372.277 159.975 372.566C159.592 372.855 159.149 373 158.645 373H156.559V371.782H158.561C158.757 371.782 158.944 371.735 159.121 371.642C159.298 371.539 159.424 371.381 159.499 371.166L159.737 370.438H157.707C157.175 370.438 156.732 370.307 156.377 370.046C156.022 369.775 155.756 369.388 155.579 368.884L154.319 365.258H155.789ZM59.7746 383.258V384.546H54.5806V385.932H58.0806C58.4633 385.932 58.818 385.993 59.1446 386.114C59.4713 386.235 59.7513 386.408 59.9846 386.632C60.2273 386.847 60.414 387.108 60.5446 387.416C60.6846 387.724 60.7546 388.06 60.7546 388.424C60.7546 388.779 60.6846 389.115 60.5446 389.432C60.414 389.74 60.2273 390.011 59.9846 390.244C59.7513 390.477 59.4713 390.664 59.1446 390.804C58.818 390.935 58.4633 391 58.0806 391H53.1666V383.258H59.7746ZM54.5806 389.712H57.9546C58.4586 389.712 58.8133 389.591 59.0186 389.348C59.2333 389.096 59.3406 388.788 59.3406 388.424C59.3406 388.069 59.2333 387.775 59.0186 387.542C58.804 387.309 58.4446 387.192 57.9406 387.192H54.5806V389.712ZM63.344 387.136C63.344 387.584 63.4187 387.985 63.568 388.34C63.7173 388.685 63.9227 388.979 64.184 389.222C64.4453 389.465 64.7487 389.651 65.094 389.782C65.4487 389.903 65.8313 389.964 66.242 389.964C66.6527 389.964 67.0353 389.903 67.39 389.782C67.7447 389.651 68.0527 389.465 68.314 389.222C68.5753 388.979 68.7807 388.685 68.93 388.34C69.0793 387.985 69.154 387.584 69.154 387.136C69.154 386.688 69.0793 386.291 68.93 385.946C68.7807 385.591 68.5753 385.293 68.314 385.05C68.0527 384.807 67.7447 384.625 67.39 384.504C67.0353 384.373 66.6527 384.308 66.242 384.308C65.8313 384.308 65.4487 384.373 65.094 384.504C64.7487 384.625 64.4453 384.807 64.184 385.05C63.9227 385.293 63.7173 385.591 63.568 385.946C63.4187 386.291 63.344 386.688 63.344 387.136ZM70.568 387.136C70.568 387.752 70.456 388.312 70.232 388.816C70.008 389.311 69.7 389.735 69.308 390.09C68.916 390.445 68.454 390.72 67.922 390.916C67.3993 391.103 66.8393 391.196 66.242 391.196C65.6447 391.196 65.08 391.103 64.548 390.916C64.0253 390.72 63.568 390.445 63.176 390.09C62.784 389.735 62.476 389.311 62.252 388.816C62.028 388.312 61.916 387.752 61.916 387.136C61.916 386.52 62.028 385.965 62.252 385.47C62.476 384.966 62.784 384.537 63.176 384.182C63.568 383.827 64.0253 383.557 64.548 383.37C65.08 383.174 65.6447 383.076 66.242 383.076C66.8393 383.076 67.3993 383.174 67.922 383.37C68.454 383.557 68.916 383.827 69.308 384.182C69.7 384.537 70.008 384.966 70.232 385.47C70.456 385.965 70.568 386.52 70.568 387.136ZM80.1077 383.258V391H78.6797V384.546H75.2217L74.3677 389.082C74.2463 389.745 73.985 390.23 73.5837 390.538C73.1917 390.846 72.6923 391 72.0857 391H71.3017V389.67H71.9877C72.2583 389.67 72.4777 389.609 72.6457 389.488C72.8137 389.367 72.9257 389.171 72.9817 388.9L74.0457 383.258H80.1077ZM88.667 383.258V384.546H83.165V386.408H88.121V387.682H83.165V389.698H88.877V391H81.737V383.258H88.667ZM97.3246 383.258V384.546H91.8226V386.408H96.7786V387.682H91.8226V389.698H97.5346V391H90.3946V383.258H97.3246ZM108.372 383.258C108.718 383.258 109.035 383.305 109.324 383.398C109.623 383.491 109.875 383.627 110.08 383.804C110.286 383.981 110.444 384.191 110.556 384.434C110.678 384.677 110.738 384.952 110.738 385.26C110.738 385.904 110.519 386.375 110.08 386.674C110.463 386.842 110.757 387.094 110.962 387.43C111.177 387.757 111.284 388.153 111.284 388.62C111.284 388.947 111.219 389.255 111.088 389.544C110.967 389.833 110.794 390.085 110.57 390.3C110.346 390.515 110.076 390.687 109.758 390.818C109.45 390.939 109.105 391 108.722 391H103.43V383.258H108.372ZM104.858 386.338H108.498C108.769 386.338 108.979 386.249 109.128 386.072C109.278 385.885 109.352 385.68 109.352 385.456C109.352 385.335 109.334 385.223 109.296 385.12C109.268 385.008 109.212 384.91 109.128 384.826C109.044 384.742 108.932 384.677 108.792 384.63C108.662 384.574 108.494 384.546 108.288 384.546H104.858V386.338ZM104.858 389.712H108.666C109.077 389.712 109.385 389.609 109.59 389.404C109.796 389.189 109.898 388.933 109.898 388.634C109.898 388.307 109.796 388.051 109.59 387.864C109.394 387.677 109.133 387.584 108.806 387.584H104.858V389.712ZM122.435 383.258V391H121.007V383.258H122.435ZM114.077 383.258V385.12H117.017C117.465 385.12 117.88 385.19 118.263 385.33C118.645 385.461 118.977 385.652 119.257 385.904C119.537 386.156 119.756 386.464 119.915 386.828C120.073 387.183 120.153 387.584 120.153 388.032C120.153 388.48 120.073 388.886 119.915 389.25C119.756 389.614 119.537 389.927 119.257 390.188C118.977 390.449 118.645 390.65 118.263 390.79C117.88 390.93 117.465 391 117.017 391H112.649V383.258H114.077ZM114.077 389.698H116.905C117.483 389.698 117.931 389.558 118.249 389.278C118.566 388.989 118.725 388.573 118.725 388.032C118.725 387.481 118.566 387.071 118.249 386.8C117.931 386.529 117.483 386.394 116.905 386.394H114.077V389.698ZM130.9 385.666C130.592 385.246 130.214 384.924 129.766 384.7C129.328 384.467 128.786 384.35 128.142 384.35C127.704 384.35 127.307 384.415 126.952 384.546C126.607 384.677 126.308 384.863 126.056 385.106C125.814 385.349 125.622 385.643 125.482 385.988C125.352 386.333 125.286 386.716 125.286 387.136C125.286 387.547 125.356 387.925 125.496 388.27C125.636 388.606 125.832 388.9 126.084 389.152C126.336 389.395 126.635 389.586 126.98 389.726C127.335 389.857 127.722 389.922 128.142 389.922C128.786 389.922 129.323 389.81 129.752 389.586C130.191 389.353 130.574 389.021 130.9 388.592L132.02 389.25C131.61 389.875 131.087 390.356 130.452 390.692C129.818 391.028 129.057 391.196 128.17 391.196C127.554 391.196 126.985 391.103 126.462 390.916C125.94 390.729 125.482 390.463 125.09 390.118C124.708 389.763 124.409 389.334 124.194 388.83C123.98 388.326 123.872 387.761 123.872 387.136C123.872 386.511 123.98 385.946 124.194 385.442C124.418 384.938 124.722 384.513 125.104 384.168C125.496 383.813 125.954 383.543 126.476 383.356C126.999 383.169 127.564 383.076 128.17 383.076C129.048 383.076 129.804 383.244 130.438 383.58C131.082 383.907 131.605 384.387 132.006 385.022L130.9 385.666ZM134.546 387.136C134.546 387.584 134.621 387.985 134.77 388.34C134.919 388.685 135.125 388.979 135.386 389.222C135.647 389.465 135.951 389.651 136.296 389.782C136.651 389.903 137.033 389.964 137.444 389.964C137.855 389.964 138.237 389.903 138.592 389.782C138.947 389.651 139.255 389.465 139.516 389.222C139.777 388.979 139.983 388.685 140.132 388.34C140.281 387.985 140.356 387.584 140.356 387.136C140.356 386.688 140.281 386.291 140.132 385.946C139.983 385.591 139.777 385.293 139.516 385.05C139.255 384.807 138.947 384.625 138.592 384.504C138.237 384.373 137.855 384.308 137.444 384.308C137.033 384.308 136.651 384.373 136.296 384.504C135.951 384.625 135.647 384.807 135.386 385.05C135.125 385.293 134.919 385.591 134.77 385.946C134.621 386.291 134.546 386.688 134.546 387.136ZM141.77 387.136C141.77 387.752 141.658 388.312 141.434 388.816C141.21 389.311 140.902 389.735 140.51 390.09C140.118 390.445 139.656 390.72 139.124 390.916C138.601 391.103 138.041 391.196 137.444 391.196C136.847 391.196 136.282 391.103 135.75 390.916C135.227 390.72 134.77 390.445 134.378 390.09C133.986 389.735 133.678 389.311 133.454 388.816C133.23 388.312 133.118 387.752 133.118 387.136C133.118 386.52 133.23 385.965 133.454 385.47C133.678 384.966 133.986 384.537 134.378 384.182C134.77 383.827 135.227 383.557 135.75 383.37C136.282 383.174 136.847 383.076 137.444 383.076C138.041 383.076 138.601 383.174 139.124 383.37C139.656 383.557 140.118 383.827 140.51 384.182C140.902 384.537 141.21 384.966 141.434 385.47C141.658 385.965 141.77 386.52 141.77 387.136ZM144.656 383.258V386.254H147.358L149.402 383.258H151.04L148.576 386.842L151.236 391H149.556L147.4 387.542H144.656V391H143.242V383.258H144.656ZM153.146 387.136C153.146 387.584 153.221 387.985 153.37 388.34C153.52 388.685 153.725 388.979 153.986 389.222C154.248 389.465 154.551 389.651 154.896 389.782C155.251 389.903 155.634 389.964 156.044 389.964C156.455 389.964 156.838 389.903 157.192 389.782C157.547 389.651 157.855 389.465 158.116 389.222C158.378 388.979 158.583 388.685 158.732 388.34C158.882 387.985 158.956 387.584 158.956 387.136C158.956 386.688 158.882 386.291 158.732 385.946C158.583 385.591 158.378 385.293 158.116 385.05C157.855 384.807 157.547 384.625 157.192 384.504C156.838 384.373 156.455 384.308 156.044 384.308C155.634 384.308 155.251 384.373 154.896 384.504C154.551 384.625 154.248 384.807 153.986 385.05C153.725 385.293 153.52 385.591 153.37 385.946C153.221 386.291 153.146 386.688 153.146 387.136ZM160.37 387.136C160.37 387.752 160.258 388.312 160.034 388.816C159.81 389.311 159.502 389.735 159.11 390.09C158.718 390.445 158.256 390.72 157.724 390.916C157.202 391.103 156.642 391.196 156.044 391.196C155.447 391.196 154.882 391.103 154.35 390.916C153.828 390.72 153.37 390.445 152.978 390.09C152.586 389.735 152.278 389.311 152.054 388.816C151.83 388.312 151.718 387.752 151.718 387.136C151.718 386.52 151.83 385.965 152.054 385.47C152.278 384.966 152.586 384.537 152.978 384.182C153.37 383.827 153.828 383.557 154.35 383.37C154.882 383.174 155.447 383.076 156.044 383.076C156.642 383.076 157.202 383.174 157.724 383.37C158.256 383.557 158.718 383.827 159.11 384.182C159.502 384.537 159.81 384.966 160.034 385.47C160.258 385.965 160.37 386.52 160.37 387.136ZM163.257 383.258V389.11L168.423 383.258H169.837V391H168.423V385.176L163.271 391H161.843V383.258H163.257ZM168.003 381.466C167.648 381.858 167.289 382.129 166.925 382.278C166.57 382.418 166.187 382.488 165.777 382.488C165.366 382.488 164.979 382.418 164.615 382.278C164.26 382.129 163.901 381.858 163.537 381.466L164.265 380.724C164.479 380.939 164.703 381.102 164.937 381.214C165.17 381.317 165.45 381.368 165.777 381.368C166.103 381.368 166.379 381.317 166.603 381.214C166.836 381.102 167.06 380.939 167.275 380.724L168.003 381.466ZM91.9206 403.666C91.6126 403.246 91.2346 402.924 90.7866 402.7C90.348 402.467 89.8066 402.35 89.1626 402.35C88.724 402.35 88.3273 402.415 87.9726 402.546C87.6273 402.677 87.3286 402.863 87.0766 403.106C86.834 403.349 86.6426 403.643 86.5026 403.988C86.372 404.333 86.3066 404.716 86.3066 405.136C86.3066 405.547 86.3766 405.925 86.5166 406.27C86.6566 406.606 86.8526 406.9 87.1046 407.152C87.3566 407.395 87.6553 407.586 88.0006 407.726C88.3553 407.857 88.7426 407.922 89.1626 407.922C89.8066 407.922 90.3433 407.81 90.7726 407.586C91.2113 407.353 91.594 407.021 91.9206 406.592L93.0406 407.25C92.63 407.875 92.1073 408.356 91.4726 408.692C90.838 409.028 90.0773 409.196 89.1906 409.196C88.5746 409.196 88.0053 409.103 87.4826 408.916C86.96 408.729 86.5026 408.463 86.1106 408.118C85.728 407.763 85.4293 407.334 85.2146 406.83C85 406.326 84.8926 405.761 84.8926 405.136C84.8926 404.511 85 403.946 85.2146 403.442C85.4386 402.938 85.742 402.513 86.1246 402.168C86.5166 401.813 86.974 401.543 87.4966 401.356C88.0193 401.169 88.584 401.076 89.1906 401.076C90.068 401.076 90.824 401.244 91.4586 401.58C92.1026 401.907 92.6253 402.387 93.0266 403.022L91.9206 403.666ZM101.992 401.258V402.546H98.7024V409H97.2744V402.546H93.9844V401.258H101.992ZM104.344 406.522H108.516L106.892 402.532H106.01L104.344 406.522ZM107.83 401.258L111.12 409H109.622L109.09 407.782H103.812L103.28 409H101.754L105.142 401.258H107.83ZM117.411 401.258C117.757 401.258 118.074 401.305 118.363 401.398C118.662 401.491 118.914 401.627 119.119 401.804C119.325 401.981 119.483 402.191 119.595 402.434C119.717 402.677 119.777 402.952 119.777 403.26C119.777 403.904 119.558 404.375 119.119 404.674C119.502 404.842 119.796 405.094 120.001 405.43C120.216 405.757 120.323 406.153 120.323 406.62C120.323 406.947 120.258 407.255 120.127 407.544C120.006 407.833 119.833 408.085 119.609 408.3C119.385 408.515 119.115 408.687 118.797 408.818C118.489 408.939 118.144 409 117.761 409H112.469V401.258H117.411ZM113.897 404.338H117.537C117.808 404.338 118.018 404.249 118.167 404.072C118.317 403.885 118.391 403.68 118.391 403.456C118.391 403.335 118.373 403.223 118.335 403.12C118.307 403.008 118.251 402.91 118.167 402.826C118.083 402.742 117.971 402.677 117.831 402.63C117.701 402.574 117.533 402.546 117.327 402.546H113.897V404.338ZM113.897 407.712H117.705C118.116 407.712 118.424 407.609 118.629 407.404C118.835 407.189 118.937 406.933 118.937 406.634C118.937 406.307 118.835 406.051 118.629 405.864C118.433 405.677 118.172 405.584 117.845 405.584H113.897V407.712ZM123.101 401.258V404.254H125.803L127.847 401.258H129.485L127.021 404.842L129.681 409H128.001L125.845 405.542H123.101V409H121.687V401.258H123.101ZM137.822 401.258V402.546H132.32V404.408H137.276V405.682H132.32V407.698H138.032V409H130.892V401.258H137.822Z" fill="black"/>
<path d="M79.9478 105.281V118H91.8158V115.355H82.8228V112.825H90.6198V110.226H82.8228V107.88H91.4938V105.281H79.9478ZM94.0324 105.281L97.6434 111.192L93.6184 118H96.9304L100.012 112.618H102.565V118H105.44V112.618H107.993L111.075 118H114.387L110.362 111.192L113.973 105.281H110.707L107.901 110.088H105.44V105.281H102.565V110.088H100.104L97.2984 105.281H94.0324ZM116.345 105.281V118H128.213V115.355H119.22V112.825H127.017V110.226H119.22V107.88H127.891V105.281H116.345ZM130.591 105.281V118H133.374V109.099H133.512L137.652 118H140.067L144.368 109.099H144.506V118H147.335V105.281H143.655L139.009 114.504H138.894L134.432 105.281H130.591ZM149.868 105.281V118H161.736V115.355H152.743V112.825H160.54V110.226H152.743V107.88H161.414V105.281H149.868ZM177.206 108.386C175.895 106.155 173.733 104.982 170.766 104.982C166.764 104.982 163.659 107.535 163.659 111.652C163.659 115.769 166.695 118.322 170.766 118.322C173.733 118.322 175.895 117.149 177.206 114.918L174.975 113.63C174.009 115.01 172.744 115.769 170.72 115.769C168.236 115.769 166.511 114.113 166.511 111.652C166.511 109.145 168.167 107.535 170.72 107.535C172.744 107.535 174.009 108.294 174.975 109.674L177.206 108.386ZM191.765 105.281H184.267C181.277 105.281 179.023 107.282 179.023 110.272C179.023 112.227 179.989 113.699 181.484 114.504L179.529 118H182.657L184.152 115.171H188.89V118H191.765V105.281ZM188.89 107.903V112.549H184.382C182.91 112.549 181.898 111.744 181.898 110.272C181.898 108.8 182.91 107.903 184.382 107.903H188.89ZM194.312 105.281V110.272C194.312 113.262 196.336 115.263 199.326 115.263H203.857V118H206.732V105.281H203.857V112.664H199.763C198.107 112.664 197.187 111.79 197.187 110.019V105.281H194.312ZM209.321 105.281V118H212.196V112.71H219.372V118H222.247V105.281H219.372V110.134H212.196V105.281H209.321ZM238.441 105.281V118H241.316V105.281H238.441ZM224.779 105.281V118H232.047C235.037 118 237.291 115.999 237.291 113.009C237.291 110.019 235.037 108.179 232.047 108.179H227.654V105.281H224.779ZM227.654 110.732H231.84C233.542 110.732 234.416 111.445 234.416 113.009C234.416 114.573 233.542 115.378 231.84 115.378H227.654V110.732ZM243.854 105.281V118H246.66L254.204 109.214V118H257.056V105.281H254.273L246.706 114.113V105.281H243.854ZM252.778 100.934C252.088 101.532 251.444 101.831 250.317 101.831C249.19 101.831 248.546 101.532 247.856 100.934L246.476 102.452C247.856 103.74 248.983 104.039 250.317 104.039C251.651 104.039 252.778 103.74 254.158 102.452L252.778 100.934ZM70.0496 131.834H71.0386L73.3386 137.561H67.6806L70.0496 131.834ZM68.2556 129.281L62.7126 142H65.7946L66.6226 140.068H74.4656L75.2936 142H78.3296L72.9246 129.281H68.2556ZM80.4055 129.281V142H83.2805V139.171H87.9035C90.8935 139.171 93.1475 137.262 93.1475 134.272C93.1475 131.282 90.8935 129.281 87.9035 129.281H80.4055ZM83.2805 131.903H87.7885C89.2605 131.903 90.2725 132.8 90.2725 134.272C90.2725 135.744 89.2605 136.549 87.7885 136.549H83.2805V131.903ZM95.325 129.281V142H107.193V139.355H98.2V136.825H105.997V134.226H98.2V131.88H106.871V129.281H95.325ZM109.571 129.281V142H112.446V136.71H119.622V142H122.497V129.281H119.622V134.134H112.446V129.281H109.571ZM128.295 129.281L126.294 139.424H124.684V144.438H127.168L127.398 142H137.219L137.449 144.438H139.933V139.424H138.438V129.281H128.295ZM130.641 131.788H135.563V139.424H129.284L130.641 131.788ZM142.127 129.281V142H145.002V136.71H152.178V142H155.053V129.281H152.178V134.134H145.002V129.281H142.127ZM171.248 129.281V142H174.123V129.281H171.248ZM157.586 129.281V142H164.854C167.844 142 170.098 139.999 170.098 137.009C170.098 134.019 167.844 132.179 164.854 132.179H160.461V129.281H157.586ZM160.461 134.732H164.647C166.349 134.732 167.223 135.445 167.223 137.009C167.223 138.573 166.349 139.378 164.647 139.378H160.461V134.732ZM176.661 129.281V142H179.467L187.011 133.214V142H189.863V129.281H187.08L179.513 138.113V129.281H176.661ZM185.585 124.934C184.895 125.532 184.251 125.831 183.124 125.831C181.997 125.831 181.353 125.532 180.663 124.934L179.283 126.452C180.663 127.74 181.79 128.039 183.124 128.039C184.458 128.039 185.585 127.74 186.965 126.452L185.585 124.934ZM199.245 129.281V142H202.097V131.834H208.905V142H211.78V129.281H199.245ZM216.99 135.652C216.99 133.03 218.853 131.443 221.245 131.443C223.637 131.443 225.5 133.03 225.5 135.652C225.5 138.274 223.637 139.861 221.245 139.861C218.853 139.861 216.99 138.274 216.99 135.652ZM228.375 135.652C228.375 131.65 225.109 128.982 221.245 128.982C217.381 128.982 214.115 131.65 214.115 135.652C214.115 139.654 217.381 142.322 221.245 142.322C225.109 142.322 228.375 139.654 228.375 135.652ZM229.814 129.281V131.857H234.989V142H237.864V131.857H243.039V129.281H229.814ZM247.345 135.652C247.345 133.03 249.208 131.443 251.6 131.443C253.992 131.443 255.855 133.03 255.855 135.652C255.855 138.274 253.992 139.861 251.6 139.861C249.208 139.861 247.345 138.274 247.345 135.652ZM258.73 135.652C258.73 131.65 255.464 128.982 251.6 128.982C247.736 128.982 244.47 131.65 244.47 135.652C244.47 139.654 247.736 142.322 251.6 142.322C255.464 142.322 258.73 139.654 258.73 135.652ZM261.079 129.281V142H263.931V136.595H267.703L271.038 142H274.442L270.072 135.169L274.143 129.281H270.831L267.634 133.973H263.931V129.281H261.079Z" fill="black"/>
<path d="M34.8892 183.281H40.0872V196H37.2352V185.834H34.8892V183.281ZM45.623 190.572L43.254 190.411L43.599 183.281H53.834V185.857H46.29L46.152 187.881C47.141 187.582 48.015 187.444 49.349 187.444C52.799 187.444 54.754 189.031 54.754 191.745C54.754 194.988 52.109 196.299 48.36 196.299C45.807 196.299 43.99 195.816 42.058 194.482L43.369 192.251C45.163 193.332 46.428 193.723 48.59 193.723C50.913 193.723 51.879 192.987 51.879 191.745C51.879 190.457 50.913 189.951 48.843 189.951C47.739 189.951 46.635 190.158 45.623 190.572ZM67.4795 183.051L69.4805 183.971L62.1435 196.69L60.1425 195.77L67.4795 183.051ZM69.8255 196.322C67.7555 196.322 66.2605 194.827 66.2605 192.757C66.2605 190.71 67.7555 189.192 69.8255 189.192C71.8495 189.192 73.3445 190.71 73.3445 192.757C73.3445 194.827 71.8495 196.322 69.8255 196.322ZM69.8255 194.298C70.5845 194.298 71.3205 193.861 71.3205 192.757C71.3205 191.676 70.5845 191.239 69.8255 191.239C69.0665 191.239 68.2845 191.676 68.2845 192.757C68.2845 193.861 69.0665 194.298 69.8255 194.298ZM60.0275 190.411C57.9805 190.411 56.4855 188.893 56.4855 186.846C56.4855 184.776 57.9805 183.281 60.0275 183.281C62.0745 183.281 63.5695 184.776 63.5695 186.846C63.5695 188.893 62.0745 190.411 60.0275 190.411ZM60.0275 188.364C60.7865 188.364 61.5455 187.95 61.5455 186.846C61.5455 185.742 60.7865 185.305 60.0275 185.305C59.2455 185.305 58.4865 185.742 58.4865 186.846C58.4865 187.95 59.2455 188.364 60.0275 188.364ZM82.427 183.281H94.157V185.88H85.302V196H82.427V183.281ZM98.4427 189.652C98.4427 192.274 100.306 193.861 102.698 193.861C105.09 193.861 106.953 192.274 106.953 189.652C106.953 187.03 105.09 185.443 102.698 185.443C100.306 185.443 98.4427 187.03 98.4427 189.652ZM109.828 189.652C109.828 193.654 106.562 196.322 102.698 196.322C98.8337 196.322 95.5677 193.654 95.5677 189.652C95.5677 185.65 98.8337 182.982 102.698 182.982C106.562 182.982 109.828 185.65 109.828 189.652ZM115.217 183.281H125.36V193.424H126.855V198.438H124.371L124.141 196H114.32L114.09 198.438H111.606V193.424H113.216L115.217 183.281ZM117.563 185.788L116.206 193.424H122.485V185.788H117.563ZM131.291 189.652C131.291 192.274 133.154 193.861 135.546 193.861C137.938 193.861 139.801 192.274 139.801 189.652C139.801 187.03 137.938 185.443 135.546 185.443C133.154 185.443 131.291 187.03 131.291 189.652ZM142.676 189.652C142.676 193.654 139.41 196.322 135.546 196.322C131.682 196.322 128.416 193.654 128.416 189.652C128.416 185.65 131.682 182.982 135.546 182.982C139.41 182.982 142.676 185.65 142.676 189.652ZM145.025 183.281H153.213C155.513 183.281 157.146 184.615 157.146 186.685C157.146 187.605 156.824 188.387 156.157 188.847C157.33 189.445 158.02 190.48 158.02 192.044C158.02 194.229 156.249 196 153.834 196H145.025V183.281ZM147.9 185.857V188.18H153.305C153.926 188.18 154.34 187.605 154.34 187.03C154.34 186.478 154.041 185.857 153.075 185.857H147.9ZM147.9 190.687V193.401H153.742C154.662 193.401 155.214 192.826 155.214 192.044C155.214 191.216 154.639 190.687 153.811 190.687H147.9ZM173.831 183.281H176.706V196H173.831V183.281ZM160.169 183.281H163.044V186.179H167.437C170.427 186.179 172.681 188.019 172.681 191.009C172.681 193.999 170.427 196 167.437 196H160.169V183.281ZM163.044 188.732V193.378H167.23C168.932 193.378 169.806 192.573 169.806 191.009C169.806 189.445 168.932 188.732 167.23 188.732H163.044ZM178.945 183.281H182.211L185.546 188.18H186.351L189.686 183.281H192.952L188.697 189.307L193.205 196H189.87L186.397 190.756H185.5L182.027 196H178.692L183.223 189.376L178.945 183.281ZM208.656 188.249H219.581V190.779H208.656V188.249Z" fill="black"/>
<path d="M241.958 183.281H247.156V196H244.304V185.834H241.958V183.281ZM256.535 183.281H268.265V185.88H259.41V196H256.535V183.281ZM272.551 189.652C272.551 192.274 274.414 193.861 276.806 193.861C279.198 193.861 281.061 192.274 281.061 189.652C281.061 187.03 279.198 185.443 276.806 185.443C274.414 185.443 272.551 187.03 272.551 189.652ZM283.936 189.652C283.936 193.654 280.67 196.322 276.806 196.322C272.942 196.322 269.676 193.654 269.676 189.652C269.676 185.65 272.942 182.982 276.806 182.982C280.67 182.982 283.936 185.65 283.936 189.652ZM289.326 183.281H299.469V193.424H300.964V198.438H298.48L298.25 196H288.429L288.199 198.438H285.715V193.424H287.325L289.326 183.281ZM291.672 185.788L290.315 193.424H296.594V185.788H291.672Z" fill="white"/>
<path d="M111.86 486.422V487.668H116.27V486.422H111.86ZM121.678 483.258L122.938 486.884C123.288 487.892 124.002 488.438 125.066 488.438H127.096L126.858 489.166C126.704 489.586 126.312 489.782 125.92 489.782H123.918V491H126.004C127.012 491 127.838 490.356 128.146 489.432L130.19 483.258H128.762L127.474 487.164H125.15C124.772 487.164 124.45 486.968 124.324 486.604L123.148 483.258H121.678ZM139.793 484.532H140.675L142.299 488.522H138.127L139.793 484.532ZM138.925 483.258L135.537 491H137.063L137.595 489.782H142.873L143.405 491H144.903L141.613 483.258H138.925ZM146.252 483.258V491H147.68V489.208H150.802C152.58 489.208 153.952 488.06 153.952 486.254C153.952 484.448 152.58 483.258 150.802 483.258H146.252ZM147.68 484.56H150.746C151.81 484.56 152.538 485.204 152.538 486.254C152.538 487.29 151.81 487.906 150.746 487.906H147.68V484.56ZM155.319 483.258V491H162.459V489.698H156.747V487.682H161.703V486.408H156.747V484.546H162.249V483.258H155.319ZM163.977 483.258V491H165.405V487.626H170.375V491H171.789V483.258H170.375V486.352H165.405V483.258H163.977ZM175.472 483.258L174.156 489.712H173.148V492.554H174.366L174.492 491H181.1L181.226 492.554H182.444V489.712H181.506V483.258H175.472ZM176.62 484.504H180.078V489.712H175.654L176.62 484.504ZM187.77 484.532H188.652L190.276 488.522H186.104L187.77 484.532ZM186.902 483.258L183.514 491H185.04L185.572 489.782H190.85L191.382 491H192.88L189.59 483.258H186.902ZM192.649 483.258V484.546H195.939V491H197.367V484.546H200.657V483.258H192.649ZM202.944 487.136C202.944 485.358 204.218 484.308 205.842 484.308C207.48 484.308 208.754 485.358 208.754 487.136C208.754 488.914 207.48 489.964 205.842 489.964C204.218 489.964 202.944 488.914 202.944 487.136ZM210.168 487.136C210.168 484.686 208.236 483.076 205.842 483.076C203.448 483.076 201.516 484.686 201.516 487.136C201.516 489.586 203.448 491.196 205.842 491.196C208.236 491.196 210.168 489.586 210.168 487.136ZM211.64 483.258V491H213.068V489.208H216.19C217.968 489.208 219.34 488.06 219.34 486.254C219.34 484.448 217.968 483.258 216.19 483.258H211.64ZM213.068 484.56H216.134C217.198 484.56 217.926 485.204 217.926 486.254C217.926 487.29 217.198 487.906 216.134 487.906H213.068V484.56ZM224.123 484.532H225.005L226.629 488.522H222.457L224.123 484.532ZM223.255 483.258L219.867 491H221.393L221.925 489.782H227.203L227.735 491H229.233L225.943 483.258H223.255ZM94.7763 501.258V509H96.2043V505.626H101.174V509H102.588V501.258H101.174V504.352H96.2043V501.258H94.7763ZM104.227 501.258V509H111.367V507.698H105.655V505.682H110.611V504.408H105.655V502.546H111.157V501.258H104.227ZM117.263 501.258V509H118.677V502.532H123.409V509H124.823V501.258H117.263ZM126.467 501.258V509H127.895V507.208H131.017C132.795 507.208 134.167 506.06 134.167 504.254C134.167 502.448 132.795 501.258 131.017 501.258H126.467ZM127.895 502.56H130.961C132.025 502.56 132.753 503.204 132.753 504.254C132.753 505.29 132.025 505.906 130.961 505.906H127.895V502.56ZM135.535 501.258V509H142.675V507.698H136.963V505.682H141.919V504.408H136.963V502.546H142.465V501.258H135.535ZM146.236 501.258L144.92 507.712H143.912V510.554H145.13L145.256 509H151.864L151.99 510.554H153.208V507.712H152.27V501.258H146.236ZM147.384 502.504H150.842V507.712H146.418L147.384 502.504ZM153.88 501.258L155.14 504.884C155.49 505.892 156.204 506.438 157.268 506.438H159.298L159.06 507.166C158.906 507.586 158.514 507.782 158.122 507.782H156.12V509H158.206C159.214 509 160.04 508.356 160.348 507.432L162.392 501.258H160.964L159.676 505.164H157.352C156.974 505.164 156.652 504.968 156.526 504.604L155.35 501.258H153.88ZM171.032 503.022C170.234 501.762 168.932 501.076 167.196 501.076C164.774 501.076 162.898 502.616 162.898 505.136C162.898 507.642 164.732 509.196 167.196 509.196C168.96 509.196 170.234 508.496 171.046 507.25L169.926 506.592C169.282 507.446 168.456 507.922 167.168 507.922C165.474 507.922 164.312 506.774 164.312 505.136C164.312 503.442 165.432 502.35 167.168 502.35C168.442 502.35 169.31 502.826 169.926 503.666L171.032 503.022ZM172.448 501.258V509H173.82V503.022H173.974L176.9 509H178.174L181.114 503.022H181.254V509H182.668V501.258H180.652L177.614 507.348H177.544L174.52 501.258H172.448ZM185.552 505.136C185.552 503.358 186.826 502.308 188.45 502.308C190.088 502.308 191.362 503.358 191.362 505.136C191.362 506.914 190.088 507.964 188.45 507.964C186.826 507.964 185.552 506.914 185.552 505.136ZM192.776 505.136C192.776 502.686 190.844 501.076 188.45 501.076C186.056 501.076 184.124 502.686 184.124 505.136C184.124 507.586 186.056 509.196 188.45 509.196C190.844 509.196 192.776 507.586 192.776 505.136ZM193.652 501.258V502.546H196.942V509H198.37V502.546H201.66V501.258H193.652ZM202.96 501.258V509H204.388V507.208H207.51C209.288 507.208 210.66 506.06 210.66 504.254C210.66 502.448 209.288 501.258 207.51 501.258H202.96ZM204.388 502.56H207.454C208.518 502.56 209.246 503.204 209.246 504.254C209.246 505.29 208.518 505.906 207.454 505.906H204.388V502.56ZM212.028 501.258V509H219.168V507.698H213.456V505.682H218.412V504.408H213.456V502.546H218.958V501.258H212.028ZM220.686 501.258V509H222.114V505.626H227.084V509H228.498V501.258H227.084V504.352H222.114V501.258H220.686ZM234.112 502.532H234.994L236.618 506.522H232.446L234.112 502.532ZM233.244 501.258L229.856 509H231.382L231.914 507.782H237.192L237.724 509H239.222L235.932 501.258H233.244ZM116.716 519.258V527H122.008C123.534 527 124.57 525.922 124.57 524.62C124.57 523.696 124.122 523.01 123.366 522.674C123.814 522.366 124.024 521.89 124.024 521.26C124.024 520.042 123.058 519.258 121.658 519.258H116.716ZM118.144 520.546H121.574C122.386 520.546 122.638 520.98 122.638 521.456C122.638 521.904 122.33 522.338 121.784 522.338H118.144V520.546ZM118.144 523.584H122.092C122.736 523.584 123.184 523.976 123.184 524.634C123.184 525.236 122.764 525.712 121.952 525.712H118.144V523.584ZM127.194 523.136C127.194 521.358 128.468 520.308 130.092 520.308C131.73 520.308 133.004 521.358 133.004 523.136C133.004 524.914 131.73 525.964 130.092 525.964C128.468 525.964 127.194 524.914 127.194 523.136ZM134.418 523.136C134.418 520.686 132.486 519.076 130.092 519.076C127.698 519.076 125.766 520.686 125.766 523.136C125.766 525.586 127.698 527.196 130.092 527.196C132.486 527.196 134.418 525.586 134.418 523.136ZM137.773 522.226V523.486H140.797C141.819 523.486 142.183 523.85 142.183 524.494C142.183 525.502 141.091 525.936 139.411 525.936C138.053 525.936 137.003 525.628 135.967 525.012L135.309 526.09C136.541 526.888 137.717 527.196 139.327 527.196C140.713 527.196 141.861 526.958 142.589 526.412C143.247 525.922 143.611 525.306 143.611 524.536C143.611 523.64 143.191 522.982 142.393 522.674C142.855 522.394 143.093 521.96 143.093 521.372C143.093 520.588 142.729 520.042 142.141 519.678C141.441 519.244 140.433 519.076 139.355 519.076C138.011 519.076 136.863 519.342 135.659 520.112L136.261 521.162C137.241 520.56 138.039 520.336 139.369 520.336C140.937 520.336 141.679 520.7 141.679 521.442C141.679 521.974 141.315 522.226 140.755 522.226H137.773ZM144.972 519.258V527H146.344V521.022H146.498L149.424 527H150.698L153.638 521.022H153.778V527H155.192V519.258H153.176L150.138 525.348H150.068L147.044 519.258H144.972ZM158.075 523.136C158.075 521.358 159.349 520.308 160.973 520.308C162.611 520.308 163.885 521.358 163.885 523.136C163.885 524.914 162.611 525.964 160.973 525.964C159.349 525.964 158.075 524.914 158.075 523.136ZM165.299 523.136C165.299 520.686 163.367 519.076 160.973 519.076C158.579 519.076 156.647 520.686 156.647 523.136C156.647 525.586 158.579 527.196 160.973 527.196C163.367 527.196 165.299 525.586 165.299 523.136ZM166.057 519.258L168.241 522.856L165.791 527H167.443L169.417 523.57H171.307V527H172.721V523.57H174.611L176.585 527H178.223L175.787 522.856L177.971 519.258H176.361L174.555 522.31H172.721V519.258H171.307V522.31H169.473L167.667 519.258H166.057ZM179.435 519.258V527H180.863V523.626H185.833V527H187.247V519.258H185.833V522.352H180.863V519.258H179.435ZM190.145 523.136C190.145 521.358 191.419 520.308 193.043 520.308C194.681 520.308 195.955 521.358 195.955 523.136C195.955 524.914 194.681 525.964 193.043 525.964C191.419 525.964 190.145 524.914 190.145 523.136ZM197.369 523.136C197.369 520.686 195.437 519.076 193.043 519.076C190.649 519.076 188.717 520.686 188.717 523.136C188.717 525.586 190.649 527.196 193.043 527.196C195.437 527.196 197.369 525.586 197.369 523.136ZM206.794 521.022C205.996 519.762 204.694 519.076 202.958 519.076C200.536 519.076 198.66 520.616 198.66 523.136C198.66 525.642 200.494 527.196 202.958 527.196C204.722 527.196 205.996 526.496 206.808 525.25L205.688 524.592C205.044 525.446 204.218 525.922 202.93 525.922C201.236 525.922 200.074 524.774 200.074 523.136C200.074 521.442 201.194 520.35 202.93 520.35C204.204 520.35 205.072 520.826 205.688 521.666L206.794 521.022ZM207.751 519.258V520.546H211.041V527H212.469V520.546H215.759V519.258H207.751ZM217.059 519.258V527H221.427C223.205 527 224.563 525.824 224.563 524.032C224.563 522.226 223.205 521.12 221.427 521.12H218.487V519.258H217.059ZM218.487 522.394H221.315C222.463 522.394 223.135 522.94 223.135 524.032C223.135 525.11 222.463 525.698 221.315 525.698H218.487V522.394ZM125.871 537.258L124.555 543.712H123.547V546.554H124.765L124.891 545H131.499L131.625 546.554H132.843V543.712H131.905V537.258H125.871ZM127.019 538.504H130.477V543.712H126.053L127.019 538.504ZM135.18 541.136C135.18 539.358 136.454 538.308 138.078 538.308C139.716 538.308 140.99 539.358 140.99 541.136C140.99 542.914 139.716 543.964 138.078 543.964C136.454 543.964 135.18 542.914 135.18 541.136ZM142.404 541.136C142.404 538.686 140.472 537.076 138.078 537.076C135.684 537.076 133.752 538.686 133.752 541.136C133.752 543.586 135.684 545.196 138.078 545.196C140.472 545.196 142.404 543.586 142.404 541.136ZM151.828 539.022C151.03 537.762 149.728 537.076 147.992 537.076C145.57 537.076 143.694 538.616 143.694 541.136C143.694 543.642 145.528 545.196 147.992 545.196C149.756 545.196 151.03 544.496 151.842 543.25L150.722 542.592C150.078 543.446 149.252 543.922 147.964 543.922C146.27 543.922 145.108 542.774 145.108 541.136C145.108 539.442 146.228 538.35 147.964 538.35C149.238 538.35 150.106 538.826 150.722 539.666L151.828 539.022ZM153.245 537.258V545H154.673V543.208H157.795C159.573 543.208 160.945 542.06 160.945 540.254C160.945 538.448 159.573 537.258 157.795 537.258H153.245ZM154.673 538.56H157.739C158.803 538.56 159.531 539.204 159.531 540.254C159.531 541.29 158.803 541.906 157.739 541.906H154.673V538.56ZM163.573 541.136C163.573 539.358 164.847 538.308 166.471 538.308C168.109 538.308 169.383 539.358 169.383 541.136C169.383 542.914 168.109 543.964 166.471 543.964C164.847 543.964 163.573 542.914 163.573 541.136ZM170.797 541.136C170.797 538.686 168.865 537.076 166.471 537.076C164.077 537.076 162.145 538.686 162.145 541.136C162.145 543.586 164.077 545.196 166.471 545.196C168.865 545.196 170.797 543.586 170.797 541.136ZM172.227 537.258V540.24C172.227 542.046 173.431 543.25 175.209 543.25H178.289V545H179.717V537.258H178.289V541.948H175.489C174.299 541.948 173.655 541.318 173.655 540.086V537.258H172.227ZM181.364 537.258V545H182.792V541.626H187.762V545H189.176V537.258H187.762V540.352H182.792V537.258H181.364ZM192.075 541.136C192.075 539.358 193.349 538.308 194.973 538.308C196.611 538.308 197.885 539.358 197.885 541.136C197.885 542.914 196.611 543.964 194.973 543.964C193.349 543.964 192.075 542.914 192.075 541.136ZM199.299 541.136C199.299 538.686 197.367 537.076 194.973 537.076C192.579 537.076 190.647 538.686 190.647 541.136C190.647 543.586 192.579 545.196 194.973 545.196C197.367 545.196 199.299 543.586 199.299 541.136ZM200.771 537.258V545H202.199V538.546H207.827V537.258H200.771ZM210.101 541.136C210.101 539.358 211.375 538.308 212.999 538.308C214.637 538.308 215.911 539.358 215.911 541.136C215.911 542.914 214.637 543.964 212.999 543.964C211.375 543.964 210.101 542.914 210.101 541.136ZM217.325 541.136C217.325 538.686 215.393 537.076 212.999 537.076C210.605 537.076 208.673 538.686 208.673 541.136C208.673 543.586 210.605 545.196 212.999 545.196C215.393 545.196 217.325 543.586 217.325 541.136ZM118.842 555.258V563H120.27V561.208H123.392C125.17 561.208 126.542 560.06 126.542 558.254C126.542 556.448 125.17 555.258 123.392 555.258H118.842ZM120.27 556.56H123.336C124.4 556.56 125.128 557.204 125.128 558.254C125.128 559.29 124.4 559.906 123.336 559.906H120.27V556.56ZM131.325 556.532H132.207L133.831 560.522H129.659L131.325 556.532ZM130.457 555.258L127.069 563H128.595L129.127 561.782H134.405L134.937 563H136.435L133.145 555.258H130.457ZM145.312 557.022C144.514 555.762 143.212 555.076 141.476 555.076C139.054 555.076 137.178 556.616 137.178 559.136C137.178 561.642 139.012 563.196 141.476 563.196C143.24 563.196 144.514 562.496 145.326 561.25L144.206 560.592C143.562 561.446 142.736 561.922 141.448 561.922C139.754 561.922 138.592 560.774 138.592 559.136C138.592 557.442 139.712 556.35 141.448 556.35C142.722 556.35 143.59 556.826 144.206 557.666L145.312 557.022ZM146.27 555.258V556.546H149.56V563H150.988V556.546H154.278V555.258H146.27ZM156.564 559.136C156.564 557.358 157.838 556.308 159.462 556.308C161.1 556.308 162.374 557.358 162.374 559.136C162.374 560.914 161.1 561.964 159.462 561.964C157.838 561.964 156.564 560.914 156.564 559.136ZM163.788 559.136C163.788 556.686 161.856 555.076 159.462 555.076C157.068 555.076 155.136 556.686 155.136 559.136C155.136 561.586 157.068 563.196 159.462 563.196C161.856 563.196 163.788 561.586 163.788 559.136ZM165.261 555.258V563H166.689V561.208H169.811C171.589 561.208 172.961 560.06 172.961 558.254C172.961 556.448 171.589 555.258 169.811 555.258H165.261ZM166.689 556.56H169.755C170.819 556.56 171.547 557.204 171.547 558.254C171.547 559.29 170.819 559.906 169.755 559.906H166.689V556.56ZM173.614 555.258L175.798 558.856L173.348 563H175L176.974 559.57H178.864V563H180.278V559.57H182.168L184.142 563H185.78L183.344 558.856L185.528 555.258H183.918L182.112 558.31H180.278V555.258H178.864V558.31H177.03L175.224 555.258H173.614ZM186.992 555.258V563H194.132V561.698H188.42V559.682H193.376V558.408H188.42V556.546H193.922V555.258H186.992ZM195.649 555.258V563H197.077V559.626H202.047V563H203.461V555.258H202.047V558.352H197.077V555.258H195.649ZM205.1 555.258V563H206.528L211.68 557.176V563H213.094V555.258H211.68L206.514 561.11V555.258H205.1ZM222.148 555.258H217.584C215.792 555.258 214.448 556.462 214.448 558.254C214.448 559.444 215.008 560.34 216.002 560.844L214.784 563H216.352L217.346 561.18H220.72V563H222.148V555.258ZM220.72 556.56V559.878H217.654C216.59 559.878 215.876 559.304 215.876 558.254C215.876 557.218 216.59 556.56 217.654 556.56H220.72Z" fill="black"/>
<path d="M269.113 220.402C268.479 220.349 268.201 220.327 267.923 220.3C267.719 220.28 267.514 220.261 266.805 220.196C267.699 220.845 268.186 221.201 268.838 221.676C268.396 221.853 268.119 221.963 267.844 222.075C269.024 224.324 267.154 223.466 266.274 223.621C264.874 223.868 263.481 224.133 262.08 224.37C249.366 226.535 237.478 231.074 226 236.843C207.574 246.105 192.123 259.078 178.728 274.637C177.096 276.532 175.458 278.419 173.86 280.342C173.227 281.105 172.699 281.956 171.822 283.189C172.604 282.872 172.941 282.822 173.166 282.637C179.021 277.847 185.945 275.387 193.103 273.443C194.422 273.085 195.739 272.691 197.078 272.425C198.274 272.187 198.771 272.236 198.785 273.996C198.806 277.022 197.085 277.731 194.833 278.604C189.02 280.852 183.183 283.087 177.565 285.769C174.714 287.128 172.324 289.382 169.068 290.084C167.463 290.431 166.664 290.239 166.479 288.608C166.378 287.729 166.302 286.794 166.482 285.943C168.202 277.913 167.555 269.713 168.343 261.618C168.574 259.237 169.11 257.036 171.009 255.399C171.367 255.092 171.82 254.562 172.143 254.617C172.803 254.734 173.924 255.154 173.937 255.49C173.987 256.593 173.635 257.716 173.415 258.827C173.168 260.08 172.674 261.332 172.68 262.581C172.698 266.424 172.902 270.267 173.046 274.49C174.236 273.075 175.232 271.941 176.175 270.76C192.139 250.76 212.244 236.412 235.903 226.918C245.438 223.093 255.189 220.08 265.486 219.17C267.491 218.983 267.783 219.041 269.113 220.402Z" fill="black"/>
<circle cx="262.5" cy="401.5" r="78" fill="white" stroke="black"/>
<path d="M221.223 368.422V369.668H225.633V368.422H221.223ZM231.447 365.258V373H232.875L238.027 367.176V373H239.441V365.258H238.027L232.861 371.11V365.258H231.447ZM241.061 365.258V373H242.489V369.626H247.459V373H248.873V365.258H247.459V368.352H242.489V365.258H241.061ZM250.512 365.258V373H255.804C257.33 373 258.366 371.922 258.366 370.62C258.366 369.696 257.918 369.01 257.162 368.674C257.61 368.366 257.82 367.89 257.82 367.26C257.82 366.042 256.854 365.258 255.454 365.258H250.512ZM251.94 366.546H255.37C256.182 366.546 256.434 366.98 256.434 367.456C256.434 367.904 256.126 368.338 255.58 368.338H251.94V366.546ZM251.94 369.584H255.888C256.532 369.584 256.98 369.976 256.98 370.634C256.98 371.236 256.56 371.712 255.748 371.712H251.94V369.584ZM259.73 365.258V373H266.87V371.698H261.158V369.682H266.114V368.408H261.158V366.546H266.66V365.258H259.73ZM276.203 367.022C275.405 365.762 274.103 365.076 272.367 365.076C269.945 365.076 268.069 366.616 268.069 369.136C268.069 371.642 269.903 373.196 272.367 373.196C274.131 373.196 275.405 372.496 276.217 371.25L275.097 370.592C274.453 371.446 273.627 371.922 272.339 371.922C270.645 371.922 269.483 370.774 269.483 369.136C269.483 367.442 270.603 366.35 272.339 366.35C273.613 366.35 274.481 366.826 275.097 367.666L276.203 367.022ZM277.161 365.258V366.546H280.451V373H281.879V366.546H285.169V365.258H277.161ZM287.455 369.136C287.455 367.358 288.729 366.308 290.353 366.308C291.991 366.308 293.265 367.358 293.265 369.136C293.265 370.914 291.991 371.964 290.353 371.964C288.729 371.964 287.455 370.914 287.455 369.136ZM294.679 369.136C294.679 366.686 292.747 365.076 290.353 365.076C287.959 365.076 286.027 366.686 286.027 369.136C286.027 371.586 287.959 373.196 290.353 373.196C292.747 373.196 294.679 371.586 294.679 369.136ZM296.151 365.258V373H297.579V371.208H300.701C302.479 371.208 303.851 370.06 303.851 368.254C303.851 366.448 302.479 365.258 300.701 365.258H296.151ZM297.579 366.56H300.645C301.709 366.56 302.437 367.204 302.437 368.254C302.437 369.29 301.709 369.906 300.645 369.906H297.579V366.56ZM202.806 383.258V391H204.178V385.022H204.332L207.258 391H208.532L211.472 385.022H211.612V391H213.026V383.258H211.01L207.972 389.348H207.902L204.878 383.258H202.806ZM215.909 387.136C215.909 385.358 217.183 384.308 218.807 384.308C220.445 384.308 221.719 385.358 221.719 387.136C221.719 388.914 220.445 389.964 218.807 389.964C217.183 389.964 215.909 388.914 215.909 387.136ZM223.133 387.136C223.133 384.686 221.201 383.076 218.807 383.076C216.413 383.076 214.481 384.686 214.481 387.136C214.481 389.586 216.413 391.196 218.807 391.196C221.201 391.196 223.133 389.586 223.133 387.136ZM223.891 383.258L226.075 386.856L223.625 391H225.277L227.251 387.57H229.141V391H230.555V387.57H232.445L234.419 391H236.057L233.621 386.856L235.805 383.258H234.195L232.389 386.31H230.555V383.258H229.141V386.31H227.307L225.501 383.258H223.891ZM237.269 383.258V391H244.409V389.698H238.697V387.682H243.653V386.408H238.697V384.546H244.199V383.258H237.269ZM245.605 383.258V384.546H248.895V391H250.323V384.546H253.613V383.258H245.605ZM259.291 383.258V391H264.583C266.109 391 267.145 389.922 267.145 388.62C267.145 387.696 266.697 387.01 265.941 386.674C266.389 386.366 266.599 385.89 266.599 385.26C266.599 384.042 265.633 383.258 264.233 383.258H259.291ZM260.719 384.546H264.149C264.961 384.546 265.213 384.98 265.213 385.456C265.213 385.904 264.905 386.338 264.359 386.338H260.719V384.546ZM260.719 387.584H264.667C265.311 387.584 265.759 387.976 265.759 388.634C265.759 389.236 265.339 389.712 264.527 389.712H260.719V387.584ZM275.029 383.258L273.965 388.9C273.853 389.446 273.503 389.67 272.971 389.67H272.285V391H273.069C274.273 391 275.113 390.398 275.351 389.082L276.205 384.546H279.663V391H281.091V383.258H275.029ZM282.721 383.258V391H284.121V387.57H285.549C285.745 389.95 287.537 391.196 289.735 391.196C292.059 391.196 293.949 389.782 293.949 387.136C293.949 384.49 292.059 383.076 289.735 383.076C287.663 383.076 285.955 384.182 285.605 386.282H284.121V383.258H282.721ZM286.935 387.136C286.935 385.414 287.887 384.308 289.735 384.308C291.583 384.308 292.535 385.414 292.535 387.136C292.535 388.858 291.583 389.964 289.735 389.964C287.887 389.964 286.935 388.858 286.935 387.136ZM295.329 383.258V391H300.243C301.783 391 302.917 389.852 302.917 388.424C302.917 386.954 301.783 385.932 300.243 385.932H296.743V384.546H301.937V383.258H295.329ZM296.743 387.192H300.103C301.097 387.192 301.503 387.71 301.503 388.424C301.503 389.152 301.111 389.712 300.117 389.712H296.743V387.192ZM305.507 387.136C305.507 385.358 306.781 384.308 308.405 384.308C310.043 384.308 311.317 385.358 311.317 387.136C311.317 388.914 310.043 389.964 308.405 389.964C306.781 389.964 305.507 388.914 305.507 387.136ZM312.731 387.136C312.731 384.686 310.799 383.076 308.405 383.076C306.011 383.076 304.079 384.686 304.079 387.136C304.079 389.586 306.011 391.196 308.405 391.196C310.799 391.196 312.731 389.586 312.731 387.136ZM314.203 383.258V391H315.631L320.783 385.176V391H322.197V383.258H320.783L315.617 389.11V383.258H314.203ZM319.635 380.738C319.215 381.172 318.795 381.382 318.137 381.382C317.479 381.382 317.045 381.172 316.625 380.738L315.897 381.48C316.625 382.25 317.325 382.502 318.137 382.502C318.949 382.502 319.649 382.25 320.363 381.48L319.635 380.738ZM206.335 401.258V409H207.707V403.022H207.861L210.787 409H212.061L215.001 403.022H215.141V409H216.555V401.258H214.539L211.501 407.348H211.431L208.407 401.258H206.335ZM219.438 405.136C219.438 403.358 220.712 402.308 222.336 402.308C223.974 402.308 225.248 403.358 225.248 405.136C225.248 406.914 223.974 407.964 222.336 407.964C220.712 407.964 219.438 406.914 219.438 405.136ZM226.662 405.136C226.662 402.686 224.73 401.076 222.336 401.076C219.942 401.076 218.01 402.686 218.01 405.136C218.01 407.586 219.942 409.196 222.336 409.196C224.73 409.196 226.662 407.586 226.662 405.136ZM228.135 401.258V409H229.507V403.022H229.661L232.587 409H233.861L236.801 403.022H236.941V409H238.355V401.258H236.339L233.301 407.348H233.231L230.207 401.258H228.135ZM239.978 401.258V409H247.118V407.698H241.406V405.682H246.362V404.408H241.406V402.546H246.908V401.258H239.978ZM248.636 401.258V409H250.064V405.626H255.034V409H256.448V401.258H255.034V404.352H250.064V401.258H248.636ZM257.764 401.258V402.546H261.054V409H262.482V402.546H265.772V401.258H257.764ZM271.45 401.258V409H276.742C278.268 409 279.304 407.922 279.304 406.62C279.304 405.696 278.856 405.01 278.1 404.674C278.548 404.366 278.758 403.89 278.758 403.26C278.758 402.042 277.792 401.258 276.392 401.258H271.45ZM272.878 402.546H276.308C277.12 402.546 277.372 402.98 277.372 403.456C277.372 403.904 277.064 404.338 276.518 404.338H272.878V402.546ZM272.878 405.584H276.826C277.47 405.584 277.918 405.976 277.918 406.634C277.918 407.236 277.498 407.712 276.686 407.712H272.878V405.584ZM289.026 401.258V409H290.454V401.258H289.026ZM280.668 401.258V409H285.036C286.814 409 288.172 407.824 288.172 406.032C288.172 404.226 286.814 403.12 285.036 403.12H282.096V401.258H280.668ZM282.096 404.394H284.924C286.072 404.394 286.744 404.94 286.744 406.032C286.744 407.11 286.072 407.698 284.924 407.698H282.096V404.394ZM292.074 401.258V409H293.502L298.654 403.176V409H300.068V401.258H298.654L293.488 407.11V401.258H292.074ZM297.506 398.738C297.086 399.172 296.666 399.382 296.008 399.382C295.35 399.382 294.916 399.172 294.496 398.738L293.768 399.48C294.496 400.25 295.196 400.502 296.008 400.502C296.82 400.502 297.52 400.25 298.234 399.48L297.506 398.738ZM301.366 401.258V402.546H304.656V409H306.084V402.546H309.374V401.258H301.366ZM310.674 401.258V409H312.102L317.254 403.176V409H318.668V401.258H317.254L312.088 407.11V401.258H310.674ZM213.542 419.258V427H214.97L220.122 421.176V427H221.536V419.258H220.122L214.956 425.11V419.258H213.542ZM225.313 422.226V423.486H228.337C229.359 423.486 229.723 423.85 229.723 424.494C229.723 425.502 228.631 425.936 226.951 425.936C225.593 425.936 224.543 425.628 223.507 425.012L222.849 426.09C224.081 426.888 225.257 427.196 226.867 427.196C228.253 427.196 229.401 426.958 230.129 426.412C230.787 425.922 231.151 425.306 231.151 424.536C231.151 423.64 230.731 422.982 229.933 422.674C230.395 422.394 230.633 421.96 230.633 421.372C230.633 420.588 230.269 420.042 229.681 419.678C228.981 419.244 227.973 419.076 226.895 419.076C225.551 419.076 224.403 419.342 223.199 420.112L223.801 421.162C224.781 420.56 225.579 420.336 226.909 420.336C228.477 420.336 229.219 420.7 229.219 421.442C229.219 421.974 228.855 422.226 228.295 422.226H225.313ZM238.934 419.258L237.618 425.712H236.61V428.554H237.828L237.954 427H244.562L244.688 428.554H245.906V425.712H244.968V419.258H238.934ZM240.082 420.504H243.54V425.712H239.116L240.082 420.504ZM248.243 423.136C248.243 421.358 249.517 420.308 251.141 420.308C252.779 420.308 254.053 421.358 254.053 423.136C254.053 424.914 252.779 425.964 251.141 425.964C249.517 425.964 248.243 424.914 248.243 423.136ZM255.467 423.136C255.467 420.686 253.535 419.076 251.141 419.076C248.747 419.076 246.815 420.686 246.815 423.136C246.815 425.586 248.747 427.196 251.141 427.196C253.535 427.196 255.467 425.586 255.467 423.136ZM256.939 419.258V427H258.367V420.546H263.995V419.258H256.939ZM266.269 423.136C266.269 421.358 267.543 420.308 269.167 420.308C270.805 420.308 272.079 421.358 272.079 423.136C272.079 424.914 270.805 425.964 269.167 425.964C267.543 425.964 266.269 424.914 266.269 423.136ZM273.493 423.136C273.493 420.686 271.561 419.076 269.167 419.076C266.773 419.076 264.841 420.686 264.841 423.136C264.841 425.586 266.773 427.196 269.167 427.196C271.561 427.196 273.493 425.586 273.493 423.136ZM274.965 419.258V427H280.257C281.783 427 282.819 425.922 282.819 424.62C282.819 423.696 282.371 423.01 281.615 422.674C282.063 422.366 282.273 421.89 282.273 421.26C282.273 420.042 281.307 419.258 279.907 419.258H274.965ZM276.393 420.546H279.823C280.635 420.546 280.887 420.98 280.887 421.456C280.887 421.904 280.579 422.338 280.033 422.338H276.393V420.546ZM276.393 423.584H280.341C280.985 423.584 281.433 423.976 281.433 424.634C281.433 425.236 281.013 425.712 280.201 425.712H276.393V423.584ZM285.443 423.136C285.443 421.358 286.717 420.308 288.341 420.308C289.979 420.308 291.253 421.358 291.253 423.136C291.253 424.914 289.979 425.964 288.341 425.964C286.717 425.964 285.443 424.914 285.443 423.136ZM292.667 423.136C292.667 420.686 290.735 419.076 288.341 419.076C285.947 419.076 284.015 420.686 284.015 423.136C284.015 425.586 285.947 427.196 288.341 427.196C290.735 427.196 292.667 425.586 292.667 423.136ZM294.14 419.258V427H295.568V425.208H298.69C300.468 425.208 301.84 424.06 301.84 422.254C301.84 420.448 300.468 419.258 298.69 419.258H294.14ZM295.568 420.56H298.634C299.698 420.56 300.426 421.204 300.426 422.254C300.426 423.29 299.698 423.906 298.634 423.906H295.568V420.56ZM306.623 420.532H307.505L309.129 424.522H304.957L306.623 420.532ZM305.755 419.258L302.367 427H303.893L304.425 425.782H309.703L310.235 427H311.733L308.443 419.258H305.755ZM237.597 438.532H238.479L240.103 442.522H235.931L237.597 438.532ZM236.729 437.258L233.341 445H234.867L235.399 443.782H240.677L241.209 445H242.707L239.417 437.258H236.729ZM244.055 437.258V445H245.483V443.208H248.605C250.383 443.208 251.755 442.06 251.755 440.254C251.755 438.448 250.383 437.258 248.605 437.258H244.055ZM245.483 438.56H248.549C249.613 438.56 250.341 439.204 250.341 440.254C250.341 441.29 249.613 441.906 248.549 441.906H245.483V438.56ZM253.123 437.258V445H260.263V443.698H254.551V441.682H259.507V440.408H254.551V438.546H260.053V437.258H253.123ZM261.781 437.258V445H263.209V441.626H268.179V445H269.593V437.258H268.179V440.352H263.209V437.258H261.781ZM273.275 437.258L271.959 443.712H270.951V446.554H272.169L272.295 445H278.903L279.029 446.554H280.247V443.712H279.309V437.258H273.275ZM274.423 438.504H277.881V443.712H273.457L274.423 438.504ZM289.956 437.258V445H291.384V437.258H289.956ZM281.598 437.258V445H285.966C287.744 445 289.102 443.824 289.102 442.032C289.102 440.226 287.744 439.12 285.966 439.12H283.026V437.258H281.598ZM283.026 440.394H285.854C287.002 440.394 287.674 440.94 287.674 442.032C287.674 443.11 287.002 443.698 285.854 443.698H283.026V440.394Z" fill="black"/>
<path d="M183.837 430.446C183.897 420.558 183.783 411.477 184.019 402.398C184.485 384.819 185.845 367.291 188.874 349.904C189.441 346.636 190.664 343.479 191.377 340.227C191.992 337.371 192.077 334.423 192.758 331.596C193.729 327.662 195.065 323.828 196.228 319.942C196.849 317.863 197.493 315.8 198.007 313.699C200.609 303.008 205.544 293.226 211.16 283.828C222.412 265.031 236.142 248.135 253.866 234.585C261.806 228.513 270.315 223.263 279.783 219.69C281.931 218.873 284.23 217.851 286.799 218.94C285.387 221.829 283.314 223.092 280.481 224.003C270.225 227.289 261.406 233.149 253.339 239.941C228.813 260.592 211.627 285.766 202.629 316.241C195.43 340.589 192.503 365.383 191.662 390.468C191.159 405.478 191.42 420.501 191.33 435.523C191.323 436.222 191.38 436.932 191.452 438.356C193.823 433.192 195.62 428.542 198.029 424.229C199.981 420.751 202.535 417.551 205.181 414.536C205.959 413.648 208.009 413.846 209.457 413.524C209.614 414.835 210.303 416.377 209.844 417.451C207.603 422.773 204.966 427.942 202.638 433.239C201.009 436.923 199.756 440.764 198.15 444.464C196.871 447.411 195.24 450.217 193.875 453.139C193.298 454.372 192.885 455.718 192.718 457.063C192.307 460.524 189.4 461.727 186.888 463.203C186.306 463.54 185.189 463.007 183.986 462.829C185.553 459.514 184.89 456.771 183.512 453.808C179.93 446.024 176.963 437.977 173.382 430.192C171.565 426.205 170.193 421.804 166.213 419.035C165.794 418.745 165.426 417.649 165.617 417.438C167.278 415.545 168.783 413.218 170.906 412.126C173.146 410.995 174.862 413.143 176.007 414.948C177.515 417.331 178.859 419.841 180.103 422.367C181.385 424.748 182.423 427.269 183.837 430.446Z" fill="black"/>
<path d="M262.239 338.363C261.265 333.11 260.282 328.302 259.481 323.461C257.933 314.089 256.853 304.66 256.648 295.149C256.609 293.362 256.919 291.572 256.957 289.779C256.984 288.206 256.728 286.633 256.792 285.069C256.893 282.891 257.193 280.731 257.399 278.56C257.508 277.398 257.631 276.243 257.683 275.08C257.939 269.163 259.492 263.509 261.437 257.996C265.336 246.967 270.708 236.715 278.483 227.864C281.965 223.898 285.826 220.315 290.352 217.533C291.378 216.898 292.461 216.14 293.899 216.477C293.463 218.143 292.521 219.008 291.151 219.756C286.189 222.461 282.23 226.396 278.755 230.756C268.19 244.012 261.875 258.981 260.328 275.996C259.087 289.592 260.097 303.024 262.214 316.414C263.481 324.427 265.144 332.376 266.625 340.356C266.693 340.728 266.794 341.099 266.977 341.848C267.675 338.885 268.131 336.249 268.936 333.735C269.59 331.706 270.584 329.769 271.644 327.921C271.955 327.377 273.034 327.29 273.749 326.984C273.963 327.665 274.476 328.418 274.348 329.031C273.732 332.066 272.896 335.056 272.233 338.085C271.766 340.193 271.51 342.348 271.057 344.462C270.696 346.146 270.139 347.788 269.731 349.466C269.559 350.175 269.482 350.928 269.533 351.657C269.673 353.532 268.294 354.443 267.147 355.461C266.88 355.694 266.249 355.517 265.61 355.534C266.082 353.629 265.461 352.235 264.447 350.792C261.806 346.996 259.455 343.004 256.814 339.208C255.47 337.262 254.314 335.055 251.977 333.958C251.731 333.843 251.43 333.296 251.507 333.166C252.172 332.006 252.713 330.63 253.698 329.852C254.74 329.042 255.844 330.021 256.619 330.872C257.64 331.995 258.59 333.201 259.489 334.426C260.393 335.569 261.186 336.81 262.239 338.363Z" fill="black"/>
</svg>
